<svg width="64" height="65" viewBox="0 0 64 65" fill="none" xmlns="http://www.w3.org/2000/svg">
<path d="M23.3797 56.7354C26.4662 56.1599 29.2189 56.824 31.5857 58.9444C32.5185 59.78 33.478 60.5861 34.531 61.2725C36.041 62.2566 37.688 62.8612 39.4764 63.083C39.6005 63.0983 39.75 63.0594 39.8602 63.2745C39.1417 63.4621 38.4436 63.6647 37.7361 63.8243C36.332 64.1409 34.9045 64.312 33.4744 64.4659C32.7611 64.5426 32.1383 64.2741 31.5115 64.0225C30.1053 63.4581 28.8828 62.5959 27.8309 61.5235C26.3151 59.9783 24.4682 59.6309 22.4295 59.8877C20.9602 60.0729 19.5292 60.447 18.1062 60.8457C17.8306 60.9229 17.5946 60.8978 17.3426 60.7627C16.5206 60.3223 15.6938 59.8908 14.909 59.3848C14.8321 59.3353 14.7416 59.3038 14.6736 59.1407C15.8179 58.818 16.9483 58.4989 18.1092 58.169C19.879 57.6576 21.5953 57.0682 23.3797 56.7354ZM28.2644 49.9346C31.7874 49.2615 34.7948 50.1601 37.3221 52.71C38.2123 53.6083 39.0729 54.5399 40.0779 55.3204C41.7029 56.5822 43.5471 57.2746 45.5828 57.4776C47.2312 57.6419 48.8816 57.6151 50.532 57.5C50.7103 57.4876 50.9002 57.4394 51.0711 57.5489C51.0987 57.7121 50.9672 57.7591 50.8807 57.8282C49.5625 58.881 48.1177 59.7311 46.6121 60.4825C46.5191 60.5289 46.4114 60.5721 46.3103 60.5733C44.2691 60.5968 42.2328 60.5682 40.2312 59.92C38.5565 59.3939 37.1609 58.4494 35.8387 57.376C34.7425 56.4861 33.7017 55.5272 32.5379 54.7217C30.8753 53.5711 29.0434 53.0916 27.0203 53.2452C24.7678 53.4162 22.6198 54.0319 20.4861 54.7032C17.8824 55.5223 15.2922 56.3849 12.7039 57.252C12.2907 57.3904 11.9869 57.3827 11.6619 57.0664C11.2811 56.6957 10.8477 56.378 10.4412 56.0332C10.3431 55.9501 10.2173 55.8839 10.1932 55.7325C10.2473 55.6017 10.3741 55.59 10.4852 55.5577C14.1195 54.4986 17.6772 53.2112 21.2469 51.958C23.5461 51.1509 25.8596 50.3941 28.2644 49.9346ZM35.3621 43.6006C37.7507 43.4445 39.847 44.164 41.6336 45.7852C42.5348 46.603 43.3268 47.5216 44.1512 48.4092C46.2074 50.623 48.7723 51.7185 51.7449 51.9717C53.1004 52.0872 54.4538 52.1613 55.8133 52.0508C56.088 52.0285 56.3705 52.0027 56.6365 52.0723C56.6968 52.1715 56.6472 52.2369 56.5965 52.2998C55.9354 53.1196 55.2581 53.925 54.5135 54.6719C54.3344 54.8515 54.1446 54.9526 53.8836 54.961C52.4721 55.006 51.0602 55.1044 49.6482 55.0352C47.2651 54.9184 44.9599 54.5132 42.9627 53.0713C41.9757 52.3588 41.0981 51.5221 40.2342 50.67C39.3504 49.7982 38.4318 48.9688 37.3885 48.2862C35.6235 47.1315 33.6742 46.8093 31.6131 47.002C28.9719 47.2489 26.5095 48.1733 24.0291 49.0254C20.1119 50.3712 16.2252 51.8126 12.2088 52.8516C10.9707 53.1719 9.72379 53.4543 8.46464 53.6807C8.21739 53.7251 8.03644 53.6771 7.87187 53.4727C7.44599 52.9435 7.00028 52.43 6.56621 51.9073C6.49189 51.8178 6.39861 51.7304 6.41581 51.5147C10.9445 51.1725 15.2786 49.9085 19.6004 48.458C22.983 47.2601 26.3314 46.0598 29.6902 44.8897C31.53 44.2488 33.4076 43.7284 35.3621 43.6006ZM40.4305 37.3399C43.1452 37.1719 45.2725 38.3219 47.0408 40.2901C48.0375 41.3995 48.9131 42.6175 50.0223 43.626C51.7053 45.1562 53.7171 45.9084 55.9539 46.1202C57.2701 46.2447 58.5876 46.2541 59.9051 46.1309C60.0595 46.1165 60.2214 46.0925 60.3572 46.1651C60.4185 46.2986 60.3562 46.3961 60.3113 46.4883C59.903 47.3272 59.4769 48.1567 58.9773 48.9463C58.8942 49.0777 58.7971 49.1742 58.6336 49.1866C56.083 49.3787 53.551 49.3363 51.0672 48.6211C49.1104 48.0577 47.5444 46.8999 46.158 45.4522C45.1178 44.3659 44.1425 43.2132 42.9236 42.3077C41.2574 41.0698 39.3921 40.5726 37.3299 40.6963C34.9122 40.8415 32.668 41.6458 30.4305 42.4698C27.2068 43.6568 24.0359 44.9867 20.7693 46.0577C17.462 47.142 14.1095 48.0523 10.6443 48.4649C8.6873 48.6979 6.72202 48.8604 4.74589 48.7432C4.56634 48.7326 4.40166 48.72 4.30449 48.5372C3.93031 47.831 3.55148 47.1267 3.17851 46.42C3.14998 46.3659 3.14976 46.2967 3.13261 46.2188C3.38779 46.0824 3.6423 46.1441 3.88652 46.1573C6.45858 46.2953 9.03258 46.2796 11.5926 46.0176C14.9702 45.6719 18.2433 44.8277 21.4568 43.7442C25.2967 42.4495 29.0389 40.8987 32.8074 39.417C34.0594 38.9248 35.327 38.4729 36.6424 38.0625C37.9001 37.6816 39.1492 37.4192 40.4305 37.3399ZM45.2195 31.0137C46.3809 31.0104 47.492 31.2631 48.5584 31.8096C50.0177 32.5606 51.0808 33.7122 52.0799 34.9375C53.0473 36.1241 53.967 37.3562 55.2527 38.2403C56.6523 39.2026 58.2136 39.6799 59.8904 39.8067C60.6733 39.8659 61.459 39.9252 62.2439 39.8174C62.5564 39.7745 62.6914 39.8631 62.5965 40.2129C62.3698 41.0484 62.1557 41.8873 61.865 42.7041C61.7974 42.8942 61.7179 43.0277 61.4861 43.0459C59.3185 43.2159 57.1779 43.1416 55.0906 42.4395C53.2268 41.8125 51.8126 40.6006 50.6062 39.0948C49.6981 37.9612 48.774 36.8439 47.5916 35.9678C45.4721 34.3974 43.118 34.0267 40.5769 34.5245C38.5891 34.9139 36.7312 35.686 34.8719 36.4522C31.6457 37.7817 28.4678 39.2308 25.1687 40.3799C22.0012 41.4832 18.7612 42.2581 15.4148 42.583C12.403 42.8755 9.38435 42.994 6.36113 43.0645C5.00506 43.0961 3.64315 43.0846 2.29472 43.2803C1.99978 43.3231 1.81921 43.2439 1.73515 42.9297C1.58726 42.377 1.41564 41.8297 1.23613 41.2862C1.159 41.0524 1.23576 40.9435 1.45097 40.8672C2.86606 40.366 4.32666 40.0755 5.82011 39.9727C8.17409 39.8106 10.5334 39.8273 12.8914 39.8116C16.5394 39.7872 20.1508 39.4489 23.6912 38.5254C26.4435 37.8075 29.0893 36.789 31.7059 35.6856C34.504 34.5056 37.2418 33.1823 40.0935 32.1299C41.7485 31.5192 43.4342 31.0189 45.2195 31.0137ZM49.3367 24.7295C51.0633 24.6924 52.5646 25.3019 53.8934 26.3868C55.0901 27.3638 56.0396 28.5701 57.0428 29.7276C57.5496 30.3124 58.0864 30.8665 58.6951 31.3487C59.9959 32.3789 61.4793 32.896 63.1326 32.9122C63.4553 32.9153 63.5405 33.0288 63.5418 33.334C63.5458 34.2687 63.4562 35.1957 63.3699 36.1241C63.3458 36.3838 63.1993 36.4635 62.9734 36.4717C60.4488 36.564 58.1686 35.9583 56.3084 34.1455C55.5227 33.3799 54.8734 32.4982 54.1834 31.6514C53.33 30.6042 52.4071 29.6337 51.2664 28.8848C49.321 27.6077 47.2216 27.4404 45.0144 27.9639C43.0069 28.4401 41.123 29.2526 39.2498 30.0899C35.9666 31.5574 32.7095 33.0873 29.3211 34.3047C26.3394 35.376 23.2757 36.0853 20.1189 36.4258C16.5816 36.8074 13.0385 36.6251 9.49687 36.6543C7.67225 36.6694 5.84611 36.7086 4.05253 37.1182C2.99552 37.3596 1.98497 37.7284 1.00273 38.1817C0.872703 38.2417 0.752691 38.3404 0.546674 38.3174C0.372947 37.7347 0.319253 37.1163 0.254682 36.501C0.240377 36.3638 0.353101 36.2913 0.45683 36.2266C2.41316 35.0063 4.50129 34.1638 6.81035 33.8731C9.75993 33.5018 12.7178 33.681 15.6727 33.6631C17.7381 33.6506 19.8066 33.7228 21.867 33.5508C24.5413 33.3276 27.1645 32.8276 29.7254 32.0059C32.1406 31.231 34.4572 30.2125 36.8094 29.1993C39.5288 27.9954 42.178 26.703 44.948 25.6934C46.368 25.1759 47.8143 24.7623 49.3367 24.7295ZM52.1961 18.4551C53.9588 18.2845 55.5013 18.8353 56.8836 19.9131C58.1338 20.888 59.1558 22.0841 60.1814 23.2764C60.9311 24.1478 61.7081 24.9883 62.6785 25.6221C62.8413 25.7285 62.9021 25.8776 62.9402 26.0489C63.1719 27.0901 63.3083 28.1452 63.4012 29.2071C63.4268 29.5003 63.2856 29.5099 63.0633 29.4659C61.8405 29.2239 60.7918 28.6429 59.868 27.8233C58.8337 26.9055 58.0604 25.761 57.1834 24.7071C56.3247 23.6751 55.383 22.743 54.198 22.084C52.3522 21.0576 50.4258 21.09 48.4617 21.6504C46.6467 22.1683 44.9528 22.982 43.2605 23.7979C41.3042 24.7411 39.3499 25.6894 37.367 26.6465C35.1386 27.6794 32.9173 28.6518 30.5857 29.3399C28.1749 30.0513 25.713 30.4673 23.198 30.5782C19.4399 30.7438 15.681 30.6173 11.9227 30.6231C10.018 30.626 8.11429 30.592 6.22636 30.9434C4.19943 31.3207 2.36646 32.1327 0.677534 33.2959C0.494407 33.4221 0.335832 33.5927 0.0398382 33.6612C-0.0211579 33.1455 0.0312597 32.6429 0.00272887 32.1455C-0.0328564 31.5223 0.282664 31.1742 0.76933 30.836C2.86021 29.3829 5.12415 28.376 7.65507 28.003C8.92286 27.8161 10.1989 27.7292 11.4783 27.7276C14.211 27.7242 16.9448 27.7076 19.6766 27.7627C21.7697 27.805 23.8611 27.8168 25.951 27.7168C28.4135 27.599 30.8058 27.0965 33.1414 26.3067C35.6843 25.4468 38.1224 24.3421 40.5408 23.1885C43.1622 21.9381 45.7445 20.6032 48.4383 19.5088C49.6499 19.0166 50.8832 18.5823 52.1961 18.4551ZM53.5535 13.125C54.6938 12.8647 55.843 12.7995 57.0027 12.9952C57.1705 13.0235 57.3054 13.0735 57.409 13.2129C58.6598 14.8973 59.7669 16.6678 60.6307 18.584C60.6677 18.6663 60.687 18.7568 60.7234 18.8702C60.5356 18.9028 60.4724 18.7652 60.3885 18.6836C59.5362 17.8571 58.6613 17.0571 57.6805 16.3819C55.6889 15.0107 53.5716 14.9324 51.3562 15.7461C49.7122 16.35 48.1791 17.1854 46.6228 17.9727C43.2714 19.668 39.9418 21.4086 36.4266 22.7559C33.5599 23.8547 30.6146 24.5686 27.5379 24.7461C24.4211 24.926 21.3055 24.8921 18.1492 24.8194C16.0844 24.8178 14.0581 24.7866 12.033 24.8243C10.2471 24.8574 8.47132 25.0264 6.73613 25.502C4.586 26.0914 2.67473 27.1561 0.848432 28.3995C0.686036 28.51 0.545604 28.6624 0.323041 28.709C0.137613 28.488 0.330176 28.2531 0.30351 28.0303C0.295772 27.9665 0.328836 27.8977 0.326948 27.8321C0.294568 26.7021 0.924717 26.07 1.84257 25.4971C4.40661 23.8968 7.12508 22.7319 10.1141 22.2383C11.7734 21.9643 13.4495 21.8909 15.1287 21.8916C17.2212 21.8925 19.3148 21.8686 21.406 21.9229C23.3651 21.9738 25.3234 21.9684 27.282 21.9639C31.3443 21.9547 35.2261 21.0846 38.9881 19.5723C42.6153 18.1141 46.1042 16.365 49.6131 14.6553C50.8823 14.0369 52.166 13.4418 53.5535 13.125ZM53.1375 9.50688C53.7379 9.2682 54.188 9.33296 54.5935 9.81645C54.8026 10.0656 55.0934 10.2488 55.2342 10.587C55.1557 10.6205 55.0995 10.6562 55.0389 10.669C53.0716 11.0844 51.3126 12.0109 49.5389 12.9034C47.0274 14.167 44.5223 15.4456 41.907 16.4873C38.724 17.7552 35.4535 18.6974 32.0213 18.9483C29.6537 19.1213 27.2798 19.0866 24.908 18.9903C24.8414 18.9876 24.7744 18.9822 24.7078 18.9815C22.229 18.9536 19.7497 18.8915 17.2713 18.9102C15.6217 18.9226 13.9695 18.9946 12.3328 19.2549C9.56795 19.6947 6.9859 20.6648 4.48906 21.9004C3.5444 22.3679 2.63019 22.888 1.70976 23.3985C1.59729 23.4609 1.49761 23.5647 1.35039 23.5459C1.23129 23.4317 1.32119 23.3126 1.35234 23.211C1.54357 22.587 1.74967 21.9672 1.94609 21.3448C2.00828 21.1478 2.09564 20.9802 2.29277 20.8809C5.65204 19.1879 9.03738 17.5578 12.7303 16.7012C14.593 16.2692 16.4886 16.0981 18.3973 16.0596C21.2636 16.0019 24.1283 16.1348 27.034 16.1446C28.2064 16.165 29.3392 16.1797 30.4715 16.2071C35.9918 16.3406 41.1895 15.0245 46.1736 12.7315C48.4973 11.6624 50.7557 10.4537 53.1375 9.50688ZM50.8387 6.75785C51.1172 6.63661 51.3333 6.64683 51.5643 6.85746C51.9231 7.18463 52.3302 7.46087 52.6678 7.84965C52.5654 7.91614 52.5146 7.96415 52.4549 7.98442C50.3406 8.70211 48.4104 9.83249 46.3621 10.6993C43.3135 11.9893 40.1696 12.8877 36.865 13.2276C33.8587 13.5368 30.8504 13.4179 27.8406 13.3926C24.5099 13.3646 21.176 13.2342 17.8494 13.4756C15.0236 13.6807 12.3273 14.4649 9.69121 15.4707C7.63594 16.255 5.62552 17.1411 3.65898 18.127C3.53213 18.1906 3.40768 18.2777 3.27226 18.2666C3.19656 18.2144 3.20086 18.159 3.22343 18.1104C3.57189 17.3603 3.97367 16.6388 4.40996 15.9366C4.47648 15.8297 4.57689 15.7701 4.6873 15.7178C7.41995 14.4226 10.1326 13.0832 12.9949 12.0821C15.7047 11.1344 18.478 10.5765 21.3582 10.5098C23.1308 10.4688 24.9027 10.479 26.7146 10.4659C29.7788 10.5556 32.8047 10.4928 35.8289 10.5489C39.9678 10.6256 43.8841 9.68076 47.6736 8.09867C48.7309 7.65727 49.7882 7.2151 50.8387 6.75785ZM46.6316 4.09574C47.0526 4.01247 47.4039 4.05686 47.7664 4.28715C48.234 4.58424 48.7258 4.84291 49.198 5.19438C48.9446 5.43659 48.649 5.43176 48.3963 5.52055C46.8136 6.07662 45.2364 6.65198 43.6053 7.05668C41.3899 7.60631 39.1355 7.74323 36.8631 7.68949C33.9861 7.62145 31.1129 7.43886 28.2342 7.4102C25.6459 7.38445 23.067 7.47231 20.5105 7.90629C17.4452 8.42669 14.5136 9.38086 11.6941 10.6827C10.0735 11.4309 8.4608 12.1969 6.8416 12.9483C6.7062 13.0112 6.57518 13.1299 6.40214 13.0733C6.32825 12.9207 6.45297 12.8434 6.51738 12.7559C7.28464 11.7135 8.11024 10.7203 9.02226 9.79985C9.31982 9.49958 9.7012 9.33482 10.076 9.10258C13.8251 7.36943 17.6424 5.9191 21.6814 5.12992C25.0503 4.4717 28.4559 4.42056 31.8709 4.59184C33.0149 4.64922 34.1591 4.7096 35.3035 4.75785C37.1007 4.83364 38.8976 4.91459 40.698 4.85649C42.7012 4.79183 44.6719 4.48343 46.6316 4.09574ZM25.6531 0.676799C31.246 -0.46482 36.7183 -0.1756 42.1014 1.64653C41.838 1.83016 41.5373 1.79902 41.2605 1.82719C40.4009 1.9147 39.5408 2.01204 38.6736 2.01176C36.4894 2.01105 34.3047 1.99666 32.1209 2.02934C30.1775 2.05842 28.234 2.13223 26.2996 2.34574C23.2106 2.68673 20.2425 3.51074 17.3387 4.58989C16.4775 4.90991 15.6209 5.24405 14.7596 5.56352C14.6058 5.6207 14.4559 5.73946 14.1678 5.62211C17.6538 3.08427 21.504 1.58028 25.6531 0.676799Z" fill="#EDEDED"/>
</svg>
