<svg width="456" height="101" viewBox="0 0 456 101" fill="none" xmlns="http://www.w3.org/2000/svg">
<path d="M8.04492 77V25H17.0449V77H8.04492ZM12.5449 16.1C10.8116 16.1 9.31159 15.4667 8.04492 14.2C6.84492 12.9333 6.24492 11.4667 6.24492 9.79999C6.24492 7.86666 6.81159 6.33333 7.94492 5.19999C9.07826 4.06666 10.6116 3.5 12.5449 3.5C14.2783 3.5 15.7449 4.13333 16.9449 5.4C18.2116 6.6 18.8449 8.06666 18.8449 9.79999C18.8449 11.6667 18.2783 13.2 17.1449 14.4C16.0116 15.5333 14.4783 16.1 12.5449 16.1ZM53.0449 78.2C49.1116 78.2 45.5449 77.7 42.3449 76.7C39.2116 75.7 36.6116 74.4 34.5449 72.8L38.3449 65.3C40.0783 66.7667 42.2449 68 44.8449 69C47.5116 69.9333 50.3449 70.4 53.3449 70.4C57.0783 70.4 59.8783 69.8 61.7449 68.6C63.6783 67.3333 64.6449 65.7333 64.6449 63.8C64.6449 62.4 64.2783 61.1667 63.5449 60.1C62.8783 59.0333 61.6116 58 59.7449 57C57.8783 55.9333 55.1783 54.8 51.6449 53.6C46.7783 51.9333 43.1116 49.9667 40.6449 47.7C38.2449 45.3667 37.0449 42.1667 37.0449 38.1C37.0449 34.1 38.7783 30.7333 42.2449 28C45.7783 25.2 50.6449 23.8 56.8449 23.8C60.1783 23.8 63.1449 24.1667 65.7449 24.9C68.3449 25.5667 70.6783 26.4333 72.7449 27.5L70.2449 34.9C68.4449 33.8333 66.3783 32.9667 64.0449 32.3C61.7783 31.6333 59.2449 31.3 56.4449 31.3C52.9783 31.3 50.3449 32 48.5449 33.4C46.7449 34.8 45.8449 36.3333 45.8449 38C45.8449 39.6 46.5449 40.9667 47.9449 42.1C49.3449 43.2333 52.0783 44.4667 56.1449 45.8C62.7449 48 67.3449 50.4333 69.9449 53.1C72.5449 55.7667 73.8449 59.1 73.8449 63.1C73.8449 67.7667 71.9449 71.4667 68.1449 74.2C64.4116 76.8667 59.3783 78.2 53.0449 78.2ZM182.883 100.2C179.817 100.2 176.817 99.8333 173.883 99.1C171.017 98.3667 168.45 97.2667 166.183 95.8L169.483 88C171.083 89.2667 172.95 90.3 175.083 91.1C177.217 91.9667 179.817 92.4 182.883 92.4C187.617 92.4 191.317 91.1333 193.983 88.6C196.717 86.1333 198.083 82.1667 198.083 76.7V70.3C196.75 71.9 194.817 73.4333 192.283 74.9C189.817 76.3 186.85 77 183.383 77C179.45 77 175.717 76 172.183 74C168.65 71.9333 165.783 68.9333 163.583 65C161.383 61.0667 160.283 56.3333 160.283 50.8C160.283 45.6 161.35 40.9667 163.483 36.9C165.683 32.8333 168.617 29.6333 172.283 27.3C175.95 24.9667 179.983 23.8 184.383 23.8C187.317 23.8 189.983 24.3 192.383 25.3C194.783 26.3 196.85 27.5333 198.583 29V25H206.783V75.8C206.783 81.5333 205.783 86.2 203.783 89.8C201.783 93.4 198.983 96.0333 195.383 97.7C191.85 99.3667 187.683 100.2 182.883 100.2ZM185.383 69C188.05 69 190.45 68.4 192.583 67.2C194.717 66 196.45 64.6 197.783 63V35.8C196.317 34.7333 194.55 33.7667 192.483 32.9C190.417 32.0333 188.017 31.6 185.283 31.6C182.55 31.6 179.983 32.3333 177.583 33.8C175.183 35.2667 173.217 37.4 171.683 40.2C170.217 42.9333 169.483 46.3 169.483 50.3C169.483 54.1 170.217 57.4 171.683 60.2C173.217 63 175.183 65.1667 177.583 66.7C179.983 68.2333 182.583 69 185.383 69ZM228.279 77V25H236.979V36.3C237.846 34.1 239.013 32.0667 240.479 30.2C241.946 28.2667 243.779 26.7333 245.979 25.6C248.179 24.4 250.746 23.8 253.679 23.8C254.679 23.8 255.679 23.8667 256.679 24C257.679 24.0667 258.513 24.2 259.179 24.4L256.479 33.7C255.213 33.1667 253.713 32.9 251.979 32.9C249.513 32.9 247.146 33.6 244.879 35C242.679 36.4 240.846 38.5667 239.379 41.5C237.979 44.4333 237.279 48.1667 237.279 52.7V77H228.279ZM291.093 78.2C286.76 78.2 282.827 77.1 279.293 74.9C275.76 72.7 272.927 69.6 270.793 65.6C268.727 61.5333 267.693 56.7667 267.693 51.3C267.693 46.1 268.727 41.4333 270.793 37.3C272.927 33.1667 275.827 29.9 279.493 27.5C283.227 25.0333 287.493 23.8 292.293 23.8C295.293 23.8 297.993 24.3333 300.393 25.4C302.86 26.4 304.993 27.6667 306.793 29.2V25H314.993V64.4C314.993 66.9333 315.593 68.6 316.793 69.4C318.06 70.1333 319.427 70.5 320.893 70.5L318.993 77.5C312.593 77.5 308.727 74.9 307.393 69.7C305.86 71.8333 303.76 73.8 301.093 75.6C298.493 77.3333 295.16 78.2 291.093 78.2ZM293.093 70.2C295.627 70.2 298.027 69.6 300.293 68.4C302.56 67.1333 304.46 65.5667 305.993 63.7V35.8C304.193 34.5333 302.193 33.5333 299.993 32.8C297.86 32 295.593 31.6 293.193 31.6C289.993 31.6 287.16 32.4333 284.693 34.1C282.293 35.7 280.393 37.9667 278.993 40.9C277.593 43.7667 276.893 47.1333 276.893 51C276.893 54.7333 277.593 58.0667 278.993 61C280.393 63.8667 282.327 66.1333 284.793 67.8C287.26 69.4 290.027 70.2 293.093 70.2ZM339.347 99V38.3C339.347 36.0333 338.781 34.4333 337.647 33.5C336.581 32.5 335.181 32 333.447 32L335.347 25C341.481 25 345.314 27.4333 346.847 32.3C347.514 31.3 348.581 30.1333 350.047 28.8C351.581 27.4667 353.447 26.3 355.647 25.3C357.914 24.3 360.481 23.8 363.347 23.8C367.347 23.8 371.081 24.8667 374.547 27C378.081 29.0667 380.914 32.1 383.047 36.1C385.181 40.0333 386.247 44.8333 386.247 50.5C386.247 56.0333 385.181 60.9 383.047 65.1C380.914 69.2333 378.114 72.4667 374.647 74.8C371.247 77.0667 367.547 78.2 363.547 78.2C360.481 78.2 357.614 77.6 354.947 76.4C352.281 75.1333 350.081 73.7 348.347 72.1V99H339.347ZM361.747 70.2C366.281 70.2 369.947 68.4333 372.747 64.9C375.614 61.3 377.047 56.6 377.047 50.8C377.047 46.8 376.314 43.3667 374.847 40.5C373.447 37.6333 371.547 35.4333 369.147 33.9C366.814 32.3667 364.214 31.6 361.347 31.6C358.481 31.6 355.881 32.3333 353.547 33.8C351.281 35.2 349.547 36.7333 348.347 38.4V64C350.081 65.8 352.081 67.3 354.347 68.5C356.614 69.6333 359.081 70.2 361.747 70.2ZM404.775 77V3H413.775V33.3C415.642 30.5667 418.009 28.3 420.875 26.5C423.742 24.7 427.109 23.8 430.975 23.8C436.842 23.8 441.209 25.5667 444.075 29.1C447.009 32.6333 448.475 37.3 448.475 43.1V77H439.475V44.1C439.475 40.3667 438.609 37.3667 436.875 35.1C435.142 32.8333 432.709 31.7 429.575 31.7C426.509 31.7 423.575 32.8 420.775 35C418.042 37.1333 415.709 39.6667 413.775 42.6V77H404.775Z" fill="#242424"/>
<path d="M112.838 77.4959C115.924 76.9204 118.677 77.5845 121.044 79.7049C121.977 80.5405 122.936 81.3466 123.989 82.033C125.499 83.0171 127.146 83.6217 128.934 83.8435C129.058 83.8588 129.208 83.8199 129.318 84.035C128.6 84.2226 127.902 84.4252 127.194 84.5848C125.79 84.9014 124.363 85.0725 122.932 85.2264C122.219 85.3031 121.596 85.0346 120.97 84.783C119.563 84.2186 118.341 83.3564 117.289 82.284C115.773 80.7388 113.926 80.3914 111.887 80.6482C110.418 80.8334 108.987 81.2075 107.564 81.6062C107.289 81.6834 107.053 81.6583 106.801 81.5232C105.979 81.0828 105.152 80.6513 104.367 80.1453C104.29 80.0958 104.2 80.0643 104.132 79.9012C105.276 79.5785 106.406 79.2594 107.567 78.9295C109.337 78.4181 111.053 77.8287 112.838 77.4959ZM117.722 70.6951C121.245 70.022 124.253 70.9206 126.78 73.4705C127.67 74.3688 128.531 75.3004 129.536 76.0809C131.161 77.3427 133.005 78.0351 135.041 78.2381C136.689 78.4024 138.34 78.3756 139.99 78.2605C140.168 78.2481 140.358 78.1999 140.529 78.3094C140.557 78.4726 140.425 78.5196 140.339 78.5887C139.021 79.6415 137.576 80.4916 136.07 81.243C135.977 81.2894 135.869 81.3326 135.768 81.3338C133.727 81.3573 131.691 81.3287 129.689 80.6805C128.014 80.1544 126.619 79.2099 125.297 78.1365C124.201 77.2466 123.16 76.2877 121.996 75.4822C120.333 74.3316 118.501 73.8521 116.478 74.0057C114.226 74.1767 112.078 74.7924 109.944 75.4637C107.34 76.2827 104.75 77.1454 102.162 78.0125C101.749 78.1509 101.445 78.1432 101.12 77.8269C100.739 77.4562 100.306 77.1385 99.8992 76.7937C99.8011 76.7106 99.6753 76.6444 99.6512 76.493C99.7053 76.3622 99.8321 76.3505 99.9432 76.3182C103.578 75.2591 107.135 73.9717 110.705 72.7185C113.004 71.9114 115.318 71.1546 117.722 70.6951ZM124.82 64.3611C127.209 64.205 129.305 64.9245 131.092 66.5457C131.993 67.3635 132.785 68.2821 133.609 69.1697C135.665 71.3835 138.23 72.479 141.203 72.7322C142.558 72.8477 143.912 72.9218 145.271 72.8113C145.546 72.789 145.829 72.7632 146.095 72.8328C146.155 72.932 146.105 72.9974 146.054 73.0603C145.393 73.8801 144.716 74.6855 143.971 75.4324C143.792 75.612 143.603 75.7131 143.342 75.7215C141.93 75.7665 140.518 75.8649 139.106 75.7957C136.723 75.6789 134.418 75.2737 132.421 73.8318C131.434 73.1193 130.556 72.2826 129.692 71.4305C128.808 70.5587 127.89 69.7293 126.846 69.0467C125.081 67.892 123.132 67.5698 121.071 67.7625C118.43 68.0094 115.968 68.9338 113.487 69.7859C109.57 71.1317 105.683 72.5731 101.667 73.6121C100.429 73.9324 99.1818 74.2148 97.9227 74.4412C97.6754 74.4856 97.4944 74.4376 97.3299 74.2332C96.904 73.704 96.4583 73.1905 96.0242 72.6678C95.9499 72.5783 95.8566 72.4909 95.8738 72.2752C100.403 71.933 104.737 70.669 109.058 69.2185C112.441 68.0206 115.789 66.8203 119.148 65.6502C120.988 65.0093 122.866 64.4889 124.82 64.3611ZM129.888 58.1004C132.603 57.9324 134.73 59.0824 136.499 61.0506C137.496 62.1599 138.371 63.378 139.48 64.3865C141.163 65.9167 143.175 66.6689 145.412 66.8807C146.728 67.0052 148.046 67.0146 149.363 66.8914C149.518 66.877 149.679 66.853 149.815 66.9256C149.877 67.059 149.814 67.1566 149.769 67.2488C149.361 68.0877 148.935 68.9172 148.435 69.7068C148.352 69.8382 148.255 69.9347 148.092 69.9471C145.541 70.1392 143.009 70.0968 140.525 69.3816C138.568 68.8182 137.002 67.6604 135.616 66.2127C134.576 65.1264 133.601 63.9737 132.382 63.0682C130.715 61.8303 128.85 61.3331 126.788 61.4568C124.37 61.602 122.126 62.4063 119.888 63.2303C116.665 64.4173 113.494 65.7472 110.227 66.8182C106.92 67.9025 103.568 68.8128 100.102 69.2254C98.1453 69.4584 96.18 69.6209 94.2039 69.5037C94.0243 69.4931 93.8597 69.4805 93.7625 69.2976C93.3883 68.5915 93.0095 67.8872 92.6365 67.1805C92.608 67.1264 92.6078 67.0572 92.5906 66.9793C92.8458 66.8428 93.1003 66.9046 93.3445 66.9178C95.9166 67.0558 98.4906 67.0401 101.051 66.7781C104.428 66.4324 107.701 65.5882 110.915 64.5047C114.755 63.21 118.497 61.6592 122.265 60.1775C123.517 59.6853 124.785 59.2334 126.1 58.823C127.358 58.4421 128.607 58.1797 129.888 58.1004ZM134.678 51.7742C135.839 51.7709 136.95 52.0236 138.016 52.5701C139.476 53.3211 140.539 54.4727 141.538 55.698C142.505 56.8846 143.425 58.1167 144.711 59.0008C146.11 59.9631 147.672 60.4404 149.348 60.5672C150.131 60.6264 150.917 60.6857 151.702 60.5779C152.014 60.535 152.149 60.6236 152.054 60.9734C151.828 61.8089 151.614 62.6478 151.323 63.4646C151.255 63.6547 151.176 63.7882 150.944 63.8064C148.777 63.9764 146.636 63.9021 144.549 63.2C142.685 62.573 141.271 61.3611 140.064 59.8553C139.156 58.7217 138.232 57.6044 137.05 56.7283C134.93 55.1579 132.576 54.7872 130.035 55.285C128.047 55.6744 126.189 56.4465 124.33 57.2127C121.104 58.5422 117.926 59.9913 114.627 61.1404C111.459 62.2437 108.219 63.0186 104.873 63.3435C101.861 63.636 98.8424 63.7545 95.8191 63.825C94.4631 63.8566 93.1012 63.8451 91.7527 64.0408C91.4578 64.0836 91.2772 64.0044 91.1932 63.6902C91.0453 63.1375 90.8737 62.5902 90.6941 62.0467C90.617 61.8129 90.6938 61.704 90.909 61.6277C92.3241 61.1265 93.7847 60.836 95.2781 60.7332C97.6321 60.5711 99.9914 60.5878 102.349 60.5721C105.997 60.5477 109.609 60.2094 113.149 59.2859C115.902 58.568 118.547 57.5495 121.164 56.4461C123.962 55.2661 126.7 53.9428 129.552 52.8904C131.206 52.2797 132.892 51.7794 134.678 51.7742ZM138.795 45.49C140.521 45.4529 142.023 46.0624 143.351 47.1473C144.548 48.1243 145.498 49.3306 146.501 50.4881C147.008 51.0729 147.544 51.627 148.153 52.1092C149.454 53.1394 150.937 53.6565 152.591 53.6726C152.913 53.6758 152.998 53.7893 153 54.0945C153.004 55.0292 152.914 55.9562 152.828 56.8846C152.804 57.1443 152.657 57.224 152.431 57.2322C149.907 57.3245 147.627 56.7188 145.766 54.906C144.981 54.1403 144.331 53.2587 143.641 52.4119C142.788 51.3647 141.865 50.3942 140.724 49.6453C138.779 48.3682 136.68 48.2009 134.472 48.7244C132.465 49.2006 130.581 50.0131 128.708 50.8504C125.425 52.3179 122.168 53.8478 118.779 55.0652C115.797 56.1365 112.734 56.8458 109.577 57.1863C106.04 57.5679 102.496 57.3856 98.9549 57.4148C97.1303 57.4299 95.3041 57.4691 93.5105 57.8787C92.4535 58.1201 91.443 58.4889 90.4607 58.9422C90.3307 59.0022 90.2107 59.1009 90.0047 59.0779C89.831 58.4952 89.7773 57.8768 89.7127 57.2615C89.6984 57.1243 89.8111 57.0518 89.9148 56.9871C91.8712 55.7668 93.9593 54.9243 96.2684 54.6336C99.2179 54.2623 102.176 54.4415 105.131 54.4236C107.196 54.4111 109.265 54.4833 111.325 54.3113C113.999 54.0881 116.622 53.5881 119.183 52.7664C121.599 51.9915 123.915 50.973 126.267 49.9598C128.987 48.7559 131.636 47.4635 134.406 46.4539C135.826 45.9364 137.272 45.5228 138.795 45.49ZM141.654 39.2156C143.417 39.045 144.959 39.5958 146.342 40.6736C147.592 41.6485 148.614 42.8446 149.639 44.0369C150.389 44.9083 151.166 45.7488 152.137 46.3826C152.299 46.489 152.36 46.6381 152.398 46.8094C152.63 47.8506 152.766 48.9057 152.859 49.9676C152.885 50.2608 152.744 50.2704 152.521 50.2264C151.299 49.9844 150.25 49.4034 149.326 48.5838C148.292 47.666 147.518 46.5215 146.641 45.4676C145.783 44.4356 144.841 43.5035 143.656 42.8445C141.81 41.8181 139.884 41.8505 137.92 42.4109C136.105 42.9288 134.411 43.7425 132.719 44.5584C130.762 45.5016 128.808 46.4499 126.825 47.407C124.597 48.4399 122.375 49.4123 120.044 50.1004C117.633 50.8118 115.171 51.2278 112.656 51.3387C108.898 51.5042 105.139 51.3778 101.381 51.3836C99.476 51.3865 97.5723 51.3525 95.6844 51.7039C93.6574 52.0812 91.8245 52.8932 90.1355 54.0564C89.9524 54.1826 89.7938 54.3532 89.4978 54.4217C89.4368 53.906 89.4893 53.4034 89.4607 52.906C89.4252 52.2828 89.7407 51.9347 90.2273 51.5965C92.3182 50.1434 94.5822 49.1365 97.1131 48.7635C98.3809 48.5766 99.6569 48.4897 100.936 48.4881C103.669 48.4847 106.403 48.4681 109.135 48.5232C111.228 48.5655 113.319 48.5773 115.409 48.4773C117.872 48.3595 120.264 47.857 122.599 47.0672C125.142 46.2073 127.58 45.1026 129.999 43.949C132.62 42.6986 135.203 41.3637 137.896 40.2693C139.108 39.7771 140.341 39.3428 141.654 39.2156ZM143.012 33.8855C144.152 33.6252 145.301 33.56 146.461 33.7557C146.628 33.784 146.763 33.834 146.867 33.9734C148.118 35.6578 149.225 37.4283 150.089 39.3445C150.126 39.4268 150.145 39.5173 150.181 39.6307C149.994 39.6633 149.93 39.5257 149.846 39.4441C148.994 38.6176 148.119 37.8176 147.138 37.1424C145.147 35.7712 143.03 35.6929 140.814 36.5066C139.17 37.1105 137.637 37.9459 136.081 38.7332C132.729 40.4285 129.4 42.1691 125.885 43.5164C123.018 44.6152 120.073 45.3291 116.996 45.5066C113.879 45.6865 110.763 45.6526 107.607 45.5799C105.542 45.5783 103.516 45.5471 101.491 45.5848C99.7051 45.6179 97.9293 45.7869 96.1941 46.2625C94.044 46.8519 92.1327 47.9166 90.3064 49.16C90.144 49.2705 90.0036 49.4229 89.781 49.4695C89.5956 49.2485 89.7882 49.0136 89.7615 48.7908C89.7538 48.727 89.7868 48.6582 89.785 48.5926C89.7526 47.4626 90.3827 46.8305 91.3006 46.2576C93.8646 44.6573 96.5831 43.4924 99.5721 42.9988C101.231 42.7248 102.908 42.6514 104.587 42.6521C106.679 42.653 108.773 42.6291 110.864 42.6834C112.823 42.7343 114.781 42.7289 116.74 42.7244C120.802 42.7152 124.684 41.8451 128.446 40.3328C132.073 38.8746 135.562 37.1255 139.071 35.4158C140.34 34.7974 141.624 34.2023 143.012 33.8855ZM142.596 30.2674C143.196 30.0287 143.646 30.0935 144.052 30.5769C144.261 30.8261 144.551 31.0093 144.692 31.3475C144.614 31.381 144.558 31.4167 144.497 31.4295C142.53 31.8449 140.771 32.7714 138.997 33.6639C136.485 34.9275 133.98 36.2061 131.365 37.2478C128.182 38.5157 124.912 39.4579 121.479 39.7088C119.112 39.8818 116.738 39.8471 114.366 39.7508C114.299 39.7481 114.232 39.7427 114.166 39.742C111.687 39.7141 109.208 39.652 106.729 39.6707C105.08 39.6831 103.427 39.7551 101.791 40.0154C99.026 40.4552 96.4439 41.4253 93.9471 42.6609C93.0024 43.1284 92.0882 43.6485 91.1678 44.159C91.0553 44.2213 90.9556 44.3252 90.8084 44.3064C90.6893 44.1922 90.7792 44.0731 90.8103 43.9715C91.0016 43.3475 91.2077 42.7277 91.4041 42.1053C91.4663 41.9083 91.5536 41.7407 91.7508 41.6414C95.11 39.9484 98.4954 38.3183 102.188 37.4617C104.051 37.0297 105.947 36.8586 107.855 36.8201C110.722 36.7624 113.586 36.8953 116.492 36.9051C117.664 36.9255 118.797 36.9402 119.929 36.9676C125.45 37.1011 130.647 35.785 135.632 33.492C137.955 32.4229 140.214 31.2142 142.596 30.2674ZM140.297 27.5184C140.575 27.3971 140.791 27.4073 141.022 27.618C141.381 27.9451 141.788 28.2214 142.126 28.6101C142.023 28.6766 141.973 28.7246 141.913 28.7449C139.799 29.4626 137.868 30.593 135.82 31.4598C132.771 32.7498 129.628 33.6482 126.323 33.9881C123.317 34.2973 120.308 34.1784 117.299 34.1531C113.968 34.1251 110.634 33.9947 107.307 34.2361C104.482 34.4412 101.785 35.2254 99.1492 36.2312C97.0939 37.0155 95.0835 37.9016 93.117 38.8875C92.9901 38.9511 92.8657 39.0382 92.7303 39.0271C92.6546 38.9749 92.6589 38.9195 92.6814 38.8709C93.0299 38.1208 93.4317 37.3993 93.868 36.6971C93.9345 36.5902 94.0349 36.5306 94.1453 36.4783C96.878 35.1831 99.5906 33.8437 102.453 32.8426C105.163 31.8949 107.936 31.337 110.816 31.2703C112.589 31.2293 114.361 31.2395 116.173 31.2264C119.237 31.3161 122.263 31.2533 125.287 31.3094C129.426 31.3861 133.342 30.4413 137.132 28.8592C138.189 28.4178 139.246 27.9756 140.297 27.5184ZM136.09 24.8562C136.511 24.773 136.862 24.8174 137.224 25.0476C137.692 25.3447 138.184 25.6034 138.656 25.9549C138.403 26.1971 138.107 26.1923 137.854 26.281C136.272 26.8371 134.694 27.4125 133.063 27.8172C130.848 28.3668 128.593 28.5037 126.321 28.45C123.444 28.3819 120.571 28.1994 117.692 28.1707C115.104 28.1449 112.525 28.2328 109.969 28.6668C106.903 29.1872 103.972 30.1414 101.152 31.4432C99.5315 32.1914 97.9188 32.9574 96.2996 33.7088C96.1642 33.7717 96.0332 33.8904 95.8602 33.8338C95.7863 33.6812 95.911 33.6039 95.9754 33.5164C96.7426 32.474 97.5683 31.4808 98.4803 30.5603C98.7778 30.2601 99.1592 30.0953 99.534 29.8631C103.283 28.1299 107.1 26.6796 111.139 25.8904C114.508 25.2322 117.914 25.1811 121.329 25.3523C122.473 25.4097 123.617 25.4701 124.762 25.5184C126.559 25.5941 128.356 25.6751 130.156 25.617C132.159 25.5523 134.13 25.2439 136.09 24.8562ZM115.111 21.4373C120.704 20.2957 126.176 20.5849 131.559 22.407C131.296 22.5907 130.995 22.5595 130.719 22.5877C129.859 22.6752 128.999 22.7725 128.132 22.7723C125.947 22.7716 123.763 22.7572 121.579 22.7898C119.636 22.8189 117.692 22.8927 115.758 23.1062C112.669 23.4472 109.701 24.2712 106.797 25.3504C105.936 25.6704 105.079 26.0045 104.218 26.324C104.064 26.3812 103.914 26.5 103.626 26.3826C107.112 23.8448 110.962 22.3408 115.111 21.4373Z" fill="#242424"/>
</svg>
