<svg width="105" height="106" viewBox="0 0 105 106" fill="none" xmlns="http://www.w3.org/2000/svg">
<path d="M38.4352 93.2693C43.5091 92.3232 48.0335 93.4144 51.9244 96.9002C53.458 98.274 55.035 99.5989 56.7662 100.727C59.2487 102.345 61.956 103.34 64.8961 103.705C65.1003 103.73 65.3457 103.665 65.527 104.019C64.3458 104.328 63.1988 104.661 62.0358 104.924C59.7274 105.444 57.3809 105.725 55.0299 105.978C53.8575 106.104 52.8336 105.662 51.8034 105.249C49.4917 104.321 47.4818 102.903 45.7526 101.14C43.2606 98.6001 40.2244 98.0295 36.8727 98.4519C34.4573 98.7563 32.1055 99.3707 29.7662 100.026C29.313 100.153 28.9248 100.111 28.5104 99.8894C27.1591 99.1654 25.7995 98.4566 24.5094 97.6248C24.3831 97.5434 24.2344 97.491 24.1227 97.2224C26.0039 96.692 27.8626 96.1682 29.7711 95.6257C32.6806 94.785 35.5019 93.8163 38.4352 93.2693ZM46.4645 82.0886C52.2562 80.982 57.2014 82.459 61.3561 86.6511C62.8196 88.1279 64.2332 89.6602 65.8854 90.9431C68.5567 93.0174 71.5887 94.1563 74.9352 94.49C77.645 94.7602 80.3586 94.7143 83.0719 94.5252C83.3649 94.5047 83.6768 94.4264 83.9576 94.6062C84.003 94.8746 83.7864 94.9516 83.6442 95.0652C81.4772 96.7961 79.1019 98.1933 76.6266 99.4285C76.4738 99.5047 76.2975 99.577 76.1315 99.5789C72.7757 99.6176 69.4279 99.5694 66.1373 98.5037C63.3843 97.6388 61.0912 96.0866 58.9176 94.322C57.1154 92.8589 55.4035 91.2822 53.4899 89.9578C50.7567 88.0662 47.7453 87.2785 44.4196 87.531C40.7167 87.8122 37.1859 88.8251 33.6784 89.9285C29.3981 91.275 25.1402 92.6935 20.8854 94.1189C20.2058 94.3466 19.7059 94.3325 19.1715 93.8123C18.5455 93.2029 17.8339 92.6817 17.1657 92.115C17.0042 91.9781 16.7972 91.8694 16.7575 91.6199C16.8464 91.4048 17.0553 91.386 17.2379 91.3328C23.2125 89.5918 29.0612 87.4758 34.9293 85.4158C38.7089 84.089 42.5113 82.844 46.4645 82.0886ZM58.1334 71.6765C62.0601 71.4199 65.5069 72.6021 68.444 75.2673C69.9255 76.6118 71.2274 78.1217 72.5826 79.5808C75.9629 83.2202 80.1792 85.0211 85.066 85.4373C87.2946 85.6271 89.5195 85.7488 91.7545 85.5672C92.2061 85.5305 92.6698 85.4888 93.1071 85.6033C93.2061 85.7664 93.1241 85.8729 93.0407 85.9763C91.9539 87.324 90.842 88.6489 89.6178 89.8767C89.3234 90.172 89.0118 90.3386 88.5826 90.3523C86.2621 90.4264 83.9411 90.5872 81.6198 90.4734C77.7021 90.2814 73.9128 89.6151 70.6295 87.2449C69.0069 86.0735 67.5625 84.6986 66.1422 83.2976C64.6894 81.8646 63.1804 80.5007 61.4655 79.3787C58.564 77.4804 55.3596 76.9507 51.9713 77.2673C47.6291 77.6732 43.5805 79.1935 39.5026 80.5945C33.0629 82.8068 26.6736 85.1765 20.0709 86.8845C18.0358 87.411 15.9865 87.8746 13.9166 88.2468C13.5098 88.32 13.2118 88.2415 12.941 87.905C12.2408 87.0348 11.5083 86.1903 10.7946 85.3308C10.6724 85.1838 10.5203 85.0416 10.5485 84.6873C17.9933 84.1248 25.1175 82.0453 32.2223 79.6609C37.7831 77.6915 43.2875 75.7183 48.8092 73.7947C51.8336 72.7411 54.9205 71.8866 58.1334 71.6765ZM66.4655 61.3845C70.9284 61.1083 74.4266 62.9976 77.3336 66.2332C78.9723 68.057 80.4104 70.0605 82.234 71.7185C85.0008 74.234 88.3078 75.4711 91.985 75.8191C94.1487 76.0239 96.3143 76.0383 98.4801 75.8357C98.7341 75.812 98.9999 75.773 99.2233 75.8923C99.3239 76.1116 99.2219 76.2711 99.1481 76.4226C98.4768 77.8016 97.7769 79.1656 96.9557 80.4636C96.819 80.6797 96.6592 80.8379 96.3903 80.8582C92.1974 81.1741 88.035 81.1052 83.9518 79.9295C80.7351 79.0033 78.1606 77.1004 75.8815 74.7205C74.1715 72.9348 72.5687 71.0392 70.5651 69.5506C67.8257 67.5154 64.7582 66.6976 61.3678 66.9011C57.3935 67.1398 53.7053 68.4627 50.027 69.8172C44.7273 71.7686 39.5144 73.9549 34.1442 75.7156C28.7071 77.4982 23.1962 78.9953 17.4996 79.6736C14.2822 80.0567 11.0512 80.3223 7.80238 80.1297C7.50692 80.1121 7.2355 80.0921 7.07581 79.7908C6.46066 78.6299 5.83939 77.4722 5.2262 76.3103C5.1793 76.2214 5.17822 76.1083 5.15003 75.9802C5.56974 75.7558 5.98861 75.8581 6.39027 75.8797C10.6186 76.1066 14.8498 76.0799 19.0582 75.6492C24.6108 75.0809 29.9913 73.6921 35.2741 71.9109C41.5865 69.7825 47.7382 67.2343 53.9332 64.7986C55.9916 63.9893 58.0755 63.2458 60.2379 62.5711C62.3055 61.9448 64.3592 61.5149 66.4655 61.3845ZM74.3375 50.9832C76.2467 50.9777 78.0737 51.3933 79.8268 52.2918C82.226 53.5264 83.9733 55.4207 85.6159 57.4353C87.2062 59.3859 88.7172 61.4107 90.8307 62.864C93.1317 64.4462 95.698 65.2308 98.4547 65.4392C99.7418 65.5366 101.033 65.6329 102.324 65.4558C102.838 65.3853 103.061 65.5321 102.905 66.1072C102.532 67.4807 102.18 68.8591 101.702 70.2019C101.591 70.5145 101.46 70.7334 101.079 70.7634C97.5153 71.0429 93.9955 70.9226 90.5641 69.7683C87.5003 68.7376 85.1771 66.7448 83.194 64.2693C81.7008 62.4054 80.1802 60.5692 78.236 59.1287C74.7516 56.5471 70.8821 55.9363 66.7047 56.7547C63.437 57.3949 60.3833 58.666 57.3268 59.9256C52.0234 62.1111 46.7988 64.4916 41.3756 66.3806C36.1685 68.1944 30.8426 69.4694 25.3414 70.0037C20.3901 70.4845 15.4277 70.6788 10.4576 70.7947C8.22812 70.8467 5.98906 70.8283 3.7721 71.1502C3.2873 71.2205 2.99039 71.0903 2.85218 70.574C2.60902 69.6651 2.32607 68.7655 2.03089 67.8718C1.90404 67.4875 2.03084 67.3087 2.38441 67.1834C4.71076 66.3594 7.11185 65.8807 9.56702 65.7117C13.4371 65.4452 17.3163 65.4729 21.193 65.447C27.19 65.407 33.1258 64.8519 38.9459 63.3338C43.4707 62.1535 47.8201 60.4788 52.1217 58.6648C56.7216 56.725 61.2228 54.5502 65.9108 52.8201C68.6314 51.8161 71.4026 50.9916 74.3375 50.9832ZM81.1061 40.6531C83.9445 40.5921 86.4129 41.5942 88.5973 43.3777C90.5645 44.9839 92.1249 46.9671 93.7741 48.8699C94.6074 49.8314 95.4899 50.7431 96.4909 51.5359C98.6292 53.2295 101.068 54.0778 103.786 54.1043C104.316 54.1095 104.456 54.2968 104.459 54.7986C104.465 56.3352 104.317 57.8592 104.175 59.3855C104.136 59.8124 103.895 59.9442 103.524 59.9578C99.3735 60.1096 95.6252 59.1121 92.567 56.1316C91.2755 54.8728 90.2073 53.4251 89.0729 52.033C87.6699 50.3113 86.1534 48.7154 84.278 47.4841C81.0798 45.3847 77.629 45.1099 74.0006 45.9705C70.7003 46.7533 67.6034 48.0901 64.5241 49.4666C59.1268 51.879 53.772 54.393 48.2018 56.3943C43.3002 58.1554 38.2633 59.3209 33.0739 59.8806C27.2588 60.5078 21.4341 60.2085 15.6119 60.2566C12.6125 60.2814 9.61118 60.3459 6.66273 61.0193C4.92482 61.4162 3.264 62.023 1.64906 62.7683C1.43515 62.867 1.23794 63.0287 0.899056 62.991C0.613487 62.0332 0.525694 61.017 0.419564 60.0056C0.395869 59.7798 0.580034 59.6599 0.750618 59.5535C3.96671 57.5473 7.39998 56.1622 11.1959 55.6843C16.0449 55.0739 20.9076 55.368 25.7653 55.3386C29.1606 55.3181 32.5607 55.4387 35.9479 55.156C40.3443 54.7891 44.6569 53.9658 48.8668 52.615C52.8372 51.3411 56.6455 49.6664 60.5123 48.0007C64.9827 46.0218 69.3367 43.8988 73.8903 42.239C76.2248 41.3881 78.603 40.707 81.1061 40.6531ZM85.8063 30.3386C88.7045 30.0579 91.2406 30.9639 93.5133 32.7361C95.5685 34.3388 97.2481 36.3044 98.9342 38.2644C100.167 39.6969 101.444 41.0779 103.04 42.1199C103.307 42.2948 103.407 42.5412 103.469 42.823C103.85 44.5347 104.074 46.2688 104.227 48.0144C104.269 48.4964 104.038 48.5115 103.672 48.4392C101.662 48.0414 99.9382 47.0865 98.4196 45.739C96.7192 44.2303 95.4472 42.3487 94.0055 40.616C92.594 38.9197 91.0461 37.3866 89.0983 36.3035C86.0639 34.6163 82.8973 34.6703 79.6686 35.5916C76.6846 36.443 73.9 37.7815 71.1178 39.1228C67.9017 40.6734 64.6892 42.232 61.4293 43.8054C57.7659 45.5034 54.1139 47.1011 50.2809 48.2322C46.3175 49.4017 42.2699 50.0862 38.1354 50.2683C31.9575 50.5405 25.7785 50.333 19.6002 50.3425C16.4689 50.3474 13.3388 50.2911 10.235 50.8689C6.90278 51.4893 3.89044 52.8247 1.1139 54.7371C0.812846 54.9445 0.551868 55.2242 0.0650714 55.3367C-0.0352447 54.4889 0.0514315 53.6632 0.00452448 52.8455C-0.0542313 51.8207 0.464308 51.2482 1.26429 50.6922C4.70156 48.3034 8.42393 46.6483 12.5846 46.0349C14.6687 45.7277 16.7665 45.5844 18.8698 45.5818C23.362 45.5763 27.8556 45.5488 32.3463 45.6394C35.7874 45.7088 39.2261 45.7276 42.6618 45.5632C46.71 45.3696 50.6425 44.5442 54.4821 43.2459C58.6625 41.8322 62.6703 40.0164 66.6461 38.1199C70.9556 36.0642 75.2011 33.8702 79.6295 32.0711C81.6212 31.2619 83.6482 30.5477 85.8063 30.3386ZM88.0377 21.5769C89.9124 21.149 91.8021 21.0413 93.7086 21.3631C93.9844 21.4096 94.2063 21.4912 94.3766 21.7205C96.4329 24.4896 98.2515 27.4012 99.6715 30.5515C99.7325 30.6868 99.7658 30.8347 99.8258 31.0213C99.5166 31.0751 99.4123 30.8477 99.2741 30.7136C97.8731 29.3549 96.4342 28.0415 94.8219 26.9314C91.5479 24.6773 88.0683 24.5488 84.4264 25.8865C81.7236 26.8793 79.2027 28.2514 76.6442 29.5457C71.1347 32.3327 65.6612 35.194 59.8825 37.4089C55.1698 39.2152 50.3279 40.3886 45.2701 40.6804C40.1466 40.976 35.025 40.9202 29.8366 40.8006C26.442 40.798 23.1101 40.7465 19.7809 40.8084C16.845 40.8629 13.9264 41.1408 11.0739 41.9226C7.53902 42.8916 4.3966 44.6423 1.39417 46.6863C1.12728 46.868 0.896689 47.1194 0.530892 47.1961C0.225376 46.8323 0.542119 46.4455 0.497689 46.0789C0.485027 45.974 0.539795 45.8624 0.536751 45.7547C0.483248 43.8965 1.51977 42.8568 3.02894 41.9148C7.24394 39.284 11.7121 37.3688 16.6256 36.5574C19.3537 36.1069 22.11 35.9869 24.8707 35.9881C28.3107 35.9895 31.7521 35.9505 35.1901 36.0398C38.4107 36.1235 41.6303 36.1135 44.8502 36.1062C51.5281 36.091 57.9091 34.6616 64.0934 32.1756C70.0562 29.7785 75.7909 26.9021 81.5592 24.0916C83.6458 23.0749 85.7567 22.0977 88.0377 21.5769ZM87.3551 15.6287C88.3422 15.2362 89.0829 15.3417 89.7496 16.1365C90.0933 16.5461 90.5709 16.8481 90.8024 17.4041C90.6734 17.4592 90.5817 17.5177 90.4821 17.5388C87.2478 18.2218 84.3551 19.7435 81.4391 21.2107C77.3104 23.288 73.1925 25.3907 68.8932 27.1033C63.6607 29.1875 58.2844 30.7368 52.6422 31.1492C48.7499 31.4336 44.8471 31.3769 40.9479 31.2185C40.8385 31.2141 40.7292 31.2051 40.6198 31.2039C36.5446 31.158 32.4688 31.056 28.3942 31.0867C25.6823 31.1071 22.9666 31.2252 20.276 31.6531C15.7305 32.376 11.4853 33.9714 7.3805 36.0027C5.82763 36.7712 4.32423 37.6255 2.81117 38.4646C2.62636 38.5671 2.46323 38.7375 2.22132 38.7068C2.02571 38.519 2.17403 38.3241 2.22523 38.157C2.53957 37.1313 2.87697 36.1127 3.19984 35.0896C3.30207 34.7657 3.44509 34.4903 3.76917 34.3269C9.29181 31.5437 14.8572 28.8631 20.9284 27.4548C23.9905 26.7446 27.1071 26.4634 30.2448 26.4002C34.957 26.3053 39.6671 26.5247 44.444 26.5408C46.3712 26.5743 48.2331 26.5973 50.0944 26.6423C59.1693 26.8618 67.7133 24.698 75.9069 20.9285C79.7267 19.1711 83.4398 17.1852 87.3551 15.6287ZM83.5758 11.1091C84.0337 10.9098 84.3885 10.9269 84.7682 11.2732C85.358 11.811 86.0268 12.2642 86.5817 12.9031C86.4134 13.0124 86.3312 13.0924 86.233 13.1257C82.7572 14.3056 79.5838 16.1647 76.2164 17.5896C71.2048 19.7104 66.0365 21.1861 60.6041 21.7449C55.6619 22.2532 50.7172 22.058 45.7692 22.0164C40.2935 21.9703 34.8124 21.7561 29.3434 22.1531C24.698 22.4903 20.2657 23.7798 15.9323 25.4334C12.5537 26.7225 9.24892 28.1789 6.01624 29.7996C5.80781 29.9041 5.603 30.047 5.3805 30.0291C5.25598 29.9433 5.2625 29.853 5.29945 29.7732C5.87233 28.54 6.53233 27.3536 7.24964 26.199C7.35894 26.0231 7.52411 25.9257 7.7057 25.8396C12.1981 23.7104 16.6574 21.5068 21.3629 19.8611C25.8176 18.3031 30.377 17.3858 35.1119 17.2761C38.026 17.2087 40.9389 17.2265 43.9176 17.2048C48.955 17.3524 53.9294 17.2494 58.901 17.3416C65.7051 17.4677 72.1439 15.9151 78.3737 13.3142C80.1117 12.5886 81.849 11.8608 83.5758 11.1091ZM76.6608 6.73219C77.3526 6.59538 77.9293 6.66921 78.525 7.04762C79.2938 7.5361 80.1031 7.96096 80.8795 8.53883C80.463 8.93705 79.9776 8.93003 79.5621 9.07594C76.9604 9.99008 74.3676 10.936 71.6862 11.6013C68.044 12.505 64.337 12.7297 60.6012 12.6414C55.8714 12.5295 51.1483 12.2295 46.4157 12.1824C42.1606 12.14 37.9213 12.2833 33.7184 12.9968C28.6792 13.8524 23.8611 15.4222 19.2262 17.5623C16.562 18.7924 13.9106 20.0507 11.2487 21.2859C11.0258 21.3894 10.81 21.5846 10.525 21.491C10.4038 21.2404 10.6086 21.1132 10.7145 20.9695C11.9758 19.2558 13.3334 17.6233 14.8326 16.1101C15.3219 15.6163 15.9498 15.3456 16.566 14.9636C22.7293 12.1145 29.0044 9.73071 35.6442 8.43336C41.1823 7.35132 46.7802 7.26705 52.3942 7.5486C54.275 7.64293 56.1563 7.74172 58.0377 7.82106C60.9923 7.94565 63.9461 8.07869 66.9059 7.98317C70.199 7.87689 73.439 7.36955 76.6608 6.73219ZM42.1715 1.11305C51.3657 -0.763686 60.3622 -0.289503 69.2116 2.70582C68.7787 3.00773 68.2856 2.9584 67.8307 3.00465C66.4173 3.14853 65.0025 3.30785 63.5768 3.30739C59.986 3.30622 56.3944 3.28199 52.8043 3.33571C49.6097 3.38351 46.415 3.50522 43.235 3.85622C38.1569 4.41676 33.2773 5.77065 28.5035 7.54469C27.0879 8.07079 25.6803 8.62009 24.2643 9.14528C24.0112 9.23921 23.7649 9.43523 23.2907 9.24196C29.0214 5.07004 35.3509 2.59833 42.1715 1.11305Z" fill="#242424"/>
</svg>
