<svg width="166" height="211" viewBox="0 0 166 211" fill="none" xmlns="http://www.w3.org/2000/svg">
<path d="M77.449 140.908C77.6155 140.899 77.7591 140.965 77.8798 141.105C78.0006 141.246 78.1628 141.541 78.3664 141.991C78.842 143.055 79.3396 144.735 79.8592 147.031C79.8672 147.057 79.8726 147.097 79.8754 147.15C79.8778 147.197 79.8472 147.252 79.7838 147.315C79.7266 147.372 79.6381 147.403 79.5183 147.409C79.4051 147.415 79.3072 147.393 79.2245 147.344C79.1415 147.288 79.0834 147.198 79.0502 147.073C79.0167 146.941 78.9535 146.687 78.8606 146.312C78.657 145.474 78.5277 145.041 78.4727 145.01C78.3904 144.968 78.1215 144.931 77.666 144.902C77.2172 144.871 76.9195 144.86 76.7731 144.868C76.6266 144.875 76.5407 144.893 76.5155 144.921C76.4012 145.034 76.28 145.851 76.1519 147.373C76.1318 147.501 76.0086 147.571 75.7822 147.583C75.5559 147.594 75.4377 147.504 75.4277 147.311C75.4029 146.831 75.5318 145.907 75.8147 144.537C76.0975 143.167 76.344 142.257 76.5543 141.805C76.8179 141.224 77.1161 140.925 77.449 140.908ZM77.4665 142.018C77.3667 142.023 77.2089 142.329 76.9933 142.934C76.7773 143.532 76.6729 143.902 76.6802 144.041C76.6819 144.075 76.6898 144.098 76.7038 144.11C76.7598 144.161 76.9719 144.197 77.3402 144.218C77.7084 144.239 77.9525 144.246 78.0723 144.24C78.1921 144.234 78.2584 144.223 78.271 144.209C78.2833 144.189 78.2872 144.135 78.2827 144.049C78.2779 143.955 78.169 143.594 77.9561 142.964C77.7429 142.328 77.5797 142.012 77.4665 142.018ZM84.5669 140.629C84.6546 140.517 84.7551 140.459 84.8683 140.453C84.9814 140.447 85.0809 140.499 85.1667 140.608C85.3099 141.181 85.4001 141.827 85.4374 142.546L85.4767 143.305C85.5064 143.878 85.514 144.218 85.4995 144.325C85.4847 144.426 85.4706 144.541 85.4572 144.668C85.4438 144.796 85.4288 144.893 85.4123 144.961C85.4024 145.028 85.3838 145.119 85.3563 145.234C85.2959 145.484 85.2041 145.709 85.0809 145.909C84.9005 146.292 84.6527 146.599 84.3375 146.829C84.0223 147.059 83.695 147.183 83.3554 147.2C83.0225 147.218 82.6687 147.089 82.294 146.815C81.926 146.54 81.6174 146.189 81.3683 145.761C80.9869 145.1 80.7732 144.327 80.7274 143.441C80.7111 143.128 80.7193 142.384 80.7518 141.207C80.7928 141.098 80.8579 141.001 80.947 140.916C81.0424 140.825 81.14 140.776 81.2399 140.771C81.3863 140.764 81.4814 140.859 81.525 141.057C81.4915 142.213 81.4827 142.945 81.4985 143.251C81.5365 143.983 81.7133 144.625 82.0289 145.176C82.228 145.54 82.4639 145.841 82.7367 146.081C83.0157 146.313 83.2818 146.423 83.5348 146.41C83.9542 146.388 84.2968 146.043 84.5626 145.375C84.6774 145.142 84.7285 144.776 84.7159 144.276C84.709 144.143 84.7108 144.049 84.7214 143.995L84.673 142.676C84.6413 142.064 84.5657 141.507 84.4463 141.006C84.439 140.866 84.4793 140.74 84.5669 140.629ZM86.6727 140.53L90.7142 140.26C90.9103 140.31 91.0119 140.402 91.0188 140.535C91.036 140.868 90.9082 141.041 90.6352 141.055C90.1359 141.081 89.6073 141.122 89.0494 141.178C89.0458 141.752 89.0516 142.185 89.0667 142.478C89.0816 142.765 89.0911 142.948 89.0952 143.028L89.3168 146.531C89.3275 146.737 89.2805 146.86 89.1757 146.899C89.0971 146.929 88.998 146.948 88.8781 146.954C88.6851 146.964 88.5728 146.86 88.5415 146.641C88.475 146.131 88.4055 145.176 88.333 143.778C88.2602 142.373 88.2364 141.527 88.2615 141.238C88.122 141.252 87.9158 141.266 87.6428 141.28C87.3699 141.295 87.0302 141.309 86.6237 141.323C86.5172 141.329 86.4322 141.3 86.3689 141.236C86.3055 141.173 86.2714 141.095 86.2666 141.001C86.2614 140.901 86.2963 140.803 86.3714 140.705C86.4531 140.608 86.5535 140.549 86.6727 140.53ZM94.4517 139.966C94.9177 139.942 95.3216 140.071 95.6634 140.354C96.3322 140.894 96.6987 141.782 96.7629 143.021C96.8267 144.252 96.524 145.239 95.8549 145.982C95.507 146.354 95.0942 146.569 94.6166 146.627C93.9841 146.659 93.4802 146.469 93.105 146.054C92.7297 145.64 92.4517 145.17 92.2709 144.645C92.0965 144.114 91.9964 143.598 91.9705 143.099C91.9263 142.247 92.093 141.534 92.4705 140.96C92.8659 140.346 93.5263 140.014 94.4517 139.966ZM94.4247 140.799C93.5326 140.845 92.9986 141.297 92.8227 142.154C92.7679 142.383 92.7496 142.675 92.7679 143.028C92.7862 143.38 92.8739 143.786 93.0313 144.246C93.2434 144.862 93.5325 145.288 93.8985 145.522C94.1132 145.671 94.367 145.738 94.6599 145.723C94.9528 145.708 95.2091 145.565 95.4287 145.293C95.6479 145.015 95.7902 144.67 95.8558 144.259C95.9213 143.849 95.9433 143.437 95.9219 143.024C95.884 142.292 95.7481 141.732 95.5144 141.343C95.2873 140.954 94.9241 140.773 94.4247 140.799ZM102.567 139.536C102.727 139.527 102.836 139.639 102.895 139.869C102.984 140.953 103.062 142.137 103.129 143.422C103.195 144.7 103.227 145.44 103.224 145.64C103.221 145.84 103.185 145.982 103.116 146.066C103.047 146.15 102.915 146.197 102.722 146.207C102.549 146.216 102.457 146.114 102.446 145.901L102.329 143.644C102.31 143.277 102.284 142.902 102.251 142.516C102.217 142.131 102.198 141.888 102.193 141.788C101.987 142.186 101.704 142.521 101.344 142.793C100.984 143.059 100.574 143.204 100.115 143.228C99.6553 143.251 99.2593 143.082 98.9268 142.718C98.9345 143.125 98.9528 143.608 98.9818 144.168C99.0105 144.72 99.044 145.302 99.0824 145.915C99.091 146.081 99.0408 146.207 98.9318 146.293C98.829 146.372 98.7078 146.415 98.5679 146.422C98.3882 146.431 98.2926 146.326 98.2812 146.106C98.2568 145.507 98.211 144.558 98.1437 143.26L97.9967 140.423C97.9909 140.31 98.0218 140.199 98.0895 140.088C98.1639 139.978 98.251 139.92 98.3509 139.914C98.4574 139.909 98.5555 139.934 98.6451 139.989C98.7345 140.038 98.7854 140.119 98.7979 140.232C98.8628 140.969 99.0111 141.512 99.2428 141.861C99.4745 142.209 99.7368 142.376 100.03 142.361C100.323 142.346 100.57 142.286 100.771 142.182C100.979 142.071 101.147 141.949 101.273 141.816C101.406 141.682 101.53 141.495 101.645 141.256C101.807 140.914 101.959 140.495 102.1 140.001C102.185 139.702 102.341 139.547 102.567 139.536ZM106.473 139.403C106.639 139.395 106.783 139.461 106.903 139.601C107.024 139.742 107.186 140.037 107.39 140.487C107.866 141.551 108.363 143.231 108.883 145.527C108.891 145.553 108.896 145.593 108.899 145.646C108.901 145.693 108.871 145.748 108.807 145.811C108.75 145.868 108.662 145.899 108.542 145.905C108.429 145.911 108.331 145.889 108.248 145.84C108.165 145.784 108.107 145.694 108.074 145.569C108.04 145.437 107.977 145.183 107.884 144.808C107.681 143.97 107.551 143.537 107.496 143.506C107.414 143.464 107.145 143.427 106.69 143.398C106.241 143.367 105.943 143.356 105.797 143.364C105.65 143.371 105.564 143.389 105.539 143.417C105.425 143.53 105.304 144.347 105.175 145.869C105.155 145.997 105.032 146.067 104.806 146.079C104.579 146.09 104.461 146 104.451 145.807C104.426 145.327 104.555 144.403 104.838 143.033C105.121 141.663 105.368 140.752 105.578 140.301C105.841 139.72 106.14 139.421 106.473 139.403ZM106.49 140.514C106.39 140.519 106.232 140.824 106.017 141.43C105.801 142.028 105.696 142.398 105.704 142.537C105.705 142.571 105.713 142.594 105.727 142.606C105.783 142.657 105.995 142.693 106.364 142.714C106.732 142.734 106.976 142.742 107.096 142.736C107.216 142.729 107.282 142.719 107.295 142.705C107.307 142.685 107.311 142.631 107.306 142.545C107.301 142.451 107.193 142.09 106.98 141.46C106.766 140.823 106.603 140.508 106.49 140.514ZM109.706 139.336L113.748 139.066C113.944 139.116 114.045 139.208 114.052 139.341C114.07 139.674 113.942 139.848 113.669 139.862C113.169 139.888 112.641 139.928 112.083 139.984C112.079 140.558 112.085 140.992 112.1 141.285C112.115 141.571 112.125 141.754 112.129 141.834L112.35 145.337C112.361 145.544 112.314 145.666 112.209 145.705C112.131 145.736 112.032 145.754 111.912 145.76C111.719 145.77 111.606 145.666 111.575 145.447C111.509 144.937 111.439 143.983 111.367 142.584C111.294 141.18 111.27 140.333 111.295 140.045C111.156 140.059 110.949 140.073 110.676 140.087C110.403 140.101 110.064 140.115 109.657 140.13C109.551 140.135 109.466 140.106 109.402 140.043C109.339 139.979 109.305 139.901 109.3 139.808C109.295 139.708 109.33 139.609 109.405 139.512C109.487 139.414 109.587 139.356 109.706 139.336ZM115.433 139.169C115.536 139.097 115.654 139.058 115.787 139.051C115.921 139.044 116.008 139.116 116.049 139.268C116.096 140.04 116.169 141.194 116.268 142.731C116.317 143.67 116.332 144.467 116.312 145.122C116.304 145.222 116.246 145.316 116.136 145.401C116.034 145.48 115.926 145.522 115.813 145.528C115.626 145.538 115.528 145.446 115.518 145.253C115.55 144.584 115.541 143.757 115.49 142.771L115.256 139.419C115.277 139.324 115.337 139.241 115.433 139.169ZM120.335 138.625C120.801 138.601 121.205 138.73 121.547 139.013C122.215 139.552 122.582 140.441 122.646 141.679C122.71 142.911 122.407 143.898 121.738 144.64C121.39 145.012 120.977 145.227 120.5 145.285C119.867 145.318 119.363 145.127 118.988 144.713C118.613 144.298 118.335 143.829 118.154 143.304C117.98 142.772 117.88 142.257 117.854 141.758C117.81 140.905 117.976 140.193 118.354 139.619C118.749 139.004 119.41 138.673 120.335 138.625ZM120.308 139.458C119.416 139.504 118.882 139.955 118.706 140.812C118.651 141.042 118.633 141.333 118.651 141.686C118.669 142.039 118.757 142.445 118.914 142.904C119.127 143.521 119.416 143.946 119.782 144.181C119.996 144.33 120.25 144.397 120.543 144.382C120.836 144.367 121.092 144.223 121.312 143.952C121.531 143.673 121.673 143.329 121.739 142.918C121.804 142.507 121.827 142.096 121.805 141.683C121.767 140.951 121.631 140.39 121.398 140.002C121.171 139.613 120.807 139.432 120.308 139.458ZM127.557 138.341C127.621 138.297 127.707 138.273 127.813 138.268C127.92 138.262 128.019 138.304 128.11 138.392C128.201 138.474 128.25 138.575 128.256 138.695C128.391 141.298 128.482 142.872 128.531 143.417C128.585 143.955 128.613 144.231 128.613 144.244C128.621 144.391 128.588 144.532 128.515 144.67C128.442 144.8 128.355 144.868 128.256 144.873C128.162 144.878 128.089 144.879 128.035 144.875C127.988 144.864 127.944 144.853 127.903 144.842C127.863 144.83 127.821 144.806 127.779 144.768L127.674 144.673C127.646 144.648 127.607 144.6 127.557 144.529C127.513 144.451 127.476 144.39 127.447 144.345C127.418 144.299 127.371 144.222 127.305 144.112C127.245 143.995 127.11 143.761 126.898 143.412C126.693 143.062 126.507 142.748 126.339 142.469C125.763 141.531 125.234 140.794 124.752 140.259C124.864 142.422 124.882 143.927 124.806 144.772C124.794 144.933 124.675 145.019 124.449 145.031C124.342 145.036 124.251 145.014 124.175 144.965C124.105 144.915 124.068 144.83 124.061 144.71C124.055 144.59 124.044 143.93 124.029 142.729C124.02 141.528 124.008 140.781 123.993 140.488C123.977 140.189 123.968 139.999 123.963 139.919C123.939 139.44 123.961 139.168 124.031 139.104C124.101 139.041 124.176 139.007 124.256 139.003C124.623 138.984 125.213 139.554 126.027 140.713C126.186 140.939 126.491 141.413 126.942 142.138C127.393 142.855 127.663 143.299 127.752 143.468L127.418 139.329C127.388 138.757 127.434 138.427 127.557 138.341ZM79.2039 159.892C79.6499 159.869 80.1471 159.93 80.6953 160.075C80.82 160.162 80.8853 160.262 80.8912 160.375C80.8967 160.482 80.8451 160.581 80.7364 160.674C80.634 160.759 80.5129 160.806 80.3731 160.813C80.0087 160.738 79.6701 160.709 79.3572 160.725C78.6382 160.763 78.1033 161.004 77.7525 161.449C77.4018 161.895 77.2481 162.537 77.2916 163.376C77.3351 164.215 77.5888 164.859 78.0527 165.309C78.2918 165.544 78.5678 165.653 78.8807 165.637C79.1936 165.62 79.6843 165.428 80.3528 165.06C80.5867 164.934 80.7435 164.869 80.8234 164.865C80.9965 164.856 81.0877 164.941 81.097 165.121C81.1063 165.301 81.0309 165.455 80.8707 165.583C80.3136 165.913 79.8781 166.139 79.564 166.262C79.2496 166.378 78.9759 166.443 78.7429 166.455C78.2635 166.48 77.8449 166.324 77.4871 165.989C76.8474 165.368 76.4985 164.495 76.4402 163.37C76.3815 162.238 76.6245 161.388 77.1691 160.819C77.72 160.243 78.3983 159.934 79.2039 159.892ZM84.8691 159.488C85.3351 159.464 85.739 159.594 86.0808 159.876C86.7496 160.416 87.1161 161.305 87.1803 162.543C87.2441 163.775 86.9414 164.762 86.2723 165.504C85.9244 165.876 85.5116 166.091 85.034 166.149C84.4015 166.182 83.8976 165.991 83.5223 165.576C83.1471 165.162 82.8691 164.692 82.6883 164.168C82.5139 163.636 82.4138 163.12 82.3879 162.621C82.3437 161.769 82.5104 161.056 82.8879 160.482C83.2833 159.868 83.9437 159.536 84.8691 159.488ZM84.8421 160.321C83.95 160.367 83.416 160.819 83.2401 161.676C83.1853 161.905 83.167 162.197 83.1853 162.55C83.2035 162.903 83.2913 163.309 83.4486 163.768C83.6608 164.384 83.9499 164.81 84.3159 165.044C84.5306 165.194 84.7844 165.261 85.0773 165.245C85.3702 165.23 85.6265 165.087 85.8461 164.815C86.0653 164.537 86.2076 164.192 86.2731 163.781C86.3387 163.371 86.3607 162.959 86.3393 162.546C86.3014 161.814 86.1655 161.254 85.9318 160.865C85.7047 160.476 85.3415 160.295 84.8421 160.321ZM92.0907 159.204C92.1552 159.161 92.2407 159.136 92.3473 159.131C92.4538 159.125 92.5527 159.167 92.6441 159.256C92.7351 159.338 92.7838 159.439 92.79 159.559C92.9249 162.162 93.0165 163.736 93.0647 164.281C93.1193 164.819 93.1469 165.094 93.1476 165.107C93.1552 165.254 93.1225 165.396 93.0495 165.533C92.9762 165.664 92.8896 165.732 92.7897 165.737C92.6965 165.742 92.6231 165.742 92.5695 165.738C92.5222 165.727 92.4782 165.716 92.4376 165.705C92.397 165.694 92.3556 165.669 92.3136 165.631L92.2086 165.537C92.1806 165.511 92.1414 165.463 92.091 165.393C92.0469 165.315 92.0103 165.253 91.9813 165.208C91.9522 165.163 91.9048 165.085 91.839 164.975C91.7795 164.858 91.644 164.625 91.4323 164.275C91.2272 163.925 91.0407 163.611 90.8727 163.333C90.2967 162.395 89.7679 161.658 89.2862 161.122C89.3983 163.286 89.4162 164.79 89.3398 165.635C89.3281 165.796 89.2091 165.882 88.9828 165.894C88.8762 165.9 88.785 165.878 88.709 165.828C88.6396 165.778 88.6019 165.694 88.5957 165.574C88.5894 165.454 88.5786 164.794 88.5631 163.593C88.5542 162.392 88.5422 161.645 88.5271 161.352C88.5115 161.052 88.5017 160.862 88.4976 160.782C88.4727 160.303 88.4954 160.031 88.5655 159.968C88.6356 159.904 88.7106 159.87 88.7905 159.866C89.1567 159.847 89.747 160.417 90.5614 161.577C90.72 161.802 91.025 162.277 91.4764 163.001C91.9275 163.719 92.1974 164.162 92.2863 164.331L91.9517 160.193C91.922 159.62 91.9683 159.291 92.0907 159.204ZM94.1239 159.169L98.1653 158.899C98.3615 158.949 98.4631 159.041 98.47 159.174C98.4872 159.507 98.3593 159.681 98.0864 159.695C97.5871 159.721 97.0585 159.761 96.5006 159.817C96.497 160.391 96.5027 160.825 96.5179 161.118C96.5328 161.404 96.5423 161.587 96.5464 161.667L96.768 165.17C96.7787 165.377 96.7316 165.499 96.6268 165.538C96.5483 165.569 96.4491 165.587 96.3293 165.593C96.1362 165.603 96.024 165.499 95.9927 165.28C95.9261 164.77 95.8567 163.816 95.7842 162.417C95.7114 161.013 95.6876 160.166 95.7127 159.878C95.5732 159.892 95.367 159.906 95.094 159.92C94.8211 159.934 94.4813 159.948 94.0749 159.963C93.9683 159.968 93.8834 159.939 93.82 159.876C93.7567 159.812 93.7226 159.734 93.7177 159.641C93.7126 159.541 93.7475 159.442 93.8226 159.345C93.9043 159.247 94.0047 159.189 94.1239 159.169ZM99.5624 161.941C99.466 161.886 99.415 161.802 99.4091 161.689C99.4032 161.576 99.4345 161.471 99.5029 161.374C99.4418 160.709 99.3921 160.007 99.3538 159.268C99.3854 159.107 99.4393 158.987 99.5154 158.91C99.5982 158.832 99.7189 158.779 99.8777 158.751C100.759 158.745 101.712 158.716 102.737 158.663C102.993 158.703 103.125 158.806 103.134 158.972C103.148 159.252 102.883 159.429 102.34 159.504C102.194 159.519 102.034 159.53 101.861 159.539L101.212 159.573C101.085 159.579 100.735 159.571 100.159 159.547C100.202 160.379 100.245 160.951 100.288 161.263C100.641 161.251 101.321 161.219 102.326 161.167C102.568 161.201 102.694 161.305 102.703 161.478C102.711 161.645 102.621 161.779 102.433 161.883C102.414 161.897 102.378 161.912 102.325 161.928L100.596 161.988C100.49 161.993 100.403 162.005 100.338 162.021L100.467 163.737C100.487 164.123 100.491 164.4 100.479 164.567L102.795 164.417C103.01 164.44 103.121 164.524 103.128 164.67C103.134 164.77 103.092 164.873 103.004 164.977C102.923 165.082 102.823 165.15 102.704 165.183L100.15 165.355C99.9967 165.363 99.8888 165.342 99.8261 165.292C99.7631 165.235 99.7281 165.14 99.7212 165.007C99.7382 164.819 99.736 164.519 99.7146 164.106L99.6784 163.407L99.5624 161.941ZM107.993 158.38C108.058 158.337 108.143 158.312 108.25 158.307C108.356 158.301 108.455 158.343 108.547 158.432C108.638 158.514 108.686 158.615 108.692 158.734C108.827 161.338 108.919 162.912 108.967 163.457C109.022 163.994 109.049 164.27 109.05 164.283C109.058 164.43 109.025 164.572 108.952 164.709C108.879 164.84 108.792 164.908 108.692 164.913C108.599 164.918 108.526 164.918 108.472 164.914C108.425 164.903 108.381 164.892 108.34 164.881C108.299 164.87 108.258 164.845 108.216 164.807L108.111 164.713C108.083 164.687 108.044 164.639 107.993 164.568C107.949 164.491 107.913 164.429 107.884 164.384C107.855 164.339 107.807 164.261 107.742 164.151C107.682 164.034 107.546 163.801 107.335 163.451C107.13 163.101 106.943 162.787 106.775 162.509C106.199 161.571 105.67 160.834 105.189 160.298C105.301 162.462 105.319 163.966 105.242 164.811C105.231 164.972 105.112 165.058 104.885 165.07C104.779 165.076 104.687 165.054 104.611 165.004C104.542 164.954 104.504 164.869 104.498 164.75C104.492 164.63 104.481 163.969 104.466 162.769C104.457 161.567 104.445 160.82 104.43 160.527C104.414 160.228 104.404 160.038 104.4 159.958C104.375 159.479 104.398 159.207 104.468 159.144C104.538 159.08 104.613 159.046 104.693 159.042C105.059 159.023 105.649 159.593 106.464 160.753C106.622 160.978 106.927 161.453 107.379 162.177C107.83 162.895 108.1 163.338 108.189 163.507L107.854 159.369C107.824 158.796 107.871 158.467 107.993 158.38ZM110.026 158.345L114.068 158.075C114.264 158.125 114.366 158.217 114.372 158.35C114.39 158.683 114.262 158.856 113.989 158.871C113.49 158.896 112.961 158.937 112.403 158.993C112.399 159.567 112.405 160.001 112.42 160.294C112.435 160.58 112.445 160.763 112.449 160.843L112.67 164.346C112.681 164.553 112.634 164.675 112.529 164.714C112.451 164.745 112.352 164.763 112.232 164.769C112.039 164.779 111.927 164.675 111.895 164.456C111.829 163.946 111.759 162.991 111.687 161.593C111.614 160.189 111.59 159.342 111.615 159.054C111.476 159.068 111.269 159.082 110.997 159.096C110.724 159.11 110.384 159.124 109.977 159.139C109.871 159.144 109.786 159.115 109.723 159.052C109.659 158.988 109.625 158.91 109.62 158.817C109.615 158.717 109.65 158.618 109.725 158.521C109.807 158.423 109.907 158.364 110.026 158.345ZM77.6866 184.524C77.6044 183.84 77.5332 182.916 77.4728 181.751C77.4121 180.579 77.3894 179.819 77.4047 179.471C77.427 179.257 77.5662 179.109 77.8224 179.029C78.0783 178.943 78.4192 178.888 78.8453 178.866C79.4712 178.834 80.0042 178.943 80.4444 179.194C80.891 179.438 81.1279 179.823 81.1552 180.349C81.1776 180.781 81.1365 181.147 81.0318 181.446C80.9268 181.739 80.788 181.96 80.6155 182.109C80.3343 182.35 79.9074 182.486 79.3349 182.516C79.0885 182.528 78.7639 182.512 78.361 182.466C78.4633 183.796 78.5201 184.634 78.5314 184.981C78.5426 185.327 78.4351 185.506 78.2087 185.518C78.0623 185.526 77.9677 185.504 77.925 185.453C77.8823 185.401 77.8537 185.366 77.8394 185.347C77.8247 185.321 77.8095 185.285 77.7938 185.239C77.778 185.193 77.7661 185.157 77.7581 185.131C77.7497 185.098 77.7406 185.052 77.7309 184.992C77.7278 184.932 77.722 184.886 77.7136 184.853C77.7018 184.753 77.6928 184.644 77.6866 184.524ZM80.3278 180.421C80.3137 180.149 80.1562 179.943 79.8553 179.805C79.5541 179.66 79.237 179.597 78.9041 179.614C78.5712 179.631 78.3398 179.673 78.2097 179.74C78.2035 180.134 78.2089 180.498 78.2262 180.831C78.2431 181.157 78.2718 181.453 78.3122 181.718C78.493 181.728 78.617 181.738 78.6843 181.748C78.8584 181.759 79.0054 181.762 79.1253 181.755C79.2517 181.749 79.335 181.745 79.3749 181.743C79.4212 181.733 79.5039 181.719 79.623 181.7C79.7485 181.673 79.8368 181.639 79.888 181.596C79.9392 181.553 80.003 181.496 80.0795 181.426C80.1559 181.355 80.2085 181.275 80.2373 181.187C80.3115 180.943 80.3416 180.688 80.3278 180.421ZM82.8487 181.833C82.7524 181.778 82.7013 181.694 82.6954 181.58C82.6896 181.467 82.7208 181.362 82.7892 181.265C82.7281 180.601 82.6784 179.899 82.6401 179.16C82.6718 178.998 82.7256 178.879 82.8017 178.801C82.8845 178.724 83.0053 178.671 83.164 178.642C84.0449 178.637 84.998 178.607 86.0233 178.554C86.279 178.594 86.4112 178.698 86.4198 178.864C86.4343 179.144 86.1698 179.321 85.6263 179.396C85.4802 179.41 85.3206 179.422 85.1475 179.431L84.4983 179.464C84.3718 179.471 84.0209 179.462 83.4456 179.439C83.4887 180.271 83.5317 180.843 83.5746 181.154C83.9278 181.143 84.607 181.111 85.6123 181.059C85.8544 181.093 85.98 181.197 85.9889 181.37C85.9976 181.536 85.9078 181.671 85.7195 181.774C85.7002 181.789 85.6643 181.804 85.6117 181.82L83.8825 181.879C83.776 181.885 83.6898 181.896 83.6239 181.913L83.7528 183.629C83.7729 184.015 83.7772 184.291 83.7658 184.459L86.0812 184.309C86.2959 184.331 86.4071 184.416 86.4147 184.562C86.4199 184.662 86.3785 184.764 86.2904 184.869C86.2091 184.973 86.1091 185.042 85.9907 185.075L83.4362 185.247C83.2831 185.255 83.1751 185.234 83.1125 185.184C83.0494 185.127 83.0145 185.032 83.0076 184.899C83.0246 184.711 83.0223 184.411 83.001 183.998L82.9647 183.299L82.8487 181.833ZM88.5608 184.551C88.5671 184.671 88.5195 184.783 88.4181 184.889C88.3164 184.987 88.2024 185.04 88.0759 185.047C87.956 185.053 87.8687 184.977 87.8138 184.82C87.7483 183.942 87.6929 183.067 87.6477 182.195L87.4873 179.68C87.4611 179.174 87.6662 178.816 88.1026 178.607C88.4535 178.422 88.8753 178.316 89.368 178.291C89.6209 178.278 89.8939 178.327 90.1867 178.439C90.4858 178.543 90.7548 178.71 90.9936 178.938C91.2387 179.158 91.3685 179.409 91.383 179.688C91.3971 179.961 91.286 180.264 91.0495 180.597C90.8128 180.923 90.5143 181.219 90.1543 181.484C89.7939 181.743 89.4403 181.942 89.0937 182.08C89.7353 182.481 90.2987 182.919 90.784 183.394C91.2689 183.863 91.5184 184.234 91.5326 184.507C91.537 184.594 91.4981 184.679 91.4157 184.763C91.3329 184.841 91.2283 184.883 91.1018 184.89C90.982 184.896 90.876 184.848 90.7839 184.746C90.6192 184.401 90.3204 184.046 89.8876 183.681C89.4611 183.309 88.9658 182.961 88.4016 182.637L88.5608 184.551ZM88.3656 181.557C88.8107 181.514 89.3003 181.302 89.8347 180.92C90.3756 180.538 90.6389 180.208 90.6244 179.928C90.6095 179.642 90.4583 179.429 90.1708 179.291C89.8832 179.152 89.5464 179.093 89.1602 179.113C88.7807 179.132 88.4802 179.195 88.2587 179.3C88.2696 179.639 88.3053 180.392 88.3656 181.557ZM94.7428 178.032C95.1755 178.01 95.5455 178.064 95.8527 178.195C96.1665 178.326 96.3293 178.504 96.3411 178.73C96.3462 178.83 96.3241 178.918 96.2746 178.994C96.2318 179.07 96.1605 179.11 96.0606 179.116C95.9674 179.12 95.7572 179.058 95.4301 178.928C95.1026 178.791 94.8056 178.73 94.5393 178.744C94.2797 178.757 94.0144 178.854 93.7434 179.035C93.4724 179.216 93.3431 179.427 93.3555 179.666C93.3724 179.992 93.5546 180.223 93.9021 180.359C94.1609 180.459 94.5291 180.543 95.0067 180.612C95.4838 180.674 95.8795 180.837 96.1936 181.101C96.5073 181.359 96.6787 181.767 96.7077 182.326C96.7518 183.179 96.5281 183.821 96.0365 184.254C95.7619 184.495 95.3617 184.629 94.8357 184.656C94.3164 184.683 93.7897 184.567 93.2556 184.308C92.9067 184.145 92.7276 183.975 92.7183 183.795C92.7149 183.728 92.7377 183.654 92.7868 183.571C92.8426 183.488 92.919 183.417 93.0161 183.359C93.1132 183.3 93.2028 183.289 93.2847 183.325C93.373 183.354 93.5128 183.41 93.704 183.493C93.8953 183.577 94.035 183.633 94.1233 183.662C94.4085 183.754 94.6742 183.794 94.9205 183.781C95.1669 183.768 95.397 183.636 95.6109 183.385C95.8312 183.126 95.9322 182.82 95.9139 182.468C95.8897 182.002 95.6398 181.687 95.1641 181.525C94.9329 181.444 94.673 181.387 94.3843 181.355C93.7862 181.279 93.331 181.126 93.0187 180.895C92.7059 180.658 92.5365 180.286 92.5103 179.78C92.484 179.274 92.6799 178.867 93.0978 178.558C93.5154 178.243 94.0637 178.067 94.7428 178.032ZM100.224 177.718C100.69 177.694 101.094 177.823 101.435 178.106C102.104 178.645 102.471 179.534 102.535 180.773C102.599 182.004 102.296 182.991 101.627 183.734C101.279 184.105 100.866 184.32 100.389 184.379C99.7562 184.411 99.2523 184.221 98.877 183.806C98.5017 183.392 98.2237 182.922 98.043 182.397C97.8685 181.866 97.7684 181.35 97.7425 180.851C97.6984 179.999 97.865 179.286 98.2425 178.712C98.6379 178.097 99.2983 177.766 100.224 177.718ZM100.197 178.551C99.3046 178.597 98.7706 179.049 98.5947 179.905C98.5399 180.135 98.5216 180.427 98.5399 180.779C98.5582 181.132 98.646 181.538 98.8033 181.997C99.0155 182.614 99.3046 183.04 99.6705 183.274C99.8852 183.423 100.139 183.49 100.432 183.475C100.725 183.46 100.981 183.316 101.201 183.045C101.42 182.766 101.562 182.422 101.628 182.011C101.693 181.601 101.715 181.189 101.694 180.776C101.656 180.044 101.52 179.483 101.286 179.095C101.059 178.706 100.696 178.525 100.197 178.551ZM107.445 177.434C107.51 177.391 107.595 177.366 107.702 177.361C107.808 177.355 107.907 177.397 107.999 177.486C108.09 177.568 108.138 177.669 108.145 177.788C108.28 180.392 108.371 181.966 108.419 182.51C108.474 183.048 108.502 183.324 108.502 183.337C108.51 183.484 108.477 183.626 108.404 183.763C108.331 183.894 108.244 183.961 108.144 183.967C108.051 183.971 107.978 183.972 107.924 183.968C107.877 183.957 107.833 183.946 107.792 183.935C107.752 183.924 107.71 183.899 107.668 183.861L107.563 183.766C107.535 183.741 107.496 183.693 107.446 183.622C107.402 183.545 107.365 183.483 107.336 183.438C107.307 183.393 107.259 183.315 107.194 183.205C107.134 183.088 106.999 182.854 106.787 182.505C106.582 182.155 106.395 181.841 106.227 181.563C105.651 180.625 105.123 179.888 104.641 179.352C104.753 181.516 104.771 183.02 104.694 183.865C104.683 184.026 104.564 184.112 104.337 184.124C104.231 184.129 104.14 184.107 104.064 184.058C103.994 184.008 103.956 183.923 103.95 183.803C103.944 183.684 103.933 183.023 103.918 181.823C103.909 180.621 103.897 179.874 103.882 179.581C103.866 179.282 103.856 179.092 103.852 179.012C103.827 178.533 103.85 178.261 103.92 178.198C103.99 178.134 104.065 178.1 104.145 178.096C104.511 178.077 105.102 178.647 105.916 179.806C106.075 180.032 106.38 180.507 106.831 181.231C107.282 181.949 107.552 182.392 107.641 182.561L107.306 178.423C107.277 177.85 107.323 177.521 107.445 177.434ZM111.62 177.188C111.787 177.179 111.931 177.245 112.051 177.386C112.172 177.526 112.334 177.822 112.538 178.272C113.013 179.335 113.511 181.015 114.031 183.311C114.039 183.337 114.044 183.377 114.047 183.43C114.049 183.477 114.019 183.532 113.955 183.595C113.898 183.652 113.81 183.683 113.69 183.689C113.577 183.695 113.479 183.674 113.396 183.624C113.313 183.569 113.255 183.478 113.222 183.353C113.188 183.221 113.125 182.968 113.032 182.592C112.828 181.755 112.699 181.321 112.644 181.29C112.562 181.248 112.293 181.212 111.837 181.182C111.389 181.152 111.091 181.14 110.944 181.148C110.798 181.156 110.712 181.173 110.687 181.201C110.573 181.314 110.451 182.131 110.323 183.653C110.303 183.781 110.18 183.851 109.954 183.863C109.727 183.875 109.609 183.784 109.599 183.591C109.574 183.112 109.703 182.187 109.986 180.817C110.269 179.447 110.515 178.537 110.726 178.085C110.989 177.504 111.288 177.205 111.62 177.188ZM111.638 178.298C111.538 178.303 111.38 178.609 111.165 179.214C110.949 179.813 110.844 180.182 110.852 180.322C110.853 180.355 110.861 180.378 110.875 180.391C110.931 180.441 111.143 180.477 111.512 180.498C111.88 180.519 112.124 180.526 112.244 180.52C112.364 180.514 112.43 180.504 112.442 180.49C112.455 180.469 112.459 180.415 112.454 180.329C112.449 180.236 112.34 179.874 112.128 179.244C111.914 178.608 111.751 178.292 111.638 178.298ZM114.948 182.222L114.918 181.443L114.791 177.264C114.787 177.184 114.827 177.118 114.911 177.067C114.996 177.016 115.104 176.987 115.237 176.98C115.557 176.964 115.723 177.069 115.734 177.295C115.738 177.368 115.727 177.929 115.701 178.979C115.682 180.028 115.678 180.656 115.689 180.862C115.689 180.862 115.707 181.215 115.744 181.921C115.77 182.42 115.817 182.691 115.886 182.734C115.988 182.762 116.105 182.773 116.238 182.766L117.671 182.592C117.984 182.576 118.146 182.681 118.158 182.907C118.167 183.087 118.088 183.224 117.919 183.32C117.757 183.408 117.593 183.464 117.427 183.486C117.261 183.501 117.058 183.515 116.818 183.527C115.773 183.581 115.205 183.577 115.115 183.515C115.067 183.478 115.032 183.329 115.012 183.07C114.992 182.804 114.975 182.618 114.963 182.512C114.958 182.405 114.953 182.309 114.948 182.222ZM119.625 177.003C119.728 176.931 119.846 176.892 119.979 176.885C120.113 176.878 120.2 176.95 120.241 177.101C120.288 177.873 120.361 179.028 120.461 180.565C120.509 181.503 120.524 182.3 120.504 182.956C120.496 183.056 120.438 183.149 120.329 183.235C120.226 183.314 120.118 183.356 120.005 183.362C119.818 183.372 119.72 183.28 119.71 183.087C119.742 182.418 119.733 181.59 119.682 180.605L119.448 177.253C119.47 177.158 119.529 177.075 119.625 177.003ZM124.102 183.14L122.586 183.258C122.573 183.259 122.536 183.261 122.476 183.264C122.423 183.267 122.372 183.246 122.323 183.202C122.274 183.151 122.246 183.066 122.24 182.946C122.306 182.428 122.418 182.015 122.576 181.707C122.733 181.392 122.956 181.05 123.244 180.681C123.538 180.312 123.726 180.072 123.807 179.961C122.975 179.864 122.551 179.685 122.538 179.426C122.531 179.286 122.568 179.17 122.65 179.079C122.739 178.981 122.813 178.931 122.873 178.928C122.933 178.925 123.128 178.961 123.459 179.037C123.796 179.107 124.112 179.147 124.407 179.159C124.425 179.124 124.49 179.027 124.602 178.868C124.714 178.709 124.816 178.563 124.91 178.432C125.139 178.093 125.332 177.759 125.489 177.43C124.687 177.298 123.598 177.268 122.22 177.339C121.993 177.351 121.875 177.254 121.864 177.047C121.86 176.974 121.906 176.888 122.001 176.79C122.095 176.685 122.212 176.622 122.352 176.602C122.497 176.581 122.747 176.561 123.099 176.543C123.452 176.524 123.987 176.543 124.705 176.6C125.743 176.679 126.299 176.838 126.371 177.074C126.379 177.094 126.385 177.14 126.389 177.213C126.392 177.28 126.343 177.423 126.241 177.642C126.103 177.949 125.826 178.404 125.41 179.006C125.354 179.089 125.311 179.152 125.28 179.193C125.306 179.192 125.366 179.189 125.459 179.184C125.559 179.172 125.625 179.169 125.659 179.174C125.692 179.172 125.739 179.176 125.8 179.187C125.935 179.22 126.007 179.326 126.017 179.506C126.026 179.679 125.942 179.803 125.766 179.879C125.596 179.948 125.451 179.986 125.331 179.992C125.218 179.998 125.135 180.002 125.081 180.005L124.72 179.984C124.312 180.492 124.018 180.871 123.837 181.121C123.533 181.564 123.322 181.999 123.204 182.425L124.574 182.394C124.781 182.384 125.013 182.361 125.272 182.328L125.818 182.25C125.871 182.24 125.924 182.234 125.978 182.231C126.038 182.228 126.108 182.228 126.188 182.231C126.362 182.235 126.474 182.346 126.526 182.563C126.561 182.729 126.484 182.849 126.294 182.926C126.085 183.01 125.87 183.058 125.651 183.069C125.431 183.087 125.265 183.099 125.152 183.105L124.322 183.128C124.255 183.132 124.182 183.136 124.102 183.14ZM129.622 176.255C129.788 176.246 129.932 176.312 130.053 176.453C130.173 176.593 130.335 176.889 130.539 177.339C131.015 178.402 131.512 180.082 132.032 182.378C132.04 182.405 132.045 182.444 132.048 182.498C132.05 182.544 132.02 182.599 131.956 182.663C131.899 182.719 131.811 182.75 131.691 182.756C131.578 182.762 131.48 182.741 131.397 182.692C131.314 182.636 131.256 182.545 131.223 182.42C131.189 182.288 131.126 182.035 131.033 181.659C130.83 180.822 130.7 180.388 130.645 180.357C130.563 180.315 130.294 180.279 129.839 180.249C129.39 180.219 129.092 180.208 128.946 180.215C128.799 180.223 128.713 180.24 128.688 180.269C128.574 180.381 128.453 181.199 128.325 182.721C128.304 182.848 128.181 182.918 127.955 182.93C127.729 182.942 127.61 182.851 127.6 182.658C127.576 182.179 127.705 181.254 127.987 179.884C128.27 178.514 128.517 177.604 128.727 177.152C128.991 176.571 129.289 176.272 129.622 176.255ZM129.639 177.365C129.539 177.371 129.382 177.676 129.166 178.281C128.95 178.88 128.846 179.249 128.853 179.389C128.855 179.422 128.862 179.445 128.876 179.458C128.932 179.508 129.145 179.544 129.513 179.565C129.881 179.586 130.125 179.593 130.245 179.587C130.365 179.581 130.431 179.571 130.444 179.557C130.456 179.536 130.46 179.482 130.455 179.396C130.451 179.303 130.342 178.941 130.129 178.311C129.916 177.675 129.752 177.36 129.639 177.365ZM132.855 176.187L136.897 175.918C137.093 175.968 137.195 176.059 137.201 176.192C137.219 176.525 137.091 176.699 136.818 176.713C136.319 176.739 135.79 176.78 135.232 176.835C135.228 177.41 135.234 177.843 135.249 178.136C135.264 178.422 135.274 178.605 135.278 178.685L135.499 182.189C135.51 182.395 135.463 182.518 135.358 182.556C135.28 182.587 135.181 182.606 135.061 182.612C134.868 182.622 134.755 182.518 134.724 182.299C134.658 181.788 134.588 180.834 134.516 179.436C134.443 178.031 134.419 177.184 134.444 176.896C134.305 176.91 134.098 176.924 133.825 176.938C133.553 176.952 133.213 176.967 132.806 176.981C132.7 176.986 132.615 176.958 132.552 176.894C132.488 176.831 132.454 176.752 132.449 176.659C132.444 176.559 132.479 176.461 132.554 176.363C132.636 176.266 132.736 176.207 132.855 176.187ZM138.582 176.021C138.685 175.949 138.803 175.909 138.936 175.902C139.07 175.895 139.157 175.968 139.198 176.119C139.245 176.891 139.318 178.045 139.418 179.582C139.466 180.521 139.481 181.318 139.461 181.973C139.453 182.074 139.395 182.167 139.286 182.253C139.183 182.331 139.075 182.374 138.962 182.38C138.775 182.389 138.677 182.298 138.667 182.105C138.699 181.435 138.69 180.608 138.639 179.623L138.405 176.27C138.427 176.176 138.486 176.093 138.582 176.021ZM143.484 175.476C143.95 175.452 144.354 175.581 144.696 175.864C145.365 176.404 145.731 177.293 145.795 178.531C145.859 179.763 145.556 180.75 144.887 181.492C144.539 181.864 144.127 182.079 143.649 182.137C143.016 182.17 142.513 181.979 142.137 181.564C141.762 181.15 141.484 180.68 141.303 180.155C141.129 179.624 141.029 179.108 141.003 178.609C140.959 177.757 141.125 177.044 141.503 176.47C141.898 175.856 142.559 175.524 143.484 175.476ZM143.457 176.309C142.565 176.355 142.031 176.807 141.855 177.664C141.8 177.893 141.782 178.185 141.8 178.538C141.818 178.89 141.906 179.296 142.064 179.756C142.276 180.372 142.565 180.798 142.931 181.032C143.146 181.182 143.399 181.248 143.692 181.233C143.985 181.218 144.241 181.075 144.461 180.803C144.68 180.525 144.823 180.18 144.888 179.769C144.954 179.359 144.976 178.947 144.954 178.534C144.916 177.802 144.78 177.242 144.547 176.853C144.32 176.464 143.956 176.283 143.457 176.309ZM150.706 175.192C150.77 175.149 150.856 175.124 150.962 175.119C151.069 175.113 151.168 175.155 151.259 175.244C151.35 175.326 151.399 175.427 151.405 175.547C151.54 178.15 151.631 179.724 151.68 180.269C151.734 180.807 151.762 181.082 151.763 181.095C151.77 181.242 151.737 181.384 151.664 181.521C151.591 181.652 151.505 181.72 151.405 181.725C151.311 181.73 151.238 181.73 151.184 181.726C151.137 181.715 151.093 181.704 151.053 181.693C151.012 181.682 150.971 181.657 150.929 181.619L150.824 181.525C150.796 181.499 150.756 181.451 150.706 181.381C150.662 181.303 150.625 181.241 150.596 181.196C150.567 181.151 150.52 181.073 150.454 180.963C150.394 180.846 150.259 180.613 150.047 180.263C149.842 179.913 149.656 179.599 149.488 179.321C148.912 178.383 148.383 177.646 147.901 177.11C148.013 179.274 148.031 180.778 147.955 181.623C147.943 181.784 147.824 181.87 147.598 181.882C147.491 181.888 147.4 181.866 147.324 181.816C147.255 181.766 147.217 181.681 147.211 181.562C147.204 181.442 147.194 180.781 147.178 179.581C147.169 178.38 147.157 177.632 147.142 177.34C147.126 177.04 147.117 176.85 147.113 176.77C147.088 176.291 147.11 176.019 147.18 175.956C147.251 175.892 147.326 175.858 147.405 175.854C147.772 175.835 148.362 176.405 149.176 177.565C149.335 177.79 149.64 178.265 150.091 178.989C150.542 179.707 150.812 180.15 150.901 180.319L150.567 176.181C150.537 175.608 150.583 175.279 150.706 175.192ZM78.7261 204.196C78.6224 204.128 78.5683 204.051 78.5639 203.964C78.559 203.871 78.5917 203.793 78.6618 203.729C78.486 202.783 78.3661 201.695 78.3023 200.463C78.283 200.09 78.262 199.364 78.2394 198.283C78.2675 198.182 78.3296 198.092 78.4257 198.013C78.5284 197.935 78.6264 197.893 78.7196 197.888C78.8128 197.883 78.8696 197.884 78.8899 197.889C79.8558 198.106 80.7114 198.579 81.4568 199.308C82.2018 200.031 82.6186 200.924 82.7071 201.987C82.7678 203.159 82.3199 203.92 81.3634 204.27C81.0883 204.371 80.7943 204.43 80.4813 204.446C80.1751 204.462 79.9042 204.452 79.6688 204.418C79.6982 204.47 79.7151 204.539 79.7196 204.625C79.7245 204.719 79.6723 204.808 79.5633 204.894C79.4613 204.986 79.3337 205.036 79.1806 205.044C79.0341 205.051 78.9362 204.966 78.887 204.789L78.7261 204.196ZM79.1271 200.34C79.1874 201.505 79.3113 202.607 79.4986 203.646C79.6608 203.684 79.9317 203.693 80.3112 203.673C80.6906 203.654 81.0502 203.572 81.3899 203.427C81.7362 203.283 81.9129 203.086 81.9201 202.839C81.9304 202.652 81.933 202.508 81.9278 202.408C81.883 201.543 81.6103 200.789 81.1097 200.147C80.6159 199.505 79.9438 199.033 79.0937 198.73C79.1011 199.517 79.1122 200.054 79.1271 200.34ZM83.7637 200.811C83.6674 200.756 83.6163 200.672 83.6105 200.559C83.6046 200.445 83.6359 200.34 83.7043 200.243C83.6431 199.579 83.5934 198.877 83.5551 198.138C83.5868 197.976 83.6407 197.857 83.7168 197.779C83.7995 197.702 83.9203 197.649 84.079 197.62C84.9599 197.615 85.913 197.585 86.9383 197.532C87.1941 197.572 87.3262 197.676 87.3349 197.842C87.3494 198.122 87.0848 198.299 86.5413 198.374C86.3952 198.388 86.2356 198.4 86.0625 198.409L85.4134 198.442C85.2869 198.449 84.936 198.44 84.3606 198.417C84.4038 199.249 84.4467 199.821 84.4896 200.133C84.8428 200.121 85.5221 200.089 86.5274 200.037C86.7695 200.071 86.895 200.175 86.904 200.348C86.9126 200.514 86.8228 200.649 86.6345 200.752C86.6153 200.767 86.5793 200.782 86.5268 200.798L84.7975 200.858C84.691 200.863 84.6048 200.874 84.5389 200.891L84.6679 202.607C84.6879 202.993 84.6922 203.27 84.6809 203.437L86.9962 203.287C87.211 203.309 87.3222 203.394 87.3297 203.54C87.3349 203.64 87.2935 203.742 87.2055 203.847C87.1241 203.951 87.0242 204.02 86.9057 204.053L84.3512 204.225C84.1981 204.233 84.0902 204.212 84.0275 204.162C83.9645 204.105 83.9295 204.01 83.9226 203.877C83.9396 203.689 83.9374 203.389 83.916 202.976L83.8798 202.277L83.7637 200.811ZM91.2459 203.678C90.9312 202.886 90.6101 202.165 90.2827 201.515C89.9549 200.857 89.5351 200.035 89.0233 199.046C88.8452 198.702 88.7341 198.491 88.69 198.413C88.6456 198.328 88.6208 198.236 88.6156 198.136C88.6101 198.03 88.6547 197.924 88.7494 197.819C88.8507 197.714 88.9647 197.658 89.0912 197.651C89.2177 197.644 89.3275 197.702 89.4206 197.824L89.9569 198.898C90.7097 200.414 91.2475 201.518 91.5704 202.209L91.7139 201.5C91.8286 200.88 91.9504 200.267 92.0791 199.659C92.4469 197.998 92.8506 197.156 93.29 197.133C93.3699 197.129 93.4377 197.149 93.4933 197.193C93.5557 197.236 93.5889 197.298 93.593 197.378C93.5972 197.458 93.56 197.576 93.4813 197.734C93.4094 197.891 93.3205 198.173 93.2147 198.579C93.1089 198.985 93.0413 199.225 93.0118 199.3C92.9886 199.368 92.8578 199.936 92.6194 201.003C92.3876 202.07 92.184 202.908 92.0087 203.518C91.9809 203.626 91.9223 203.719 91.8329 203.797C91.7432 203.869 91.6384 203.908 91.5185 203.914C91.4053 203.92 91.3145 203.841 91.2459 203.678ZM94.788 200.24C94.6917 200.185 94.6406 200.1 94.6347 199.987C94.6289 199.874 94.6601 199.769 94.7285 199.672C94.6674 199.008 94.6177 198.306 94.5794 197.567C94.6111 197.405 94.6649 197.285 94.741 197.208C94.8238 197.13 94.9446 197.077 95.1033 197.049C95.9842 197.043 96.9373 197.014 97.9626 196.961C98.2183 197.001 98.3505 197.104 98.3591 197.271C98.3736 197.551 98.1091 197.728 97.5656 197.803C97.4195 197.817 97.2599 197.829 97.0868 197.837L96.4376 197.871C96.3111 197.878 95.9602 197.869 95.3849 197.846C95.428 198.678 95.471 199.25 95.5139 199.561C95.8671 199.55 96.5463 199.518 97.5516 199.466C97.7937 199.5 97.9193 199.603 97.9282 199.777C97.9369 199.943 97.8471 200.078 97.6588 200.181C97.6395 200.195 97.6036 200.211 97.551 200.227L95.8218 200.286C95.7153 200.292 95.6291 200.303 95.5632 200.32L95.6921 202.035C95.7121 202.421 95.7165 202.698 95.7051 202.866L98.0205 202.716C98.2352 202.738 98.3464 202.822 98.354 202.969C98.3592 203.069 98.3178 203.171 98.2297 203.276C98.1484 203.38 98.0484 203.449 97.93 203.481L95.3755 203.654C95.2224 203.662 95.1144 203.641 95.0518 203.591C94.9887 203.534 94.9538 203.439 94.9469 203.306C94.9638 203.118 94.9616 202.817 94.9402 202.405L94.904 201.706L94.788 200.24ZM99.5317 202.047L99.5013 201.267L99.3749 197.088C99.3707 197.008 99.4107 196.943 99.4949 196.892C99.579 196.841 99.6876 196.812 99.8208 196.805C100.14 196.788 100.306 196.893 100.318 197.119C100.322 197.193 100.311 197.754 100.285 198.803C100.266 199.852 100.262 200.48 100.272 200.686C100.272 200.686 100.291 201.039 100.327 201.745C100.353 202.244 100.4 202.516 100.469 202.559C100.571 202.587 100.688 202.597 100.822 202.591L102.254 202.416C102.567 202.4 102.73 202.505 102.741 202.731C102.751 202.911 102.671 203.049 102.502 203.144C102.34 203.233 102.176 203.288 102.01 203.31C101.844 203.325 101.641 203.339 101.402 203.352C100.356 203.406 99.7888 203.402 99.6988 203.34C99.6502 203.302 99.6158 203.154 99.5957 202.894C99.5752 202.628 99.5589 202.442 99.5467 202.336C99.5412 202.23 99.5362 202.133 99.5317 202.047ZM106.261 196.431C106.727 196.407 107.131 196.536 107.472 196.819C108.141 197.358 108.508 198.247 108.572 199.485C108.636 200.717 108.333 201.704 107.664 202.446C107.316 202.818 106.903 203.033 106.426 203.091C105.793 203.124 105.289 202.933 104.914 202.519C104.539 202.104 104.261 201.635 104.08 201.11C103.906 200.578 103.805 200.063 103.78 199.563C103.735 198.711 103.902 197.998 104.28 197.425C104.675 196.81 105.335 196.479 106.261 196.431ZM106.234 197.263C105.342 197.31 104.808 197.761 104.632 198.618C104.577 198.848 104.559 199.139 104.577 199.492C104.595 199.845 104.683 200.251 104.84 200.71C105.053 201.327 105.342 201.752 105.708 201.987C105.922 202.136 106.176 202.203 106.469 202.188C106.762 202.173 107.018 202.029 107.238 201.757C107.457 201.479 107.599 201.135 107.665 200.724C107.73 200.313 107.752 199.902 107.731 199.489C107.693 198.756 107.557 198.196 107.323 197.808C107.096 197.419 106.733 197.237 106.234 197.263ZM110.114 201.869C110.032 201.185 109.961 200.261 109.9 199.096C109.84 197.924 109.817 197.164 109.832 196.817C109.854 196.602 109.994 196.454 110.25 196.374C110.506 196.288 110.847 196.233 111.273 196.211C111.899 196.179 112.432 196.288 112.872 196.539C113.318 196.783 113.555 197.168 113.583 197.694C113.605 198.126 113.564 198.492 113.459 198.791C113.354 199.084 113.215 199.305 113.043 199.454C112.762 199.695 112.335 199.831 111.762 199.861C111.516 199.873 111.191 199.857 110.788 199.811C110.891 201.141 110.948 201.979 110.959 202.326C110.97 202.672 110.863 202.851 110.636 202.863C110.49 202.871 110.395 202.849 110.352 202.798C110.31 202.746 110.281 202.711 110.267 202.692C110.252 202.666 110.237 202.63 110.221 202.584C110.205 202.538 110.194 202.502 110.186 202.476C110.177 202.443 110.168 202.397 110.158 202.337C110.155 202.277 110.149 202.231 110.141 202.198C110.129 202.098 110.12 201.989 110.114 201.869ZM112.755 197.767C112.741 197.494 112.584 197.288 112.283 197.15C111.982 197.006 111.664 196.942 111.332 196.959C110.999 196.976 110.767 197.018 110.637 197.085C110.631 197.479 110.636 197.843 110.654 198.176C110.671 198.502 110.699 198.798 110.74 199.063C110.92 199.073 111.044 199.083 111.112 199.093C111.286 199.104 111.433 199.107 111.553 199.101C111.679 199.094 111.762 199.09 111.802 199.088C111.849 199.079 111.931 199.064 112.05 199.045C112.176 199.018 112.264 198.984 112.315 198.941C112.367 198.898 112.43 198.841 112.507 198.771C112.583 198.7 112.636 198.621 112.665 198.532C112.739 198.288 112.769 198.033 112.755 197.767ZM119.683 195.725C119.843 195.717 119.952 195.828 120.011 196.059C120.101 197.142 120.179 198.326 120.245 199.611C120.311 200.89 120.343 201.629 120.34 201.829C120.337 202.03 120.301 202.172 120.232 202.256C120.163 202.339 120.032 202.386 119.839 202.396C119.666 202.405 119.574 202.303 119.563 202.09L119.446 199.833C119.427 199.467 119.4 199.091 119.367 198.706C119.334 198.32 119.315 198.077 119.309 197.978C119.103 198.375 118.82 198.711 118.46 198.983C118.1 199.249 117.691 199.393 117.231 199.417C116.772 199.441 116.376 199.271 116.043 198.908C116.051 199.315 116.069 199.798 116.098 200.357C116.127 200.91 116.16 201.492 116.199 202.104C116.207 202.271 116.157 202.397 116.048 202.482C115.945 202.561 115.824 202.604 115.684 202.611C115.505 202.621 115.409 202.516 115.398 202.296C115.373 201.696 115.327 200.747 115.26 199.449L115.113 196.613C115.107 196.5 115.138 196.388 115.206 196.278C115.28 196.167 115.367 196.109 115.467 196.104C115.574 196.098 115.672 196.123 115.762 196.179C115.851 196.228 115.902 196.308 115.914 196.421C115.979 197.159 116.128 197.702 116.359 198.05C116.591 198.399 116.853 198.566 117.146 198.55C117.439 198.535 117.686 198.476 117.888 198.372C118.096 198.261 118.263 198.139 118.39 198.005C118.523 197.872 118.647 197.685 118.761 197.445C118.924 197.103 119.076 196.685 119.217 196.19C119.301 195.892 119.457 195.737 119.683 195.725ZM121.715 198.844C121.618 198.789 121.567 198.705 121.561 198.592C121.556 198.479 121.587 198.374 121.655 198.277C121.594 197.612 121.544 196.911 121.506 196.172C121.538 196.01 121.592 195.89 121.668 195.813C121.751 195.735 121.871 195.682 122.03 195.654C122.911 195.648 123.864 195.619 124.889 195.566C125.145 195.606 125.277 195.709 125.286 195.875C125.3 196.155 125.036 196.332 124.492 196.407C124.346 196.422 124.187 196.433 124.014 196.442L123.364 196.476C123.238 196.482 122.887 196.474 122.312 196.45C122.355 197.282 122.398 197.854 122.441 198.166C122.794 198.154 123.473 198.122 124.478 198.07C124.72 198.104 124.846 198.208 124.855 198.381C124.864 198.548 124.774 198.682 124.586 198.786C124.566 198.8 124.53 198.815 124.478 198.831L122.749 198.891C122.642 198.896 122.556 198.908 122.49 198.924L122.619 200.64C122.639 201.026 122.643 201.303 122.632 201.47L124.947 201.32C125.162 201.343 125.273 201.427 125.281 201.573C125.286 201.673 125.245 201.776 125.156 201.88C125.075 201.985 124.975 202.053 124.857 202.086L122.302 202.258C122.149 202.266 122.041 202.245 121.979 202.195C121.916 202.138 121.881 202.043 121.874 201.91C121.891 201.722 121.888 201.422 121.867 201.009L121.831 200.31L121.715 198.844ZM130.146 195.283C130.21 195.24 130.296 195.215 130.402 195.21C130.509 195.204 130.608 195.246 130.699 195.335C130.79 195.417 130.839 195.518 130.845 195.637C130.98 198.241 131.071 199.815 131.12 200.36C131.174 200.897 131.202 201.173 131.203 201.186C131.21 201.333 131.177 201.475 131.104 201.612C131.031 201.743 130.944 201.811 130.845 201.816C130.751 201.821 130.678 201.821 130.624 201.817C130.577 201.806 130.533 201.795 130.492 201.784C130.452 201.773 130.411 201.748 130.369 201.71L130.263 201.616C130.235 201.59 130.196 201.542 130.146 201.471C130.102 201.394 130.065 201.332 130.036 201.287C130.007 201.242 129.96 201.164 129.894 201.054C129.834 200.937 129.699 200.704 129.487 200.354C129.282 200.004 129.096 199.69 128.928 199.412C128.352 198.474 127.823 197.737 127.341 197.201C127.453 199.365 127.471 200.869 127.395 201.714C127.383 201.875 127.264 201.961 127.038 201.973C126.931 201.979 126.84 201.957 126.764 201.907C126.695 201.857 126.657 201.772 126.651 201.653C126.644 201.533 126.633 200.872 126.618 199.672C126.609 198.47 126.597 197.723 126.582 197.431C126.566 197.131 126.557 196.941 126.552 196.861C126.528 196.382 126.55 196.11 126.62 196.047C126.691 195.983 126.766 195.949 126.845 195.945C127.212 195.926 127.802 196.496 128.616 197.656C128.775 197.881 129.08 198.356 129.531 199.08C129.982 199.798 130.252 200.241 130.341 200.41L130.007 196.272C129.977 195.699 130.023 195.37 130.146 195.283ZM132.179 195.248L136.22 194.978C136.416 195.028 136.518 195.12 136.525 195.253C136.542 195.586 136.414 195.759 136.141 195.774C135.642 195.799 135.113 195.84 134.555 195.896C134.552 196.47 134.558 196.904 134.573 197.197C134.588 197.483 134.597 197.666 134.601 197.746L134.823 201.249C134.834 201.456 134.787 201.578 134.682 201.617C134.603 201.648 134.504 201.666 134.384 201.672C134.191 201.682 134.079 201.578 134.048 201.359C133.981 200.849 133.912 199.894 133.839 198.496C133.766 197.092 133.742 196.245 133.768 195.957C133.628 195.971 133.422 195.985 133.149 195.999C132.876 196.013 132.536 196.027 132.13 196.042C132.023 196.047 131.938 196.018 131.875 195.955C131.812 195.891 131.777 195.813 131.773 195.72C131.767 195.62 131.802 195.521 131.877 195.424C131.959 195.326 132.06 195.267 132.179 195.248Z" fill="black"/>
<path d="M81.0102 88.3516L81.3654 88.3375C81.5092 88.3319 81.645 88.3392 81.7728 88.3595C81.9092 88.3796 81.9805 88.4699 81.9869 88.6306C82.0594 88.9665 81.8672 89.1393 81.4102 89.1489C81.283 89.1455 81.1643 89.1417 81.054 89.1376C80.9522 89.1331 80.8676 89.1365 80.8003 89.1476C80.7326 89.1503 80.7039 89.1726 80.714 89.2146C80.8083 89.4565 80.9079 89.7278 81.013 90.0286C81.1265 90.329 81.2485 90.6291 81.379 90.9289C81.7132 91.6695 82.0221 92.1994 82.3058 92.5185C82.169 92.7018 82.0058 92.8565 81.8159 92.9825C81.6346 93.1083 81.5354 93.1715 81.5185 93.1722C81.51 93.1725 81.5014 93.1686 81.4926 93.1605L79.555 89.4637L76.1255 90.4506L76.0197 90.9884C75.8129 91.9706 75.5648 92.658 75.2754 93.0506C75.228 93.1372 75.1226 93.1499 74.9593 93.0886C74.6847 92.9978 74.546 92.9186 74.5433 92.8509C74.5427 92.834 74.6218 92.5852 74.7806 92.1046C74.9395 91.624 75.0982 91.1392 75.2567 90.6501C75.4234 90.1522 75.5934 89.6331 75.7669 89.0926C75.9487 88.5518 76.119 88.0368 76.2775 87.5478C76.436 87.0587 76.5796 86.621 76.7084 86.2348C76.8367 85.8401 76.9272 85.557 76.9797 85.3855C77.0319 85.2056 77.0639 85.0518 77.0758 84.9243C77.0958 84.788 77.1251 84.6725 77.1637 84.5778C77.2406 84.3799 77.4482 84.2743 77.7865 84.2609C78.1581 84.4495 78.4478 84.7049 78.6553 85.027C78.871 85.3404 79.0538 85.6804 79.2039 86.0471C79.3624 86.4136 79.5168 86.7844 79.6671 87.1596C79.8175 87.5348 80.013 87.8743 80.2538 88.1782C80.3345 88.2936 80.4512 88.3525 80.6038 88.355C80.7563 88.3574 80.8918 88.3563 81.0102 88.3516ZM77.7305 85.737C77.6832 86.2555 77.5519 86.7901 77.3365 87.3407C77.1212 87.8913 76.9476 88.3217 76.8159 88.6318C76.6838 88.9335 76.5721 89.2132 76.4806 89.4709C77.0557 89.4482 77.7551 89.2511 78.579 88.8797C78.7867 88.7783 78.9864 88.6857 79.1779 88.6019C78.7132 86.9178 78.2307 85.9628 77.7305 85.737ZM84.5246 92.6594C84.5303 92.8032 84.4317 92.8791 84.2287 92.8871C84.0765 92.8931 83.8918 92.8285 83.6747 92.693C83.5642 92.4687 83.4919 91.9253 83.4577 91.0626C83.4236 90.2 83.404 89.4893 83.3988 88.9305C83.3933 88.3632 83.3897 87.8424 83.3879 87.3682C83.3978 86.3344 83.4016 85.788 83.3993 85.7288C83.6388 85.5753 83.8389 85.4954 83.9996 85.489C84.1603 85.4827 84.2435 85.5514 84.2492 85.6951L84.5246 92.6594ZM76.2648 111C76.2705 111.144 76.1719 111.22 75.9689 111.228C75.8167 111.234 75.632 111.169 75.4149 111.034C75.3044 110.809 75.2321 110.266 75.198 109.403C75.1638 108.541 75.1442 107.83 75.139 107.271C75.1335 106.704 75.1299 106.183 75.1281 105.709C75.138 104.675 75.1418 104.129 75.1395 104.07C75.379 103.916 75.5792 103.836 75.7398 103.83C75.9005 103.823 75.9837 103.892 75.9894 104.036L76.2648 111ZM85.0922 106.369C85.1939 108.94 85.1477 110.45 84.9537 110.898L84.0247 110.858C83.5278 110.073 82.7008 108.975 81.5439 107.564C81.0899 107.006 80.636 106.452 80.1823 105.903C79.737 105.353 79.3258 104.806 78.9485 104.262C78.8091 105.021 78.7841 106.53 78.8734 108.788C78.9075 109.651 78.9193 110.379 78.9089 110.972C78.7543 111.13 78.5797 111.214 78.3852 111.221C78.1991 111.229 78.0672 111.213 77.9894 111.173C77.912 111.143 77.8716 111.085 77.8682 111C77.8645 110.907 77.8675 110.767 77.877 110.581C77.8947 110.385 77.9074 110.063 77.915 109.614C77.9311 109.164 77.942 108.689 77.9476 108.189C77.9638 106.884 77.9533 105.762 77.9162 104.824C77.8787 103.876 77.8395 103.099 77.7985 102.491C77.9778 102.314 78.1168 102.186 78.2152 102.106C78.3137 102.025 78.428 102.025 78.5582 102.105C78.6881 102.176 78.8556 102.343 79.0609 102.606C79.2742 102.86 79.5731 103.242 79.9574 103.752C81.2705 105.47 82.5581 107.079 83.8202 108.58L83.8114 102.253C83.8977 102.08 83.9862 101.962 84.0769 101.899C84.1672 101.828 84.2885 101.789 84.4408 101.783C84.7368 101.771 84.8955 102.036 84.9169 102.577L84.9227 103.047L85.0922 106.369ZM92.3196 104.33L91.1896 104.35C90.8936 104.361 90.5523 104.404 90.1656 104.479C90.1618 104.809 90.1448 105.238 90.1148 105.764C90.0108 107.632 89.9698 108.845 89.9919 109.403C90.0137 109.952 90.0375 110.341 90.0634 110.569L88.8745 110.705L89.0199 104.423L86.3119 104.377C86.2443 104.38 86.1871 104.327 86.1405 104.219C86.1023 104.11 86.0814 104.009 86.0777 103.916C86.074 103.823 86.1081 103.72 86.1798 103.607C86.2516 103.495 86.3382 103.436 86.4397 103.432C87.0581 103.433 87.6813 103.451 88.3095 103.485C89.4721 103.541 90.4593 103.553 91.2712 103.52L92.0567 103.464C92.6734 103.423 93.2838 103.331 93.888 103.188C94.0244 103.208 94.1173 103.416 94.1668 103.812C94.1786 103.897 94.1855 103.964 94.1875 104.015C93.6357 104.198 93.0131 104.303 92.3196 104.33ZM99.2523 102.226C100.098 102.193 100.663 102.226 100.946 102.325L100.971 102.946C100.744 102.989 100.431 103.023 100.034 103.047C99.6368 103.063 99.2142 103.083 98.7663 103.11C97.5157 103.185 96.664 103.282 96.2114 103.401C96.0944 104.084 96.0449 104.547 96.0631 104.792C96.0812 105.037 96.0972 105.227 96.111 105.362C96.1579 105.69 96.1902 106.079 96.2079 106.527C96.783 106.504 97.4364 106.428 98.1681 106.297C98.9083 106.166 99.4806 106.071 99.8848 106.013C100.289 105.946 100.706 105.904 101.138 105.887L101.165 106.585L96.3308 107.386L96.4892 109.463C97.3265 109.43 98.1791 109.358 99.0472 109.248C99.9233 109.129 100.585 109.043 101.032 108.992C101.487 108.931 101.968 108.891 102.475 108.871C102.482 109.04 102.438 109.203 102.342 109.359C102.15 109.638 101.971 109.725 101.806 109.622C100.324 109.841 98.9973 110.021 97.8254 110.16C96.662 110.299 95.8781 110.394 95.4735 110.444L95.2041 102.348C95.4267 102.407 95.834 102.425 96.4259 102.402L99.2523 102.226ZM109.746 110.502L109.654 108.18C108.873 108.762 108.329 109.148 108.023 109.338C107.312 109.764 106.681 109.988 106.131 110.01C105.472 110.036 104.895 109.817 104.403 109.354C103.901 108.874 103.637 108.313 103.612 107.67C103.628 106.992 103.744 106.301 103.962 105.598C104.411 104.106 105.21 102.995 106.358 102.263C106.928 101.893 107.594 101.693 108.355 101.663C108.372 101.663 108.389 101.662 108.406 101.661L108.748 101.635C109.137 101.62 109.32 101.765 109.298 102.071C108.623 102.131 107.995 102.313 107.414 102.615C106.833 102.918 106.332 103.314 105.911 103.805C105.498 104.288 105.177 104.847 104.948 105.482C104.728 106.118 104.631 106.761 104.656 107.412C104.682 108.064 104.87 108.526 105.219 108.801C105.569 109.075 106.01 109.201 106.543 109.18C107 109.162 107.626 108.938 108.422 108.509C108.928 108.235 109.302 107.932 109.543 107.6C109.663 107.443 109.721 107.28 109.714 107.111L109.64 105.233C109.386 105.243 108.798 105.364 107.875 105.595C106.961 105.826 106.433 105.957 106.29 105.988C106.247 105.965 106.195 105.941 106.135 105.918C106.074 105.887 106.038 105.842 106.028 105.783C106.006 105.657 106.184 105.455 106.563 105.177C106.654 105.123 107.208 105.003 108.226 104.819C109.243 104.627 109.89 104.504 110.168 104.45C110.445 104.397 110.676 104.354 110.861 104.321C110.947 104.335 111.052 104.331 111.178 104.309C111.304 104.278 111.422 104.265 111.533 104.269C111.804 104.267 111.936 104.41 111.931 104.698L110.895 105.171C110.755 105.693 110.713 106.669 110.769 108.098L110.869 109.987C110.876 110.156 110.882 110.313 110.888 110.457C110.639 110.594 110.397 110.667 110.16 110.676C109.923 110.685 109.785 110.627 109.746 110.502ZM114.272 102.153C114.719 101.687 115.552 101.429 116.77 101.381C117.531 101.351 118.172 101.402 118.694 101.534C119.216 101.666 119.607 101.811 119.868 101.97C120.137 102.129 120.275 102.31 120.283 102.513C120.302 102.978 119.779 103.46 118.714 103.96C118.556 104.042 118.14 104.215 117.464 104.479C116.797 104.734 116.346 104.909 116.113 105.003C115.604 105.218 115.268 105.383 115.103 105.5C115.105 105.542 115.123 105.58 115.158 105.612C115.193 105.636 115.276 105.684 115.405 105.755C115.535 105.818 115.729 105.912 115.988 106.037C116.247 106.154 116.605 106.326 117.063 106.553C118.428 107.228 119.833 107.951 121.278 108.724C121.348 108.772 121.44 108.841 121.553 108.93C121.667 109.01 121.725 109.105 121.73 109.215C121.734 109.316 121.703 109.389 121.637 109.434C121.571 109.479 121.492 109.512 121.399 109.533C121.307 109.562 121.211 109.578 121.109 109.582L120.855 109.592C120.686 109.599 120.324 109.431 119.768 109.089C119.221 108.746 118.743 108.448 118.335 108.193C117.935 107.938 117.528 107.691 117.112 107.454C116.132 106.874 115.359 106.502 114.793 106.338L114.908 109.243C114.915 109.412 114.774 109.503 114.487 109.514L114.347 109.519C114.17 109.526 114.035 109.443 113.944 109.269C113.815 109.003 113.736 108.506 113.707 107.779L113.644 105.227C113.595 103.976 113.496 102.879 113.349 101.936C113.538 101.581 113.788 101.584 114.099 101.944C114.17 102.026 114.227 102.096 114.272 102.153ZM118.566 102.136L117.741 102.156C115.829 102.232 114.739 102.495 114.469 102.946C114.389 103.068 114.352 103.222 114.36 103.408C114.367 103.585 114.381 103.741 114.404 103.876C114.46 104.221 114.567 104.467 114.725 104.613C114.751 104.62 114.793 104.623 114.852 104.621C114.92 104.618 115.038 104.596 115.206 104.556C115.382 104.515 115.612 104.447 115.896 104.351C116.189 104.246 116.497 104.124 116.822 103.984C117.147 103.844 117.459 103.7 117.758 103.553C118.696 103.084 119.16 102.714 119.15 102.443C119.144 102.291 118.949 102.189 118.566 102.136ZM129.764 104.438L130.119 104.423C130.263 104.418 130.398 104.425 130.526 104.445C130.663 104.465 130.734 104.556 130.74 104.717C130.813 105.052 130.621 105.225 130.164 105.235C130.036 105.231 129.918 105.228 129.807 105.223C129.706 105.219 129.621 105.222 129.554 105.234C129.486 105.236 129.457 105.259 129.467 105.3C129.562 105.542 129.661 105.814 129.766 106.114C129.88 106.415 130.002 106.715 130.132 107.015C130.467 107.755 130.776 108.285 131.059 108.604C130.922 108.788 130.759 108.942 130.569 109.068C130.388 109.194 130.289 109.257 130.272 109.258C130.263 109.258 130.255 109.255 130.246 109.246L128.308 105.55L124.879 106.536L124.773 107.074C124.566 108.057 124.318 108.744 124.029 109.137C123.981 109.223 123.876 109.236 123.713 109.174C123.438 109.084 123.299 109.004 123.297 108.937C123.296 108.92 123.375 108.671 123.534 108.191C123.693 107.71 123.852 107.225 124.01 106.736C124.177 106.238 124.347 105.719 124.52 105.178C124.702 104.638 124.872 104.123 125.031 103.634C125.189 103.145 125.333 102.707 125.462 102.321C125.59 101.926 125.681 101.643 125.733 101.471C125.785 101.291 125.817 101.138 125.829 101.01C125.849 100.874 125.879 100.758 125.917 100.664C125.994 100.466 126.202 100.36 126.54 100.347C126.912 100.535 127.201 100.791 127.409 101.113C127.624 101.426 127.807 101.766 127.957 102.133C128.116 102.499 128.27 102.87 128.421 103.246C128.571 103.621 128.766 103.96 129.007 104.264C129.088 104.38 129.205 104.438 129.357 104.441C129.51 104.443 129.645 104.442 129.764 104.438ZM126.484 101.823C126.437 102.341 126.305 102.876 126.09 103.427C125.875 103.977 125.701 104.408 125.569 104.718C125.437 105.019 125.326 105.299 125.234 105.557C125.809 105.534 126.509 105.337 127.332 104.966C127.54 104.864 127.74 104.772 127.931 104.688C127.467 103.004 126.984 102.049 126.484 101.823ZM137.924 102.527L136.794 102.546C136.498 102.558 136.156 102.601 135.77 102.675C135.766 103.006 135.749 103.434 135.719 103.961C135.615 105.828 135.574 107.041 135.596 107.599C135.618 108.149 135.641 108.538 135.667 108.765L134.479 108.901L134.624 102.619L131.916 102.574C131.848 102.576 131.791 102.524 131.744 102.415C131.706 102.307 131.685 102.206 131.682 102.113C131.678 102.02 131.712 101.917 131.784 101.804C131.856 101.691 131.942 101.632 132.044 101.628C132.662 101.629 133.285 101.647 133.913 101.682C135.076 101.737 136.063 101.749 136.875 101.717L137.661 101.66C138.277 101.619 138.888 101.527 139.492 101.385C139.628 101.405 139.721 101.613 139.771 102.009C139.783 102.093 139.79 102.161 139.792 102.211C139.24 102.394 138.617 102.499 137.924 102.527ZM142.021 108.4C142.027 108.543 141.928 108.619 141.725 108.627C141.573 108.633 141.388 108.569 141.171 108.433C141.06 108.209 140.988 107.665 140.954 106.803C140.92 105.94 140.9 105.229 140.895 104.671C140.89 104.103 140.886 103.583 140.884 103.108C140.894 102.075 140.898 101.528 140.895 101.469C141.135 101.315 141.335 101.236 141.496 101.229C141.657 101.223 141.74 101.292 141.745 101.435L142.021 108.4ZM143.812 106.398C143.591 105.949 143.468 105.416 143.444 104.799C143.419 104.181 143.495 103.632 143.671 103.151C143.855 102.661 144.113 102.235 144.446 101.875C145.153 101.127 146.061 100.731 147.169 100.687C148.328 100.641 149.294 100.87 150.067 101.373C150.937 101.948 151.394 102.803 151.439 103.936C151.495 105.34 151.21 106.389 150.585 107.083C149.969 107.776 148.976 108.15 147.606 108.204C145.703 108.279 144.438 107.677 143.812 106.398ZM144.474 104.504C144.553 106.5 145.599 107.458 147.611 107.378C148.601 107.339 149.393 107.011 149.987 106.395C150.581 105.787 150.859 105.009 150.822 104.062C150.787 103.174 150.392 102.512 149.638 102.076C148.996 101.695 148.197 101.523 147.242 101.561C146.48 101.591 145.819 101.893 145.257 102.465C144.704 103.038 144.443 103.717 144.474 104.504ZM160.2 103.399C160.302 105.97 160.255 107.479 160.061 107.927L159.132 107.888C158.635 107.103 157.809 106.005 156.652 104.594C156.198 104.036 155.744 103.482 155.29 102.932C154.845 102.383 154.433 101.836 154.056 101.291C153.917 102.051 153.892 103.559 153.981 105.817C154.015 106.68 154.027 107.408 154.017 108.001C153.862 108.16 153.687 108.243 153.493 108.251C153.307 108.258 153.175 108.242 153.097 108.203C153.02 108.172 152.979 108.114 152.976 108.03C152.972 107.937 152.975 107.797 152.985 107.61C153.002 107.415 153.015 107.092 153.023 106.643C153.039 106.194 153.05 105.719 153.055 105.219C153.071 103.914 153.061 102.792 153.024 101.853C152.986 100.906 152.947 100.128 152.906 99.5201C153.086 99.3436 153.224 99.2153 153.323 99.1352C153.421 99.055 153.536 99.0547 153.666 99.1343C153.796 99.2054 153.963 99.3724 154.169 99.6353C154.382 99.8895 154.681 100.272 155.065 100.781C156.378 102.5 157.666 104.109 158.928 105.609L158.919 99.2823C159.005 99.1095 159.094 98.9916 159.185 98.9287C159.275 98.8574 159.396 98.8187 159.548 98.8127C159.844 98.801 160.003 99.0658 160.025 99.607L160.03 100.077L160.2 103.399Z" fill="black"/>
<path d="M66.4543 76.4141C66.499 78.1369 66.5394 80.3798 66.5625 82.0939C66.5698 82.6291 66.5359 82.3584 66.5395 82.7283C66.5462 83.4532 66.5771 84.127 66.5824 84.8419C66.5839 85.079 66.5304 84.7845 66.5328 85.0332C66.5458 86.3971 66.5914 87.684 66.6193 89.064C66.7556 95.8604 66.9548 102.533 67.2402 109.415C67.3352 111.684 67.4085 114.431 67.5793 116.769C67.5997 117.047 67.6546 116.877 67.6632 116.93C67.7965 117.747 67.648 117.481 67.6637 118.004C67.7325 120.127 67.8878 122.449 68.148 124.478C68.2628 125.314 68.2914 124.471 68.328 125.314C68.3308 125.37 68.2296 125.181 68.2529 125.397C68.2863 125.687 68.3485 126.086 68.4279 126.401L68.0023 126.092C68.347 126.066 68.6872 126.041 68.8894 126.03C69.6802 125.987 69.8852 125.973 70.5975 125.927C71.6136 125.863 72.885 125.822 73.9835 125.741C74.2237 125.723 73.9002 125.664 74.2843 125.628C74.6827 125.591 75.6717 125.541 76.0078 125.541C76.3456 125.54 76.2058 125.609 76.2663 125.62C76.7569 125.712 77.9575 125.481 78.083 125.47C80.7886 125.254 83.1784 125.23 85.7063 125.108C87.6505 125.014 89.7182 124.888 91.536 124.81C91.5511 124.81 91.5663 124.809 91.5815 124.808C93.8022 124.715 95.6543 124.678 97.8037 124.579C98.0285 124.568 97.7609 124.485 98.0356 124.473C100.972 124.337 103.889 124.228 106.806 124.174C107.1 124.169 106.725 124.267 107.019 124.266C108.817 124.262 111.657 124.313 112.706 123.913C113.92 123.88 115.394 123.838 116.484 123.868C117.186 123.888 116.51 124.004 117.368 123.933C117.562 123.917 117.307 123.848 117.597 123.83C118.818 123.755 120.162 123.73 121.371 123.644C121.617 123.627 121.547 123.559 121.616 123.544C122.198 123.42 123.179 123.553 123.395 123.557C125.03 123.588 126.191 123.509 127.717 123.456C128.068 123.443 127.65 123.365 127.987 123.35C129.728 123.273 131.56 123.215 133.259 123.196C133.637 123.192 133.293 123.284 133.474 123.286C134.28 123.294 134.459 123.138 135.231 123.143C135.394 123.144 135.305 123.215 135.335 123.221C135.803 123.321 136.197 123.142 136.315 123.134C137.804 123.031 138.812 123.168 140.241 123.094C140.414 123.085 140.02 123.013 140.508 122.993C143.783 122.855 147.244 122.76 150.469 122.717C150.978 122.71 150.617 122.786 150.65 122.792C151.174 122.896 151.498 122.722 151.66 122.71C152.901 122.624 154.197 122.716 155.019 122.496C158.333 122.425 161.774 122.286 165.02 122.191L164.722 122.526C164.552 120.413 164.446 118.301 164.408 116.187C164.406 116.118 164.49 116.238 164.487 116.1C164.452 114.432 164.348 114.77 164.157 113.668C164.11 113.392 164.256 112.55 164.267 112.474C164.305 112.201 164.429 112.478 164.435 112.387C164.482 111.632 164.108 111.764 164.078 110.754C164.078 110.722 164.151 110.853 164.155 110.768C164.169 110.503 164.135 110.242 164.152 109.981C164.191 109.383 164.368 109.176 164.241 108.272C164.225 108.158 164.016 108.336 164.008 107.43C164.004 107.072 163.975 105.47 163.983 105.024C163.991 104.577 164.063 104.883 164.066 104.851C164.14 103.645 164.184 104.101 164.309 103.496C164.435 102.892 164.122 103.062 164.085 102.817C164.048 102.571 164.115 101.687 164.14 101.47C164.164 101.252 164.208 101.523 164.222 101.33C164.309 100.05 164.064 100.769 164.012 100.348C163.892 99.3572 164.123 98.5771 164.147 97.6716C164.153 97.4263 164.101 97.627 164.096 97.4071C164.08 96.5341 164.153 96.0209 164.094 95.0282C164.084 94.8657 163.953 94.0658 164.059 93.5541C164.074 93.4806 164.129 93.6904 164.145 93.318C164.169 92.7583 164.193 91.7781 164.182 91.1749C164.174 90.7345 164.074 91.2372 164.111 90.6847C164.127 90.4397 164.175 90.8945 164.201 90.4347C164.227 89.9841 164.244 88.7998 164.25 88.3593C164.256 87.9176 164.182 88.1582 164.178 88.1224C164.155 87.914 164.139 87.0416 164.14 86.97C164.213 83.1754 164.43 79.6465 164.555 75.9441C164.565 75.6571 164.485 75.8451 164.486 75.8013C164.502 74.8178 164.654 75.5987 164.749 74.9026C164.602 74.9854 164.645 74.6193 164.668 73.8849C164.678 73.5464 164.613 73.7281 164.609 73.6967C164.551 73.2199 164.683 72.8363 164.71 72.7586C164.81 72.4539 164.74 72.0536 164.809 71.8441C164.878 71.627 164.92 72.1497 164.968 71.4772C164.933 71.2768 164.761 71.785 164.78 71.2566C164.788 71.0413 164.808 70.721 164.831 70.4778L164.829 70.5C164.819 68.4115 161.364 67.6096 160.16 67.497C158.636 67.3286 158.135 67.3718 157.24 67.3657C155.619 67.4017 156.217 67.4736 155.221 67.5962C154.218 67.7391 154.686 67.4633 154.535 67.4287C154.388 67.3955 154.239 67.4642 154.055 67.4596C154.043 67.4593 154.033 67.4587 154.025 67.4578C153.995 67.4519 154.008 67.4401 154.022 67.4289C154.04 67.4172 154.057 67.4062 154.019 67.4041C153.997 67.402 153.955 67.4035 153.867 67.4112C153.776 67.4191 153.639 67.4378 153.464 67.4627C153.294 67.4872 153.052 67.5205 152.917 67.5454C152.6 67.5996 152.263 67.6595 152.187 67.6908C152.024 67.7572 152.081 67.8085 152.032 67.8492C152.006 67.8695 151.955 67.8872 151.829 67.9027C151.719 67.9172 151.568 67.9273 151.3 67.9351C151.238 67.9368 151.434 67.8642 151.197 67.8737C149.237 67.9554 147.266 68.0522 145.319 68.1062C145.059 68.113 145.288 68.0375 145.136 68.0409C143.536 68.0754 144.074 68.1584 143.215 68.3169C143.395 68.1493 142.94 68.073 141.71 68.1266C140.967 68.1586 141.082 68.2224 140.614 68.2909C140.477 68.3113 139.968 68.2857 139.876 68.3218C139.571 68.4396 140.071 68.5371 138.805 68.5415C138.749 68.5415 138.924 68.4771 138.731 68.4814C137.457 68.5102 137.365 68.6228 136.024 68.6873C134.949 68.7387 133.137 68.7409 131.921 68.775C131.934 68.6052 130.816 68.686 130.371 68.8174C129.605 68.8403 128.767 68.8766 128.008 68.8875C127.752 68.8911 127.918 68.8374 127.886 68.8334C127.393 68.7698 127.064 68.8922 126.898 68.9022C125.096 69.0066 123.62 68.975 121.899 69.1122C121.837 69.1171 121.742 69.2309 121.276 69.1655C121.245 69.161 121.817 69.0917 121 69.115C120.191 69.1378 118.668 69.13 117.537 69.2169C117.262 69.238 116.58 69.3468 116.025 69.2966C115.951 69.2898 116.031 69.2566 115.924 69.243C115.579 69.2 115.395 69.3134 114.988 69.2353C114.581 69.1572 113.735 69.1181 112.604 69.217C112.567 69.22 112.301 69.3121 111.944 69.3221C111.375 69.338 110.565 69.3465 109.971 69.3658C109.686 69.3751 109.87 69.4202 109.821 69.4227C107.897 69.5109 106.551 69.5071 104.485 69.5516C104.107 69.5598 103.031 69.6584 102.306 69.6281C101.499 69.5958 102.315 69.335 100.475 69.4495C99.732 69.4963 98.8203 69.8153 97.4665 69.7051C94.8928 69.8183 92.5241 69.8144 89.8987 69.9405C89.7826 69.9462 89.4193 70.0316 89.15 70.038C88.7518 70.0475 88.5298 70.0189 88.2301 70.0251C86.9706 70.0504 85.9452 70.1082 84.7175 70.1374C84.2668 70.1482 84.4218 70.1094 83.8911 70.1222C83.3549 70.1353 83.0465 70.1886 82.3002 70.1873C81.7401 70.186 81.1876 70.1112 80.4848 70.1208C80.4604 70.2095 79.9855 70.2208 79.0734 70.2682C78.9023 70.2772 79.0867 70.3024 79.0058 70.3082C78.6769 70.3323 78.3778 70.3153 78.0781 70.3399C78.0053 70.3458 78.0027 70.3751 77.9435 70.3815C77.4682 70.4365 76.5203 70.395 76.3923 70.3872C75.8163 70.3593 75.6214 70.4015 75.1416 70.3969C74.6848 70.392 75.3644 70.3539 74.8345 70.3574C73.7748 70.364 72.4706 70.4019 71.3503 70.4268C70.9354 70.4361 71.2193 70.4656 71.1598 70.4678C71.0128 70.4726 70.9059 70.4752 70.7448 70.4783C70.5683 70.4817 70.4113 70.484 70.2746 70.4859C70.1247 70.4881 70.0652 70.4886 69.8848 70.492C69.7084 70.4952 69.5942 70.4976 69.5308 70.5004C69.2998 70.5057 69.0982 70.5301 68.9426 70.5675C68.3189 70.4772 68.3986 70.586 67.2094 70.9615C67.1177 70.9963 66.9642 70.9636 67.3204 70.8138C67.6782 70.6659 68.2518 70.538 68.7812 70.4593C68.871 70.4429 69.2717 70.3651 69.5308 70.3427C69.5806 70.3327 69.6515 70.3244 69.6771 70.3227C69.7644 70.3166 69.8917 70.3121 69.9802 70.3102C70.0396 70.3089 70.0968 70.3096 70.1496 70.3118C70.2557 70.3164 70.3438 70.3272 70.4104 70.34C70.5453 70.3656 70.5918 70.3989 70.6143 70.402C70.9181 70.4339 71.136 70.4263 71.4701 70.4051C71.7854 70.3844 72.1038 70.3525 72.1901 70.3472C72.667 70.321 73.2136 70.3043 73.6801 70.2906C74.1139 70.2777 74.5564 70.2655 75.0192 70.2425C75.6529 70.2119 75.6413 70.1213 76.0964 70.111C77.6293 70.0756 78.1099 70.1933 79.5634 70.0375C79.8683 70.0042 79.5984 69.9082 80.6506 69.9586C80.7159 69.9616 81.519 70.0139 81.9994 69.9515C82.0594 69.9436 82.0566 69.9127 82.1361 69.9077C82.6834 69.8743 83.0017 69.8894 83.5626 69.8604C84.1206 69.8314 84.8064 69.7921 85.4747 69.7823C85.8601 69.7768 86.3477 69.822 86.5344 69.8312C87.0563 69.8581 87.6236 69.7706 87.957 69.8126C88.2939 69.8552 87.6388 69.954 88.5219 69.9626C88.552 69.876 88.6264 69.7856 88.6725 69.6978C90.5218 69.6427 92.4167 69.6119 94.306 69.5481C94.5432 69.54 94.299 69.4991 94.5536 69.489C95.6419 69.4462 96.5314 69.4525 97.6468 69.4023C98.5118 69.3632 99.4364 69.2791 100.327 69.2356C100.869 69.3263 102.217 69.2453 103.165 69.2237C103.5 69.216 103.479 69.2465 103.718 69.2484C104.623 69.2547 104.197 69.1696 104.444 69.1457C105.505 69.0428 105.614 69.2654 106.86 69.2193C106.926 69.2171 107.733 69.0677 107.845 69.0561C108.554 68.9819 107.964 69.0948 108.409 69.0889C109.223 69.0781 109.79 69.0891 110.74 69.0201C111.017 69 111.681 68.8984 112.222 68.9407C112.294 68.9462 112.256 68.9894 112.313 68.9899C113.348 68.9957 113.371 68.8625 113.961 68.7965C114.552 68.7304 115.467 68.7903 115.654 68.8107C116.142 68.863 115.283 68.8533 115.256 68.861C114.95 68.9523 115.615 68.9155 116.123 68.9048C116.201 69.0346 116.911 69.0028 116.65 68.8932C116.62 68.8813 116.226 68.9074 116.123 68.9048C116.564 68.7597 117.344 68.7142 118.215 68.8067C118.622 68.8502 118.243 68.9309 119.469 68.8637C120.024 68.8332 119.807 68.7474 120.295 68.7044C121.412 68.6059 122.892 68.6403 124.036 68.5847C124.452 68.5643 124.045 68.5268 124.329 68.5109C125.096 68.4682 125.777 68.4825 126.539 68.4334C126.608 68.4289 126.437 68.3796 126.674 68.3699C128.448 68.2957 130.061 68.2696 131.932 68.1965C132.871 68.1599 134.432 68.0645 135.415 68.0301C137.05 67.9731 139.089 67.9726 140.449 67.891C141.351 67.8372 141.168 67.785 141.558 67.726C142.336 67.6105 143.591 67.6941 143.816 67.7059C143.814 67.7068 143.034 67.7581 143.445 67.77C143.7 67.8232 143.807 67.7066 143.816 67.7059C143.95 67.7143 145.519 67.6515 145.801 67.6248C145.962 67.6102 145.868 67.5565 145.953 67.5499C148.097 67.3861 150.157 67.2601 152.281 67.1254C152.32 67.1236 152.267 67.1951 152.357 67.1901C152.704 67.1704 152.901 67.1537 153.23 67.1179C153.538 67.0836 153.778 67.0468 153.969 67.0093C154.42 66.9294 154.841 66.8517 155.317 66.7846C156.337 66.6413 157.166 66.627 157.781 66.7399C158.561 66.7123 159.683 66.8221 160.325 66.9406C160.962 67.0554 161.077 66.9508 161.133 66.9556C162.87 67.2844 164.172 67.5042 165.333 69.4215C165.458 69.6907 165.575 70.0719 165.576 70.5L165.572 70.5602C165.492 71.3585 165.442 72.4679 165.417 73.1129C165.389 73.834 165.334 74.2965 165.325 74.9489C165.323 75.0403 165.39 74.9511 165.391 74.979C165.432 75.7462 165.295 75.3795 165.261 75.5306C165.139 76.0566 165.068 76.4534 165.079 77.3855C165.081 77.607 165.28 78.2744 165.28 78.668C165.278 79.1943 165.205 78.9927 165.206 79.5541C165.206 79.6003 165.256 79.5908 165.243 79.9253C165.184 81.5189 165.111 83.2128 165.08 84.8617C165.076 85.0845 165.161 84.8004 165.157 85.123C165.134 86.6549 165.103 88.2979 165.046 89.791C165.032 90.1516 164.978 89.9246 164.96 90.0027C164.851 90.482 164.992 91.1754 164.994 91.2901C165.038 94.0005 164.892 96.0714 164.963 98.8337C164.967 98.9848 165.135 100.141 164.998 100.657C164.989 100.692 164.849 101.204 164.951 101.655C164.957 101.683 165.028 101.365 165.026 101.92C165.023 102.475 165.082 103.367 165.011 104.132C164.989 104.374 164.852 104.947 164.98 105.665C164.988 105.712 165.27 106.821 165.099 107.22C165.07 107.286 164.877 107.218 164.995 108.08C165.017 108.244 165.053 107.944 165.09 108.377C165.147 109.039 165.119 109.917 165.231 110.731C165.25 110.874 165.4 111.465 165.318 111.959C165.305 112.036 165.236 111.894 165.238 112.151C165.246 113.368 165.343 114.641 165.359 115.879C165.366 116.319 165.249 116.1 165.244 116.557C165.239 117.007 165.264 117.938 165.342 118.409C165.42 118.879 165.555 118.353 165.614 119.058C165.71 120.197 165.794 121.323 165.882 122.427L165.957 123.324L165.06 123.354C163.071 123.41 161.16 123.434 159.155 123.495C158.698 123.509 159.084 123.557 158.398 123.582C155.887 123.676 151.566 123.888 149.362 123.834C147.634 123.79 149.805 123.632 148.481 123.635C147.84 123.637 147.137 123.866 146.978 123.878C145.491 123.996 144.395 123.945 143.047 124.021C142.768 124.037 143.045 124.11 142.807 124.123C141.997 124.167 141.121 124.161 140.332 124.197C139.986 124.212 140.052 124.274 139.731 124.28C138.964 124.297 138.277 124.296 137.512 124.264C137.442 124.261 137.909 124.165 137.329 124.183C136.404 124.212 135.265 124.195 134.189 124.295C133.873 124.325 133.857 124.472 133.182 124.396C133.039 124.38 133.215 124.198 132.432 124.379C132.301 124.409 130.978 124.663 130.313 124.555C130.134 124.527 129.697 124.399 129.318 124.436C129.267 124.441 129.476 124.513 129.162 124.532C128.061 124.599 126.875 124.635 125.746 124.702C125.443 124.72 125.898 124.785 125.446 124.81C124.202 124.877 122.631 124.916 121.415 124.937C120.965 124.945 121.273 124.865 121.24 124.859C120.709 124.758 120.403 124.933 120.228 124.949C119.139 125.048 118.312 125.003 117.31 125.062C117.033 125.078 117.232 125.149 117.177 125.158C116.609 125.247 117.029 125.091 116.667 125.09C115.651 125.086 114.523 125.136 113.499 125.187C113.123 125.205 113.549 125.279 113.212 125.294C111.216 125.389 109.138 125.463 107.184 125.493C106.816 125.498 107.045 125.419 106.967 125.406C106.434 125.316 105.668 125.499 105.491 125.521C104.687 125.62 104.374 125.571 103.656 125.613C100.181 125.813 95.8514 125.956 92.564 126.077C92.2341 126.09 91.9111 126.101 91.5942 126.113C87.7486 126.251 84.6434 126.337 80.8627 126.537C80.6077 126.55 80.8732 126.629 80.6474 126.642C77.7364 126.806 74.8847 126.916 72.0006 127.105C71.7583 127.121 72.112 127.185 71.7248 127.213C70.9336 127.271 69.9766 127.322 69.1585 127.346C68.7737 127.357 69.283 127.254 68.8971 127.267C68.6259 127.276 68.3545 127.287 68.0866 127.3L67.4117 127.344L67.2529 126.694C67.0945 125.965 67.0274 125.33 66.9395 124.658C66.891 124.265 66.8721 124.873 66.8158 124.354C66.4592 120.81 66.2939 117.368 66.2364 113.814C66.2326 113.562 66.3806 113.351 66.3289 112.837C66.284 112.8 66.2332 112.805 66.1863 112.79C65.9581 107.678 65.8805 102.619 65.7947 97.4938C65.7912 97.2777 65.7291 97.6531 65.7224 97.2346C65.6834 94.8135 65.6408 92.4609 65.6801 89.9833C65.6839 89.7376 65.7894 89.8617 65.7666 89.1382C65.7623 89.0105 65.7393 87.9205 65.716 87.6386C65.7125 87.6003 65.667 87.8002 65.6637 87.4486C65.6455 85.4086 65.6534 83.2639 65.6807 81.2271C65.6851 80.8972 65.7266 81.248 65.7299 81.0131C65.7513 79.3544 65.7293 77.5433 65.7729 75.9548C65.8013 74.8974 65.8583 75.2836 65.9175 74.7188C65.9257 74.6382 65.9291 73.9813 65.9613 73.948C66.0417 73.861 66.1317 74.1781 66.2176 74.0478C66.2318 74.0262 66.2186 73.4998 66.2343 73.5C66.2343 73.5 66.2343 73.5 66.2343 73.5C66.2389 73.5 66.246 73.5456 66.2572 73.6633C66.2604 73.6989 66.2821 74.3344 66.2999 74.4922C66.3121 74.6018 66.3428 74.4043 66.3599 74.6278C66.3773 74.8516 66.3524 75.0979 66.375 75.4716C66.3982 75.8398 66.4351 75.6762 66.4543 76.4141ZM163.136 67.8047C163.657 68.1263 163.857 67.9627 163.221 67.7144C163.19 67.7037 163.108 67.7889 163.136 67.8047ZM92.407 69.7314C93.1637 69.7785 93.6861 69.6592 93.1461 69.6216C92.6077 69.5845 92.177 69.7173 92.407 69.7314ZM84.4689 70.0154C85.3774 70.0408 85.5168 69.8265 84.5437 69.8981C84.4875 69.9022 84.4161 70.0139 84.4689 70.0154ZM65.9329 77.3407C65.9346 77.3324 65.9357 76.8571 65.934 76.846C65.8934 76.5932 65.8898 77.5433 65.9329 77.3407ZM76.5949 70.2836C76.8714 70.3022 77.7174 70.2495 77.3517 70.2268C77.052 70.209 76.244 70.2609 76.5949 70.2836ZM164.276 97.6473C164.272 97.6564 164.268 97.9946 164.291 97.9879C164.363 97.9649 164.343 97.4945 164.276 97.6473ZM64.3344 73.4528C64.7677 72.5437 65.4259 72.0348 65.652 71.8868C65.9023 71.7545 65.6651 71.8554 64.9764 72.6566C64.7253 72.9484 65.4883 72.0038 65.154 72.3619C64.5413 73.0298 64.3217 73.6163 64.0783 74.4922C64.0131 74.6514 64.2475 73.5471 64.3357 73.4495C64.3353 73.4506 64.3348 73.4517 64.3344 73.4528ZM163.321 68.2142C163.331 68.2169 163.735 68.455 163.745 68.4646C164.009 68.5319 163.184 68.0383 163.321 68.2142ZM164.548 117.435C164.541 117.464 164.596 118.556 164.606 118.588C164.783 119.148 164.671 116.944 164.548 117.435ZM131.902 68.7711C131.374 68.8571 130.785 68.8856 130.373 68.8174C130.881 68.8036 131.373 68.7864 131.902 68.7711Z" fill="black"/>
<path d="M72.5307 0C70.5208 2.31124 68.5091 4.65454 66.5207 7.00071C48.6695 28.1618 31.702 50.1792 17.5791 74.1214C10.6313 86.1975 4.12413 98.5547 1.02043 112.34C-0.35448 119.119 -0.95743 126.861 3.30749 132.904C7.65629 138.9 15.5068 140.229 22.247 140.224C25.4265 140.214 28.2786 139.955 31.5307 139.5C28.263 139.822 25.4083 139.954 22.254 139.844C15.544 139.602 8.00416 137.933 4.19788 132.278C0.419698 126.61 1.10034 119.269 2.57813 112.683C5.85612 99.3122 12.4044 87.1168 19.3059 75.1304C33.3326 51.349 49.8096 29.0723 66.8154 7.2407C68.7098 4.81979 70.6233 2.39652 72.5307 0Z" fill="black"/>
<path d="M31.1762 139.258C30.9669 139.117 30.6941 138.929 30.4903 138.783C30.4264 138.737 30.4629 138.755 30.4192 138.723C30.3338 138.659 30.2507 138.605 30.1671 138.542C30.1394 138.521 30.1823 138.537 30.1533 138.515C29.9946 138.393 29.8393 138.285 29.6774 138.164C28.8817 137.564 28.1046 136.968 27.3094 136.348C27.0468 136.144 26.7479 135.872 26.4654 135.675C26.4323 135.652 26.4286 135.694 26.4206 135.692C26.2963 135.655 26.3742 135.623 26.3184 135.567C26.0968 135.349 25.8279 135.133 25.5818 134.963C25.477 134.891 25.526 135.032 25.4537 134.919C25.4486 134.911 25.502 134.896 25.4775 134.871C25.4218 134.815 25.2985 134.729 25.2525 134.689C25.1639 134.611 25.1483 134.599 25.0606 134.53C24.941 134.436 24.8132 134.306 24.6776 134.213C24.6485 134.194 24.6533 134.261 24.6039 134.233C24.5544 134.206 24.4404 134.113 24.4088 134.073C24.3772 134.033 24.4195 134.015 24.4184 134.002C24.4112 133.897 24.2082 133.875 24.1889 133.864C23.8434 133.655 23.6137 133.394 23.3189 133.162C23.0947 132.986 22.8402 132.815 22.6289 132.646C22.3773 132.443 22.1837 132.247 21.9339 132.057C21.9076 132.037 21.8909 132.118 21.8585 132.094C21.5149 131.835 21.1839 131.566 20.8823 131.258C20.8522 131.228 20.9395 131.208 20.9121 131.174C20.7744 131.005 20.5945 130.728 20.3604 130.708L20.7994 130.516C20.8272 130.563 20.8678 130.603 20.925 130.636C20.9046 130.813 20.882 131.028 20.8098 131.183C20.7633 131.283 20.6884 131.178 20.7159 131.306C20.722 131.335 20.7942 131.303 20.7981 131.346C20.815 131.526 20.7821 131.721 20.8102 131.9C20.816 131.937 20.8807 131.931 20.8917 131.942C20.9815 132.033 20.8196 132.167 20.8065 132.197C20.71 132.43 20.734 132.605 20.7205 132.826C20.7173 132.877 20.8088 132.822 20.809 132.871C20.8088 133.128 20.7881 133.393 20.7351 133.641C20.723 133.696 20.649 133.64 20.6393 133.667C20.5973 133.782 20.7412 133.817 20.7039 133.927C20.6961 133.951 20.6308 133.933 20.6233 133.937C20.5056 133.998 20.6639 134.067 20.6666 134.085C20.7038 134.308 20.5264 134.439 20.5383 134.653C20.5399 134.679 20.6278 134.627 20.6273 134.699C20.6246 135.178 20.5735 135.681 20.4771 136.149C20.4622 136.222 20.4003 136.166 20.392 136.17C20.2625 136.238 20.4273 136.297 20.4323 136.321C20.4669 136.513 20.3153 136.681 20.5085 136.821C20.4153 137.46 20.4391 138.104 20.3336 138.737C20.3076 138.894 20.2738 139.049 20.2284 139.204C20.2257 139.214 20.1432 139.19 20.1381 139.21C20.0765 139.45 20.2092 139.411 20.3581 139.581C20.3954 139.624 20.1962 139.735 20.1815 139.745C20.1274 139.782 20.0057 139.733 19.9949 139.746C19.9096 139.851 20.3212 139.858 20.312 140.006C20.3111 140.011 20.2368 139.987 20.2285 139.999C20.2025 140.036 20.2302 140.076 20.2018 140.112C20.1363 140.195 19.9355 140.214 20.0432 140.353C20.0572 140.37 20.291 140.359 20.2717 140.49C20.2638 140.543 20.253 140.776 20.2338 140.841C20.2147 140.905 20.143 140.856 20.1395 140.86C20.03 141.03 19.9933 140.961 19.8423 141.041C19.692 141.12 20.0394 141.116 20.0757 141.155C20.1119 141.193 20.0228 141.317 19.9927 141.347C19.9626 141.377 19.9179 141.335 19.9003 141.362C19.785 141.543 20.0664 141.454 20.1172 141.519C20.2373 141.672 19.9749 141.77 19.942 141.901C19.933 141.937 19.9927 141.911 19.9961 141.943C20.0088 142.071 19.925 142.143 19.9883 142.291C19.9987 142.316 20.143 142.442 20.0268 142.51C20.0101 142.52 19.9492 142.486 19.9317 142.539C19.9055 142.618 19.8829 142.763 19.8983 142.851C19.9097 142.916 20.0173 142.849 19.9802 142.928C19.9636 142.963 19.9077 142.893 19.8817 142.959C19.8557 143.024 19.8478 143.196 19.8458 143.261C19.8438 143.326 19.9235 143.295 19.9284 143.301C19.9563 143.334 19.9854 143.461 19.9846 143.472C19.957 144.029 19.7962 144.535 19.8033 145.079C19.8037 145.122 19.8838 145.098 19.8847 145.105C19.9077 145.252 19.7073 145.125 19.6315 145.222C19.7908 145.217 19.7583 145.275 19.769 145.379C19.7743 145.429 19.8371 145.406 19.843 145.411C19.9307 145.489 19.8077 145.533 19.7825 145.545C19.6897 145.588 19.7921 145.647 19.7302 145.676C19.6689 145.706 19.5856 145.625 19.5809 145.723C19.635 145.754 19.7857 145.69 19.8044 145.766C19.8744 146.053 19.725 146.572 19.6993 146.797C19.6886 146.888 19.6831 146.954 19.6785 147.009L19.4523 146.875C19.5231 146.833 19.573 146.803 19.6462 146.771C19.8674 146.675 19.7387 146.634 19.8402 146.518C19.9424 146.401 20.0129 146.65 20.0595 146.684C20.1056 146.718 20.0958 146.66 20.1334 146.671C20.171 146.682 20.1427 146.742 20.2001 146.719C20.2575 146.696 20.3489 146.527 20.3381 146.469C20.3151 146.345 20.186 146.281 20.3468 146.233C20.3561 146.23 20.3644 146.3 20.3981 146.287C20.665 146.181 20.9165 146.029 21.1787 145.915C21.2148 145.9 21.2215 145.976 21.2429 145.967C21.4655 145.879 21.3332 145.826 21.3762 145.652C21.4406 145.809 21.5556 145.859 21.7069 145.764C21.798 145.707 21.7441 145.655 21.7763 145.576C21.7859 145.552 21.8764 145.553 21.8703 145.517C21.8508 145.401 21.7248 145.334 21.908 145.28C21.9162 145.277 21.9257 145.341 21.9514 145.33C22.1177 145.255 22.0764 145.148 22.2364 145.036C22.3619 144.948 22.6299 144.864 22.784 144.781C22.8714 144.928 22.9898 144.807 22.9855 144.675C23.0845 144.62 23.1853 144.551 23.2868 144.507C23.3217 144.492 23.3257 144.545 23.3324 144.546C23.4366 144.576 23.4205 144.458 23.4392 144.441C23.6432 144.269 23.8686 144.223 24.0435 144.027C24.0496 144.019 24.0063 143.923 24.1047 143.953C24.1112 143.955 24.0654 144.039 24.1687 143.98C24.2721 143.922 24.4914 143.85 24.6072 143.724C24.6351 143.694 24.6791 143.574 24.7813 143.585C24.7949 143.586 24.7997 143.616 24.8212 143.621C24.8902 143.636 24.8618 143.539 24.956 143.578C25.0502 143.617 25.1856 143.602 25.2967 143.466C25.3003 143.461 25.2943 143.378 25.3394 143.351C25.4113 143.309 25.5198 143.259 25.5934 143.212C25.6286 143.19 25.5827 143.167 25.5884 143.162C25.8142 142.994 26.0048 142.922 26.2678 142.776C26.3159 142.749 26.4226 142.621 26.5352 142.6C26.6583 142.576 26.6553 142.798 26.8568 142.613C26.9372 142.536 26.9372 142.277 27.1622 142.269C27.4686 142.045 27.791 141.901 28.0941 141.67C28.1077 141.659 28.1283 141.59 28.1629 141.57C28.2142 141.54 28.2534 141.541 28.2902 141.519C28.4446 141.43 28.574 141.33 28.7215 141.241C28.7774 141.208 28.7681 141.236 28.8345 141.195C28.9007 141.155 28.9323 141.107 29.0277 141.061C29.0998 141.026 29.1907 141.022 29.2816 140.968C29.2627 140.93 29.3244 140.892 29.4282 140.815C29.4481 140.8 29.4184 140.802 29.4275 140.795C29.4645 140.764 29.5079 140.75 29.5426 140.72C29.5511 140.713 29.5449 140.702 29.5515 140.696C29.6076 140.641 29.73 140.599 29.7506 140.591C29.8302 140.561 29.8556 140.528 29.9131 140.5C29.9703 140.472 29.8937 140.529 29.9585 140.492C30.0927 140.416 30.2587 140.308 30.391 140.225C30.4437 140.191 30.4026 140.206 30.4101 140.201C30.5185 140.131 30.6332 140.068 30.6863 140.018C30.7817 140.002 30.7505 139.974 30.9114 139.883C30.9241 139.876 30.9464 139.877 30.9006 139.909C30.855 139.941 30.7813 139.983 30.7184 140.028C30.7033 140.039 30.625 140.112 30.614 140.121C30.5261 140.192 30.4955 140.173 30.4894 140.175C30.422 140.194 30.3264 140.283 30.2994 140.304C30.1746 140.396 30.0616 140.463 29.9574 140.54C29.8893 140.591 29.9007 140.625 29.8454 140.661C29.6621 140.785 29.5666 140.777 29.4211 140.937C29.39 140.971 29.4526 140.988 29.3004 141.046C29.2911 141.05 29.1728 141.085 29.1288 141.144C29.1233 141.151 29.1319 141.164 29.1232 141.172C29.0651 141.223 29.0164 141.24 28.9514 141.293C28.8865 141.345 28.8099 141.411 28.7288 141.46C28.68 141.489 28.6011 141.501 28.5738 141.509C28.4964 141.531 28.45 141.613 28.3937 141.613C28.3364 141.612 28.3899 141.52 28.2723 141.57C28.2963 141.617 28.3162 141.669 28.3383 141.719C28.1093 141.875 27.874 142.012 27.6454 142.171C27.6172 142.19 27.6643 142.199 27.6346 142.221C27.5092 142.315 27.3835 142.37 27.2555 142.47C27.1566 142.548 27.0651 142.66 26.9635 142.744C26.8533 142.719 26.7078 142.852 26.5872 142.925C26.5449 142.95 26.5349 142.928 26.5016 142.941C26.3762 142.99 26.4703 143.024 26.4471 143.055C26.3479 143.19 26.2382 143.04 26.087 143.145C26.0788 143.15 26.0346 143.304 26.0247 143.319C25.9611 143.413 25.9912 143.298 25.933 143.327C25.8269 143.382 25.7442 143.406 25.6451 143.51C25.6162 143.541 25.5721 143.654 25.478 143.653C25.4657 143.653 25.4508 143.618 25.4427 143.621C25.2971 143.674 25.3563 143.776 25.3064 143.86C25.2566 143.943 25.1019 143.948 25.0661 143.942C24.9735 143.928 25.0972 143.889 25.0971 143.881C25.096 143.794 25.0213 143.859 24.9558 143.894C24.8826 143.798 24.7987 143.86 24.8881 143.932C24.8979 143.94 24.9404 143.898 24.9558 143.894C24.9641 144.031 24.8785 144.11 24.7124 144.083C24.6345 144.07 24.648 143.986 24.5093 144.104C24.4464 144.157 24.5194 144.214 24.4722 144.275C24.3645 144.413 24.142 144.46 24.0073 144.565C23.9585 144.603 24.0355 144.613 24.0032 144.641C23.9177 144.714 23.8152 144.736 23.7323 144.815C23.7249 144.823 23.7745 144.855 23.7459 144.875C23.5299 145.028 23.3195 145.126 23.089 145.278C22.9777 145.352 22.7965 145.512 22.6781 145.583C22.4732 145.707 22.1797 145.793 22.0202 145.924C21.9163 146.01 21.9742 146.047 21.9494 146.115C21.9022 146.248 21.6597 146.228 21.6249 146.222C21.6238 146.222 21.7117 146.146 21.643 146.152C21.5768 146.113 21.6258 146.221 21.6249 146.222C21.6024 146.219 21.4028 146.332 21.3714 146.368C21.3543 146.387 21.3987 146.432 21.3892 146.441C21.1628 146.658 20.9161 146.843 20.6405 146.988C20.6352 146.99 20.6036 146.924 20.5917 146.93C20.4239 147.001 20.3747 147.14 20.2794 147.267C20.1839 147.395 20.0765 147.445 19.9347 147.384C19.9031 147.412 19.8605 147.435 19.8145 147.454L18.9073 147.988L18.9964 146.968C19.0154 146.886 19.0498 146.802 19.0743 146.746C19.1134 146.655 18.9656 146.633 18.963 146.625C18.8787 146.366 18.9693 146.224 18.994 145.962C19.0059 145.837 18.9941 145.588 18.9828 145.451C18.9737 145.343 19.0127 145.281 18.9936 145.181C18.9911 145.167 18.9213 145.177 18.9188 145.172C18.8403 145.057 19.0077 145.12 19.0389 145.099C19.1527 145.024 19.2143 144.976 19.1689 144.832C19.1586 144.799 18.9163 144.689 18.9041 144.629C18.8889 144.551 18.9764 144.586 18.9583 144.504C18.9569 144.497 18.902 144.495 18.9064 144.445C18.9265 144.214 18.9697 143.964 18.9749 143.724C18.9758 143.691 18.8854 143.728 18.8851 143.68C18.8842 143.457 18.898 143.213 18.9499 142.999C18.963 142.946 19.0244 142.984 19.0436 142.973C19.1602 142.909 19.0006 142.798 18.9981 142.781C18.9373 142.38 19.1025 142.085 19.0513 141.677C19.0483 141.654 18.8768 141.474 19.0351 141.408C19.0456 141.403 19.2076 141.338 19.1029 141.265C19.0964 141.261 19.0125 141.302 19.025 141.222C19.0376 141.141 18.9898 141.007 19.0855 140.9C19.1157 140.867 19.2788 140.793 19.1581 140.679C19.1498 140.672 18.8721 140.492 19.0729 140.446C19.106 140.438 19.3147 140.461 19.2144 140.328C19.1949 140.303 19.1458 140.344 19.1201 140.279C19.0805 140.179 19.1439 140.053 19.0571 139.928C19.0417 139.907 18.9041 139.809 19.0163 139.745C19.0339 139.735 19.1029 139.76 19.1128 139.723C19.1607 139.547 19.1246 139.357 19.1839 139.179C19.2047 139.115 19.3164 139.155 19.3508 139.09C19.3852 139.025 19.4226 138.892 19.3749 138.819C19.3272 138.745 19.1414 138.811 19.1332 138.705C19.1322 138.692 19.1313 138.678 19.1305 138.665C19.1057 138.219 19.2339 137.786 19.2777 137.345C19.2844 137.278 19.2161 137.33 19.2214 137.23C19.2404 136.863 19.2242 136.226 19.3824 135.916C19.5086 135.667 19.5692 135.994 19.6266 135.801C19.6539 135.708 19.4542 135.594 19.4493 135.571C19.399 135.345 19.5013 135.197 19.4878 134.995C19.485 134.954 19.399 134.989 19.3976 134.954C19.392 134.833 19.4384 134.71 19.4401 134.595C19.4408 134.543 19.3771 134.549 19.3855 134.502C19.405 134.389 19.4391 134.291 19.5061 134.184C19.5122 134.175 19.585 134.247 19.5941 134.164C19.6087 134.028 19.6785 133.864 19.631 133.704C19.6166 133.657 19.4754 133.647 19.5807 133.553C19.6027 133.534 19.77 133.571 19.6325 133.446C19.6094 133.425 19.4285 133.219 19.5626 133.131C19.5979 133.108 19.7401 133.052 19.7227 132.995C19.7199 132.987 19.6426 133.013 19.639 132.966C19.6273 132.803 19.6489 132.633 19.6392 132.465C19.6366 132.42 19.5546 132.482 19.5532 132.415C19.5492 132.231 19.5882 132.005 19.6269 131.828C19.6413 131.763 19.6996 131.812 19.7068 131.807C19.823 131.737 19.6785 131.683 19.6722 131.657C19.6343 131.495 19.7138 131.378 19.7082 131.23C19.7069 131.19 19.6349 131.214 19.6294 131.206C19.5764 131.119 19.6955 131.188 19.7139 131.136C19.7655 130.991 19.774 130.826 19.7785 130.676C19.78 130.62 19.6955 130.677 19.6979 130.628C19.7005 130.569 19.7041 130.51 19.7086 130.45L19.8498 128.825L21.0523 129.863C21.233 130.015 21.4064 130.183 21.5571 130.359C21.5925 130.4 21.5298 130.424 21.5298 130.441C21.5289 130.565 21.6954 130.54 21.7226 130.548C21.8468 130.583 21.8489 130.653 21.9338 130.715C22.3486 131.015 22.8006 131.46 23.1506 131.794C23.6062 132.231 23.9427 132.59 24.3995 132.979C24.4285 133.004 24.4395 132.929 24.4649 132.95C24.7903 133.222 25.0864 133.52 25.4125 133.793C25.4392 133.815 25.4357 133.74 25.4795 133.775C25.5694 133.846 25.6748 133.947 25.7502 134.039C25.787 134.083 25.703 134.066 25.7408 134.11C25.8289 134.212 25.9325 134.31 26.0386 134.395C26.0838 134.432 26.0507 134.334 26.1068 134.384C26.4897 134.728 26.8632 135.068 27.2121 135.461C27.236 135.488 27.2066 135.573 27.2731 135.612C27.2917 135.598 27.3084 135.577 27.3256 135.56C27.8847 136.058 28.4127 136.581 28.9629 137.093C28.9861 137.115 28.9638 137.056 29.0084 137.098C29.2674 137.341 29.5205 137.575 29.7725 137.839C29.7976 137.865 29.7623 137.879 29.8439 137.947C29.8583 137.959 29.9789 138.063 30.0133 138.086C30.018 138.089 30.0056 138.059 30.0434 138.094C30.2631 138.297 30.4891 138.515 30.7043 138.724C30.7391 138.757 30.6963 138.728 30.7211 138.752C30.8983 138.92 31.0955 139.097 31.265 139.257C31.3791 139.363 31.3342 139.327 31.395 139.383C31.4037 139.391 31.4767 139.454 31.4803 139.457C31.4896 139.466 31.452 139.438 31.466 139.452C31.4683 139.454 31.5307 139.5 31.5308 139.5C31.5308 139.5 31.5253 139.496 31.5113 139.486C31.507 139.483 31.4312 139.427 31.4121 139.414C31.3988 139.405 31.4217 139.423 31.3946 139.404C31.3673 139.386 31.3387 139.364 31.2936 139.334C31.2483 139.303 31.2662 139.319 31.1762 139.258ZM19.2511 146.339C19.3276 146.258 19.0635 146.229 19.1227 146.326C19.1258 146.33 19.2473 146.343 19.2511 146.339ZM27.8326 141.943C27.7136 141.964 27.6871 142.066 27.7725 142.054C27.8574 142.041 27.8685 141.936 27.8326 141.943ZM28.7892 141.283C28.6639 141.329 28.7098 141.442 28.8134 141.343C28.8194 141.337 28.7965 141.28 28.7892 141.283ZM31.1031 139.134C31.1039 139.135 31.1565 139.18 31.1579 139.181C31.1883 139.202 31.084 139.111 31.1031 139.134ZM29.7459 140.639C29.7058 140.653 29.6131 140.726 29.663 140.71C29.703 140.697 29.7954 140.623 29.7459 140.639ZM19.799 141.896C19.8034 141.895 19.8103 141.846 19.7856 141.845C19.706 141.844 19.7243 141.914 19.799 141.896ZM31.3966 139.586C31.154 139.743 30.9941 139.819 31.2657 139.659C31.3145 139.629 31.1623 139.725 31.2249 139.688C31.3384 139.619 31.4122 139.571 31.5286 139.501C31.5492 139.488 31.4101 139.576 31.3961 139.586C31.3963 139.586 31.3964 139.586 31.3966 139.586ZM19.571 146.309C19.5746 146.308 19.5821 146.239 19.5787 146.237C19.4967 146.195 19.482 146.333 19.571 146.309ZM20.158 139.015C20.1666 139.012 20.1841 138.853 20.1767 138.847C20.0268 138.755 19.9909 139.076 20.158 139.015ZM22.7887 144.784C22.8171 144.688 22.8902 144.635 22.9852 144.675C22.9193 144.71 22.8549 144.748 22.7887 144.784Z" fill="black"/>
</svg>
