<svg width="164" height="173" viewBox="0 0 164 173" fill="none" xmlns="http://www.w3.org/2000/svg">
<path d="M64.4325 102.46L70.0756 101.901C70.3524 101.962 70.4986 102.086 70.5142 102.272C70.5532 102.737 70.3821 102.986 70.0008 103.018C69.3032 103.076 68.5654 103.157 67.7873 103.26C67.8079 104.063 67.8355 104.67 67.8698 105.079C67.9034 105.479 67.9249 105.735 67.9343 105.846L68.4014 110.738C68.4256 111.027 68.3652 111.2 68.2203 111.259C68.1119 111.306 67.9739 111.336 67.8065 111.35C67.5368 111.373 67.3751 111.232 67.3214 110.928C67.2055 110.216 67.0655 108.884 66.9014 106.931C66.7366 104.968 66.6653 103.785 66.6875 103.38C66.493 103.406 66.205 103.435 65.8237 103.467C65.4424 103.499 64.9677 103.534 64.3996 103.572C64.2507 103.585 64.1306 103.548 64.0391 103.462C63.9475 103.376 63.8963 103.268 63.8854 103.138C63.8737 102.998 63.9181 102.859 64.0188 102.719C64.1288 102.579 64.2667 102.492 64.4325 102.46ZM75.8958 110.348C75.42 109.255 74.9384 108.26 74.451 107.364C73.9629 106.459 73.3386 105.327 72.5781 103.967C72.3135 103.493 72.1486 103.202 72.0834 103.095C72.0175 102.979 71.9786 102.851 71.9669 102.712C71.9544 102.563 72.0121 102.413 72.1399 102.262C72.277 102.11 72.4339 102.026 72.6106 102.012C72.7873 101.997 72.9435 102.073 73.0793 102.239L73.8778 103.718C74.9992 105.806 75.8012 107.326 76.2839 108.278L76.453 107.28C76.5858 106.408 76.7286 105.543 76.8815 104.688C77.3218 102.346 77.8488 101.15 78.4627 101.099C78.5743 101.089 78.67 101.114 78.7499 101.173C78.8391 101.231 78.8884 101.316 78.8977 101.427C78.9071 101.539 78.8603 101.707 78.7574 101.931C78.6637 102.154 78.552 102.552 78.4222 103.125C78.2923 103.698 78.2084 104.038 78.1705 104.144C78.1411 104.24 77.9835 105.04 77.6977 106.544C77.4212 108.047 77.174 109.229 76.956 110.09C76.922 110.243 76.8441 110.376 76.7225 110.489C76.6001 110.593 76.4552 110.652 76.2878 110.666C76.1297 110.679 75.999 110.573 75.8958 110.348ZM84.8769 110.057C84.8738 110.02 84.8822 109.954 84.9023 109.858C85.3873 108.385 85.909 106.678 86.4674 104.739C87.0257 102.801 87.5462 101.08 88.0289 99.5786C88.1388 99.3258 88.3193 99.1889 88.5704 99.1678C88.6821 99.1585 88.7778 99.1832 88.8577 99.2421C88.9375 99.3009 88.9822 99.3861 88.9915 99.4977C89.0001 99.6001 88.9108 99.9307 88.7236 100.49C88.5364 101.049 88.0921 102.505 87.3906 104.859C86.6976 107.202 86.1597 108.938 85.7768 110.066C85.6366 110.293 85.4735 110.414 85.2875 110.43C85.0364 110.451 84.8995 110.327 84.8769 110.057ZM95.5417 108.515C95.3936 108.425 95.3145 108.319 95.3043 108.198C95.2934 108.068 95.3356 107.956 95.4308 107.864C95.1424 106.549 94.926 105.031 94.7814 103.311C94.7377 102.79 94.6758 101.774 94.5958 100.263C94.6305 100.12 94.7134 99.9913 94.8443 99.8772C94.9845 99.7624 95.1197 99.6996 95.25 99.6886C95.3802 99.6777 95.4596 99.6757 95.4883 99.6826C96.8495 99.943 98.068 100.567 99.1437 101.553C100.219 102.531 100.842 103.762 101.013 105.246C101.151 106.883 100.558 107.967 99.2354 108.5C98.8549 108.654 98.4461 108.749 98.009 108.786C97.5812 108.822 97.2018 108.821 96.8708 108.783C96.9142 108.854 96.941 108.95 96.9512 109.071C96.9621 109.201 96.8932 109.329 96.7445 109.454C96.6058 109.587 96.4296 109.663 96.2156 109.681C96.011 109.698 95.8703 109.583 95.7934 109.337L95.5417 108.515ZM95.93 103.102C96.0667 104.729 96.2894 106.265 96.598 107.71C96.8267 107.756 97.2061 107.757 97.7363 107.713C98.2664 107.668 98.7658 107.537 99.2346 107.32C99.7127 107.102 99.9513 106.819 99.9503 106.473C99.9563 106.21 99.9535 106.009 99.9417 105.87C99.8402 104.661 99.4248 103.618 98.6957 102.743C97.9758 101.867 97.0143 101.236 95.8111 100.85C95.8568 101.951 95.8964 102.702 95.93 103.102ZM102.711 99.4273C102.852 99.3218 103.015 99.2612 103.201 99.2456C103.387 99.2299 103.513 99.3271 103.577 99.5371C103.677 100.615 103.831 102.227 104.039 104.373C104.15 105.685 104.206 106.799 104.208 107.717C104.201 107.858 104.123 107.991 103.974 108.116C103.834 108.231 103.685 108.295 103.527 108.308C103.267 108.33 103.125 108.206 103.102 107.936C103.117 106.998 103.067 105.841 102.951 104.465L102.474 99.7843C102.5 99.651 102.579 99.532 102.711 99.4273ZM109.895 98.4304C110.342 98.3929 110.793 98.4674 111.249 98.6539C111.714 98.8397 111.958 99.072 111.982 99.351C112.018 99.7789 111.859 100.008 111.506 100.037C111.375 100.048 111.141 99.9837 110.801 99.8436C110.461 99.7035 110.18 99.6429 109.957 99.6616C109.157 99.7288 108.517 100.143 108.038 100.905C107.568 101.665 107.38 102.599 107.473 103.706C107.542 104.533 107.784 105.244 108.199 105.836C108.614 106.429 109.068 106.705 109.561 106.663C110.064 106.621 110.441 106.426 110.692 106.077C110.952 105.718 111.065 105.329 111.03 104.91C111.01 104.678 110.976 104.489 110.926 104.343C110.885 104.187 110.794 104.054 110.654 103.944C110.512 103.825 110.335 103.774 110.121 103.792C109.907 103.81 109.699 103.781 109.495 103.704C109.302 103.627 109.198 103.509 109.185 103.351C109.172 103.193 109.206 103.04 109.287 102.893C109.368 102.746 109.487 102.651 109.642 102.61C110.275 102.557 110.704 102.587 110.928 102.699C111.163 102.81 111.339 102.903 111.458 102.978C111.576 103.052 111.681 103.184 111.772 103.373C111.863 103.562 111.932 103.72 111.98 103.847C112.038 103.973 112.088 104.18 112.131 104.467C112.19 104.949 112.247 105.515 112.301 106.166C112.355 106.808 112.342 107.207 112.261 107.364C112.188 107.492 112.054 107.569 111.859 107.594C111.664 107.611 111.526 107.58 111.444 107.503C111.363 107.425 111.301 107.243 111.258 106.956C111.051 107.17 110.781 107.362 110.449 107.53C110.125 107.688 109.833 107.778 109.573 107.8C108.754 107.869 108.03 107.494 107.399 106.676C106.767 105.849 106.4 104.821 106.297 103.594C106.242 102.943 106.296 102.297 106.457 101.656C106.618 101.005 106.862 100.451 107.189 99.9925C107.877 99.0449 108.779 98.5242 109.895 98.4304ZM114.092 98.4713C114.233 98.3658 114.397 98.3053 114.583 98.2896C114.769 98.274 114.894 98.3712 114.958 98.5812C115.058 99.6593 115.212 101.271 115.421 103.417C115.531 104.729 115.587 105.843 115.589 106.761C115.582 106.902 115.505 107.035 115.356 107.16C115.216 107.275 115.066 107.339 114.908 107.352C114.648 107.374 114.506 107.25 114.484 106.98C114.499 106.043 114.448 104.885 114.333 103.509L113.855 98.8284C113.882 98.6951 113.96 98.5761 114.092 98.4713ZM117.291 98.0201L122.934 97.4618C123.21 97.5229 123.357 97.6464 123.372 97.8324C123.411 98.2974 123.24 98.546 122.859 98.578C122.161 98.6366 121.423 98.7173 120.645 98.8201C120.666 99.6239 120.694 100.23 120.728 100.64C120.761 101.039 120.783 101.295 120.792 101.407L121.259 106.299C121.284 106.587 121.223 106.761 121.078 106.82C120.97 106.866 120.832 106.897 120.665 106.911C120.395 106.934 120.233 106.793 120.179 106.488C120.063 105.777 119.923 104.444 119.759 102.491C119.595 100.529 119.523 99.3452 119.546 98.9406C119.351 98.9663 119.063 98.9951 118.682 99.0272C118.3 99.0592 117.826 99.0944 117.258 99.1327C117.109 99.1452 116.989 99.1085 116.897 99.0225C116.806 98.9365 116.754 98.8284 116.743 98.6982C116.732 98.5587 116.776 98.4192 116.877 98.2796C116.987 98.1392 117.125 98.0527 117.291 98.0201ZM127.502 97.0219C127.734 97.0024 127.938 97.0883 128.113 97.2796C128.289 97.471 128.529 97.877 128.834 98.4976C129.547 99.9644 130.319 102.293 131.149 105.482C131.161 105.519 131.17 105.574 131.177 105.649C131.182 105.714 131.142 105.792 131.056 105.884C130.978 105.965 130.856 106.013 130.689 106.027C130.53 106.04 130.392 106.014 130.275 105.949C130.156 105.875 130.071 105.751 130.019 105.577C129.966 105.394 129.866 105.042 129.719 104.521C129.397 103.358 129.196 102.757 129.118 102.717C129.001 102.661 128.623 102.622 127.984 102.601C127.355 102.579 126.938 102.577 126.733 102.594C126.529 102.611 126.409 102.64 126.375 102.68C126.22 102.843 126.087 103.992 125.976 106.128C125.954 106.307 125.785 106.411 125.469 106.437C125.152 106.464 124.983 106.342 124.96 106.072C124.904 105.403 125.043 104.103 125.377 102.174C125.712 100.244 126.016 98.9591 126.29 98.3179C126.633 97.493 127.037 97.061 127.502 97.0219ZM127.576 98.5752C127.436 98.5869 127.229 99.0211 126.955 99.8777C126.679 100.725 126.55 101.246 126.566 101.442C126.57 101.488 126.582 101.52 126.602 101.537C126.683 101.605 126.982 101.646 127.498 101.659C128.014 101.671 128.356 101.671 128.523 101.657C128.691 101.643 128.783 101.626 128.8 101.605C128.816 101.576 128.819 101.501 128.809 101.38C128.798 101.25 128.63 100.749 128.303 99.8769C127.977 98.9958 127.734 98.5619 127.576 98.5752ZM132.384 103.918L132.306 102.828L131.942 96.9862C131.933 96.8746 131.986 96.7811 132.101 96.7059C132.217 96.6306 132.367 96.5852 132.553 96.5695C133 96.532 133.236 96.6714 133.263 96.9876C133.272 97.0899 133.281 97.8759 133.292 99.3454C133.313 100.814 133.335 101.693 133.359 101.981C133.359 101.981 133.401 102.474 133.483 103.46C133.542 104.157 133.621 104.535 133.719 104.592C133.862 104.627 134.027 104.637 134.213 104.621L136.21 104.313C136.648 104.276 136.879 104.416 136.906 104.732C136.927 104.983 136.822 105.179 136.59 105.32C136.367 105.452 136.14 105.536 135.909 105.574C135.677 105.603 135.394 105.632 135.059 105.66C133.599 105.782 132.804 105.802 132.676 105.719C132.606 105.669 132.551 105.463 132.511 105.101C132.471 104.73 132.44 104.47 132.418 104.322C132.405 104.173 132.394 104.038 132.384 103.918ZM69.1046 120.951C69.7092 120.901 70.2293 120.96 70.665 121.129C71.11 121.298 71.3458 121.541 71.3724 121.857C71.3841 121.996 71.357 122.12 71.2912 122.229C71.2347 122.337 71.1367 122.396 70.9972 122.408C70.867 122.419 70.5701 122.341 70.1064 122.174C69.6421 121.997 69.2238 121.925 68.8518 121.956C68.4891 121.987 68.1222 122.135 67.7511 122.4C67.38 122.665 67.2085 122.965 67.2366 123.3C67.2749 123.756 67.5402 124.071 68.0325 124.245C68.3992 124.373 68.9182 124.475 69.5895 124.55C70.26 124.615 70.8209 124.825 71.2722 125.181C71.7228 125.527 71.9808 126.091 72.0465 126.872C72.1465 128.062 71.8622 128.971 71.1937 129.599C70.8203 129.949 70.2663 130.155 69.5315 130.216C68.8061 130.277 68.0638 130.138 67.3048 129.799C66.8094 129.588 66.5511 129.357 66.53 129.106C66.5222 129.013 66.5508 128.907 66.6159 128.789C66.6902 128.671 66.794 128.568 66.9273 128.482C67.0605 128.396 67.1853 128.376 67.3016 128.423C67.4264 128.459 67.6245 128.531 67.8958 128.64C68.1672 128.748 68.3653 128.82 68.4901 128.857C68.8932 128.973 69.2668 129.016 69.611 128.987C69.9551 128.958 70.2712 128.763 70.5593 128.402C70.8559 128.03 70.9835 127.598 70.9421 127.105C70.8874 126.454 70.5236 126.026 69.8507 125.82C69.5236 125.716 69.1573 125.649 68.7519 125.617C67.9116 125.538 67.2678 125.344 66.8204 125.035C66.3722 124.717 66.1184 124.204 66.059 123.497C65.9996 122.79 66.2554 122.212 66.8264 121.761C67.3965 121.301 68.156 121.031 69.1046 120.951ZM76.7599 120.266C77.411 120.212 77.9819 120.374 78.4728 120.755C79.4328 121.48 79.9855 122.707 80.1308 124.437C80.2753 126.157 79.896 127.552 78.993 128.621C78.5228 129.157 77.9549 129.476 77.2892 129.579C76.4056 129.653 75.692 129.408 75.1483 128.845C74.6046 128.282 74.1945 127.638 73.9181 126.912C73.6502 126.175 73.487 125.458 73.4284 124.761C73.3284 123.57 73.5297 122.565 74.0322 121.746C74.5579 120.868 75.4671 120.375 76.7599 120.266ZM76.7595 121.432C75.5132 121.537 74.7862 122.193 74.5785 123.4C74.5121 123.724 74.4996 124.132 74.541 124.625C74.5824 125.118 74.7234 125.682 74.9641 126.318C75.2886 127.171 75.7122 127.754 76.2348 128.066C76.5419 128.265 76.9001 128.347 77.3093 128.313C77.7185 128.278 78.0706 128.066 78.3657 127.676C78.66 127.277 78.8437 126.788 78.917 126.211C78.9903 125.633 79.0027 125.056 78.9542 124.479C78.8683 123.456 78.6531 122.678 78.3086 122.145C77.9734 121.612 77.4571 121.374 76.7595 121.432ZM85.6409 119.675C86.264 119.623 86.9624 119.686 87.7361 119.864C87.9144 119.98 88.0102 120.118 88.0235 120.276C88.036 120.424 87.9683 120.566 87.8203 120.7C87.6809 120.824 87.5135 120.895 87.3182 120.911C86.805 120.823 86.3299 120.797 85.8928 120.834C84.8883 120.918 84.1507 121.28 83.6798 121.919C83.209 122.558 83.0228 123.463 83.1212 124.635C83.2196 125.807 83.6035 126.697 84.2728 127.306C84.6179 127.624 85.009 127.764 85.4462 127.728C85.8833 127.691 86.5613 127.4 87.4802 126.854C87.8017 126.668 88.0183 126.57 88.1299 126.561C88.3717 126.541 88.5032 126.656 88.5243 126.907C88.5454 127.158 88.4467 127.377 88.2282 127.564C87.4635 128.05 86.8642 128.386 86.4303 128.572C85.9956 128.749 85.6155 128.851 85.29 128.879C84.6203 128.935 84.0276 128.736 83.5119 128.283C82.589 127.443 82.0615 126.237 81.9295 124.665C81.7967 123.084 82.0986 121.883 82.8352 121.063C83.5803 120.232 84.5155 119.769 85.6409 119.675ZM90.6962 119.503C90.8372 119.398 91.0007 119.337 91.1867 119.322C91.3727 119.306 91.4979 119.403 91.5624 119.613C91.6623 120.691 91.8165 122.303 92.0248 124.449C92.1349 125.761 92.1911 126.875 92.1932 127.793C92.1864 127.934 92.1085 128.067 91.9598 128.192C91.8196 128.307 91.6704 128.371 91.5123 128.384C91.2519 128.406 91.1104 128.282 91.0877 128.012C91.1026 127.074 91.0522 125.917 90.9366 124.541L90.4592 119.86C90.4855 119.727 90.5645 119.608 90.6962 119.503ZM96.8823 118.661C97.1148 118.641 97.3187 118.727 97.494 118.918C97.6693 119.11 97.9094 119.516 98.2144 120.136C98.9277 121.603 99.6993 123.931 100.529 127.121C100.542 127.157 100.551 127.213 100.557 127.287C100.563 127.352 100.522 127.431 100.436 127.522C100.359 127.604 100.237 127.651 100.069 127.665C99.911 127.679 99.773 127.653 99.6552 127.588C99.5365 127.513 99.4512 127.39 99.3991 127.216C99.3463 127.033 99.2465 126.681 99.0997 126.159C98.7772 124.997 98.5769 124.396 98.4986 124.355C98.3815 124.3 98.0036 124.261 97.3649 124.24C96.7355 124.218 96.3185 124.215 96.1139 124.232C95.9093 124.25 95.7899 124.278 95.7559 124.319C95.601 124.482 95.468 125.631 95.357 127.766C95.3346 127.946 95.1654 128.049 94.8491 128.076C94.5329 128.102 94.3635 127.981 94.3408 127.711C94.2846 127.041 94.4236 125.742 94.758 123.812C95.0924 121.883 95.3965 120.598 95.6705 119.957C96.0133 119.132 96.4172 118.7 96.8823 118.661ZM96.9565 120.214C96.817 120.226 96.61 120.66 96.3354 121.516C96.06 122.364 95.9305 122.885 95.9469 123.08C95.9508 123.127 95.9628 123.159 95.983 123.176C96.0637 123.244 96.3621 123.284 96.8783 123.297C97.3945 123.31 97.7363 123.309 97.9038 123.295C98.0712 123.281 98.1634 123.264 98.1804 123.244C98.1967 123.215 98.1997 123.139 98.1896 123.018C98.1786 122.888 98.0101 122.387 97.684 121.515C97.3571 120.634 97.1146 120.201 96.9565 120.214ZM101.764 125.556L101.687 124.467L101.323 118.625C101.313 118.513 101.366 118.42 101.482 118.344C101.597 118.269 101.748 118.224 101.934 118.208C102.38 118.171 102.617 118.31 102.644 118.626C102.652 118.729 102.662 119.514 102.673 120.984C102.693 122.453 102.716 123.331 102.74 123.62C102.74 123.62 102.781 124.113 102.864 125.099C102.923 125.796 103.001 126.173 103.1 126.231C103.243 126.266 103.408 126.275 103.594 126.26L105.591 125.951C106.028 125.915 106.26 126.054 106.286 126.371C106.308 126.622 106.202 126.818 105.971 126.959C105.747 127.09 105.52 127.175 105.289 127.213C105.058 127.242 104.774 127.27 104.44 127.298C102.979 127.421 102.185 127.441 102.056 127.358C101.987 127.308 101.932 127.102 101.892 126.74C101.851 126.368 101.82 126.109 101.798 125.961C101.786 125.812 101.775 125.677 101.764 125.556ZM68.4353 147.942C68.2897 146.99 68.1486 145.7 68.0119 144.072C67.8744 142.435 67.8086 141.373 67.8145 140.885C67.836 140.584 68.0242 140.371 68.3791 140.248C68.7332 140.115 69.2079 140.024 69.8031 139.974C70.6774 139.9 71.4282 140.029 72.0554 140.361C72.6912 140.682 73.04 141.21 73.1017 141.945C73.1524 142.549 73.1113 143.063 72.9783 143.486C72.8445 143.9 72.6602 144.216 72.4255 144.432C72.0428 144.782 71.4516 144.991 70.6517 145.059C70.3076 145.087 69.8526 145.079 69.2867 145.033C69.4895 146.889 69.6065 148.059 69.6378 148.544C69.6691 149.028 69.5267 149.284 69.2105 149.31C69.0059 149.327 68.8725 149.301 68.8105 149.231C68.7484 149.162 68.7069 149.114 68.686 149.087C68.6643 149.052 68.6414 149.002 68.6173 148.938C68.5932 148.875 68.575 148.825 68.5625 148.789C68.5493 148.743 68.5346 148.678 68.5182 148.596C68.5112 148.512 68.5011 148.447 68.4879 148.401C68.4669 148.263 68.4493 148.11 68.4353 147.942ZM71.9473 142.084C71.9152 141.702 71.6856 141.422 71.2584 141.242C70.8305 141.054 70.384 140.979 69.9189 141.018C69.4539 141.057 69.1319 141.126 68.9529 141.225C68.9618 141.777 68.9858 142.286 69.0248 142.751C69.0631 143.206 69.1165 143.619 69.1849 143.988C69.4384 143.994 69.6124 144.003 69.707 144.014C69.9511 144.022 70.1569 144.018 70.3243 144.004C70.501 143.989 70.6173 143.98 70.6731 143.975C70.7374 143.96 70.8525 143.936 71.0183 143.904C71.1927 143.861 71.3148 143.809 71.3845 143.747C71.4542 143.685 71.5409 143.602 71.6447 143.5C71.7485 143.398 71.8186 143.284 71.855 143.159C71.9477 142.814 71.9785 142.456 71.9473 142.084ZM78.6635 139.173C79.3145 139.119 79.8855 139.281 80.3764 139.662C81.3364 140.387 81.8891 141.614 82.0344 143.344C82.1789 145.064 81.7996 146.459 80.8965 147.528C80.4264 148.064 79.8585 148.383 79.1927 148.486C78.3092 148.56 77.5956 148.315 77.0518 147.752C76.5081 147.189 76.0981 146.545 75.8217 145.819C75.5538 145.082 75.3906 144.366 75.332 143.668C75.232 142.477 75.4332 141.472 75.9357 140.653C76.4615 139.775 77.3707 139.282 78.6635 139.173ZM78.6631 140.339C77.4168 140.444 76.6898 141.1 76.4821 142.307C76.4156 142.631 76.4031 143.039 76.4445 143.532C76.4859 144.025 76.627 144.589 76.8677 145.225C77.1922 146.078 77.6158 146.661 78.1384 146.973C78.4455 147.172 78.8036 147.254 79.2128 147.22C79.6221 147.185 79.9742 146.973 80.2693 146.583C80.5635 146.184 80.7473 145.695 80.8206 145.118C80.8938 144.54 80.9062 143.963 80.8578 143.386C80.7719 142.363 80.5567 141.585 80.2122 141.052C79.877 140.519 79.3606 140.281 78.6631 140.339ZM86.5585 138.552C87.163 138.502 87.6832 138.561 88.1189 138.73C88.5639 138.899 88.7997 139.142 88.8262 139.458C88.838 139.597 88.8109 139.721 88.7451 139.83C88.6886 139.938 88.5906 139.997 88.4511 140.009C88.3209 140.02 88.0239 139.942 87.5603 139.775C87.0959 139.598 86.6777 139.526 86.3057 139.557C85.943 139.588 85.5761 139.735 85.205 140.001C84.8339 140.266 84.6624 140.566 84.6905 140.901C84.7288 141.357 84.9941 141.672 85.4864 141.846C85.8531 141.974 86.3721 142.076 87.0433 142.15C87.7138 142.216 88.2748 142.426 88.7261 142.782C89.1766 143.128 89.4347 143.692 89.5004 144.473C89.6003 145.663 89.3161 146.572 88.6476 147.2C88.2742 147.55 87.7202 147.755 86.9854 147.817C86.26 147.878 85.5177 147.739 84.7587 147.4C84.2633 147.189 84.005 146.958 83.9839 146.706C83.9761 146.613 84.0047 146.508 84.0698 146.39C84.1441 146.272 84.2479 146.169 84.3811 146.083C84.5144 145.997 84.6392 145.977 84.7555 146.024C84.8803 146.06 85.0784 146.132 85.3497 146.241C85.6211 146.349 85.8192 146.421 85.944 146.458C86.3471 146.574 86.7207 146.617 87.0648 146.588C87.409 146.559 87.7251 146.364 88.0132 146.003C88.3098 145.631 88.4374 145.199 88.396 144.706C88.3413 144.055 87.9775 143.627 87.3046 143.421C86.9775 143.317 86.6112 143.25 86.2058 143.218C85.3655 143.139 84.7217 142.945 84.2743 142.636C83.8261 142.318 83.5723 141.805 83.5129 141.098C83.4535 140.391 83.7093 139.813 84.2803 139.362C84.8504 138.902 85.6098 138.632 86.5585 138.552ZM97.1005 137.611C97.3237 137.592 97.4815 137.743 97.574 138.063C97.7478 139.575 97.9101 141.228 98.0608 143.023C98.2108 144.809 98.2882 145.842 98.2931 146.123C98.2979 146.403 98.2539 146.604 98.1609 146.724C98.068 146.844 97.8867 146.916 97.6169 146.938C97.3751 146.959 97.2417 146.82 97.2167 146.522L96.9519 143.369C96.909 142.858 96.8555 142.333 96.7916 141.795C96.7277 141.257 96.6899 140.919 96.6782 140.779C96.4073 141.345 96.0262 141.827 95.5351 142.224C95.0431 142.612 94.4763 142.833 93.8346 142.887C93.1928 142.941 92.6311 142.721 92.1495 142.227C92.1785 142.796 92.2259 143.471 92.2915 144.253C92.3563 145.025 92.4293 145.838 92.5105 146.693C92.53 146.925 92.4654 147.104 92.3167 147.229C92.1765 147.344 92.0087 147.409 91.8134 147.426C91.5623 147.447 91.4238 147.304 91.398 146.997C91.337 146.159 91.2304 144.833 91.078 143.02L90.7453 139.058C90.732 138.9 90.7703 138.742 90.8601 138.584C90.9592 138.426 91.0785 138.341 91.218 138.33C91.3668 138.317 91.5052 138.348 91.6331 138.421C91.7603 138.485 91.8351 138.596 91.8577 138.754C91.9816 139.783 92.2135 140.536 92.5533 141.013C92.8931 141.491 93.2676 141.712 93.6768 141.678C94.0861 141.643 94.4294 141.549 94.7067 141.394C94.9926 141.23 95.2212 141.051 95.3923 140.859C95.5728 140.666 95.7377 140.399 95.8871 140.059C96.0992 139.573 96.2929 138.981 96.4684 138.282C96.5736 137.861 96.7842 137.637 97.1005 137.611ZM104.262 146.563C104.258 146.526 104.267 146.459 104.287 146.364C104.772 144.89 105.294 143.184 105.852 141.245C106.41 139.306 106.931 137.586 107.414 136.084C107.524 135.832 107.704 135.695 107.955 135.674C108.067 135.664 108.162 135.689 108.242 135.748C108.322 135.807 108.367 135.892 108.376 136.003C108.385 136.106 108.296 136.436 108.108 136.995C107.921 137.554 107.477 139.011 106.775 141.364C106.082 143.708 105.544 145.444 105.161 146.572C105.021 146.799 104.858 146.92 104.672 146.936C104.421 146.957 104.284 146.833 104.262 146.563ZM114.816 144.047C114.671 143.094 114.53 141.804 114.393 140.176C114.256 138.54 114.19 137.477 114.196 136.99C114.217 136.688 114.405 136.476 114.76 136.352C115.114 136.22 115.589 136.128 116.184 136.078C117.059 136.005 117.809 136.134 118.437 136.465C119.072 136.786 119.421 137.314 119.483 138.049C119.534 138.654 119.493 139.167 119.359 139.591C119.226 140.005 119.041 140.32 118.807 140.536C118.424 140.887 117.833 141.096 117.033 141.163C116.689 141.192 116.234 141.183 115.668 141.137C115.871 142.993 115.988 144.164 116.019 144.648C116.05 145.132 115.908 145.388 115.592 145.415C115.387 145.432 115.254 145.405 115.192 145.336C115.13 145.266 115.088 145.218 115.067 145.192C115.045 145.156 115.023 145.106 114.999 145.043C114.974 144.979 114.956 144.929 114.944 144.893C114.931 144.847 114.916 144.783 114.899 144.7C114.892 144.616 114.882 144.552 114.869 144.506C114.848 144.367 114.831 144.214 114.816 144.047ZM118.328 138.188C118.296 137.807 118.067 137.526 117.64 137.347C117.212 137.158 116.765 137.083 116.3 137.122C115.835 137.161 115.513 137.23 115.334 137.33C115.343 137.882 115.367 138.39 115.406 138.855C115.444 139.311 115.498 139.723 115.566 140.092C115.82 140.099 115.994 140.108 116.088 140.118C116.332 140.126 116.538 140.123 116.706 140.109C116.882 140.094 116.999 140.084 117.054 140.079C117.119 140.065 117.234 140.041 117.4 140.008C117.574 139.966 117.696 139.913 117.766 139.851C117.835 139.789 117.922 139.707 118.026 139.604C118.13 139.502 118.2 139.388 118.236 139.264C118.329 138.919 118.36 138.56 118.328 138.188ZM123.165 144.174C123.179 144.342 123.117 144.501 122.98 144.653C122.842 144.796 122.685 144.875 122.508 144.89C122.341 144.904 122.215 144.802 122.131 144.584C122 143.359 121.884 142.137 121.781 140.919L121.444 137.407C121.385 136.7 121.656 136.19 122.257 135.877C122.74 135.603 123.325 135.436 124.014 135.378C124.367 135.349 124.751 135.405 125.166 135.549C125.589 135.682 125.973 135.902 126.317 136.211C126.67 136.509 126.863 136.853 126.896 137.244C126.928 137.625 126.786 138.054 126.47 138.53C126.153 138.997 125.749 139.424 125.257 139.812C124.764 140.191 124.278 140.484 123.8 140.693C124.715 141.225 125.523 141.813 126.224 142.456C126.923 143.091 127.289 143.598 127.321 143.98C127.331 144.101 127.28 144.222 127.169 144.344C127.057 144.456 126.912 144.52 126.735 144.535C126.568 144.549 126.418 144.487 126.284 144.348C126.038 143.872 125.604 143.389 124.982 142.898C124.369 142.397 123.66 141.932 122.856 141.503L123.165 144.174ZM122.757 139.994C123.378 139.914 124.054 139.595 124.784 139.037C125.524 138.478 125.878 138.004 125.845 137.613C125.811 137.213 125.59 136.923 125.182 136.741C124.773 136.56 124.299 136.492 123.76 136.538C123.23 136.582 122.812 136.683 122.507 136.84C122.537 137.315 122.621 138.366 122.757 139.994ZM129.224 135.334C129.365 135.229 129.528 135.168 129.714 135.153C129.9 135.137 130.025 135.234 130.09 135.444C130.19 136.522 130.344 138.134 130.552 140.28C130.662 141.592 130.718 142.706 130.721 143.624C130.714 143.765 130.636 143.898 130.487 144.023C130.347 144.138 130.198 144.202 130.04 144.215C129.779 144.237 129.638 144.113 129.615 143.843C129.63 142.905 129.58 141.748 129.464 140.372L128.987 135.691C129.013 135.558 129.092 135.439 129.224 135.334ZM137.701 134.341C137.789 134.278 137.908 134.24 138.057 134.227C138.206 134.215 138.346 134.268 138.478 134.388C138.609 134.499 138.681 134.638 138.695 134.806C139.001 138.442 139.2 140.641 139.292 141.401C139.392 142.151 139.443 142.536 139.445 142.554C139.462 142.759 139.422 142.959 139.326 143.154C139.23 143.34 139.111 143.439 138.972 143.451C138.842 143.462 138.739 143.466 138.664 143.463C138.597 143.45 138.535 143.436 138.478 143.422C138.42 143.408 138.362 143.376 138.301 143.325L138.15 143.197C138.109 143.163 138.052 143.097 137.979 143C137.914 142.893 137.86 142.809 137.817 142.747C137.774 142.685 137.705 142.579 137.608 142.427C137.519 142.266 137.319 141.946 137.007 141.466C136.704 140.986 136.429 140.555 136.182 140.173C135.334 138.886 134.561 137.878 133.863 137.15C134.117 140.173 134.209 142.277 134.14 143.463C134.131 143.689 133.968 143.815 133.652 143.841C133.503 143.854 133.374 143.827 133.266 143.761C133.167 143.695 133.11 143.578 133.096 143.41C133.082 143.243 133.037 142.32 132.962 140.64C132.895 138.96 132.845 137.915 132.811 137.506C132.776 137.087 132.753 136.822 132.744 136.71C132.688 136.041 132.707 135.66 132.803 135.568C132.898 135.475 133.001 135.424 133.113 135.415C133.624 135.372 134.476 136.143 135.668 137.729C135.899 138.038 136.347 138.688 137.012 139.682C137.675 140.666 138.073 141.274 138.205 141.506L137.551 135.731C137.484 134.931 137.534 134.468 137.701 134.341ZM140.544 134.201L146.188 133.643C146.464 133.704 146.61 133.827 146.626 134.013C146.665 134.478 146.494 134.727 146.113 134.759C145.415 134.817 144.677 134.898 143.899 135.001C143.92 135.805 143.947 136.411 143.982 136.82C144.015 137.22 144.037 137.476 144.046 137.588L144.513 142.48C144.538 142.768 144.477 142.942 144.332 143.001C144.224 143.047 144.086 143.078 143.918 143.092C143.649 143.114 143.487 142.973 143.433 142.669C143.317 141.957 143.177 140.625 143.013 138.672C142.849 136.709 142.777 135.526 142.799 135.121C142.605 135.147 142.317 135.176 141.936 135.208C141.554 135.24 141.08 135.275 140.511 135.313C140.363 135.326 140.242 135.289 140.151 135.203C140.059 135.117 140.008 135.009 139.997 134.879C139.986 134.739 140.03 134.6 140.131 134.46C140.241 134.32 140.379 134.233 140.544 134.201ZM76.59 158.386C76.7853 158.37 76.9319 158.498 77.0297 158.771C77.0528 159.715 77.0486 160.39 77.0171 160.795C76.9848 161.191 76.9579 161.54 76.9364 161.841C76.9242 162.142 76.9135 162.349 76.9043 162.462C76.9043 162.575 76.8863 162.806 76.8501 163.155C76.8139 163.505 76.773 163.855 76.7275 164.205C76.6905 164.546 76.6655 164.749 76.6523 164.816C76.6485 164.882 76.5999 165.307 76.5067 166.092C76.4126 166.868 76.3312 167.348 76.2623 167.532C76.202 167.705 76.0741 167.801 75.8788 167.817C75.6928 167.833 75.5393 167.789 75.4183 167.687C74.9413 167.137 74.4758 166.446 74.0218 165.613C73.9101 165.397 73.7828 165.164 73.64 164.914C73.5065 164.663 73.4064 164.475 73.3397 164.349L73.1895 164.067C73.0223 164.418 72.8003 165.008 72.5233 165.837C72.2464 166.666 71.998 167.333 71.7782 167.838C71.6288 168.066 71.4517 168.189 71.2471 168.206C70.8193 168.242 70.3981 167.13 69.9835 164.87C69.9827 164.861 69.9691 164.81 69.9427 164.719C69.9256 164.627 69.8933 164.465 69.8459 164.235C69.8077 164.004 69.7584 163.751 69.6977 163.475C69.6456 163.189 69.4305 162.022 69.0525 159.975C69.0369 159.789 69.0926 159.615 69.2196 159.455C69.3458 159.285 69.4926 159.193 69.66 159.179C69.8647 159.162 70.0155 159.285 70.1126 159.549C70.6175 162.55 71.0561 164.761 71.4283 166.182C71.4918 166.045 71.6465 165.601 71.8925 164.85C72.1377 164.09 72.3679 163.485 72.5831 163.036C72.7975 162.578 73.021 162.339 73.2535 162.319C73.4116 162.306 73.5535 162.378 73.6791 162.537C74.4049 164.152 75.0056 165.282 75.4811 165.926C75.4818 165.822 75.5142 165.539 75.5782 165.074L75.6846 164.166C75.6799 164.111 75.6826 164.031 75.6926 163.927C75.7119 163.822 75.7223 163.723 75.7238 163.629C75.7338 163.525 75.7446 163.431 75.7561 163.346L75.8358 162.454C75.9434 161.058 75.988 159.917 75.9696 159.028C75.9935 158.867 76.0659 158.725 76.1867 158.603C76.3161 158.47 76.4505 158.398 76.59 158.386ZM79.0082 162.721C78.871 162.648 78.7958 162.533 78.7825 162.375C78.7692 162.217 78.8082 162.068 78.8996 161.929C78.7843 161.003 78.6833 160.023 78.5966 158.99C78.6336 158.763 78.7037 158.593 78.8067 158.481C78.919 158.369 79.0856 158.289 79.3065 158.242C80.5388 158.195 81.8711 158.111 83.3034 157.991C83.6631 158.036 83.8527 158.174 83.8722 158.407C83.905 158.798 83.5429 159.057 82.7857 159.187C82.5818 159.213 82.359 159.236 82.1172 159.257L81.2104 159.333C81.0337 159.348 80.5423 159.352 79.7362 159.344C79.8338 160.507 79.9196 161.305 79.9935 161.739C80.4872 161.707 81.4363 161.632 82.8407 161.514C83.181 161.551 83.3613 161.691 83.3816 161.932C83.4011 162.165 83.2815 162.358 83.0227 162.51C82.9964 162.531 82.9468 162.554 82.8739 162.579L80.4569 162.74C80.3081 162.752 80.188 162.772 80.0965 162.798L80.3539 165.193C80.3992 165.733 80.4176 166.12 80.4093 166.355L83.6424 166.041C83.9439 166.062 84.1032 166.175 84.1204 166.38C84.1321 166.52 84.0788 166.665 83.9603 166.815C83.8511 166.965 83.7143 167.065 83.5501 167.116L79.9833 167.472C79.7694 167.49 79.6175 167.465 79.5275 167.398C79.4368 167.321 79.3836 167.19 79.368 167.004C79.3833 166.741 79.3668 166.32 79.3183 165.744L79.2363 164.767L79.0082 162.721ZM88.2731 166.748L86.47 166.857C86.3348 166.475 86.1267 164.722 85.8457 161.599L85.7625 160.608C85.6961 159.818 85.7201 159.212 85.8345 158.79C85.9482 158.359 86.2316 157.998 86.6849 157.707C86.9165 157.566 87.2463 157.477 87.6741 157.441C88.1112 157.405 88.4484 157.404 88.6856 157.441C89.3197 157.519 89.7632 157.725 90.0161 158.059C90.2783 158.393 90.4344 158.858 90.4844 159.453C90.5539 160.281 90.3865 160.908 89.9822 161.336C90.2077 161.345 90.4403 161.438 90.6799 161.614C90.9195 161.791 91.1177 161.976 91.2744 162.169C91.5475 162.52 91.7109 163.017 91.7648 163.659C91.8492 164.663 91.6024 165.405 91.0245 165.885C90.4551 166.354 89.538 166.642 88.2731 166.748ZM86.8375 160.026L86.999 161.614C87.0176 161.613 87.1742 161.581 87.4687 161.519C87.7624 161.447 88.0096 161.38 88.2103 161.316C89.1309 161.014 89.5557 160.44 89.4846 159.593C89.4494 159.175 89.2981 158.878 89.0306 158.704C88.7724 158.529 88.4433 158.459 88.0434 158.492C87.5411 158.534 87.2091 158.651 87.0472 158.843C86.9791 158.923 86.9241 158.994 86.8822 159.053C86.8397 159.104 86.8137 159.185 86.8045 159.299C86.7953 159.412 86.788 159.492 86.7826 159.539C86.7865 159.586 86.7939 159.674 86.8048 159.804C86.8251 159.934 86.836 160.008 86.8375 160.026ZM90.2261 162.734C90.1245 162.64 89.9725 162.559 89.7702 162.492C89.5678 162.424 89.2806 162.406 88.9086 162.438C88.5459 162.468 87.9278 162.581 87.0544 162.776C87.1763 164.227 87.2819 165.206 87.3714 165.714C88.4596 165.622 89.2164 165.488 89.6418 165.312C90.0664 165.127 90.3445 164.925 90.4762 164.708C90.6163 164.481 90.6766 164.251 90.6571 164.019C90.6368 163.777 90.6181 163.61 90.6009 163.518C90.5924 163.415 90.5531 163.283 90.4833 163.12C90.4219 162.947 90.3362 162.819 90.2261 162.734Z" fill="black"/>
<path d="M24.2746 80.6503C25.0058 80.2767 26.0529 79.8913 26.8375 79.6439C27.0817 79.5668 27.0036 79.711 27.1741 79.6619C27.5077 79.5657 27.7856 79.3958 28.1215 79.3082C28.2331 79.2796 28.1656 79.4825 28.281 79.449C28.913 79.2643 29.4739 78.9898 30.1107 78.7682C33.1773 77.705 36.2089 76.5965 39.3228 75.5167C40.3412 75.1639 41.6486 74.8268 42.6803 74.3944C42.8001 74.3441 42.6836 74.2515 42.7032 74.2334C43.0135 73.9531 42.98 74.236 43.2302 74.1821C44.2238 73.9679 45.2907 73.5999 46.2042 73.2297C46.592 73.0723 46.1173 72.9801 46.5561 72.9719C46.5863 72.9711 46.5316 73.128 46.6426 73.1039C46.8939 73.049 47.3448 72.8674 47.5362 72.8119C47.9051 72.7054 47.9646 72.6834 48.3088 72.566C48.7798 72.4067 49.3618 72.2733 49.8609 72.0723C49.9673 72.0291 49.7809 71.9558 49.947 71.876C50.113 71.7963 50.5772 71.6506 50.7419 71.6269C50.9043 71.604 50.8723 71.7212 50.9068 71.734C51.192 71.8428 51.6282 71.4105 51.6939 71.3818C52.8895 70.861 54.0061 70.6498 55.1788 70.2621C56.0554 69.9725 56.984 69.6189 57.8305 69.3521C58.8389 69.0349 59.7195 68.8195 60.6841 68.5003C60.7865 68.4667 60.6236 68.3741 60.7487 68.3328C62.0747 67.8955 63.427 67.4885 64.7815 67.1608C64.9175 67.128 64.7808 67.292 64.9187 67.2657C65.7624 67.1031 67.123 66.9102 67.4647 66.2917C68.0262 66.1396 68.7139 65.9507 69.2344 65.8936C69.572 65.8559 69.2978 66.0656 69.6745 65.8965C69.7596 65.8586 69.6134 65.7932 69.7434 65.744C70.2909 65.5373 70.9128 65.3842 71.4525 65.1657C71.5622 65.1211 71.5042 65.0421 71.5314 65.0166C71.7611 64.8075 72.275 64.8854 72.3774 64.8711C73.1584 64.7613 73.6869 64.5536 74.3778 64.3509C74.5384 64.3038 74.3139 64.2452 74.4673 64.196C75.2629 63.9421 76.0978 63.7074 76.9003 63.5255C77.0789 63.4853 76.9464 63.6279 77.0331 63.6135C77.4154 63.5485 77.4437 63.3455 77.8098 63.2802C77.8869 63.2662 77.8689 63.3592 77.8852 63.3641C78.1405 63.44 78.2655 63.1893 78.3189 63.1691C78.9918 62.9086 79.4939 62.9822 80.1535 62.7579C80.2324 62.731 80.0226 62.684 80.2463 62.6146C81.7369 62.1515 83.3351 61.7224 84.8394 61.3726C85.0736 61.318 84.9293 61.4358 84.9464 61.4403C85.2224 61.5078 85.3228 61.2821 85.3962 61.2538C85.9761 61.0353 86.5746 61.0257 86.9178 60.6992C89.455 60.056 91.9338 59.2444 94.4817 58.7225C94.514 58.7156 94.4794 58.8104 94.5437 58.7963C95.3193 58.627 95.1382 58.5455 95.6023 58.2583C95.7193 58.1865 96.1564 58.257 96.1943 58.2602C96.3324 58.2733 96.2351 58.4238 96.2795 58.4214C96.6453 58.397 96.4832 58.0352 96.9502 57.9072C96.9649 57.9038 96.9229 57.9896 96.964 57.9857C97.0917 57.9736 97.2046 57.9131 97.3305 57.9038C97.6186 57.8835 97.7658 58.036 98.153 57.816C98.2019 57.7879 98.0631 57.601 98.4831 57.4969C98.6505 57.4554 99.3857 57.2509 99.5956 57.2079C99.8053 57.1649 99.6821 57.2692 99.6975 57.2681C100.276 57.2025 100.076 57.2961 100.389 57.3467C100.702 57.3962 100.541 57.1156 100.645 57.051C100.749 56.9864 101.175 56.9455 101.282 56.9422C101.388 56.9391 101.275 57.0141 101.368 57.0034C101.981 56.9305 101.585 56.7849 101.766 56.6849C102.193 56.4499 102.611 56.5706 103.036 56.4763C103.151 56.4509 103.045 56.4273 103.145 56.3952C103.54 56.2687 103.799 56.2692 104.238 56.0849C104.31 56.0545 104.643 55.8291 104.907 55.857C104.944 55.8611 104.862 55.9391 105.036 55.9044C105.295 55.8526 105.757 55.7389 106.026 55.6477C106.224 55.5803 105.97 55.5591 106.231 55.5165C106.347 55.4975 106.151 55.6032 106.368 55.5634C106.584 55.5238 107.123 55.375 107.329 55.3174C107.534 55.26 107.405 55.2283 107.42 55.2196C107.514 55.1684 107.901 55.0325 107.936 55.0233C109.696 54.5445 111.331 54.2126 113.042 53.7213C113.176 53.6831 113.07 53.648 113.091 53.6415C113.545 53.4947 113.224 53.7476 113.559 53.7136C113.481 53.6072 113.676 53.578 113.997 53.4788C114.151 53.4309 114.054 53.4081 114.067 53.3997C114.28 53.2694 114.465 53.3158 114.511 53.3227C114.682 53.3484 114.828 53.2258 114.944 53.2423C115.059 53.2582 114.837 53.3873 115.147 53.3033C115.223 53.2389 114.964 53.1925 115.195 53.1126C116.062 52.8135 117.755 52.4564 118.472 52.275C119.189 52.0946 119.417 52.0271 119.836 51.9311C120.592 51.7577 120.298 51.7584 120.755 51.6045C121.213 51.4506 121.032 51.6824 121.109 51.7018C121.185 51.7212 121.248 51.6639 121.336 51.6622C121.423 51.6606 121.252 51.7331 121.447 51.6891C121.643 51.6447 122.155 51.439 122.213 51.3834C122.337 51.2654 122.076 51.2439 122.596 51.1398C122.626 51.1339 122.542 51.2026 122.656 51.1775C123.559 50.9765 124.486 50.7355 125.38 50.5306C125.503 50.5024 125.406 50.5764 125.477 50.5605C126.225 50.3938 125.943 50.3869 126.33 50.1973C126.267 50.3319 126.511 50.3397 127.077 50.1902C127.416 50.1006 127.346 50.069 127.557 49.9784C127.62 49.9513 127.868 49.92 127.906 49.8869C128.031 49.7784 127.784 49.7578 128.374 49.6388C128.4 49.6337 128.329 49.6931 128.417 49.6725C128.991 49.5395 129.04 49.4495 129.651 49.2831C130.127 49.1538 131.005 48.9723 131.559 48.8359C131.575 48.946 132.089 48.7846 132.281 48.6582C132.64 48.5687 133.024 48.4651 133.371 48.3858C133.49 48.3584 133.42 48.4077 133.436 48.407C133.677 48.3966 133.814 48.2893 133.89 48.267C134.711 48.0283 135.411 47.8981 136.2 47.6455C136.228 47.6364 136.257 47.5614 136.483 47.5526C136.498 47.5521 136.241 47.649 136.618 47.5541C136.994 47.4595 137.709 47.3086 138.22 47.1472C138.344 47.108 138.649 46.9796 138.912 46.9508C138.947 46.947 138.914 46.973 138.966 46.9695C139.131 46.9574 139.2 46.8786 139.401 46.8781C139.603 46.8777 140.004 46.8093 140.523 46.6391C140.539 46.6337 140.653 46.5583 140.819 46.516C141.084 46.4485 141.46 46.3597 141.735 46.2879C141.867 46.2535 141.776 46.2502 141.799 46.2438C142.684 45.9999 143.297 45.865 144.263 45.623C144.439 45.5787 144.935 45.4188 145.279 45.3544C145.656 45.283 145.303 45.4858 146.145 45.2361C146.484 45.1345 146.885 44.9011 147.512 44.8039C148.698 44.4794 149.831 44.2119 151.013 43.8836C151.067 43.8687 151.229 43.7994 151.355 43.7673C151.541 43.7195 151.647 43.7044 151.779 43.6705C152.333 43.5297 152.865 43.3816 153.407 43.2418C153.614 43.1884 153.545 43.2171 153.791 43.1532C154.037 43.0892 154.198 43.0343 154.531 42.9535C154.783 42.8926 155.039 42.85 155.369 42.7648C155.376 42.7398 155.603 42.6805 156.003 42.5701C156.08 42.5489 155.996 42.5636 156.032 42.5532C156.177 42.5116 156.325 42.479 156.468 42.4378C156.503 42.4277 156.503 42.4209 156.531 42.4123C156.774 42.3396 157.18 42.2491 157.249 42.2331C157.516 42.1726 157.637 42.1331 157.839 42.0835C158.041 42.0338 157.742 42.1166 157.977 42.0566C158.465 41.9321 159.085 41.767 159.572 41.6383C159.767 41.587 159.633 41.6172 159.661 41.6097C160.056 41.5046 160.484 41.3958 160.708 41.3289C160.998 41.2718 160.957 41.2615 161.543 41.1111C161.589 41.0992 161.65 41.0898 161.473 41.138C161.297 41.1863 161.028 41.2556 160.781 41.3233C160.723 41.3391 160.39 41.4379 160.344 41.451C159.984 41.5533 159.935 41.549 159.916 41.5531C159.704 41.5985 159.307 41.7163 159.202 41.7458C158.72 41.8789 158.306 41.9861 157.899 42.0988C157.632 42.1725 157.611 42.197 157.4 42.2533C156.703 42.4405 156.433 42.4804 155.796 42.6792C155.658 42.7222 155.804 42.71 155.3 42.8249C155.268 42.8324 154.892 42.9127 154.68 42.9829C154.653 42.9918 154.656 42.9997 154.621 43.01C154.383 43.079 154.221 43.1154 153.961 43.1892C153.7 43.2631 153.386 43.3537 153.085 43.4318C152.903 43.4789 152.665 43.5233 152.577 43.542C152.328 43.5943 152.068 43.6875 151.918 43.71C151.763 43.7329 152.05 43.6299 151.653 43.7223C151.646 43.7541 151.62 43.7918 151.604 43.8264C150.74 44.0584 149.88 44.2785 149 44.5162C148.89 44.5457 149.007 44.5341 148.89 44.5664C148.397 44.7026 147.955 44.8068 147.457 44.9469C147.068 45.0564 146.644 45.1946 146.235 45.312C145.972 45.3335 145.364 45.5134 144.917 45.6293C144.76 45.6698 144.767 45.6536 144.654 45.679C144.229 45.7752 144.438 45.7676 144.325 45.8058C143.838 45.9705 143.765 45.8778 143.193 46.0323C143.163 46.0402 142.806 46.1983 142.756 46.2161C142.436 46.3281 142.696 46.21 142.491 46.2604C142.116 46.3524 141.852 46.4068 141.416 46.5429C141.29 46.5825 140.992 46.7055 140.734 46.7416C140.7 46.7464 140.712 46.72 140.686 46.7258C140.2 46.8328 140.205 46.9047 139.937 47.0026C139.668 47.101 139.231 47.167 139.144 47.1747C138.912 47.1973 139.311 47.1132 139.322 47.1063C139.452 47.0257 139.149 47.1143 138.915 47.1727C138.863 47.1106 138.538 47.2008 138.673 47.2336C138.688 47.237 138.868 47.1819 138.915 47.1727C138.729 47.2969 138.373 47.4043 137.959 47.4428C137.764 47.4607 137.931 47.3764 137.368 47.5402C137.112 47.6146 137.225 47.6406 137.002 47.7158C136.492 47.8881 135.802 48.0194 135.265 48.1715C135.071 48.2269 135.269 48.2066 135.136 48.2457C134.782 48.3501 134.473 48.4081 134.124 48.5152C134.092 48.525 134.179 48.5374 134.07 48.5674C133.242 48.7959 132.512 48.9697 131.639 49.2049C131.22 49.318 130.462 49.5454 130.033 49.6575C129.282 49.8544 128.341 50.0473 127.699 50.2358C127.281 50.3589 127.384 50.3751 127.211 50.4524C126.878 50.6026 126.234 50.6726 126.146 50.6791C126.144 50.6792 126.504 50.5707 126.305 50.6016C126.18 50.5868 126.15 50.6778 126.146 50.6791C126.087 50.6845 125.365 50.87 125.225 50.917C125.148 50.9427 125.202 50.9721 125.162 50.9848C124.211 51.2842 123.248 51.562 122.261 51.8111C122.244 51.815 122.257 51.7581 122.216 51.7678C121.642 51.9008 121.289 52.0632 120.837 52.2284C120.382 52.3942 120.009 52.4849 119.709 52.4703C119.361 52.5786 118.845 52.6774 118.547 52.7322C118.249 52.787 118.236 52.9042 118.211 52.9134C117.431 53.2018 116.947 53.2708 116.119 53.4892C115.726 53.593 114.951 53.8256 114.529 53.957C114.195 54.0609 113.985 54.0904 113.679 54.1944C113.638 54.2085 113.694 54.2485 113.682 54.2541C113.352 54.4136 113.484 54.2395 113.407 54.2367C113.125 54.2262 112.952 54.2255 112.518 54.3882C112.418 54.4254 112.17 54.6965 111.986 54.7606C111.747 54.8432 111.82 54.7493 111.572 54.837C111.551 54.8444 111.566 54.8852 111.41 54.9275C110.683 55.124 109.885 55.3222 109.132 55.5402C109.029 55.5699 109.18 55.6023 109.031 55.6464C108.335 55.8534 107.566 56.0705 106.877 56.2307C106.707 56.2697 106.798 56.1888 106.758 56.184C106.51 56.1553 106.23 56.3789 106.179 56.3966C104.953 56.8176 103.965 56.9654 102.711 57.3908C102.642 57.4139 102.153 57.722 101.88 57.6579C101.861 57.6539 101.589 57.5848 101.408 57.7379C101.396 57.7475 101.562 57.7757 101.305 57.8423C101.048 57.9087 100.651 58.0756 100.279 58.0984C100.161 58.106 99.8596 58.0414 99.5595 58.2489C99.5399 58.2623 99.1 58.6664 98.8685 58.5433C98.8308 58.5229 98.8096 58.3264 98.441 58.537C98.3708 58.5776 98.5195 58.5798 98.3279 58.6639C98.0346 58.7933 97.6162 58.8599 97.266 59.0547C97.2049 59.0888 96.9639 59.3014 96.7133 59.2676C96.6741 59.2622 96.7223 59.1783 96.6026 59.2055C96.0331 59.3345 95.4595 59.5504 94.8786 59.6717C94.6729 59.7147 94.7455 59.5773 94.5275 59.6097C94.3095 59.6422 93.8786 59.7373 93.6731 59.8512C93.4676 59.9654 93.7565 60.0685 93.4318 60.1798C92.0207 60.6646 90.575 60.9834 89.1458 61.3931C88.9338 61.454 89.1279 61.4676 88.8171 61.5624C87.6722 61.9107 85.7058 62.5795 84.6694 62.7336C83.8377 62.8559 84.8142 62.4615 84.1908 62.5965C83.8898 62.6614 83.6393 62.9874 83.5707 63.0165C82.9007 63.3013 82.3853 63.3468 81.7707 63.5695C81.6437 63.6157 81.7983 63.6724 81.69 63.7108C81.3203 63.8429 80.9143 63.9213 80.5593 64.0396C80.4001 64.0929 80.4516 64.1579 80.3025 64.198C79.946 64.2946 79.6252 64.3602 79.2608 64.3963C79.2276 64.3996 79.4109 64.2409 79.1492 64.318C78.7263 64.4429 78.18 64.5348 77.7138 64.7591C77.5757 64.8259 77.6225 65.003 77.2757 64.9789C77.203 64.974 77.2226 64.7367 76.9157 65.032C76.8638 65.0808 76.332 65.5197 75.9865 65.4531C75.8953 65.4356 75.642 65.3227 75.4771 65.4044C75.455 65.4162 75.5781 65.4829 75.4375 65.5374C74.9416 65.7278 74.4096 65.8844 73.9016 66.079C73.7658 66.1313 74.0033 66.167 73.799 66.2423C73.236 66.4499 72.5172 66.6517 71.9516 66.7976C71.7431 66.8512 71.8583 66.7199 71.8405 66.7154C71.5539 66.6399 71.4755 66.8906 71.3998 66.9283C70.9279 67.1593 70.5222 67.1832 70.0762 67.3557C69.9531 67.4031 70.0728 67.474 70.0506 67.491C69.8192 67.6618 69.9561 67.4202 69.7863 67.4533C69.3126 67.545 68.7986 67.7201 68.3361 67.885C68.1663 67.9457 68.3957 68.0005 68.2429 68.0538C67.3397 68.3715 66.3951 68.6711 65.4938 68.8958C65.3241 68.9379 65.3987 68.8101 65.3574 68.8002C65.0718 68.7294 64.7881 69.0482 64.7143 69.0945C64.3754 69.3055 64.2049 69.2703 63.8852 69.394C62.3174 70.0026 60.3819 70.5972 58.8649 71.0766C56.908 71.6966 55.3865 72.1156 53.544 72.7929C53.4276 72.8357 53.5926 72.9323 53.4929 72.971C52.2068 73.4647 50.9123 73.8676 49.6199 74.3841C49.5142 74.4262 49.7155 74.5055 49.5477 74.5777C49.2039 74.7267 48.7584 74.8824 48.3905 74.9687C48.2112 75.011 48.4002 74.8086 48.2205 74.8535C47.8001 74.9582 47.3737 75.1041 46.9596 75.2826C46.7845 75.3587 47.1045 75.4001 46.8731 75.4881C45.2905 76.0928 43.8072 76.6876 42.1414 77.1126C42.028 77.1416 41.8212 76.8795 41.6119 77.0254C41.6256 77.1151 41.663 77.2125 41.6886 77.3042C39.4518 78.2263 37.1546 79.0206 34.9185 79.9231C34.8222 79.9621 35.0545 80.0597 34.8686 80.1362C33.7927 80.5789 32.7859 81.06 31.6523 81.3479C31.539 81.3772 31.4738 81.0531 31.1703 81.236C31.1168 81.2685 30.6516 81.5154 30.5556 81.6343C30.5429 81.6514 30.6891 81.7537 30.5366 81.8247C29.6487 82.2356 28.717 82.6101 27.8073 82.9147C27.6562 82.9654 27.7442 82.7444 27.636 82.7791C26.8678 83.0261 26.1354 83.4992 25.3942 83.6735C24.8978 83.7894 24.9458 83.446 24.5855 83.295C24.5344 83.2737 24.2515 83.3969 24.1673 83.2509C23.9544 82.8839 23.899 82.4016 23.6561 82.0179C23.6158 81.954 23.4063 82.0976 23.3715 82.0217C23.3715 82.0217 23.3715 82.0217 23.3715 82.0216C23.3613 81.9993 23.3661 81.9578 23.3951 81.8864C23.4041 81.8651 23.6475 81.6712 23.6831 81.5688C23.7079 81.4979 23.5516 81.3807 23.6197 81.2739C23.688 81.1673 23.8538 81.25 23.9818 81.104C24.1096 80.9572 23.9584 80.8124 24.2746 80.6503ZM117.203 52.9782C116.919 52.9996 116.93 53.2021 117.21 53.076C117.224 53.0697 117.218 52.9769 117.203 52.9782ZM149.872 44.2345C149.511 44.3025 149.278 44.405 149.534 44.3584C149.788 44.3112 149.981 44.2135 149.872 44.2345ZM153.529 43.2495C153.11 43.3439 153.061 43.4236 153.502 43.2921C153.528 43.2845 153.554 43.2439 153.529 43.2495ZM25.6796 82.7073C25.6728 82.7017 25.4646 82.7874 25.4629 82.7967C25.4308 83.0176 25.8464 82.8458 25.6796 82.7073ZM157.159 42.2779C157.028 42.3068 156.655 42.4119 156.818 42.3761C156.95 42.3469 157.323 42.2415 157.159 42.2779ZM103.081 56.594C103.075 56.5915 102.918 56.6313 102.927 56.6513C102.956 56.7157 103.168 56.6364 103.081 56.594ZM163.33 40.6402C162.43 40.8819 161.873 41.0181 162.862 40.7604C163.041 40.7135 162.478 40.8632 162.705 40.8039C163.121 40.6944 163.396 40.6206 163.816 40.5103C163.892 40.4899 163.382 40.6261 163.329 40.6407C163.329 40.6405 163.33 40.6404 163.33 40.6402ZM116.986 52.7911C116.98 52.79 116.762 52.8457 116.757 52.8496C116.656 52.9422 117.095 52.8294 116.986 52.7911ZM93.9255 58.9614C93.9113 58.9567 93.408 59.0896 93.3938 59.1017C93.1746 59.3241 94.1914 59.0535 93.9255 58.9614ZM131.568 48.8365C131.795 48.733 132.078 48.6557 132.28 48.6584C132.044 48.7167 131.806 48.7777 131.568 48.8365Z" fill="black"/>
<path d="M9.64705 158.662C9.65534 158.25 9.71867 157.727 9.79318 157.339C9.81625 157.217 9.86359 157.292 9.88276 157.208C9.92095 157.045 9.90905 156.888 9.95423 156.721C9.96954 156.667 10.0513 156.756 10.0658 156.699C10.1457 156.386 10.1612 156.079 10.2243 155.762C10.5372 154.221 10.8428 152.688 11.2048 151.103C11.3224 150.584 11.5744 149.994 11.6331 149.433C11.6395 149.368 11.5052 149.375 11.4972 149.361C11.3757 149.133 11.6189 149.258 11.679 149.144C11.9175 148.688 12.0485 148.169 12.1051 147.684C12.1287 147.479 11.8181 147.612 12.0125 147.448C12.0258 147.437 12.1559 147.523 12.1837 147.473C12.2466 147.357 12.2762 147.117 12.3101 147.024C12.3764 146.846 12.3823 146.816 12.4256 146.643C12.486 146.408 12.6271 146.148 12.6569 145.888C12.6631 145.831 12.4949 145.864 12.4911 145.77C12.4873 145.676 12.5579 145.448 12.6132 145.38C12.6686 145.311 12.779 145.376 12.8097 145.37C13.0687 145.319 12.8188 144.968 12.8195 144.932C12.8457 144.274 13.1699 143.802 13.3347 143.217C13.4572 142.779 13.5317 142.299 13.6618 141.89C13.6629 141.887 13.664 141.883 13.6651 141.88C13.8259 141.382 14.0382 140.987 14.1744 140.504C14.189 140.453 13.9905 140.456 14.008 140.393C14.1926 139.735 14.4304 139.076 14.7704 138.471C14.8047 138.411 14.9327 138.547 14.9763 138.49C15.2391 138.138 15.767 137.615 15.1757 137.14C15.2985 136.88 15.4445 136.565 15.6682 136.376C15.8129 136.253 15.925 136.466 15.9239 136.249C15.9239 136.201 15.7562 136.202 15.7674 136.133C15.8149 135.842 15.9745 135.565 16.0019 135.271C16.0072 135.21 15.8708 135.175 15.8532 135.15C15.7128 134.948 16.1117 134.855 16.1528 134.818C16.4623 134.532 16.5001 134.245 16.6388 133.917C16.6711 133.841 16.4606 133.861 16.4856 133.785C16.6178 133.393 16.7988 133.006 17.0347 132.667C17.0876 132.592 17.2008 132.73 17.2335 132.697C17.3757 132.553 17.1175 132.396 17.2497 132.255C17.2772 132.226 17.3929 132.299 17.4093 132.299C17.6672 132.292 17.402 132.074 17.4068 132.045C17.4596 131.68 17.8675 131.613 17.9647 131.282C17.9762 131.242 17.7823 131.256 17.8241 131.148C18.1007 130.431 18.4972 129.714 18.956 129.096C19.0271 129 19.1028 129.131 19.1201 129.131C19.3918 129.132 19.1348 128.917 19.1413 128.877C19.199 128.566 19.5704 128.438 19.322 128.078C20.0313 126.998 20.4693 125.773 21.4064 124.842C21.4179 124.829 21.5372 124.932 21.5596 124.908C21.8315 124.616 21.5873 124.557 21.4665 124.188C21.4365 124.095 21.8414 124.108 21.8723 124.106C21.9866 124.101 22.1493 124.275 22.176 124.266C22.3896 124.191 21.7268 123.827 21.8509 123.624C21.8558 123.618 21.9583 123.717 21.9805 123.707C22.0497 123.676 22.0347 123.595 22.1071 123.568C22.2742 123.507 22.6107 123.656 22.5409 123.364C22.5317 123.327 22.1474 123.14 22.278 122.969C22.3297 122.902 22.5269 122.576 22.6046 122.505C22.6836 122.432 22.7603 122.564 22.7693 122.561C23.0711 122.421 23.0772 122.55 23.376 122.574C23.6735 122.597 23.1215 122.292 23.0932 122.206C23.0652 122.12 23.3011 122.026 23.3715 122.012C23.442 121.997 23.4799 122.096 23.5285 122.074C23.8488 121.925 23.3385 121.795 23.309 121.659C23.2402 121.336 23.7286 121.435 23.8838 121.281C23.926 121.239 23.8122 121.221 23.8326 121.173C23.9152 120.981 24.099 120.963 24.1182 120.699C24.1211 120.656 23.9976 120.35 24.2325 120.362C24.2661 120.364 24.333 120.468 24.4024 120.411C24.5063 120.325 24.6575 120.147 24.7053 120.011C24.7406 119.91 24.5204 119.903 24.6417 119.829C24.6957 119.796 24.7245 119.945 24.8184 119.878C24.9117 119.811 25.0649 119.582 25.1223 119.493C25.1793 119.404 25.0317 119.372 25.0288 119.36C25.0135 119.287 25.0719 119.088 25.0823 119.074C25.5757 118.348 26.263 117.794 26.707 117.07C26.7428 117.012 26.602 116.964 26.6063 116.955C26.6978 116.734 26.8905 117.104 27.0879 117.049C26.8439 116.897 26.9426 116.851 27.016 116.702C27.0512 116.629 26.9369 116.598 26.9321 116.585C26.8687 116.391 27.0918 116.455 27.1397 116.465C27.3166 116.5 27.2146 116.317 27.3333 116.34C27.4512 116.362 27.5049 116.555 27.5984 116.428C27.5444 116.331 27.2617 116.266 27.3005 116.144C27.4547 115.675 28.1199 115.156 28.3631 114.88C28.6034 114.608 28.6628 114.505 28.8227 114.36C29.1115 114.099 28.8796 114.087 28.9577 113.854C29.0375 113.619 29.3259 113.993 29.4242 114.029C29.5219 114.064 29.4647 113.973 29.5326 113.975C29.6003 113.977 29.5979 114.088 29.6733 114.025C29.7483 113.962 29.7763 113.647 29.7184 113.556C29.5953 113.364 29.3425 113.315 29.5675 113.166C29.5806 113.157 29.643 113.269 29.6882 113.233C30.0429 112.941 30.3493 112.576 30.699 112.277C30.7462 112.238 30.8112 112.361 30.8398 112.339C31.1374 112.107 30.8862 112.07 30.8322 111.762C31.0485 112 31.2697 112.038 31.4506 111.821C31.5599 111.691 31.4354 111.625 31.4319 111.478C31.4308 111.434 31.5807 111.402 31.5454 111.343C31.431 111.153 31.1763 111.089 31.4398 110.925C31.4516 110.918 31.5126 111.023 31.5469 110.993C31.7693 110.801 31.6253 110.635 31.8124 110.378C31.964 110.172 32.3359 109.943 32.5343 109.746C32.7874 109.971 32.8973 109.723 32.7924 109.492C32.9177 109.363 33.0365 109.208 33.176 109.097C33.2239 109.058 33.2701 109.151 33.2829 109.152C33.4818 109.17 33.3668 108.966 33.3864 108.931C33.6061 108.555 33.9589 108.404 34.1017 108.004C34.1067 107.99 33.9561 107.827 34.1483 107.854C34.1612 107.857 34.1489 108.021 34.2796 107.887C34.4106 107.752 34.7341 107.565 34.8356 107.302C34.86 107.238 34.8389 107.003 35.0277 106.997C35.053 106.996 35.0859 107.051 35.1281 107.055C35.2629 107.067 35.1325 106.891 35.3322 106.942C35.5315 106.993 35.7647 106.932 35.8497 106.651C35.8525 106.642 35.7694 106.485 35.8264 106.426C35.9171 106.332 36.0674 106.218 36.1587 106.115C36.2024 106.066 36.0988 106.029 36.105 106.019C36.3615 105.654 36.643 105.481 36.9966 105.151C37.0613 105.091 37.137 104.814 37.3309 104.758C37.5419 104.696 37.7609 105.155 37.9639 104.761C38.0427 104.604 37.7611 104.05 38.1908 104.029C38.5429 103.541 39.0309 103.232 39.3772 102.715C39.3928 102.692 39.3435 102.526 39.39 102.48C39.4591 102.412 39.5464 102.421 39.5947 102.377C39.8006 102.189 39.9344 101.963 40.1282 101.773C40.2016 101.701 40.2267 101.774 40.3142 101.688C40.4014 101.601 40.3932 101.48 40.5402 101.388C40.6516 101.319 40.8691 101.352 40.9993 101.243C40.8765 101.116 40.9588 101.035 41.069 100.853C41.0902 100.818 41.017 100.807 41.0248 100.789C41.0558 100.712 41.1411 100.695 41.1677 100.62C41.1742 100.601 41.1326 100.56 41.1357 100.543C41.1602 100.395 41.3975 100.339 41.4379 100.329C41.5933 100.291 41.5836 100.194 41.6762 100.147C41.769 100.098 41.6959 100.234 41.7907 100.164C41.9869 100.019 42.1951 99.7884 42.3681 99.6121C42.4369 99.5414 42.3385 99.5398 42.3472 99.5285C42.4763 99.3696 42.674 99.2726 42.6534 99.0937C43.0111 99.2423 42.7146 98.9807 42.9728 98.82C42.9933 98.8075 43.1329 98.9021 43.0887 98.9837C43.0448 99.0655 42.9135 99.1263 42.8563 99.2425C42.8424 99.2698 42.8431 99.5031 42.835 99.5267C42.769 99.7106 42.5651 99.5478 42.5482 99.5445C42.3632 99.5138 42.3503 99.7831 42.3232 99.8308C42.197 100.047 42.0288 100.171 41.9208 100.347C41.8501 100.462 41.9722 100.597 41.8951 100.673C41.6408 100.924 41.3665 100.833 41.3044 101.236C41.2913 101.323 41.4895 101.414 41.1991 101.49C41.1811 101.495 40.9433 101.53 40.9394 101.677C40.9389 101.695 40.9841 101.738 40.9757 101.755C40.919 101.867 40.829 101.893 40.7582 102.007C40.6876 102.12 40.6088 102.262 40.4937 102.358C40.4244 102.416 40.2602 102.418 40.2099 102.429C40.0664 102.46 40.0818 102.652 39.9559 102.635C39.8286 102.618 39.8126 102.401 39.6286 102.499C39.7485 102.621 39.8649 102.755 39.9823 102.883C39.6779 103.213 39.3439 103.5 39.0549 103.834C39.0192 103.876 39.1276 103.9 39.0914 103.947C38.9387 104.143 38.7445 104.256 38.5968 104.465C38.4828 104.628 38.4198 104.862 38.3065 105.034C38.0685 104.976 37.9105 105.266 37.7476 105.422C37.6901 105.477 37.6497 105.433 37.5981 105.462C37.4044 105.572 37.6163 105.631 37.601 105.696C37.5365 105.975 37.1889 105.686 37.0029 105.912C36.9927 105.923 37.0492 106.23 37.0439 106.26C37.0101 106.451 36.9628 106.223 36.8817 106.288C36.7338 106.407 36.6036 106.465 36.5145 106.679C36.4885 106.742 36.5057 106.963 36.3349 106.974C36.3124 106.976 36.2561 106.913 36.2439 106.919C36.0282 107.042 36.2162 107.229 36.1938 107.394C36.1706 107.561 35.8941 107.601 35.8255 107.598C35.6478 107.592 35.8384 107.492 35.8324 107.479C35.7598 107.316 35.6777 107.453 35.5894 107.534C35.3806 107.37 35.2822 107.506 35.4986 107.618C35.5223 107.63 35.5646 107.544 35.5894 107.534C35.7142 107.786 35.6225 107.948 35.3076 107.937C35.1601 107.932 35.1171 107.775 34.9671 108.023C34.8993 108.136 35.0717 108.222 35.0361 108.342C34.9554 108.617 34.6067 108.755 34.4568 108.975C34.402 109.055 34.5424 109.052 34.5068 109.111C34.4121 109.268 34.2502 109.337 34.1654 109.501C34.1578 109.516 34.2674 109.559 34.2327 109.603C33.9718 109.937 33.6841 110.171 33.4065 110.504C33.2716 110.666 33.0872 110.992 32.9387 111.154C32.6786 111.44 32.2498 111.694 32.0785 111.972C31.9667 112.154 32.0885 112.195 32.0954 112.318C32.1101 112.556 31.6996 112.612 31.6391 112.616C31.6371 112.616 31.7272 112.457 31.6191 112.492C31.4837 112.452 31.6399 112.614 31.6391 112.616C31.5995 112.619 31.3568 112.879 31.329 112.952C31.3142 112.991 31.4183 113.048 31.4089 113.067C31.184 113.52 30.9095 113.925 30.5679 114.277C30.5608 114.282 30.4639 114.188 30.4483 114.201C30.2284 114.387 30.2477 114.633 30.186 114.878C30.1227 115.125 29.9821 115.258 29.7123 115.223C29.6277 115.384 29.3917 115.523 29.2531 115.6C29.1143 115.678 29.3164 115.86 29.313 115.874C29.2103 116.299 28.9523 116.387 28.6896 116.703C28.5609 116.858 28.3601 117.201 28.2596 117.393C28.1804 117.546 28.0684 117.589 28.0119 117.74C28.0042 117.76 28.1171 117.818 28.1172 117.826C28.1377 118.056 27.9395 117.806 27.8748 117.802C27.6396 117.789 27.5065 117.791 27.4543 118.026C27.4419 118.08 27.7159 118.463 27.6849 118.554C27.6437 118.671 27.5391 118.541 27.4972 118.669C27.4935 118.679 27.5748 118.736 27.5261 118.798C27.3011 119.089 27.0284 119.383 26.8254 119.699C26.7975 119.742 26.9647 119.78 26.9266 119.843C26.7476 120.142 26.5357 120.45 26.2822 120.696C26.2199 120.756 26.1555 120.647 26.1177 120.643C25.8871 120.622 26.0442 120.922 26.0348 120.947C25.8101 121.552 25.3371 121.786 25.1011 122.403C25.0885 122.437 25.2214 122.84 24.9238 122.788C24.9041 122.785 24.6003 122.729 24.7111 122.923C24.7181 122.935 24.8809 122.953 24.8015 123.053C24.722 123.153 24.6996 123.38 24.4712 123.441C24.3992 123.46 24.0863 123.417 24.197 123.68C24.2043 123.698 24.5167 124.194 24.163 124.082C24.1049 124.064 23.787 123.849 23.8522 124.123C23.8653 124.175 23.9732 124.161 23.9679 124.274C23.9605 124.448 23.77 124.569 23.8233 124.818C23.8328 124.862 23.9886 125.116 23.7629 125.109C23.7275 125.108 23.6332 125.013 23.5916 125.056C23.3934 125.26 23.3238 125.557 23.1058 125.76C23.0289 125.832 22.8723 125.682 22.7715 125.745C22.6708 125.808 22.5194 125.966 22.5498 126.11C22.5805 126.254 22.9312 126.317 22.8758 126.473C22.6385 127.149 22.1309 127.679 21.78 128.295C21.7281 128.386 21.8764 128.366 21.8082 128.505C21.5554 129.015 21.224 129.955 20.7753 130.284C20.4133 130.55 20.4839 130.026 20.2745 130.264C20.1733 130.38 20.4713 130.7 20.468 130.738C20.4385 131.108 20.1749 131.249 20.096 131.556C20.0799 131.62 20.2562 131.632 20.241 131.685C20.1903 131.867 20.0431 132.015 19.9831 132.184C19.9566 132.26 20.0783 132.299 20.0397 132.362C19.9488 132.514 19.8379 132.635 19.6603 132.744C19.6441 132.754 19.5414 132.593 19.484 132.71C19.3915 132.901 19.1793 133.096 19.1965 133.369C19.202 133.45 19.4696 133.568 19.2241 133.631C19.1728 133.645 18.8654 133.469 19.0752 133.755C19.1095 133.803 19.3723 134.241 19.0724 134.277C18.9934 134.287 18.6891 134.269 18.6982 134.367C18.7005 134.381 18.8639 134.397 18.8512 134.47C18.8037 134.725 18.6897 134.965 18.6403 135.227C18.6275 135.297 18.8173 135.261 18.7934 135.363C18.7279 135.644 18.563 135.957 18.4166 136.2C18.3624 136.289 18.2604 136.174 18.244 136.175C17.9765 136.202 18.2551 136.385 18.2589 136.429C18.2782 136.701 18.0696 136.825 18.0285 137.055C18.0169 137.118 18.178 137.13 18.1867 137.147C18.269 137.316 18.0405 137.128 17.9833 137.195C17.8227 137.382 17.7476 137.628 17.6883 137.855C17.6667 137.939 17.8688 137.909 17.8476 137.983C17.7257 138.422 17.5533 138.87 17.3179 139.257C17.2732 139.33 17.1579 139.235 17.1222 139.241C16.8727 139.284 17.1048 139.549 17.1196 139.596C17.1869 139.814 17.0474 139.843 17.0183 140.005C16.8761 140.807 16.5079 141.71 16.2394 142.427C16.2128 142.499 16.1861 142.569 16.1596 142.638C15.8447 143.45 15.5294 144.127 15.317 144.963C15.3021 145.021 15.4961 145.012 15.4855 145.063C15.3411 145.705 15.0814 146.338 14.9453 146.98C14.9336 147.033 15.1197 147.001 15.1061 147.087C15.0795 147.266 15.0046 147.482 14.9004 147.644C14.85 147.723 14.7456 147.573 14.6979 147.653C14.5866 147.841 14.5119 148.055 14.4761 148.27C14.4611 148.362 14.6634 148.269 14.6309 148.385C14.4165 149.162 14.2077 149.923 13.7733 150.674C13.7437 150.724 13.4246 150.698 13.4505 150.826C13.5323 150.855 13.6316 150.878 13.7205 150.903C13.4289 152.038 12.9844 153.147 12.6245 154.284C12.6091 154.332 12.7687 154.278 12.7388 154.372C12.5659 154.92 12.43 155.435 12.1383 155.96C12.1097 156.012 11.9138 155.94 11.8967 156.109C11.8939 156.138 11.8475 156.388 11.8702 156.461C11.8738 156.471 11.9791 156.446 11.9568 156.525C11.825 156.987 11.6487 157.461 11.4589 157.898C11.4282 157.969 11.3705 157.874 11.3484 157.925C11.1951 158.285 11.1277 158.701 10.9555 159.047C10.8423 159.278 10.7521 159.165 10.6066 159.271C10.5863 159.286 10.5463 159.437 10.4818 159.432C10.32 159.419 10.1597 159.309 9.9849 159.304C9.95603 159.303 9.9559 159.432 9.92524 159.425C9.92523 159.425 9.92522 159.425 9.92522 159.425C9.91617 159.423 9.9045 159.41 9.88824 159.378C9.88365 159.368 9.87283 159.211 9.84629 159.167C9.82795 159.137 9.7578 159.17 9.73576 159.112C9.71326 159.053 9.77477 159.006 9.75041 158.912C9.72502 158.817 9.64356 158.839 9.64705 158.662ZM28.6306 115.948C28.4454 115.976 28.816 116.285 28.8112 116.098C28.8105 116.089 28.6399 115.947 28.6306 115.948ZM39.1726 103.334C38.9492 103.37 39.0177 103.602 39.1817 103.582C39.3448 103.562 39.2402 103.322 39.1726 103.334ZM40.3535 101.91C40.138 101.99 40.4209 102.303 40.5082 102.081C40.5134 102.069 40.366 101.905 40.3535 101.91ZM10.7207 158.665C10.7169 158.667 10.6874 158.774 10.6901 158.777C10.7551 158.851 10.8168 158.637 10.7207 158.665ZM41.546 100.501C41.4628 100.513 41.375 100.692 41.4784 100.677C41.5612 100.665 41.6491 100.485 41.546 100.501ZM24.1031 121.418C24.0953 121.416 24.0456 121.479 24.0838 121.502C24.2071 121.576 24.2337 121.461 24.1031 121.418ZM43.7016 98.2502C43.3686 98.5798 42.9713 98.5859 43.3525 98.2478C43.4213 98.1861 43.2746 98.4494 43.3747 98.3831C43.5564 98.2607 43.5373 98.042 43.7565 97.9478C43.7956 97.9305 43.7205 98.2316 43.7013 98.2511C43.7014 98.2508 43.7015 98.2505 43.7016 98.2502ZM28.1254 115.658C28.1187 115.657 28.0481 115.739 28.0515 115.745C28.1376 115.884 28.2793 115.719 28.1254 115.658ZM21.3889 125.172C21.3722 125.17 21.232 125.383 21.2406 125.398C21.4252 125.656 21.7069 125.226 21.3889 125.172ZM32.544 109.749C32.5208 109.573 32.6038 109.456 32.7919 109.492C32.7073 109.576 32.6281 109.665 32.544 109.749Z" fill="black"/>
<path d="M5.28762 155.199C5.35704 155.353 5.42123 155.56 5.45667 155.719C5.46791 155.77 5.43263 155.75 5.43876 155.785C5.4505 155.853 5.48467 155.912 5.49326 155.98C5.49585 156.003 5.44205 155.985 5.44555 156.008C5.46441 156.137 5.51237 156.253 5.54029 156.382C5.67486 157.018 5.81315 157.641 5.94099 158.286C5.98364 158.499 5.97959 158.768 6.05844 158.981C6.06778 159.006 6.12816 158.978 6.13456 158.982C6.23349 159.042 6.09814 159.042 6.09225 159.095C6.06934 159.305 6.11031 159.526 6.17794 159.711C6.20694 159.79 6.3232 159.683 6.26599 159.779C6.26212 159.786 6.18578 159.779 6.18293 159.803C6.17659 159.856 6.20997 159.949 6.21255 159.989C6.21711 160.067 6.22038 160.079 6.23463 160.15C6.25357 160.248 6.24095 160.371 6.27925 160.472C6.28768 160.493 6.35778 160.449 6.37821 160.482C6.39863 160.515 6.4119 160.61 6.40041 160.646C6.3889 160.681 6.32568 160.679 6.31299 160.687C6.20543 160.756 6.38963 160.834 6.39668 160.847C6.51739 161.088 6.46833 161.327 6.51518 161.567C6.55109 161.749 6.61857 161.934 6.64784 162.109C6.64808 162.11 6.64832 162.112 6.64855 162.113C6.68218 162.321 6.67284 162.505 6.71792 162.704C6.72258 162.725 6.81056 162.683 6.81644 162.709C6.87918 162.983 6.92027 163.258 6.90914 163.543C6.90792 163.572 6.82016 163.552 6.8141 163.581C6.77893 163.763 6.66907 164.058 7.04032 164.092C7.04806 164.21 7.05934 164.349 7.00742 164.464C6.97421 164.539 6.87418 164.492 6.92697 164.566C6.93876 164.583 7.01133 164.544 7.02318 164.57C7.07307 164.681 7.07073 164.808 7.13215 164.916C7.14474 164.938 7.21238 164.919 7.226 164.923C7.33662 164.96 7.18773 165.082 7.17941 165.104C7.11757 165.271 7.17456 165.38 7.19832 165.52C7.20382 165.552 7.28866 165.496 7.29723 165.527C7.34159 165.692 7.36403 165.858 7.35415 166.03C7.3516 166.068 7.26752 166.05 7.26232 166.068C7.24036 166.151 7.39049 166.139 7.37199 166.216C7.36828 166.232 7.30013 166.237 7.29333 166.241C7.18679 166.306 7.35664 166.314 7.36229 166.325C7.438 166.458 7.28495 166.577 7.33536 166.712C7.34148 166.728 7.41828 166.675 7.43032 166.72C7.51102 167.022 7.54828 167.347 7.54097 167.664C7.53968 167.712 7.47136 167.692 7.46427 167.696C7.35382 167.765 7.52054 167.769 7.52941 167.782C7.56446 167.842 7.55052 167.907 7.55834 167.961L7.15455 167.839C7.19201 167.805 7.21304 167.76 7.17698 167.667C7.60263 167.344 7.92307 166.909 8.42145 166.691C8.42774 166.688 8.47059 166.754 8.48289 166.747C8.63178 166.673 8.52984 166.603 8.50971 166.425C8.50492 166.381 8.68233 166.46 8.69618 166.465C8.74717 166.483 8.80296 166.587 8.81556 166.588C8.91703 166.595 8.65774 166.32 8.73159 166.255C8.73432 166.254 8.77051 166.314 8.78126 166.314C8.8148 166.314 8.81573 166.276 8.85042 166.278C8.92987 166.282 9.06751 166.403 9.06081 166.268C9.05992 166.251 8.90722 166.102 8.9789 166.054C9.00741 166.035 9.12097 165.932 9.16292 165.915C9.20464 165.897 9.22666 165.967 9.23093 165.968C9.37796 165.96 9.36889 166.016 9.49984 166.079C9.63033 166.14 9.41236 165.912 9.40707 165.871C9.4018 165.829 9.5134 165.831 9.5457 165.837C9.578 165.843 9.58646 165.892 9.60976 165.891C9.76334 165.883 9.54899 165.739 9.54724 165.675C9.54336 165.524 9.75076 165.652 9.83218 165.612C9.85427 165.601 9.80544 165.574 9.81845 165.557C9.87085 165.488 9.95335 165.512 9.98306 165.401C9.98779 165.383 9.95753 165.23 10.0605 165.275C10.0752 165.281 10.0966 165.337 10.132 165.324C10.1847 165.305 10.2659 165.253 10.2978 165.201C10.3213 165.164 10.2242 165.124 10.2838 165.112C10.31 165.107 10.3119 165.176 10.3579 165.163C10.4038 165.15 10.4875 165.077 10.519 165.048C10.5504 165.02 10.4877 164.981 10.4873 164.975C10.4859 164.941 10.5274 164.863 10.533 164.859C10.8116 164.619 11.142 164.497 11.3928 164.243C11.4125 164.224 11.3533 164.181 11.3558 164.177C11.4109 164.095 11.472 164.287 11.5632 164.294C11.4649 164.189 11.5117 164.184 11.5539 164.13C11.5741 164.103 11.5255 164.072 11.5242 164.066C11.5084 163.971 11.603 164.033 11.6237 164.045C11.6998 164.088 11.666 163.992 11.7172 164.02C11.7679 164.048 11.7798 164.141 11.829 164.1C11.811 164.049 11.69 163.977 11.7146 163.929C11.8065 163.751 12.1405 163.617 12.2626 163.532C12.3845 163.448 12.4162 163.411 12.4945 163.371C12.636 163.299 12.5323 163.261 12.5813 163.167C12.6307 163.074 12.7376 163.282 12.7795 163.312C12.8211 163.342 12.8009 163.293 12.8311 163.304C12.8612 163.314 12.8537 163.363 12.891 163.346C12.9282 163.329 12.9583 163.192 12.9375 163.144C12.8931 163.041 12.7835 162.983 12.8915 162.948C12.8977 162.946 12.9195 163.005 12.9415 162.995C13.115 162.917 13.2663 162.8 13.436 162.716C13.4593 162.705 13.4817 162.77 13.4957 162.763C13.6414 162.7 13.5309 162.649 13.5227 162.503C13.6069 162.64 13.704 162.687 13.7951 162.615C13.85 162.572 13.7978 162.526 13.8031 162.46C13.8046 162.44 13.873 162.446 13.8601 162.415C13.8182 162.314 13.7083 162.251 13.8327 162.214C13.8383 162.212 13.8605 162.267 13.8771 162.259C13.9842 162.204 13.9279 162.11 14.0208 162.022C14.0935 161.954 14.2743 161.897 14.3714 161.835C14.4739 161.97 14.5344 161.873 14.4977 161.755C14.559 161.714 14.618 161.661 14.6838 161.63C14.7064 161.619 14.7232 161.667 14.7288 161.669C14.8157 161.704 14.7732 161.597 14.7833 161.584C14.8957 161.445 15.0576 161.424 15.1386 161.262C15.1414 161.256 15.0812 161.163 15.1654 161.201C15.171 161.203 15.1591 161.276 15.2223 161.232C15.2871 161.188 15.4396 161.144 15.4942 161.039C15.5075 161.014 15.5068 160.906 15.59 160.928C15.6011 160.931 15.6137 160.96 15.6321 160.967C15.691 160.99 15.6396 160.894 15.7255 160.944C15.811 160.993 15.917 160.995 15.9651 160.88C15.9667 160.876 15.9363 160.794 15.9643 160.774C16.0089 160.743 16.0805 160.71 16.1248 160.675C16.146 160.659 16.1014 160.629 16.1046 160.625C16.2301 160.494 16.3672 160.447 16.5324 160.346C16.5635 160.326 16.6022 160.214 16.6917 160.212C16.7877 160.211 16.8673 160.446 16.9725 160.293C17.0142 160.231 16.9102 159.944 17.1 159.989C17.2814 159.807 17.4965 159.737 17.6717 159.543C17.6793 159.534 17.6629 159.453 17.6845 159.438C17.7167 159.417 17.7543 159.432 17.7776 159.418C17.8726 159.361 17.9473 159.269 18.0398 159.208C18.075 159.184 18.0835 159.22 18.125 159.192C18.1665 159.164 18.1657 159.109 18.2334 159.087C18.2869 159.068 18.3829 159.109 18.4443 159.076C18.3946 159.004 18.4344 158.977 18.4874 158.91C18.4975 158.897 18.4662 158.883 18.4701 158.875C18.4859 158.845 18.5221 158.85 18.5365 158.819C18.5403 158.811 18.5235 158.787 18.5256 158.78C18.5437 158.714 18.6504 158.719 18.6683 158.72C18.7374 158.724 18.736 158.679 18.7787 158.669C18.821 158.66 18.7842 158.711 18.8281 158.692C18.9181 158.653 19.0301 158.568 19.1082 158.515C19.14 158.493 19.0979 158.478 19.1019 158.475C19.1657 158.419 19.2622 158.398 19.2593 158.316C19.4092 158.432 19.2824 158.279 19.4123 158.236C19.4221 158.233 19.4784 158.295 19.4541 158.327C19.4282 158.359 19.3686 158.368 19.3407 158.411C19.334 158.421 19.3242 158.527 19.3192 158.537C19.2809 158.612 19.1971 158.512 19.1898 158.508C19.1066 158.472 19.0957 158.588 19.0807 158.607C19.0185 158.687 18.9271 158.73 18.8784 158.792C18.8433 158.834 18.8916 158.911 18.8559 158.935C18.7368 159.015 18.6147 158.942 18.5782 159.113C18.5696 159.15 18.6539 159.216 18.5234 159.214C18.5154 159.214 18.4086 159.2 18.4001 159.267C18.3991 159.275 18.4175 159.3 18.413 159.307C18.3819 159.353 18.3446 159.35 18.3095 159.393C18.2749 159.435 18.235 159.489 18.1796 159.519C18.1464 159.537 18.0723 159.519 18.0489 159.518C17.9813 159.516 17.9837 159.603 17.9282 159.58C17.8725 159.557 17.8732 159.456 17.7882 159.478C17.8368 159.548 17.8837 159.623 17.9313 159.696C17.7899 159.804 17.6289 159.894 17.4928 160.007C17.4757 160.021 17.5227 160.046 17.5051 160.062C17.4312 160.132 17.3379 160.161 17.2647 160.237C17.2092 160.296 17.1727 160.394 17.1149 160.459C17.0093 160.405 16.9305 160.515 16.8532 160.564C16.8265 160.581 16.8102 160.556 16.7867 160.563C16.6984 160.587 16.7895 160.641 16.7807 160.668C16.7432 160.785 16.5997 160.61 16.5086 160.689C16.5036 160.693 16.5167 160.839 16.513 160.852C16.4899 160.935 16.4783 160.825 16.4391 160.845C16.3683 160.881 16.3097 160.889 16.2614 160.975C16.2474 161 16.2461 161.103 16.1689 161.087C16.1587 161.085 16.1362 161.049 16.1304 161.05C16.0281 161.08 16.1065 161.187 16.09 161.258C16.0729 161.331 15.9505 161.312 15.9204 161.302C15.8424 161.276 15.9297 161.256 15.9274 161.249C15.9009 161.167 15.8605 161.217 15.8187 161.242C15.7325 161.141 15.6842 161.189 15.7756 161.268C15.7857 161.276 15.8074 161.243 15.8187 161.242C15.8649 161.371 15.8185 161.432 15.679 161.386C15.6136 161.365 15.6011 161.289 15.5239 161.381C15.4888 161.424 15.5621 161.485 15.5409 161.534C15.4923 161.649 15.3328 161.665 15.255 161.746C15.227 161.775 15.2895 161.792 15.2715 161.814C15.224 161.871 15.1497 161.88 15.1053 161.943C15.1013 161.949 15.1482 161.982 15.1309 161.997C15.0017 162.112 14.8656 162.178 14.7255 162.292C14.6578 162.347 14.5576 162.471 14.4849 162.523C14.3589 162.613 14.157 162.668 14.0668 162.769C14.0085 162.835 14.0605 162.87 14.0576 162.926C14.0524 163.035 13.8659 163.004 13.8386 162.997C13.8378 162.997 13.8864 162.938 13.8362 162.939C13.7778 162.903 13.8391 162.996 13.8386 162.997C13.8211 162.993 13.6973 163.077 13.6818 163.105C13.6734 163.121 13.7167 163.161 13.7116 163.168C13.5907 163.337 13.4484 163.477 13.276 163.586C13.2725 163.587 13.2346 163.531 13.2269 163.535C13.1182 163.587 13.1124 163.7 13.0698 163.801C13.0271 163.901 12.9588 163.938 12.8409 163.883C12.7946 163.942 12.6819 163.968 12.6157 163.982C12.5494 163.996 12.6282 164.107 12.6259 164.112C12.554 164.286 12.4325 164.287 12.2944 164.388C12.2289 164.436 12.1185 164.557 12.0611 164.626C12.0159 164.681 11.9632 164.683 11.9279 164.741C11.9231 164.748 11.9695 164.791 11.969 164.795C11.9625 164.899 11.8913 164.758 11.8627 164.747C11.7589 164.705 11.6996 164.685 11.6601 164.78C11.651 164.802 11.7454 165.014 11.7247 165.05C11.6972 165.095 11.6606 165.021 11.6331 165.07C11.6307 165.075 11.6629 165.112 11.6371 165.132C11.5172 165.223 11.3766 165.307 11.2618 165.414C11.246 165.428 11.3178 165.471 11.2958 165.493C11.1925 165.596 11.072 165.699 10.943 165.762C10.9111 165.777 10.8907 165.719 10.8743 165.711C10.7745 165.663 10.8203 165.82 10.814 165.83C10.6643 166.057 10.4353 166.078 10.2777 166.305C10.2692 166.318 10.2936 166.515 10.1662 166.441C10.1577 166.436 10.028 166.36 10.0605 166.462C10.0625 166.469 10.133 166.505 10.0894 166.534C10.0459 166.563 10.0159 166.657 9.90755 166.644C9.87357 166.64 9.73791 166.568 9.76272 166.7C9.7644 166.709 9.85856 166.977 9.71238 166.866C9.6884 166.848 9.56697 166.699 9.57194 166.827C9.57313 166.852 9.62186 166.865 9.60963 166.913C9.59229 166.984 9.49349 167.004 9.49361 167.121C9.49361 167.141 9.53828 167.278 9.43881 167.235C9.4232 167.228 9.3904 167.17 9.36785 167.181C9.2602 167.233 9.20351 167.344 9.0853 167.393C9.04409 167.409 8.98937 167.316 8.93854 167.325C8.88769 167.334 8.80565 167.372 8.80555 167.438C8.80553 167.505 8.95414 167.596 8.91507 167.652C8.73956 167.898 8.46582 168.023 8.24862 168.215C8.21722 168.243 8.28428 168.263 8.24158 168.307C8.1586 168.392 8.04973 168.525 7.94515 168.629L6.76139 169.783L6.46198 168.18C6.43244 168.032 6.4192 167.877 6.46194 167.766C6.53161 167.58 6.65435 167.774 6.67053 167.638C6.67834 167.573 6.46602 167.549 6.45659 167.535C6.36294 167.403 6.43168 167.289 6.37813 167.165C6.367 167.14 6.29104 167.182 6.28244 167.16C6.25186 167.082 6.27273 166.999 6.25089 166.926C6.24098 166.893 6.17987 166.911 6.17843 166.88C6.17403 166.803 6.18765 166.736 6.23202 166.654C6.23607 166.647 6.32256 166.675 6.31472 166.621C6.30176 166.534 6.33778 166.412 6.25835 166.326C6.23445 166.3 6.09068 166.326 6.17704 166.243C6.19505 166.225 6.37103 166.21 6.20703 166.163C6.1796 166.154 5.95366 166.07 6.07133 165.984C6.1023 165.961 6.23574 165.893 6.20641 165.861C6.2019 165.857 6.12833 165.891 6.11488 165.863C6.06843 165.761 6.05594 165.654 6.0103 165.551C5.99798 165.523 5.92604 165.581 5.91022 165.54C5.86612 165.423 5.85863 165.278 5.86106 165.157C5.86216 165.112 5.93477 165.129 5.94143 165.125C6.05001 165.053 5.88441 165.053 5.87198 165.039C5.79645 164.948 5.8564 164.857 5.81808 164.766C5.80769 164.741 5.73497 164.774 5.72715 164.77C5.65008 164.728 5.79505 164.743 5.80349 164.705C5.82769 164.602 5.80139 164.499 5.77285 164.404C5.76228 164.369 5.68131 164.426 5.67283 164.395C5.62085 164.209 5.59197 164.014 5.60562 163.821C5.60843 163.785 5.68107 163.794 5.69534 163.783C5.79538 163.714 5.63216 163.669 5.61471 163.655C5.53515 163.592 5.59007 163.551 5.56581 163.485C5.44704 163.171 5.40978 162.757 5.37632 162.444C5.37294 162.413 5.36985 162.382 5.36698 162.351C5.33253 161.984 5.33432 161.681 5.25778 161.328C5.25261 161.303 5.1666 161.345 5.16103 161.324C5.09393 161.057 5.08571 160.78 5.01905 160.511C5.01376 160.489 4.93553 160.538 4.92438 160.503C4.90092 160.431 4.89219 160.336 4.90787 160.256C4.9153 160.217 4.99257 160.253 4.9985 160.214C5.0124 160.123 5.00469 160.03 4.97927 159.945C4.96834 159.908 4.89381 159.981 4.8862 159.932C4.83261 159.602 4.78177 159.277 4.84013 158.921C4.84424 158.897 4.99572 158.847 4.95961 158.804C4.91659 158.808 4.8666 158.818 4.82097 158.825C4.73992 158.345 4.74037 157.854 4.69856 157.364C4.69691 157.344 4.63296 157.393 4.62972 157.353C4.61027 157.121 4.57843 156.899 4.61843 156.651C4.62225 156.626 4.72599 156.618 4.70348 156.552C4.69941 156.541 4.67577 156.439 4.65224 156.417C4.64877 156.414 4.60451 156.442 4.60059 156.408C4.57859 156.214 4.57545 156.007 4.58442 155.807C4.58589 155.775 4.62963 155.8 4.63081 155.777C4.63712 155.614 4.59396 155.447 4.61239 155.289C4.62373 155.183 4.68567 155.209 4.73441 155.145C4.74117 155.136 4.73305 155.073 4.7639 155.064C4.84121 155.04 4.93509 155.052 5.01704 155.023C5.03059 155.018 5.00792 154.971 5.02327 154.968C5.02328 154.968 5.02328 154.968 5.02328 154.968C5.02782 154.967 5.03563 154.97 5.04886 154.979C5.05272 154.982 5.08551 155.037 5.10554 155.049C5.11941 155.057 5.14609 155.032 5.1667 155.05C5.18754 155.067 5.16725 155.095 5.19531 155.126C5.22388 155.156 5.25772 155.133 5.28762 155.199ZM12.317 164.045C12.2326 164.029 12.3783 164.221 12.3881 164.138C12.3884 164.134 12.3212 164.045 12.317 164.045ZM17.5597 159.797C17.4614 159.784 17.4841 159.897 17.5566 159.91C17.6286 159.922 17.5894 159.801 17.5597 159.797ZM18.1346 159.298C18.036 159.308 18.1496 159.485 18.1968 159.395C18.1995 159.39 18.1403 159.297 18.1346 159.298ZM4.78913 155.389C4.79072 155.387 4.78527 155.343 4.78345 155.342C4.74013 155.326 4.74959 155.416 4.78913 155.389ZM18.7095 158.812C18.6727 158.806 18.6262 158.877 18.6728 158.884C18.7102 158.888 18.7552 158.818 18.7095 158.812ZM9.91792 165.709C9.91467 165.707 9.88749 165.725 9.9025 165.742C9.95089 165.795 9.97224 165.75 9.91792 165.709ZM19.7572 158.091C19.6027 158.178 19.4143 158.135 19.6099 158.033C19.6431 158.016 19.5635 158.112 19.6111 158.097C19.6899 158.074 19.7122 157.963 19.8024 157.968C19.819 157.968 19.7705 158.083 19.757 158.092C19.7571 158.091 19.7572 158.091 19.7572 158.091ZM12.11 163.841C12.1071 163.839 12.0704 163.865 12.0716 163.868C12.1011 163.943 12.1748 163.89 12.11 163.841ZM8.38211 166.828C8.37492 166.824 8.29309 166.888 8.29557 166.895C8.35264 167.038 8.51731 166.909 8.38211 166.828ZM14.3756 161.838C14.3734 161.755 14.4155 161.714 14.4975 161.755C14.4563 161.782 14.417 161.811 14.3756 161.838Z" fill="black"/>
<path d="M16.571 53.1626C15.2012 52.4499 13.8771 52.2899 12.5988 52.6825C11.3852 53.0551 10.3618 53.8741 9.52849 55.1393C8.47848 56.7366 7.96972 58.5396 8.0022 60.5483C8.01175 61.2713 8.08361 61.8513 8.21777 62.2882C8.35193 62.7251 8.47246 63.0599 8.57936 63.2927C9.07129 64.8947 9.99101 65.958 11.3385 66.4827C12.6014 66.9625 14.0258 66.959 15.6115 66.472C17.7252 65.6282 19.5486 64.1563 21.0817 62.0565C21.5027 61.4668 21.961 60.8834 22.4566 60.3062C22.6832 60.2366 22.9196 60.1994 23.1661 60.1946C23.4287 60.1848 23.6072 60.3336 23.7016 60.641C22.5269 62.5246 21.4839 63.9427 20.5724 64.8955C18.8714 66.6219 17.1957 67.7386 15.5452 68.2454C15.4319 68.2802 15.3267 68.3125 15.2297 68.3423C13.4335 68.8938 11.7249 68.8076 10.1037 68.0837C8.38172 67.3198 7.24993 66.056 6.70831 64.2923C6.30086 62.9654 6.14542 61.6231 6.24201 60.2654C6.35477 58.9027 6.68216 57.6335 7.22418 56.4578C7.77741 55.2609 8.5359 54.2134 9.49964 53.3154C10.4796 52.4125 11.6249 51.7597 12.9356 51.3573C14.0521 51.0144 14.8274 50.9445 15.2617 51.1476C15.7967 51.3906 16.2331 52.0622 16.571 53.1626ZM37.475 51.7634L38.1546 51.5547C38.4297 51.4702 38.696 51.415 38.9537 51.389C39.2275 51.358 39.4116 51.4962 39.506 51.8037C39.818 52.4162 39.5346 52.8485 38.6559 53.1006C38.4082 53.159 38.1767 53.2123 37.9614 53.2608C37.7622 53.3042 37.6004 53.3539 37.4759 53.4098C37.3465 53.4496 37.3023 53.5074 37.3433 53.5834C37.6492 54.0029 37.9806 54.4767 38.3375 55.0045C38.7105 55.5274 39.0998 56.0454 39.5052 56.5583C40.53 57.8196 41.3981 58.6862 42.1097 59.1583C41.939 59.5826 41.7023 59.9651 41.3997 60.306C41.1133 60.6418 40.9539 60.8147 40.9215 60.8246C40.9054 60.8296 40.8867 60.8265 40.8655 60.8153L35.2295 54.6574L29.1026 58.3185L29.173 59.4124C29.2751 61.4174 29.1468 62.8734 28.7878 63.7804C28.7404 63.972 28.5431 64.0503 28.1959 64.0153C27.6185 63.9801 27.3099 63.8978 27.2702 63.7684C27.2602 63.736 27.286 63.2146 27.3476 62.2041C27.4091 61.1936 27.4682 60.175 27.5248 59.1483C27.5926 58.1004 27.656 57.0097 27.7151 55.876C27.7904 54.7373 27.8564 53.6546 27.913 52.6279C27.9695 51.6012 28.0236 50.6816 28.075 49.8689C28.1216 49.0401 28.1518 48.4465 28.1656 48.0881C28.1746 47.7135 28.1579 47.3999 28.1158 47.1472C28.0848 46.8734 28.0825 46.6351 28.1087 46.4323C28.1562 46.0104 28.5036 45.7001 29.1509 45.5013C29.9659 45.676 30.6564 46.0218 31.2224 46.5385C31.7996 47.0342 32.3269 47.5982 32.8045 48.2307C33.2982 48.8582 33.7863 49.4963 34.2688 50.145C34.7513 50.7936 35.3029 51.3502 35.9237 51.8148C36.1389 51.9966 36.3946 52.0509 36.6908 51.9776C36.987 51.9043 37.2484 51.8329 37.475 51.7634ZM29.797 48.384C29.9707 49.4108 29.99 50.5116 29.8549 51.6863C29.7199 52.861 29.6042 53.7819 29.508 54.4489C29.4069 55.0997 29.3337 55.6977 29.2886 56.2427C30.3889 55.9048 31.6407 55.1663 33.0439 54.0271C33.3938 53.7249 33.7324 53.4438 34.0599 53.1839C32.3006 50.165 30.8796 48.565 29.797 48.384ZM45.7835 54.4976L46.4247 56.2396C46.4545 56.3367 46.5011 56.5172 46.5644 56.781C46.6439 57.0399 46.6189 57.3044 46.4893 57.5744C46.3709 57.8232 46.1742 57.9899 45.8991 58.0743C45.6402 58.1538 45.4354 58.2079 45.2848 58.2364C44.7509 58.4004 44.4118 58.2477 44.2677 57.7785C44.1485 57.3901 43.847 55.774 43.3632 52.93C42.8744 50.0699 42.5569 48.2284 42.4105 47.4057C42.2641 46.583 42.1413 45.8948 42.042 45.3409C41.954 44.7659 41.8864 44.344 41.8393 44.0751C41.7921 43.8063 41.7612 43.5325 41.7464 43.2537C41.7316 42.9749 41.7641 42.7348 41.8439 42.5332C41.9922 42.1512 42.4142 41.8534 43.11 41.6397C44.454 41.8645 46.1582 43.1473 48.2228 45.4881C49.6928 47.1615 50.653 48.2124 51.1033 48.6408C51.5536 49.0692 51.946 49.3382 52.2808 49.4479L54.5414 39.5105C54.8066 39.1635 55.0283 38.9626 55.2063 38.9079C55.7241 38.7489 56.1925 38.8618 56.6117 39.2466C57.0309 39.6314 57.4339 40.1363 57.8205 40.7612C58.2184 41.365 58.6063 42.0516 58.9842 42.8209C59.3783 43.5853 59.7606 44.3975 60.1309 45.2577C60.5125 46.0967 60.8811 46.922 61.2365 47.7336C62.0842 49.6867 62.6442 50.9048 62.9165 51.3878C63.2049 51.8658 63.3839 52.2181 63.4535 52.4447C63.5181 52.655 63.5099 52.8877 63.4288 53.1428C63.3428 53.3817 63.1704 53.5409 62.9115 53.6204C62.6526 53.6999 62.3639 53.6823 62.0453 53.5677C61.7218 53.4368 61.483 53.2357 61.3288 52.9643C61.1859 52.6718 61.0075 52.2927 60.7937 51.8272C60.5961 51.3566 60.3649 50.8344 60.1001 50.2606C59.8304 49.6705 59.5532 49.0562 59.2686 48.4176C58.979 47.7628 58.6993 47.1404 58.4296 46.5504C58.1599 45.9603 57.9206 45.4406 57.7118 44.9912C57.498 44.5257 57.3376 44.1765 57.2307 43.9437C57.1314 43.6201 57.0313 43.3232 56.9307 43.0531C56.83 42.783 56.7131 42.633 56.58 42.603C56.4468 42.5731 56.2937 42.7086 56.1205 43.0097C55.9586 43.2896 55.7691 43.8259 55.5521 44.6185C55.0783 46.3046 54.4956 49.0776 53.8039 52.9377C53.7016 53.4118 53.4296 53.5927 52.9879 53.4805C52.4764 53.3719 51.913 52.8632 51.2974 51.9544L43.9171 43.8355C43.7673 44.7314 44.2013 47.4136 45.2193 51.8819C45.3348 52.4308 45.4415 52.8938 45.5396 53.271C45.583 53.7003 45.6642 54.1092 45.7835 54.4976ZM67.8734 52.203L66.7662 52.4898L65.0296 46.8345C64.7378 45.596 64.4721 44.5001 64.2324 43.5467C63.9928 42.5932 63.8333 41.7568 63.7541 41.0375C63.6748 40.3181 63.7113 39.6872 63.8634 39.1446C64.0106 38.5859 64.3332 38.0796 64.8312 37.6256C65.724 36.7849 67.5782 35.9322 70.3937 35.0676C71.6073 34.6949 72.6721 34.5007 73.5881 34.485C74.4991 34.4532 75.1891 34.4803 75.6582 34.5665C76.7197 34.7363 77.3747 35.2258 77.6231 36.0348C77.8716 36.8439 77.863 37.6522 77.5975 38.4597C77.3432 39.2461 76.9184 39.9963 76.3231 40.7103C75.7391 41.4032 75.0331 42.045 74.2051 42.6356C73.3772 43.2263 72.5319 43.7604 71.6692 44.2378C70.1181 45.0682 68.582 45.717 67.0609 46.1841L68.6334 51.6508C68.6931 51.845 68.4397 52.0291 67.8734 52.203ZM66.1944 43.4488C66.4429 44.2579 66.915 44.5556 67.6108 44.3419C67.7079 44.3121 67.8778 44.2599 68.1205 44.1854C68.3583 44.0947 68.7715 43.9412 69.3603 43.725C69.9603 43.4876 70.5827 43.208 71.2275 42.886C71.8674 42.5478 72.4973 42.1773 73.1173 41.7745C73.7535 41.3666 74.3019 40.9326 74.7626 40.4724C75.7999 39.4102 76.157 38.3532 75.8341 37.3014C75.2684 36.3241 74.0994 35.9482 72.3271 36.1738C71.7956 36.2307 71.3276 36.3213 70.9231 36.4455C70.5348 36.5648 70.0729 36.7331 69.5377 36.9506C69.0136 37.147 68.4279 37.4596 67.7805 37.8886C67.1332 38.3176 66.6214 38.7846 66.2453 39.2897C65.8692 39.7948 65.7289 40.2894 65.8244 40.7735C65.8679 40.9727 65.897 41.2116 65.9118 41.4904C65.971 42.3753 66.0652 43.0281 66.1944 43.4488ZM93.5336 34.5488L94.2132 34.3401C94.4883 34.2557 94.7546 34.2004 95.0122 34.1744C95.2861 34.1435 95.4702 34.2817 95.5646 34.5892C95.8766 35.2016 95.5932 35.6339 94.7145 35.8861C94.4668 35.9444 94.2353 35.9978 94.0199 36.0462C93.8208 36.0897 93.659 36.1394 93.5345 36.1953C93.4051 36.2351 93.3608 36.2929 93.4019 36.3688C93.7078 36.7884 94.0392 37.2621 94.3961 37.79C94.7691 38.3129 95.1584 38.8308 95.5638 39.3438C96.5885 40.605 97.4567 41.4717 98.1683 41.9438C97.9976 42.3681 97.7609 42.7506 97.4583 43.0914C97.1719 43.4273 97.0125 43.6002 96.9801 43.6101C96.964 43.6151 96.9453 43.612 96.9241 43.6008L91.2881 37.4429L85.1612 41.1039L85.2316 42.1979C85.3337 44.2028 85.2054 45.6588 84.8464 46.5659C84.799 46.7575 84.6017 46.8358 84.2545 46.8008C83.6771 46.7656 83.3685 46.6833 83.3288 46.5538C83.3188 46.5215 83.3446 46 83.4062 44.9895C83.4677 43.979 83.5268 42.9604 83.5834 41.9338C83.6511 40.8859 83.7146 39.7952 83.7737 38.6614C83.849 37.5228 83.915 36.4401 83.9716 35.4134C84.0281 34.3867 84.0822 33.4671 84.1336 32.6544C84.1801 31.8256 84.2103 31.232 84.2242 30.8736C84.2332 30.499 84.2165 30.1854 84.1744 29.9327C84.1434 29.6589 84.141 29.4206 84.1673 29.2177C84.2148 28.7959 84.5622 28.4856 85.2095 28.2868C86.0245 28.4615 86.715 28.8072 87.281 29.324C87.8582 29.8197 88.3855 30.3837 88.863 31.0162C89.3568 31.6437 89.8449 32.2818 90.3274 32.9304C90.8099 33.5791 91.3615 34.1357 91.9823 34.6002C92.1975 34.7821 92.4532 34.8363 92.7494 34.7631C93.0456 34.6898 93.307 34.6184 93.5336 34.5488ZM85.8556 31.1694C86.0293 32.1963 86.0486 33.297 85.9135 34.4718C85.7784 35.6465 85.6628 36.5674 85.5666 37.2344C85.4654 37.8852 85.3923 38.4831 85.3472 39.0282C86.4475 38.6903 87.6993 37.9518 89.1025 36.8126C89.4524 36.5104 89.791 36.2293 90.1185 35.9694C88.3592 32.9505 86.9382 31.3505 85.8556 31.1694ZM102.531 41.0823C102.615 41.3574 102.463 41.5545 102.075 41.6738C101.784 41.7632 101.393 41.7325 100.904 41.5817C100.576 41.2044 100.159 40.1905 99.6517 38.54C99.1448 36.8895 98.7436 35.5253 98.448 34.4474C98.1475 33.3533 97.8743 32.3482 97.6284 31.4321C97.1192 29.4282 96.8473 28.3696 96.8125 28.2563C97.1973 27.8371 97.5434 27.5804 97.8508 27.4859C98.1583 27.3915 98.3542 27.4819 98.4387 27.7569L102.531 41.0823ZM117.51 38.2087L116.146 33.767C114.932 35.2908 114.078 36.3146 113.583 36.8382C112.425 38.0261 111.321 38.7815 110.269 39.1045C109.007 39.4921 107.781 39.3638 106.591 38.7197C105.376 38.0483 104.579 37.0976 104.202 35.8679C103.885 34.5485 103.758 33.1534 103.82 31.6824C103.926 28.5687 104.902 26.0112 106.749 24.0098C107.662 23.0035 108.846 22.2767 110.303 21.8295C110.335 21.8196 110.367 21.8097 110.4 21.7997L111.048 21.5742C111.792 21.3456 112.221 21.5325 112.335 22.1349C111.061 22.5972 109.939 23.2692 108.97 24.151C108.002 25.0328 107.236 26.056 106.673 27.2206C106.121 28.364 105.786 29.6089 105.668 30.9554C105.566 32.2969 105.707 33.5906 106.09 34.8366C106.472 36.0826 107.072 36.8812 107.888 37.2327C108.704 37.5841 109.622 37.6032 110.641 37.2902C111.515 37.0219 112.612 36.2689 113.932 35.0314C114.77 34.2428 115.337 33.4666 115.634 32.7026C115.787 32.3368 115.814 31.9921 115.714 31.6685L114.611 28.0762C114.126 28.2253 113.05 28.7592 111.385 29.678C109.735 30.5918 108.78 31.1152 108.52 31.2482C108.424 31.2245 108.312 31.2058 108.184 31.192C108.051 31.1621 107.959 31.0929 107.908 30.9846C107.801 30.7519 108.043 30.2704 108.633 29.5402C108.781 29.3884 109.792 28.8744 111.666 27.9981C113.534 27.1055 114.723 26.5368 115.232 26.292C115.741 26.0471 116.166 25.8457 116.507 25.6878C116.679 25.6705 116.881 25.6084 117.114 25.5015C117.342 25.3784 117.564 25.2927 117.779 25.2443C118.302 25.1014 118.631 25.3101 118.768 25.8702L117.007 27.3141C117.003 28.3955 117.42 30.3036 118.26 33.0382L119.419 36.6399C119.518 36.9635 119.61 37.2628 119.695 37.5379C119.284 37.9297 118.852 38.1952 118.399 38.3343C117.946 38.4734 117.65 38.4316 117.51 38.2087ZM135.684 21.9505C137.195 26.8696 137.877 29.812 137.731 30.7777L135.914 31.1761C134.552 29.9122 132.392 28.2116 129.434 26.0744C128.271 25.2275 127.11 24.3887 125.952 23.5579C124.81 22.7222 123.735 21.8747 122.727 21.0155C122.846 22.555 123.569 25.485 124.895 29.8054C125.402 31.4559 125.797 32.8574 126.08 34.01C125.862 34.3956 125.567 34.6456 125.195 34.7599C124.839 34.8692 124.576 34.9058 124.405 34.8696C124.24 34.8496 124.132 34.7587 124.083 34.5969C124.028 34.4189 123.962 34.1469 123.885 33.781C123.819 33.3939 123.679 32.7641 123.464 31.8916C123.266 31.0141 123.044 30.0906 122.799 29.121C122.164 26.5893 121.57 24.4254 121.018 22.6293C120.462 20.817 119.989 19.3332 119.599 18.1781C119.855 17.7452 120.058 17.4261 120.208 17.2208C120.357 17.0156 120.578 16.9566 120.87 17.0438C121.158 17.1149 121.567 17.3523 122.098 17.7558C122.641 18.1381 123.414 18.7241 124.418 19.5137C127.835 22.1651 131.147 24.6187 134.354 26.8742L131.103 14.6452C131.182 14.2669 131.293 13.9938 131.436 13.8259C131.574 13.6418 131.789 13.505 132.08 13.4155C132.647 13.2416 133.089 13.6725 133.407 14.7081L133.658 15.6136L135.684 21.9505ZM140.099 27.66C140.004 27.3526 140.044 27.0483 140.217 26.7472C140.401 26.425 140.546 26.2036 140.65 26.0829C140.766 25.9411 140.841 25.8385 140.875 25.775C141.408 27.2227 142.629 27.6533 144.538 27.067C146.043 26.6049 147.655 25.5965 149.373 24.0418C150.598 22.9573 151.349 22.0007 151.626 21.172C151.723 20.912 151.752 20.7172 151.712 20.5878C151.667 20.4421 151.608 20.3363 151.535 20.2703L140.769 21.1062C140.458 21.1309 140.132 21.0803 139.793 20.9544C139.182 20.7525 138.832 20.5059 138.742 20.2146C138.399 19.0981 138.882 17.8433 140.189 16.4502C141.634 14.9265 143.743 13.4641 146.518 12.0631C147.147 11.7461 147.62 11.5298 147.939 11.4143C148.046 11.4168 148.201 11.4045 148.406 11.3772C148.621 11.3288 148.841 11.2965 149.066 11.2805C149.603 11.2397 149.878 11.3855 149.891 11.7178C150.06 12.2679 149.143 13.0278 147.138 13.9974C144.544 15.2367 142.95 16.0983 142.354 16.5821C141.775 17.0609 141.377 17.4931 141.159 17.8788C140.957 18.2595 140.91 18.6546 141.018 19.0641C141.043 19.145 141.257 19.1769 141.659 19.1597C142.061 19.1425 142.543 19.1272 143.105 19.1138C143.663 19.0843 144.389 19.056 145.284 19.0292C147.459 18.9632 150.133 18.9037 153.304 18.8507C153.575 19.157 153.757 19.4639 153.852 19.7713C154.115 20.6289 153.867 21.6082 153.107 22.7092C152.248 23.947 150.909 25.1814 149.092 26.4124C147.579 27.4259 146.329 28.0841 145.342 28.3872C144.517 28.6407 143.687 28.736 142.854 28.6733C142.02 28.6106 141.375 28.4989 140.918 28.3381C140.461 28.1773 140.188 27.9513 140.099 27.66Z" fill="black"/>
</svg>
