<svg width="525" height="104" viewBox="0 0 525 104" fill="none" xmlns="http://www.w3.org/2000/svg">
<path d="M177.953 0.743305C172.921 1.03098 165.858 1.48157 160.829 1.83883C159.241 1.95106 160.044 1.88089 158.952 1.95791C156.728 2.11495 154.647 2.27991 152.487 2.44422C151.771 2.49859 152.66 2.40403 151.91 2.46128C147.836 2.77253 143.956 3.10833 139.75 3.48837C119.319 5.35164 99.1649 7.79507 78.7279 11.7607C72.144 13.0368 63.7673 14.8435 57.0212 16.7082C56.2114 16.931 56.7135 16.8697 56.5609 16.9171C54.1909 17.6625 54.9498 17.3034 53.4155 17.7167C47.2013 19.4022 40.487 21.6162 34.8357 23.9461C32.3576 24.9784 34.8832 24.1056 32.4015 25.0511C32.2314 25.117 32.8051 24.7757 32.1445 25.0483C30.6983 25.6342 27.815 26.9821 26.7337 27.5187C24.6087 28.5607 24.1452 28.8054 22.2129 29.8733C19.4085 31.4393 16.3301 33.3367 13.657 35.4564C13.1077 35.8959 13.8926 35.3985 13.037 36.1054C12.1269 36.8312 9.92388 38.8165 9.20056 39.5643C8.48962 40.2678 8.72958 39.9056 8.59394 40.0205C7.4151 40.9659 5.48429 43.8928 5.30525 44.2646C2.98072 47.878 1.70003 51.7461 1.69275 55.6015C1.79754 58.8163 4.09996 61.7932 6.54058 64.3167C10.6607 68.4703 15.9943 71.7831 20.8947 74.4349C26.7337 77.5582 31.971 79.8377 37.9772 82.0458C38.6275 82.2822 37.9155 81.8644 38.7129 82.1522C47.0537 85.1437 55.4867 87.5332 64.0572 89.6662C64.9133 89.8784 63.7736 89.754 64.6287 89.9741C69.9837 91.3699 78.3119 93.2961 81.5226 93.2145C85.1728 93.8964 89.5158 94.6254 92.7528 95.2382C94.8591 95.6347 92.7675 95.49 95.4022 95.8043C95.9996 95.8746 95.2447 95.6246 96.1407 95.7399C99.7504 96.2008 103.737 96.7624 107.48 97.1255C108.203 97.1943 108.022 97.0436 108.229 97.0443C109.964 97.0576 112.854 97.6819 113.5 97.7713C118.481 98.4609 121.89 98.7058 126.501 99.0904C127.57 99.1783 126.32 98.8995 127.35 98.9772C132.757 99.3841 137.98 99.7457 143.325 100.12C144.448 100.2 143.406 100.297 143.942 100.342C146.315 100.541 146.862 100.277 149.177 100.449C149.666 100.484 149.384 100.604 149.473 100.623C150.862 100.916 152.108 100.644 152.472 100.652C157.187 100.748 159.882 101.177 164.334 101.251C164.863 101.259 163.673 101.058 165.163 101.09C175.11 101.297 185.544 101.407 195.264 101.456C196.797 101.463 195.704 101.603 195.8 101.618C197.377 101.854 198.401 101.505 198.906 101.486C202.905 101.344 206.386 101.558 209.068 101.095C222.517 100.898 235.559 100.225 248.81 99.5998C250.064 99.5404 251.323 99.4811 252.588 99.4223C254.647 99.3266 256.69 99.2365 258.719 99.1537C258.93 99.1447 258.563 99.3355 258.983 99.3168C264.029 99.0915 263.04 98.8924 266.315 98.36C267.139 98.2262 269.668 98.4423 269.889 98.4552C270.701 98.5045 269.883 98.8089 270.154 98.8108C272.397 98.8167 271.94 98.0243 275.07 97.808C275.167 97.8026 274.768 97.9819 275.031 97.9787C275.846 97.9695 276.645 97.8534 277.439 97.8496C279.253 97.8422 279.927 98.1945 282.639 97.765C282.98 97.7097 282.426 97.2847 285.142 97.1071C286.243 97.0363 290.926 96.6758 292.317 96.5973C293.697 96.5207 292.763 96.7427 292.862 96.7416C296.58 96.6502 295.18 96.8408 297.047 96.9859C298.907 97.129 298.341 96.4786 299.081 96.3417C299.824 96.2051 302.497 96.1503 303.149 96.1525C303.803 96.1551 303.001 96.3161 303.581 96.3002C307.415 96.1899 305.227 95.819 306.471 95.6049C309.348 95.103 311.821 95.4028 314.592 95.2076C315.342 95.1547 314.721 95.0933 315.387 95.0234C318.018 94.7476 319.606 94.763 322.534 94.3463C323.016 94.2779 325.344 93.7554 326.893 93.8316C327.122 93.8421 326.492 94.0287 327.636 93.9476C329.347 93.8269 332.39 93.5572 334.176 93.3365C335.495 93.1736 333.961 93.12 335.628 93.0173C336.367 92.9716 335.015 93.229 336.402 93.1329C337.786 93.0379 341.263 92.6741 342.567 92.532C343.884 92.3892 343.154 92.3099 343.255 92.2888C343.925 92.1586 346.537 91.805 346.764 91.7802C358.248 90.5249 368.681 89.5432 379.939 87.9638C380.811 87.8413 380.209 87.7632 380.341 87.7429C383.307 87.2797 381.021 88.0071 383.107 87.8651C382.765 87.591 383.998 87.4832 386.044 87.1647C387.029 87.0109 386.475 86.9645 386.563 86.9396C388.051 86.5458 389.172 86.6288 389.448 86.6389C390.486 86.6732 391.549 86.3063 392.247 86.3265C392.943 86.3455 391.407 86.7469 393.427 86.4504C393.976 86.2572 392.439 86.1858 393.96 85.9161C399.56 84.9351 410.437 83.4475 415.096 82.6601C419.773 81.8842 421.168 81.6091 423.83 81.1676C428.801 80.3257 426.944 80.4572 429.935 79.7988C432.897 79.1374 431.54 79.9039 431.989 79.927C432.426 79.9509 432.859 79.7541 433.385 79.7106C433.908 79.6671 432.814 79.9572 434.022 79.741C435.289 79.515 438.706 78.6268 439.108 78.4293C439.982 78.009 438.432 78.0838 441.682 77.4932C441.867 77.4593 441.294 77.7111 442.004 77.5748C447.759 76.461 453.629 75.1337 459.367 73.7912C460.137 73.6111 459.484 73.9151 459.932 73.8115C464.549 72.7302 462.955 72.8945 465.459 71.9778C464.951 72.4569 466.498 72.2753 469.942 71.3162C472.137 70.6995 471.725 70.6638 473.091 70.1647C473.503 70.0147 475.029 69.6679 475.275 69.5235C476.111 69.0416 474.581 69.2584 478.271 68.2329C478.437 68.1866 477.95 68.4617 478.518 68.2932C482.206 67.1826 482.294 66.9254 486.272 65.5411C489.229 64.5122 494.467 62.6981 497.865 61.2574C497.96 61.5953 500.932 60.2195 502.161 59.3767C504.241 58.4186 506.569 57.227 508.468 56.2017C509.12 55.8485 508.743 56.168 508.828 56.1325C510.286 55.4937 511.013 54.7859 511.425 54.5227C515.908 51.5816 519.828 48.9176 522.383 44.4886C522.461 44.3189 522.496 43.948 523.131 42.8137C523.169 42.7168 522.67 44.3467 523.507 42.0753C523.697 41.4584 523.886 40.607 523.895 39.7131C523.983 37.2939 522.897 34.2896 521.504 32.2905C521.045 31.5759 519.72 30.0365 518.658 28.7496C518.514 28.5727 518.727 28.7155 518.521 28.4547C517.872 27.6442 517.354 27.4099 516.522 26.4493C515.763 25.5564 513.814 23.7766 510.859 22.0422C510.77 21.9903 509.981 21.6624 509.051 21.1122C507.613 20.2515 505.436 19.0594 503.81 18.2808C503.015 17.8989 503.485 18.223 503.347 18.1581C498.071 15.7339 494.268 14.2236 488.353 12.2986C487.248 11.9387 484.12 11.1127 481.99 10.4578C479.614 9.74165 482.187 9.98776 476.751 8.74721C474.455 8.24355 471.724 8.06593 467.769 7.05C460.027 5.58013 452.971 4.41232 445.159 3.52678C444.811 3.48743 443.692 3.44893 442.857 3.35084C441.629 3.20644 440.899 3.08287 440.063 2.98942C436.525 2.59418 432.946 2.29036 429.539 1.99989C428.203 1.8876 428.677 1.88735 427.068 1.75867C425.474 1.63396 424.288 1.59212 422.2 1.42632C420.586 1.29928 418.961 1.1061 416.752 0.973305C416.681 1.05442 415.08 0.957856 412.502 0.849993C411.997 0.828885 412.537 0.882878 412.298 0.874226C411.325 0.839214 410.419 0.774271 409.481 0.746369C409.253 0.73951 409.241 0.764048 409.054 0.75978C407.479 0.722443 404.775 0.561478 404.37 0.539793C402.691 0.445398 401.894 0.448664 400.584 0.395495C399.272 0.344343 401.236 0.386976 399.701 0.335253C396.478 0.227863 392.413 0.151182 389.192 0.111417C387.897 0.095598 388.78 0.125735 388.595 0.12393C385.909 0.0936297 383.157 0.0634861 381.729 0.0883608C379.896 0.0111943 380.154 0.0863347 376.315 0.0798677C376.011 0.079745 375.626 0.0561645 376.79 0.0461845C377.953 0.0359914 379.703 0.0413207 381.285 0.0354575C381.662 0.0340088 383.796 0.00279491 384.083 0.00119348C386.454 -0.0102654 386.778 0.0606829 386.904 0.0651836C388.317 0.116906 390.965 0.105259 391.653 0.111265C394.758 0.139599 397.593 0.213348 400.248 0.270926C401.991 0.309713 402.16 0.246494 403.511 0.288668C408.052 0.43699 409.746 0.626024 413.95 0.723733C414.851 0.747466 413.949 0.597869 417.294 0.851997C417.507 0.866583 419.967 1.08128 421.363 1.12231C421.539 1.12716 421.536 1.09542 421.767 1.10723C423.302 1.18654 424.36 1.28243 426.102 1.39403C427.837 1.5052 429.889 1.64191 431.795 1.81362C432.935 1.9151 434.513 2.12627 435.066 2.19566C436.667 2.39414 438.362 2.47833 439.319 2.64051C440.288 2.8068 438.363 2.69808 440.927 3.01661C441.037 2.92239 441.276 2.8389 441.446 2.74963C447.218 3.37337 452.714 4.1224 458.441 5.02325C459.149 5.13502 458.437 4.95259 459.194 5.0708C462.31 5.55981 465.199 6.12088 468.402 6.72716C470.988 7.21816 473.722 7.71534 476.405 8.31875C478.011 8.85849 481.904 9.76693 484.705 10.5858C485.677 10.8681 485.563 10.8857 486.284 11.1133C488.953 11.9724 487.735 11.4434 488.471 11.6402C491.51 12.4834 491.802 12.9577 495.286 14.2167C495.495 14.2875 497.902 14.9916 498.205 15.1058C500.205 15.8258 498.479 15.2909 499.738 15.8291C502.048 16.8386 503.579 17.5842 506.167 18.8371C506.925 19.2035 508.806 20.0574 510.154 21.0039C510.337 21.1312 510.193 21.1308 510.343 21.2272C512.959 22.948 513.186 22.8739 514.671 23.8513C516.221 24.8733 518.206 26.8958 518.553 27.3394C519.497 28.4579 517.719 26.5895 517.618 26.5424C516.811 26.0143 518.35 27.3275 519.412 28.5179C519.411 28.8414 520.792 30.4837 520.458 29.7391C520.415 29.6395 519.632 28.7622 519.412 28.5179C520.488 29.3344 522.182 31.2472 523.159 33.7789C523.52 34.9887 523.236 33.8449 524.232 37.5226C524.493 39.0504 524.57 38.6803 524.672 39.7131C524.679 39.827 524.683 39.9586 524.681 40.1132C524.657 43.9743 521.446 47.6651 518.858 50.033C517.869 50.9367 518.916 50.138 518.225 50.7615C516.515 52.2763 514.802 53.4264 512.786 54.7816C512.609 54.9003 513.09 54.7216 512.5 55.1018C507.809 58.0719 503.479 60.1031 498.233 62.368C495.578 63.5213 491.015 65.3596 488.383 66.278C483.617 67.98 477.735 69.6484 473.773 70.8511C471.104 71.6601 471.712 71.6098 470.563 72.0282C468.475 72.8023 464.488 73.5607 463.917 73.657C463.905 73.6599 466.225 73.0109 464.967 73.2778C464.209 73.3367 463.943 73.6494 463.917 73.657C463.485 73.7456 459.005 74.8632 458.072 75.1126C457.578 75.2491 457.886 75.3007 457.627 75.3697C451.391 77.0232 445.178 78.4536 438.961 79.6871C438.849 79.7077 438.988 79.5307 438.724 79.5809C434.985 80.2882 432.73 80.9153 429.756 81.6016C426.793 82.2835 424.197 82.7281 422.463 82.7822C420.248 83.2203 416.955 83.6852 415.02 83.9452C413.087 84.2053 412.856 84.5437 412.688 84.5786C407.65 85.6191 404.579 85.9433 399.13 86.7568C396.644 87.1283 391.579 87.9257 388.729 88.3646C386.431 88.7203 385.241 88.8135 383.224 89.1394C382.955 89.1829 383.247 89.2826 383.165 89.2993C380.95 89.772 381.978 89.2873 381.507 89.2906C379.792 89.301 378.738 89.3246 375.808 89.8147C375.143 89.9261 373.168 90.681 372.022 90.8575C370.475 91.0927 371.041 90.8415 369.411 91.0911C369.271 91.1123 369.316 91.2178 368.301 91.3403C363.607 91.9088 358.206 92.4884 353.412 93.0452C352.742 93.1226 353.622 93.2011 352.653 93.3159C348.125 93.8524 342.887 94.4136 338.566 94.7772C337.476 94.869 338.145 94.6727 337.905 94.66C336.432 94.5847 334.385 95.1234 334.04 95.1645C325.645 96.1679 319.741 96.4203 311.181 97.3188C310.672 97.3724 307.291 98.0278 305.722 97.8495C305.615 97.838 304.065 97.6511 302.724 97.9799C302.64 98.0004 303.612 98.0835 301.939 98.2058C300.265 98.3279 297.561 98.6581 295.201 98.6646C294.473 98.6655 292.609 98.4939 290.51 98.9096C290.376 98.9381 287.111 99.7632 285.886 99.457C285.687 99.4063 285.865 98.9736 283.288 99.3794C282.795 99.4575 283.703 99.4847 282.399 99.639C280.399 99.876 277.712 99.9562 275.212 100.319C274.792 100.382 272.875 100.801 271.461 100.68C271.233 100.662 271.652 100.493 270.89 100.529C267.265 100.7 263.429 101.046 259.645 101.188C258.304 101.238 258.975 100.968 257.571 100.995C256.405 101.017 254.247 101.101 252.698 101.238C252.382 101.267 252.093 101.297 251.843 101.33C250.371 101.521 252.005 101.789 249.796 101.947C249.513 101.967 249.23 101.987 248.948 102.006C239.723 102.639 230.655 102.856 221.516 103.135C220.134 103.177 221.281 103.269 219.252 103.337C211.529 103.61 198.53 103.957 191.823 103.693C186.569 103.491 193.173 103.308 189.167 103.229C187.228 103.191 185.213 103.599 184.688 103.61C179.981 103.723 176.782 103.502 172.704 103.489C171.864 103.485 172.685 103.666 171.97 103.661C169.57 103.646 166.795 103.507 164.435 103.454C163.365 103.43 163.558 103.562 162.578 103.522C160.231 103.428 158.215 103.305 155.952 103.099C155.739 103.08 157.187 102.98 155.407 102.905C152.529 102.782 149.025 102.507 145.838 102.455C144.892 102.44 144.841 102.722 142.833 102.411C142.393 102.344 142.97 102.041 140.506 102.186C140.086 102.212 135.989 102.343 134.059 101.946C133.547 101.843 132.253 101.474 131.127 101.431C130.974 101.426 131.573 101.623 130.641 101.566C127.219 101.352 123.642 101.029 120.259 100.753C119.354 100.679 120.684 100.961 119.338 100.845C115.553 100.52 110.738 99.9575 107.189 99.4784C105.823 99.2951 106.783 99.2861 106.688 99.2609C105.08 98.8438 104.096 99.017 103.56 98.9658C100.205 98.6377 97.899 98.178 94.8 97.7591C93.9495 97.6427 94.5314 97.8697 94.3606 97.8569C92.5967 97.7145 93.9323 97.6631 92.8363 97.4691C89.7447 96.9188 86.5498 96.4071 83.3484 95.8582C82.2098 95.6623 83.4596 96.0461 82.4401 95.8678C76.522 94.8329 70.3495 93.5525 64.4969 92.0782C63.4123 91.8037 64.1241 91.8521 63.9037 91.772C62.3688 91.2153 60.1597 90.9236 59.5589 90.793C57.085 90.27 56.1897 89.9212 54.1243 89.3687C43.9285 86.6718 31.3734 82.1546 22.4604 77.4856C12.7048 71.851 2.7104 67.4213 1.13249e-05 55.6015C0.00410104 54.1676 0.171471 52.6722 0.504371 51.2114C0.696054 50.407 0.373462 51.1909 0.54885 50.4916C3.08668 41.3521 10.4794 35.2937 17.924 30.5635C18.5286 30.1885 17.5933 30.6353 18.5716 30.0306C20.6436 28.7527 23.2874 27.3398 25.5306 26.2864C26.5739 25.7978 25.2199 26.5508 26.2732 26.0577C28.7987 24.8817 31.4478 23.7393 34.1693 22.6426C35.2785 22.1981 33.5833 22.7561 35.0023 22.1997C44.9025 18.3579 55.1243 15.5303 65.6431 13.2523C66.3541 13.1001 66.9904 13.1255 68.4995 12.7634C68.604 12.6941 68.5862 12.6433 68.6256 12.5851C83.7975 9.29571 98.9843 7.10473 114.367 5.33747C115.011 5.26439 113.891 5.33512 115.139 5.19421C122.517 4.36422 129.544 3.68426 136.99 3.10561C137.726 3.04907 137.348 3.14758 139.526 2.95895C139.905 2.92471 143.223 2.65401 144.098 2.57687C144.216 2.56615 143.599 2.58384 144.684 2.50229C150.69 2.05233 157.477 1.62754 163.418 1.31305C164.405 1.2604 163.355 1.33467 164.059 1.29702C169.08 1.02491 174.604 0.753158 179.343 0.561221C182.564 0.429917 181.374 0.487193 183.098 0.419258C183.341 0.409264 185.366 0.325984 185.472 0.322757C185.742 0.313184 184.759 0.359946 185.162 0.345168C185.227 0.342392 186.868 0.265834 186.87 0.266007C186.87 0.266007 186.87 0.266007 186.87 0.266007C186.87 0.266027 186.727 0.27255 186.359 0.289943C186.244 0.294879 184.272 0.389922 183.791 0.415588C183.455 0.433232 184.061 0.404704 183.376 0.440747C182.691 0.477295 181.939 0.513375 180.814 0.575346C179.692 0.638318 180.18 0.615937 177.953 0.743305ZM406.493 85.044C404.719 85.1821 404.542 85.7472 406.418 85.3172C406.509 85.2958 406.584 85.0365 406.493 85.044ZM452.7 4.33614C454.966 4.75385 456.491 4.84786 454.932 4.53869C453.361 4.23396 452.006 4.21092 452.7 4.33614ZM428.825 1.79838C431.494 2.07499 431.93 1.87317 429.067 1.69043C428.9 1.67999 428.668 1.7826 428.825 1.79838ZM175.191 0.781717C175.214 0.780796 176.626 0.712827 176.661 0.711029C177.412 0.667109 174.588 0.800447 175.191 0.781717ZM404.981 0.4841C405.85 0.535173 408.312 0.609698 407.251 0.540242C406.394 0.483857 403.925 0.421009 404.981 0.4841ZM314.692 95.486C314.663 95.4798 313.627 95.5635 313.652 95.6109C313.737 95.7632 315.173 95.5908 314.692 95.486ZM364.549 0.197517C370.57 0.0865123 374.1 0.104819 367.656 0.163091C366.481 0.177148 370.185 0.126127 368.692 0.141906C365.958 0.17519 364.12 0.210219 361.256 0.264934C360.741 0.275675 364.21 0.203519 364.559 0.197304C364.556 0.197375 364.552 0.197447 364.549 0.197517ZM405.385 84.5777C405.35 84.5764 403.935 84.7931 403.901 84.8053C403.161 85.0929 406.013 84.6555 405.385 84.5777ZM254.881 99.5554C254.833 99.5483 253.606 99.6136 252.603 99.6713C251.936 99.7097 251.373 99.7443 251.329 99.7531C250.554 99.9382 251.484 99.9672 252.618 99.9192C254.02 99.8599 255.713 99.6849 254.881 99.5554ZM497.921 61.2436C499.291 60.5174 500.915 59.7768 502.154 59.3796C500.694 60.0512 499.35 60.6448 497.921 61.2436Z" fill="black"/>
</svg>
