<svg width="137" height="91" viewBox="0 0 137 91" fill="none" xmlns="http://www.w3.org/2000/svg">
<path d="M2.9183 87.4012C3.18926 87.3127 3.54943 87.2246 3.82539 87.1719C3.91186 87.1553 3.87333 87.1934 3.93329 87.1836C4.0506 87.1646 4.15577 87.1237 4.27218 87.1083C4.3108 87.1034 4.27158 87.1603 4.31192 87.1544C4.53263 87.1225 4.73861 87.0622 4.96178 87.0217C6.06109 86.8258 7.14478 86.6372 8.26027 86.4689C8.62775 86.413 9.08671 86.4022 9.4622 86.312C9.50608 86.3013 9.4706 86.2412 9.47829 86.2345C9.59925 86.1309 9.57348 86.2687 9.66231 86.2722C10.0154 86.2858 10.3947 86.2358 10.7244 86.1601C10.8641 86.1279 10.7047 86.0135 10.8568 86.0683C10.8674 86.072 10.8411 86.1498 10.8808 86.1518C10.9709 86.1564 11.1356 86.1195 11.2042 86.1156C11.3367 86.1086 11.3582 86.1048 11.4821 86.0883C11.6515 86.0664 11.8572 86.0761 12.0363 86.0349C12.0745 86.0259 12.0137 85.9558 12.0737 85.9343C12.1339 85.9128 12.298 85.8973 12.3552 85.9084C12.4125 85.9194 12.3965 85.9835 12.408 85.9962C12.5031 86.1039 12.6734 85.9157 12.6974 85.9084C13.1353 85.7814 13.5283 85.829 13.9451 85.7803C14.258 85.7434 14.5924 85.6745 14.8941 85.6457C14.8966 85.6455 14.8991 85.6452 14.9016 85.645C15.2631 85.6116 15.5728 85.6229 15.9209 85.58C15.9577 85.5756 15.905 85.4861 15.9498 85.4805C16.4238 85.4215 16.9088 85.3848 17.3908 85.4039C17.4392 85.4059 17.3853 85.4938 17.4341 85.5007C17.7339 85.541 18.2069 85.6618 18.3513 85.2892C18.5523 85.2858 18.7955 85.2796 18.9795 85.3367C19.0981 85.3733 18.9943 85.4718 19.1318 85.422C19.1629 85.4109 19.115 85.3362 19.162 85.3255C19.3601 85.2803 19.5807 85.288 19.775 85.2321C19.8145 85.2206 19.7979 85.1516 19.8082 85.1382C19.8958 85.0289 20.0684 85.1848 20.1039 85.1944C20.3777 85.2649 20.57 85.2144 20.8179 85.1984C20.8755 85.1948 20.8005 85.1064 20.8556 85.0996C21.1417 85.0654 21.4388 85.0527 21.721 85.0751C21.7838 85.0802 21.7322 85.1632 21.7625 85.1698C21.896 85.1975 21.9138 85.0463 22.0424 85.0702C22.0697 85.075 22.0592 85.1436 22.0646 85.1507C22.149 85.2622 22.2041 85.0927 22.2235 85.0878C22.4687 85.022 22.6384 85.1839 22.8755 85.1445C22.9039 85.1397 22.834 85.0586 22.9141 85.0502C23.4471 84.9938 24.011 84.9856 24.5478 85.0245C24.6308 85.0305 24.5755 85.0967 24.5811 85.1042C24.6723 85.2212 24.718 85.0555 24.7445 85.048C24.954 84.9931 25.1581 85.1189 25.2914 84.9192C26.1918 84.942 27.0767 84.7999 27.9778 84.937C27.9893 84.9385 27.9718 85.0167 27.9946 85.0194C28.2687 85.053 28.2118 84.9347 28.3866 84.7825C28.4306 84.7444 28.5744 84.9166 28.587 84.9291C28.6329 84.9752 28.5909 85.091 28.6061 85.0997C28.7311 85.1679 28.6983 84.791 28.8636 84.7862C28.8688 84.7867 28.8494 84.8566 28.8635 84.8631C28.9072 84.8834 28.949 84.8547 28.9918 84.8772C29.0902 84.9296 29.129 85.1107 29.274 85.0002C29.2924 84.986 29.257 84.7743 29.407 84.7804C29.4668 84.783 29.7301 84.7727 29.804 84.7847C29.8779 84.7965 29.8294 84.8657 29.8347 84.8685C30.0351 84.9532 29.9611 84.9923 30.0636 85.1222C30.1659 85.2514 30.13 84.9375 30.1693 84.9014C30.2088 84.8655 30.355 84.9358 30.391 84.9604C30.4271 84.9851 30.384 85.029 30.4158 85.0427C30.6266 85.1319 30.5034 84.8852 30.5709 84.8341C30.7303 84.7135 30.8596 84.9423 31.01 84.9615C31.0509 84.9667 31.0165 84.915 31.0526 84.9094C31.1958 84.8879 31.2834 84.9577 31.4447 84.8893C31.471 84.8781 31.5997 84.7389 31.6864 84.8382C31.6987 84.8525 31.6657 84.9098 31.7266 84.9214C31.8175 84.939 31.9806 84.9486 32.0771 84.9283C32.1484 84.9133 32.0649 84.8217 32.1554 84.8493C32.1956 84.8616 32.1224 84.9169 32.1978 84.9354C32.2728 84.9539 32.4632 84.9488 32.5354 84.9461C32.6075 84.9432 32.567 84.8739 32.5728 84.8691C32.6066 84.8418 32.7485 84.8067 32.7608 84.8067C33.394 84.7929 33.9573 84.9048 34.5703 84.8658C34.6183 84.8629 34.586 84.7922 34.5934 84.791C34.7577 84.7614 34.6288 84.9495 34.7437 85.012C34.7267 84.8688 34.7945 84.8946 34.9098 84.879C34.9653 84.8713 34.9349 84.8161 34.94 84.8104C35.0222 84.7268 35.0796 84.8352 35.0943 84.8573C35.1489 84.9385 35.2078 84.8428 35.2448 84.897C35.2817 84.9507 35.1969 85.0304 35.3067 85.0293C35.3375 84.9787 35.2559 84.8462 35.3393 84.825C35.6511 84.7453 36.2441 84.853 36.4993 84.8656C36.7533 84.8784 36.8346 84.8703 36.9813 84.8896C37.2458 84.9244 37.1496 84.8291 37.3139 84.7888C37.4783 84.7487 37.3961 84.9772 37.4191 85.0269C37.442 85.0765 37.4688 85.026 37.498 85.0534C37.5271 85.0807 37.463 85.1137 37.5321 85.1244C37.6013 85.135 37.791 85.0497 37.816 84.9991C37.869 84.8916 37.7857 84.7765 37.9672 84.8198C37.9777 84.8223 37.9429 84.8813 37.9829 84.888C38.3002 84.9392 38.6267 84.9481 38.9371 84.9939C38.9812 85.0003 38.9405 85.064 38.9661 85.0684C39.2325 85.1145 39.139 85.0042 39.2874 84.888C39.2513 85.0465 39.3302 85.1455 39.5306 85.1501C39.651 85.153 39.6317 85.0837 39.7105 85.0371C39.7342 85.0231 39.8178 85.0721 39.8339 85.0403C39.8869 84.9365 39.8103 84.8167 40.0139 84.8696C40.0228 84.8721 39.9929 84.9285 40.0238 84.9329C40.2241 84.9613 40.2471 84.853 40.4673 84.8476C40.6419 84.8434 40.9471 84.9195 41.1412 84.9368C41.132 85.1058 41.3165 85.0724 41.3942 84.9599C41.5196 84.9692 41.6546 84.968 41.774 84.9884C41.8151 84.9954 41.7863 85.0422 41.7913 85.0475C41.8709 85.1315 41.9309 85.023 41.9587 85.0199C42.2604 84.9902 42.4987 85.0822 42.7817 85.0152C42.7917 85.0128 42.8124 84.903 42.8837 84.9872C42.8883 84.993 42.7942 85.039 42.9251 85.0488C43.0538 85.0588 43.3042 85.1284 43.4933 85.0873C43.5389 85.0773 43.6567 84.9963 43.7442 85.0688C43.7559 85.0786 43.7412 85.1085 43.7579 85.1264C43.8117 85.1832 43.8475 85.0774 43.909 85.1717C43.9706 85.2661 44.1041 85.3391 44.2897 85.2857C44.2956 85.2841 44.343 85.2028 44.4002 85.2072C44.4912 85.214 44.6283 85.2384 44.7262 85.243C44.7734 85.2452 44.7459 85.1927 44.7541 85.1922C45.0724 85.1815 45.2924 85.2395 45.6201 85.2776C45.6765 85.2843 45.8661 85.2298 45.9823 85.2893C46.1108 85.354 45.9618 85.5812 46.2664 85.5411C46.3888 85.5243 46.5605 85.2432 46.7637 85.4074C47.1916 85.3989 47.5829 85.4997 47.9987 85.4801C48.0185 85.4793 48.0861 85.4092 48.1317 85.414C48.1995 85.4211 48.2338 85.4587 48.2817 85.4648C48.4822 85.4909 48.6656 85.4767 48.8528 85.4972C48.9237 85.5048 48.8961 85.5371 48.9803 85.5461C49.0637 85.5549 49.1315 85.5157 49.2484 85.5476C49.3373 85.572 49.4191 85.6694 49.5356 85.6893C49.5479 85.602 49.6289 85.6108 49.7721 85.601C49.7996 85.599 49.7733 85.5663 49.7865 85.5639C49.8401 85.5534 49.8858 85.5828 49.9363 85.5708C49.9486 85.5679 49.9519 85.5389 49.9621 85.5349C50.0471 85.5004 50.1909 85.5807 50.213 85.594C50.3033 85.6459 50.3506 85.6132 50.4203 85.637C50.4897 85.6606 50.3815 85.6707 50.4634 85.6888C50.6359 85.7265 50.8393 85.742 51.0224 85.7623C51.0939 85.77 51.0489 85.7291 51.0592 85.7294C51.2081 85.7363 51.3493 85.7892 51.4358 85.7287C51.5138 85.9187 51.5244 85.721 51.7184 85.7801C51.7336 85.7848 51.7438 85.8695 51.6827 85.8752C51.6217 85.881 51.5332 85.8449 51.4459 85.8553C51.4254 85.8575 51.3002 85.9257 51.2835 85.9292C51.1539 85.9555 51.1492 85.8245 51.1433 85.8166C51.0763 85.7318 50.9157 85.8043 50.8804 85.8075C50.7117 85.8199 50.5694 85.7878 50.4231 85.7955C50.3272 85.8004 50.309 85.89 50.2342 85.8812C49.9812 85.8522 49.9133 85.7149 49.6745 85.8104C49.623 85.8309 49.6632 85.9382 49.4931 85.8438C49.4826 85.838 49.3566 85.7525 49.2747 85.7948C49.2644 85.8002 49.262 85.831 49.2489 85.8327C49.1612 85.8436 49.1055 85.8148 49.0091 85.8202C48.9176 85.8261 48.8086 85.8373 48.7053 85.8199C48.6432 85.8096 48.567 85.7444 48.5379 85.7276C48.4557 85.6792 48.3574 85.7432 48.3077 85.6877C48.2574 85.6315 48.3702 85.5598 48.23 85.5151C48.218 85.6002 48.199 85.6872 48.1837 85.7728C47.8599 85.7502 47.5828 85.706 47.2664 85.6923C47.2277 85.6907 47.2638 85.7414 47.2222 85.7411C47.0488 85.74 46.8863 85.6963 46.7139 85.702C46.5767 85.7064 46.4221 85.7529 46.2757 85.7605C46.1939 85.6481 45.974 85.6747 45.8143 85.6579C45.7584 85.6519 45.7639 85.6224 45.7244 85.6109C45.5764 85.5681 45.6422 85.6702 45.6008 85.6841C45.4267 85.7444 45.4253 85.5181 45.2217 85.5141C45.211 85.5137 45.072 85.6303 45.0532 85.6374C44.9343 85.6829 45.0364 85.594 44.9641 85.582C44.8318 85.5601 44.7403 85.5264 44.58 85.5569C44.5337 85.5659 44.4165 85.6404 44.335 85.5767C44.324 85.5683 44.3324 85.5267 44.3234 85.5239C44.1593 85.4767 44.1481 85.6087 44.0505 85.6509C43.9528 85.6932 43.8084 85.5967 43.7792 85.5688C43.703 85.4969 43.8415 85.5412 43.846 85.5346C43.9002 85.4557 43.7911 85.4657 43.708 85.4559C43.7021 85.3232 43.5848 85.3263 43.6218 85.4462C43.626 85.4593 43.6916 85.4492 43.708 85.4559C43.6288 85.5829 43.4998 85.5969 43.3621 85.4694C43.2975 85.4095 43.3643 85.3443 43.1585 85.3616C43.0671 85.3696 43.0988 85.4641 43.0185 85.4873C42.8357 85.5405 42.6025 85.4461 42.4122 85.4547C42.3431 85.458 42.4082 85.5122 42.3609 85.5163C42.2354 85.5276 42.1261 85.4853 41.9985 85.5028C41.9869 85.5045 42.013 85.5607 41.9735 85.5606C41.6699 85.561 41.4282 85.5205 41.1181 85.5141C40.9697 85.511 40.701 85.5389 40.5446 85.5305C40.2714 85.5162 39.9566 85.4259 39.726 85.4441C39.5769 85.456 39.6081 85.5167 39.5433 85.5573C39.4184 85.6364 39.2016 85.4917 39.1722 85.4688C39.1714 85.4681 39.3011 85.4548 39.2327 85.423C39.1938 85.3574 39.1737 85.4685 39.1722 85.4688C39.1538 85.4543 38.8919 85.4382 38.8443 85.4497C38.817 85.456 38.8311 85.5145 38.8169 85.5166C38.4785 85.5674 38.1367 85.5831 37.7873 85.5554C37.7812 85.5542 37.7913 85.487 37.7769 85.485C37.5754 85.4549 37.4401 85.5375 37.2783 85.5878C37.1142 85.6381 36.984 85.6228 36.8873 85.5052C36.7628 85.5207 36.5839 85.4693 36.4804 85.4377C36.377 85.4061 36.3618 85.5417 36.3526 85.5445C36.0682 85.6328 35.8986 85.5568 35.6103 85.5475C35.4721 85.5429 35.1964 85.5664 35.045 85.5839C34.9255 85.598 34.8532 85.5662 34.7425 85.5889C34.7276 85.592 34.7429 85.6543 34.7384 85.6568C34.6151 85.7339 34.6739 85.5797 34.6482 85.5527C34.5552 85.4546 34.4976 85.4018 34.3385 85.4512C34.301 85.4624 34.198 85.6867 34.1327 85.7013C34.0477 85.7196 34.0793 85.6389 33.9902 85.6601C33.9826 85.6618 33.9846 85.7113 33.9294 85.7103C33.6734 85.7064 33.3924 85.6837 33.1231 85.6952C33.0863 85.6966 33.1344 85.7752 33.0813 85.7787C32.8316 85.7946 32.5573 85.7995 32.3185 85.7686C32.2593 85.7607 32.2954 85.7029 32.2823 85.6864C32.2019 85.5865 32.0924 85.738 32.074 85.7415C31.6353 85.8265 31.2881 85.7016 30.8391 85.782C30.8149 85.7865 30.6315 85.9566 30.5442 85.8197C30.5383 85.8106 30.4517 85.67 30.3807 85.7709C30.3763 85.7772 30.43 85.8492 30.3394 85.8451C30.2488 85.8409 30.1045 85.8962 29.9774 85.8193C29.9372 85.7952 29.8396 85.6541 29.7246 85.774C29.7171 85.7821 29.5423 86.0511 29.4715 85.8733C29.46 85.8441 29.4653 85.6523 29.3265 85.7561C29.3 85.7762 29.3505 85.8169 29.2799 85.8466C29.1731 85.8923 29.0298 85.8468 28.9002 85.9385C28.8776 85.9546 28.7839 86.0902 28.7015 85.9943C28.6887 85.9793 28.7099 85.9137 28.668 85.9084C28.4684 85.8826 28.2615 85.9355 28.057 85.9002C27.9845 85.8877 28.0173 85.7808 27.9412 85.756C27.8651 85.7313 27.7126 85.711 27.6357 85.763C27.5588 85.815 27.6516 85.9793 27.5341 85.9987C27.0323 86.083 26.5259 86.0106 26.0143 86.0244C25.9384 86.0265 26.0042 86.0843 25.8926 86.0918C25.4828 86.1195 24.7863 86.2211 24.4215 86.1118C24.13 86.0238 24.4848 85.9204 24.264 85.8909C24.1573 85.8767 24.0548 86.0869 24.0297 86.095C23.785 86.1761 23.6113 86.0973 23.3907 86.1399C23.3453 86.1488 23.3953 86.2284 23.3566 86.2351C23.2245 86.2586 23.082 86.2314 22.9549 86.2471C22.8979 86.2543 22.9125 86.317 22.8595 86.3158C22.7327 86.3138 22.6194 86.2952 22.4921 86.2446C22.4805 86.2399 22.5511 86.1555 22.4572 86.1592C22.306 86.1655 22.1108 86.1205 21.944 86.194C21.8941 86.2161 21.9023 86.362 21.7852 86.2696C21.7606 86.2503 21.7777 86.0729 21.66 86.234C21.6402 86.2607 21.4392 86.4817 21.3235 86.3581C21.293 86.3256 21.211 86.1874 21.1508 86.2148C21.1426 86.219 21.182 86.295 21.1313 86.3067C20.9525 86.3465 20.762 86.3532 20.5775 86.393C20.5283 86.4038 20.6087 86.4793 20.5351 86.4929C20.332 86.5302 20.0777 86.5305 19.8783 86.5216C19.8046 86.5182 19.8495 86.4461 19.8436 86.4392C19.7485 86.3264 19.7111 86.4927 19.6836 86.5046C19.512 86.5762 19.3712 86.5117 19.2099 86.5462C19.1654 86.5555 19.2038 86.6301 19.1954 86.6378C19.1083 86.7134 19.1657 86.5683 19.1056 86.5581C18.9371 86.5292 18.7536 86.5518 18.5873 86.5769C18.5262 86.5862 18.6031 86.6699 18.5483 86.6772C18.2224 86.7225 17.8894 86.745 17.5677 86.7256C17.5072 86.7217 17.5382 86.6487 17.5243 86.6341C17.4283 86.5313 17.3169 86.6947 17.2894 86.7119C17.1643 86.7905 17.1074 86.7341 16.9923 86.757C16.4269 86.87 15.7309 86.9005 15.1922 86.9329C15.1386 86.9361 15.0859 86.9391 15.0339 86.9418C14.4037 86.9753 13.896 86.974 13.2829 87.0556C13.2408 87.0611 13.2942 87.1477 13.258 87.1536C12.7898 87.225 12.3233 87.2383 11.857 87.3126C11.8187 87.3185 11.8849 87.3967 11.8238 87.4088C11.6984 87.4344 11.5368 87.4458 11.4047 87.4323C11.3403 87.4259 11.4153 87.3464 11.3507 87.3416C11.2001 87.3302 11.0414 87.341 10.8917 87.3698C10.828 87.3822 10.9363 87.4554 10.8527 87.4648C10.2835 87.531 9.72982 87.596 9.13848 87.5549C9.09798 87.5519 9.04098 87.4003 8.96121 87.4394C8.96107 87.483 8.9687 87.5334 8.97255 87.5794C8.14589 87.6874 7.31956 87.7184 6.484 87.7991C6.44893 87.8024 6.52032 87.8639 6.45245 87.8703C6.05969 87.9079 5.68007 87.9588 5.26694 87.9401C5.22597 87.9384 5.22908 87.833 5.11397 87.8621C5.09369 87.8673 4.91854 87.9008 4.87625 87.927C4.87056 87.9308 4.91085 87.9735 4.85379 87.9806C4.52114 88.0214 4.17319 88.0447 3.83695 88.0562C3.78275 88.058 3.83237 88.0106 3.79373 88.0118C3.51994 88.0222 3.23097 88.0845 2.96655 88.0834C2.78971 88.0837 2.84292 88.0173 2.74091 87.9747C2.7265 87.9688 2.61966 87.9844 2.60828 87.9539C2.57942 87.8774 2.61442 87.7796 2.57754 87.699C2.57149 87.6856 2.48819 87.7144 2.48529 87.699C2.48529 87.699 2.48529 87.699 2.48529 87.699C2.48444 87.6945 2.49058 87.6861 2.5077 87.6715C2.51299 87.6672 2.61232 87.627 2.63457 87.6052C2.65007 87.59 2.6125 87.5655 2.64557 87.5423C2.6786 87.5189 2.72293 87.5365 2.77892 87.5042C2.83479 87.4715 2.80163 87.4393 2.9183 87.4012ZM36.0126 85.2959C35.916 85.2304 35.901 85.4714 36.0058 85.4131C36.0109 85.41 36.0176 85.2991 36.0126 85.2959ZM47.5863 85.5868C47.4676 85.509 47.3745 85.6067 47.4586 85.6661C47.5425 85.725 47.6224 85.6102 47.5863 85.5868ZM48.8807 85.6288C48.7421 85.5665 48.7022 85.7742 48.8588 85.7425C48.8678 85.7407 48.8887 85.6324 48.8807 85.6288ZM3.1618 87.8912C3.16019 87.8896 3.08335 87.9002 3.08183 87.9022C3.04835 87.9483 3.20221 87.9286 3.1618 87.8912ZM50.1694 85.6886C50.1255 85.6584 49.9871 85.6759 50.0425 85.7135C50.0873 85.7436 50.2244 85.7259 50.1694 85.6886ZM31.017 85.0906C31.0154 85.0867 30.9591 85.0845 30.9608 85.1068C30.9662 85.1786 31.0438 85.1564 31.017 85.0906ZM52.3476 85.9182C52.034 85.8751 51.8479 85.7121 52.1995 85.7731C52.2625 85.7839 52.0577 85.7986 52.1369 85.8211C52.2817 85.8612 52.388 85.7906 52.5258 85.854C52.5511 85.8652 52.3659 85.9207 52.347 85.9183C52.3472 85.9182 52.3474 85.9182 52.3476 85.9182ZM35.9577 85.007C35.9558 85.0038 35.8779 85.0006 35.876 85.0037C35.8336 85.0802 35.9905 85.0865 35.9577 85.007ZM27.7739 85.0201C27.7693 85.0125 27.5893 85.0119 27.5837 85.0194C27.4957 85.1672 27.8595 85.1681 27.7739 85.0201ZM41.1441 84.9415C41.23 84.8779 41.3302 84.8745 41.3939 84.9598C41.3113 84.9523 41.2277 84.9486 41.1441 84.9415Z" fill="black"/>
<path d="M16.3294 90.3069C16.4965 90.2517 16.7156 90.1822 16.8828 90.1352C16.9352 90.1204 16.9099 90.1344 16.9461 90.1248C17.0171 90.1063 17.0821 90.0835 17.1523 90.0664C17.1756 90.0609 17.149 90.081 17.1734 90.0751C17.307 90.0436 17.4325 90.0058 17.5695 89.9721C18.2425 89.8091 18.9009 89.6615 19.5854 89.5205C19.8102 89.4736 20.0869 89.4489 20.3192 89.3834C20.3461 89.3757 20.324 89.3438 20.3287 89.3397C20.4024 89.2766 20.3874 89.3546 20.442 89.353C20.6589 89.3462 20.8933 89.3043 21.0921 89.2477C21.1767 89.2236 21.0778 89.1604 21.1713 89.1878C21.1778 89.1897 21.1631 89.2376 21.1873 89.2375C21.2425 89.2372 21.3413 89.2095 21.3843 89.2047C21.466 89.1959 21.4793 89.1929 21.5556 89.1786C21.6599 89.1593 21.7872 89.1592 21.8969 89.1274C21.9202 89.1204 21.881 89.0771 21.9176 89.0613C21.9542 89.0454 22.055 89.0298 22.0905 89.0352C22.1261 89.0406 22.118 89.0833 22.1254 89.0913C22.1866 89.1597 22.2856 89.0308 22.2999 89.0248C22.5625 88.9268 22.8075 88.9466 23.0643 88.9012C23.259 88.8661 23.4631 88.8062 23.6475 88.7768C23.8661 88.7423 24.0599 88.7433 24.2741 88.7017C24.2967 88.6973 24.2596 88.6281 24.2872 88.6225C24.5804 88.5631 24.8716 88.5212 25.1696 88.5273C25.2 88.5279 25.1713 88.6029 25.2022 88.6078C25.3913 88.6351 25.6955 88.736 25.7602 88.4091C25.8836 88.4022 26.0326 88.3919 26.1493 88.4397C26.2245 88.4705 26.1673 88.5598 26.2485 88.5136C26.2668 88.5032 26.2325 88.4372 26.2606 88.4268C26.3781 88.3833 26.5179 88.3863 26.6352 88.3319C26.6591 88.3207 26.644 88.2579 26.6496 88.2454C26.6968 88.1434 26.8151 88.2829 26.838 88.2913C27.012 88.3519 27.1265 88.3025 27.2778 88.2835C27.3129 88.2792 27.2605 88.1971 27.2938 88.1897C27.4667 88.1525 27.6491 88.1345 27.8281 88.1507C27.8678 88.1546 27.8417 88.2356 27.8611 88.2414C27.9466 88.2662 27.9469 88.1193 28.0284 88.1402C28.0456 88.1444 28.0443 88.2113 28.0482 88.2182C28.1087 88.3254 28.1297 88.1596 28.1413 88.1544C28.2871 88.0857 28.4041 88.2421 28.5468 88.2001C28.5639 88.1948 28.5146 88.1156 28.5632 88.1059C28.884 88.0414 29.243 88.0206 29.5732 88.0517C29.6247 88.0563 29.5961 88.1252 29.6001 88.1328C29.6658 88.2514 29.6803 88.0806 29.696 88.0724C29.8206 88.012 29.9549 88.1391 30.0234 87.929C30.4785 87.9336 30.9015 87.8255 31.3549 87.8464C31.4656 87.8517 31.5766 87.8649 31.6882 87.8898C31.6953 87.8912 31.6913 87.9758 31.7055 87.9782C31.8769 88.0083 31.8318 87.882 31.9262 87.713C31.95 87.6706 32.0529 87.8535 32.0617 87.8667C32.0938 87.9157 32.0779 88.0422 32.088 88.0513C32.1709 88.1223 32.1169 87.7144 32.2204 87.7045C32.2237 87.7048 32.2174 87.7814 32.2268 87.7881C32.2561 87.809 32.2799 87.7765 32.3088 87.8C32.3749 87.8542 32.4154 88.0506 32.496 87.9264C32.5061 87.9103 32.4662 87.6804 32.559 87.6829C32.5961 87.684 32.7571 87.6654 32.8035 87.6764C32.8499 87.6873 32.8259 87.7644 32.8295 87.7673C32.9597 87.8546 32.9176 87.8995 32.9916 88.0392C33.0654 88.1782 33.0166 87.8347 33.0377 87.794C33.0588 87.7534 33.1545 87.8264 33.1787 87.8525C33.2029 87.8786 33.1802 87.9281 33.2009 87.9422C33.3378 88.0343 33.2408 87.7665 33.2786 87.7081C33.3685 87.5703 33.4704 87.8181 33.5648 87.8347C33.5904 87.8392 33.5649 87.7832 33.5866 87.7759C33.6728 87.7478 33.7326 87.8221 33.8258 87.7414C33.841 87.7282 33.9082 87.5701 33.9698 87.677C33.9785 87.6924 33.9631 87.7568 34.0014 87.7678C34.0587 87.7842 34.1595 87.7894 34.2169 87.7637C34.2593 87.7447 34.2004 87.6461 34.2582 87.6736C34.2838 87.6858 34.2437 87.7495 34.2914 87.7675C34.3382 87.7855 34.4591 87.7729 34.504 87.7672C34.5491 87.7614 34.5178 87.6861 34.5211 87.6806C34.5408 87.6489 34.6246 87.6051 34.6322 87.6046C35.0189 87.5664 35.376 87.6684 35.7526 87.5996C35.7818 87.5944 35.7563 87.5176 35.7607 87.516C35.859 87.4765 35.7953 87.6897 35.8708 87.7539C35.8487 87.5964 35.8924 87.6221 35.9617 87.6C35.995 87.5892 35.972 87.5295 35.9746 87.523C36.0182 87.4273 36.0621 87.5445 36.0729 87.5681C36.1128 87.6555 36.1411 87.5473 36.1681 87.6055C36.195 87.6631 36.1496 87.7547 36.2166 87.7486C36.2314 87.6915 36.1708 87.5489 36.2201 87.522C36.4056 87.4209 36.7852 87.5122 36.9401 87.5138C37.0963 87.5159 37.1454 87.5032 37.2365 87.5171C37.4023 87.542 37.3369 87.443 37.4369 87.3913C37.5376 87.3398 37.5033 87.5911 37.5216 87.6438C37.5396 87.6962 37.552 87.6402 37.572 87.6683C37.5919 87.6964 37.5552 87.7353 37.5983 87.7433C37.6414 87.7511 37.7508 87.649 37.7623 87.5932C37.7865 87.4748 37.7269 87.3551 37.8411 87.3927C37.8477 87.3949 37.8309 87.46 37.8558 87.4652C38.0536 87.504 38.2521 87.4963 38.4539 87.5274C38.4813 87.5317 38.4611 87.6014 38.477 87.6046C38.643 87.6382 38.5779 87.5269 38.66 87.3967C38.6495 87.5654 38.7049 87.6652 38.8273 87.658C38.9008 87.6539 38.8841 87.5826 38.9288 87.5295C38.9422 87.5136 38.9967 87.5598 39.0042 87.5257C39.0291 87.4148 38.9739 87.2945 39.1017 87.3386C39.1073 87.3406 39.0929 87.4007 39.1123 87.4035C39.2406 87.4214 39.2498 87.3084 39.3854 87.291C39.4917 87.2775 39.6829 87.3383 39.8021 87.3446C39.8079 87.5153 39.9179 87.4702 39.9575 87.3533C40.0368 87.3554 40.1228 87.3462 40.1996 87.3594C40.2261 87.3639 40.211 87.4117 40.2146 87.4167C40.2689 87.4946 40.298 87.3841 40.3148 87.3795C40.4967 87.3331 40.6458 87.4075 40.8155 87.3266C40.8217 87.3236 40.8277 87.2182 40.8784 87.294C40.8817 87.2991 40.8249 87.3485 40.9086 87.3499C40.9924 87.3518 41.1504 87.4012 41.262 87.3517C41.289 87.3396 41.3554 87.2587 41.4129 87.3198C41.4205 87.3281 41.4135 87.3562 41.4247 87.3715C41.4607 87.4198 41.4759 87.3217 41.5189 87.4033C41.5606 87.485 41.6501 87.5404 41.7645 87.4801C41.7681 87.4783 41.7932 87.4033 41.8297 87.4035C41.888 87.4037 41.9704 87.4162 42.0303 87.4138C42.0589 87.4127 42.0392 87.3693 42.0442 87.3683C42.2353 87.3397 42.3723 87.3759 42.5844 87.3859C42.6229 87.3874 42.7313 87.3326 42.8052 87.3728C42.8861 87.4157 42.8091 87.6044 42.9899 87.5498C43.0601 87.5262 43.1579 87.3043 43.2949 87.4139C43.5564 87.3817 43.7953 87.4264 44.0602 87.3883C44.072 87.3866 44.1086 87.3388 44.136 87.3396C44.1767 87.3407 44.1991 87.3621 44.2279 87.3633C44.345 87.3685 44.4657 87.3509 44.5843 87.3538C44.6296 87.3548 44.6139 87.3738 44.6676 87.3744C44.7211 87.3749 44.7566 87.3514 44.8278 87.3627C44.8819 87.3715 44.9333 87.4156 45.0101 87.4183C45.0129 87.3761 45.0648 87.3765 45.1547 87.3664C45.172 87.3645 45.1535 87.3508 45.1617 87.3492C45.1949 87.3428 45.2254 87.3542 45.2565 87.3474C45.2641 87.3458 45.2645 87.3333 45.2707 87.3313C45.3235 87.3148 45.4084 87.3446 45.4228 87.3488C45.4774 87.3665 45.506 87.3525 45.5514 87.3596C45.5966 87.3662 45.5289 87.3731 45.5817 87.377C45.691 87.3849 45.8274 87.3832 45.9316 87.3843C45.9732 87.3847 45.945 87.3748 45.9509 87.3746C46.0382 87.3742 46.1349 87.3837 46.1839 87.3703C46.2449 87.4086 46.2388 87.3681 46.363 87.3797C46.3727 87.3807 46.3848 87.3933 46.3473 87.3953C46.3097 87.3975 46.2523 87.3926 46.1984 87.3965C46.1858 87.397 46.1118 87.4158 46.1015 87.4177C46.0216 87.4299 46.0103 87.3975 46.0061 87.3954C45.9585 87.3751 45.8746 87.3986 45.8509 87.4015C45.746 87.4117 45.6545 87.4075 45.5625 87.417C45.5029 87.4232 45.4936 87.4578 45.4505 87.4594C45.3028 87.4657 45.2502 87.4085 45.1048 87.4662C45.0734 87.4789 45.105 87.5261 44.9918 87.4945C44.9842 87.4929 44.9012 87.4597 44.8562 87.4863C44.8504 87.4897 44.8506 87.5054 44.843 87.5073C44.7917 87.5195 44.7573 87.5089 44.7006 87.5191C44.6438 87.5293 44.575 87.5446 44.5086 87.5434C44.4687 87.5428 44.4168 87.5114 44.3973 87.5036C44.3408 87.4813 44.2879 87.5265 44.255 87.4969C44.2222 87.4662 44.2855 87.416 44.1998 87.3969C44.1971 87.4498 44.1903 87.5045 44.1856 87.5583C44 87.5707 43.8003 87.5652 43.6145 87.5812C43.5913 87.5833 43.6156 87.6156 43.5907 87.6189C43.4855 87.6333 43.3919 87.6154 43.2799 87.6345C43.194 87.6494 43.0952 87.6983 43.0075 87.7176C42.9523 87.6387 42.8217 87.6774 42.7246 87.6778C42.6906 87.6778 42.6923 87.6537 42.6679 87.6476C42.5756 87.6252 42.6205 87.7025 42.5957 87.7173C42.489 87.7822 42.4749 87.5969 42.3454 87.6091C42.3379 87.6093 42.2616 87.7185 42.2505 87.7263C42.1815 87.7749 42.2379 87.691 42.1936 87.6868C42.1125 87.6792 42.0554 87.6572 41.9604 87.6965C41.9327 87.7079 41.8676 87.783 41.8109 87.7338C41.8034 87.7273 41.8062 87.6899 41.8003 87.6882C41.6936 87.6594 41.6945 87.7776 41.6352 87.8239C41.5748 87.8705 41.4845 87.7957 41.4645 87.7725C41.4141 87.7133 41.5005 87.7425 41.5028 87.7361C41.5308 87.6605 41.4655 87.678 41.4146 87.6753C41.4029 87.5548 41.3321 87.5658 41.3618 87.673C41.3652 87.6847 41.4043 87.6705 41.4146 87.6753C41.3744 87.7971 41.2973 87.8217 41.206 87.7141C41.1632 87.6634 41.1996 87.5979 41.076 87.6287C41.0197 87.6428 41.045 87.7292 40.9959 87.7572C40.8826 87.822 40.7323 87.7503 40.6185 87.7724C40.5768 87.7807 40.6198 87.8281 40.5914 87.8357C40.516 87.8563 40.4469 87.8235 40.3706 87.8501C40.3637 87.8526 40.3832 87.9056 40.3593 87.9086C40.1787 87.9321 40.0109 87.9113 39.8272 87.927C39.7369 87.9347 39.5756 87.9825 39.4799 87.985C39.3148 87.99 39.1022 87.9189 38.9673 87.9528C38.8774 87.975 38.9007 88.0363 38.8642 88.0831C38.794 88.1746 38.6516 88.0373 38.632 88.0148C38.6314 88.0141 38.7094 87.9918 38.6655 87.9627C38.637 87.8961 38.6328 88.0144 38.632 88.0148C38.6193 88.0008 38.46 88.0003 38.429 88.0157C38.4122 88.024 38.4254 88.0851 38.4166 88.0883C38.2024 88.1646 38.004 88.2027 37.7869 88.194C37.783 88.193 37.7841 88.1201 37.7751 88.1187C37.6494 88.0981 37.5754 88.1948 37.4759 88.2591C37.3758 88.3233 37.2945 88.3144 37.2268 88.1917C37.1521 88.2154 37.039 88.169 36.9733 88.1399C36.9077 88.1107 36.909 88.2598 36.9037 88.2634C36.7364 88.375 36.6294 88.3004 36.4454 88.3048C36.3567 88.3069 36.1931 88.3457 36.1014 88.3721C36.0295 88.3932 35.9827 88.3614 35.9169 88.3915C35.908 88.3955 35.9224 88.4637 35.9198 88.4667C35.8507 88.5575 35.8741 88.3844 35.8562 88.3557C35.7913 88.2513 35.7518 88.1955 35.6583 88.2569C35.6367 88.2708 35.5902 88.5237 35.5504 88.5426C35.4984 88.5667 35.5117 88.4759 35.4573 88.5032C35.4526 88.5055 35.4579 88.5601 35.4231 88.5614C35.2659 88.5677 35.0926 88.5534 34.9285 88.5762C34.9061 88.5792 34.9421 88.6645 34.9099 88.6703C34.7585 88.6972 34.5903 88.7121 34.4363 88.6861C34.3984 88.6794 34.4163 88.6142 34.4066 88.5963C34.3484 88.4884 34.2946 88.6596 34.2835 88.6641C34.0216 88.7719 33.8007 88.6436 33.5277 88.7444C33.513 88.75 33.4115 88.942 33.3458 88.7934C33.3414 88.7836 33.2763 88.631 33.2414 88.7436C33.2392 88.7506 33.2783 88.8286 33.2224 88.8261C33.1665 88.8236 33.0828 88.8874 32.9982 88.8058C32.9714 88.7801 32.8995 88.6277 32.8391 88.7613C32.8351 88.7705 32.7506 89.0679 32.6919 88.8749C32.6823 88.8431 32.6693 88.6337 32.5927 88.7496C32.5781 88.7721 32.6127 88.8156 32.5718 88.8492C32.5092 88.901 32.4148 88.8542 32.3411 88.956C32.328 88.974 32.2813 89.1225 32.2228 89.0196C32.2136 89.0035 32.2211 88.9321 32.1949 88.9269C32.0702 88.9018 31.9475 88.9618 31.8187 88.9261C31.7731 88.9136 31.7842 88.798 31.7352 88.7724C31.6863 88.7467 31.5907 88.727 31.5477 88.7837C31.5047 88.8405 31.5758 89.0156 31.5051 89.0374C31.496 89.0402 31.4869 89.0429 31.4778 89.0454C31.1746 89.1285 30.8713 89.058 30.5652 89.0739C30.5185 89.0763 30.5639 89.1368 30.4957 89.1449C30.2423 89.1755 29.8163 89.2779 29.5836 89.1644C29.3965 89.0739 29.6072 88.9693 29.4685 88.9391C29.4016 88.9249 29.3551 89.1379 29.3403 89.1459C29.1952 89.2268 29.0782 89.1467 28.943 89.1884C28.9151 89.197 28.9528 89.2769 28.929 89.2832C28.8487 89.3056 28.7591 89.2771 28.6817 89.2915C28.6471 89.2981 28.661 89.3601 28.6282 89.3584C28.5497 89.355 28.4782 89.3353 28.3956 89.2844C28.388 89.2798 28.4252 89.1976 28.3675 89.2005C28.2741 89.2054 28.1515 89.16 28.0512 89.2298C28.0215 89.2508 28.0375 89.3915 27.9569 89.3012C27.9401 89.2823 27.9377 89.1121 27.8756 89.2656C27.8655 89.2914 27.7533 89.4997 27.6739 89.3801C27.6527 89.3487 27.5919 89.2166 27.5567 89.242C27.552 89.2459 27.5819 89.3183 27.5514 89.3287C27.4437 89.3638 27.3264 89.3673 27.2149 89.4014C27.1852 89.4106 27.2404 89.4823 27.1957 89.4935C27.0729 89.5243 26.9135 89.5194 26.7871 89.5076C26.7405 89.5031 26.764 89.4384 26.7598 89.432C26.6924 89.328 26.68 89.4784 26.6634 89.4886C26.5596 89.5501 26.468 89.4892 26.3706 89.5167C26.3436 89.5241 26.3723 89.5913 26.3676 89.5979C26.3186 89.6631 26.3447 89.5355 26.3068 89.5252C26.2006 89.4961 26.0883 89.5126 25.9867 89.5309C25.9494 89.5377 26.0024 89.6122 25.9687 89.6173C25.77 89.6489 25.5593 89.6595 25.3559 89.6357C25.3175 89.6312 25.3329 89.5708 25.3233 89.5582C25.2568 89.4707 25.198 89.6045 25.1817 89.6179C25.1086 89.6798 25.0701 89.6318 25 89.6478C24.6585 89.7259 24.2148 89.7311 23.8828 89.7422C23.4502 89.7557 23.106 89.7415 22.6944 89.7927C22.6685 89.7958 22.7042 89.8554 22.682 89.8587C22.3946 89.8982 22.1042 89.8999 21.8132 89.9413C21.7893 89.9445 21.8324 89.9944 21.7943 90.0012C21.7161 90.0153 21.6149 90.0198 21.5317 90.0099C21.4912 90.0052 21.5369 89.9575 21.4963 89.9539C21.4021 89.9456 21.3049 89.9508 21.2126 89.9667C21.1734 89.9735 21.2414 90.018 21.1898 90.0226C20.8383 90.056 20.4901 90.0862 20.1213 90.0635C20.0963 90.0618 20.0612 89.982 20.0121 90.0029C20.012 90.0257 20.0166 90.052 20.019 90.0761C19.5099 90.1303 18.9872 90.1488 18.4735 90.1916C18.4517 90.1933 18.4942 90.2179 18.452 90.221C18.208 90.2399 17.9706 90.2614 17.7155 90.2622C17.6902 90.2624 17.6968 90.2273 17.6244 90.2399C17.6117 90.2422 17.5019 90.2575 17.4743 90.2665C17.4706 90.2678 17.4934 90.2799 17.4577 90.2833C17.2521 90.3024 17.0361 90.316 16.8291 90.3296C16.7957 90.3318 16.8296 90.3205 16.8058 90.3222C16.6375 90.3358 16.4554 90.358 16.2939 90.3721C16.186 90.3825 16.2252 90.3746 16.1679 90.3804C16.1598 90.3813 16.0936 90.3915 16.0901 90.3917C16.0811 90.3924 16.1126 90.384 16.0993 90.3853C16.0971 90.3855 16.0448 90.3993 16.0447 90.3993C16.0447 90.3993 16.0447 90.3993 16.0447 90.3993C16.0447 90.3993 16.0493 90.3981 16.061 90.3949C16.0646 90.3939 16.1274 90.3764 16.1428 90.3714C16.1534 90.368 16.1339 90.3726 16.1557 90.3655C16.1774 90.3582 16.2017 90.3524 16.2378 90.3405C16.2738 90.3284 16.2574 90.3306 16.3294 90.3069ZM36.6762 88.0083C36.6119 87.9412 36.6218 88.2064 36.6814 88.1372C36.6842 88.1336 36.6795 88.0115 36.6762 88.0083ZM43.8057 87.4847C43.7255 87.4404 43.6734 87.5137 43.7289 87.5478C43.7855 87.5807 43.8299 87.4975 43.8057 87.4847ZM44.6092 87.4248C44.5181 87.3981 44.5042 87.5178 44.6016 87.4885C44.6072 87.4868 44.6145 87.4262 44.6092 87.4248ZM16.4306 90.3382C16.4297 90.3381 16.3823 90.3455 16.3812 90.3458C16.3566 90.3536 16.4517 90.3401 16.4306 90.3382ZM45.4024 87.3876C45.3751 87.3773 45.2951 87.39 45.3295 87.4032C45.3573 87.4134 45.4364 87.3999 45.4024 87.3876ZM33.5801 87.977C33.5788 87.9727 33.544 87.9719 33.5469 87.9964C33.5564 88.0755 33.6022 88.0487 33.5801 87.977ZM46.7568 87.3968C46.5605 87.395 46.4332 87.3705 46.655 87.3857C46.6946 87.3879 46.5693 87.3845 46.6199 87.3881C46.7123 87.3927 46.772 87.393 46.8607 87.3992C46.8771 87.3994 46.7684 87.3963 46.7565 87.3968C46.7566 87.3968 46.7567 87.3968 46.7568 87.3968ZM36.6197 87.694C36.6183 87.6906 36.5703 87.6906 36.5694 87.6942C36.5495 87.7801 36.6461 87.7797 36.6197 87.694ZM31.5698 87.9839C31.5663 87.9757 31.4555 87.9791 31.4526 87.9872C31.411 88.1475 31.635 88.1412 31.5698 87.9839ZM39.8042 87.349C39.8521 87.2802 39.9129 87.2716 39.9573 87.3532C39.9066 87.3505 39.8555 87.3515 39.8042 87.349Z" fill="black"/>
<path d="M1.70291 13.7256C1.84889 13.6271 2.01516 13.5746 2.20171 13.5681C2.38827 13.5616 2.50861 13.6648 2.56275 13.8777C2.6099 14.9594 2.68512 16.5771 2.78842 18.7308C2.8344 20.046 2.83605 21.1619 2.79338 22.0786C2.77962 22.2192 2.69541 22.3482 2.54075 22.4657C2.39509 22.5735 2.24298 22.6302 2.08441 22.6357C1.82324 22.6449 1.68792 22.5142 1.67847 22.2437C1.73914 21.3077 1.74535 20.1494 1.69709 18.7689L1.44881 14.0707C1.48156 13.9388 1.56626 13.8238 1.70291 13.7256ZM9.35531 21.9193C9.2118 21.8216 9.13793 21.7121 9.1337 21.5908C9.12913 21.4603 9.17668 21.3512 9.27635 21.2637C9.0525 19.936 8.91042 18.4094 8.8501 16.6837C8.83184 16.1614 8.81962 15.1439 8.81344 13.6312C8.85519 13.4896 8.94422 13.3651 9.08055 13.2576C9.22621 13.1498 9.36433 13.0936 9.49492 13.089C9.6255 13.0845 9.70495 13.0864 9.73326 13.0947C11.0802 13.4212 12.2667 14.1035 13.2929 15.1416C14.3188 16.1704 14.8812 17.4302 14.98 18.921C15.0374 20.5626 14.3925 21.6171 13.0453 22.0845C12.6578 22.2194 12.2448 22.2946 11.8064 22.3099C11.3774 22.3249 10.9985 22.3055 10.6697 22.2516C10.7096 22.3249 10.7317 22.4222 10.736 22.5434C10.7405 22.674 10.6655 22.7981 10.5108 22.9155C10.3658 23.042 10.186 23.109 9.97151 23.1165C9.7663 23.1237 9.63131 23.0023 9.56654 22.7524L9.35531 21.9193ZM10.0075 16.5312C10.0645 18.1636 10.2119 19.7087 10.4497 21.1666C10.6758 21.2241 11.0547 21.2435 11.5864 21.2249C12.1181 21.2063 12.6233 21.1 13.1022 20.9058C13.5904 20.7113 13.8424 20.441 13.8583 20.0949C13.8772 19.8327 13.8842 19.6317 13.8793 19.4918C13.8369 18.2792 13.4729 17.2179 12.7874 16.308C12.1112 15.3977 11.1816 14.7204 9.99869 14.2762C9.99053 15.3784 9.99346 16.1301 10.0075 16.5312ZM19.8417 12.6853C20.4946 12.6625 21.0569 12.853 21.5287 13.2567C22.4521 14.0276 22.9442 15.2805 23.0049 17.0155C23.0652 18.7411 22.6183 20.1155 21.6641 21.1388C21.1683 21.6511 20.5855 21.9423 19.9155 22.0124C19.0294 22.0434 18.3286 21.7644 17.813 21.1754C17.2975 20.5864 16.9194 19.9225 16.6787 19.1838C16.4471 18.4354 16.3191 17.7115 16.2946 17.0119C16.2529 15.8179 16.503 14.8239 17.0449 14.0299C17.6129 13.1788 18.5451 12.7307 19.8417 12.6853ZM19.7843 13.85C18.5344 13.8937 17.7763 14.5133 17.5099 15.7086C17.4277 16.029 17.3952 16.4364 17.4125 16.9308C17.4298 17.4251 17.5431 17.9955 17.7525 18.642C18.035 19.5099 18.4296 20.1125 18.9363 20.4497C19.2333 20.6635 19.587 20.7632 19.9974 20.7488C20.4079 20.7345 20.7699 20.5397 21.0837 20.1645C21.3971 19.78 21.6045 19.3011 21.7059 18.7279C21.8073 18.1547 21.8478 17.5789 21.8276 17.0006C21.7918 15.9745 21.6148 15.1869 21.2968 14.6377C20.988 14.0881 20.4839 13.8256 19.7843 13.85ZM29.9572 12.4578C30.0485 12.3986 30.1688 12.3664 30.318 12.3612C30.4673 12.3559 30.6048 12.4165 30.7306 12.5428C30.8561 12.6599 30.9218 12.8023 30.9277 12.9702C31.0552 16.6173 31.1463 18.8228 31.201 19.5867C31.2647 20.341 31.2969 20.7274 31.2975 20.7461C31.3047 20.9513 31.2556 21.1491 31.1502 21.3396C31.0444 21.5207 30.9216 21.6137 30.7817 21.6186C30.6511 21.6232 30.5484 21.6221 30.4734 21.6154C30.4075 21.599 30.3462 21.5825 30.2896 21.5658C30.2329 21.5491 30.1757 21.5137 30.1178 21.4597L29.9729 21.3247C29.9343 21.2887 29.8806 21.2205 29.8117 21.1202C29.7518 21.0102 29.7021 20.9232 29.6625 20.8592C29.6229 20.7953 29.5584 20.6854 29.4689 20.5298C29.3884 20.3645 29.2041 20.0348 28.916 19.5405C28.6372 19.046 28.3835 18.6019 28.155 18.2083C27.3708 16.8815 26.6479 15.8375 25.9862 15.0761C26.0922 18.1076 26.0818 20.2139 25.955 21.3951C25.9348 21.6199 25.7661 21.7379 25.449 21.749C25.2998 21.7542 25.1725 21.7213 25.0673 21.6502C24.9714 21.5789 24.9206 21.4593 24.9147 21.2914C24.9088 21.1235 24.9092 20.1989 24.9158 18.5176C24.9317 16.836 24.9325 15.79 24.9182 15.3796C24.9035 14.9599 24.8942 14.6941 24.8903 14.5821C24.8668 13.9105 24.9049 13.531 25.0046 13.4434C25.1043 13.3559 25.2101 13.3102 25.322 13.3063C25.835 13.2883 26.6479 14.1004 27.7606 15.7426C27.9772 16.0619 28.3929 16.7337 29.0078 17.7582C29.6223 18.7734 29.9897 19.4003 30.1101 19.6389L29.7393 13.8383C29.7112 13.0361 29.7839 12.5759 29.9572 12.4578ZM33.6077 12.2041C33.527 12.3003 33.4261 12.3506 33.3048 12.3548C33.1835 12.359 33.0748 12.3208 32.9786 12.2401C32.8821 12.1501 32.817 12.0263 32.7835 11.8687L32.8226 9.78008C32.8591 9.4893 33.0126 9.33917 33.2831 9.32972C33.6096 9.31831 33.7839 9.62974 33.8061 10.264C33.8116 10.4226 33.8001 10.6285 33.7716 10.8816C33.7524 11.1344 33.7447 11.4476 33.7484 11.821C33.7446 11.9799 33.6977 12.1076 33.6077 12.2041ZM35.7991 12.3517L41.4627 12.0696C41.7361 12.1441 41.8761 12.2747 41.8826 12.4612C41.8989 12.9276 41.7159 13.1675 41.3334 13.1808C40.6339 13.2053 39.893 13.2499 39.1107 13.3146C39.0921 14.1184 39.09 14.7255 39.1044 15.1359C39.1184 15.537 39.1274 15.7935 39.1313 15.9054L39.3589 20.8145C39.369 21.1036 39.3003 21.2741 39.1526 21.326C39.042 21.3672 38.9028 21.3908 38.7349 21.3966C38.4644 21.4061 38.3097 21.2574 38.271 20.9506C38.1899 20.2343 38.1151 18.8968 38.0467 16.938C37.9779 14.9698 37.9645 13.7842 38.0064 13.3812C37.8108 13.3974 37.5219 13.4121 37.1394 13.4255C36.757 13.4389 36.2811 13.4508 35.7118 13.4614C35.5626 13.4666 35.4443 13.4241 35.3571 13.3337C35.2699 13.2434 35.224 13.1329 35.2195 13.0023C35.2146 12.8624 35.2658 12.7252 35.3732 12.5907C35.4899 12.4559 35.6318 12.3762 35.7991 12.3517ZM49.2907 11.8941L50.8428 11.8118C51.533 11.7877 51.8845 11.9575 51.8972 12.3213C51.9018 12.4519 51.8864 12.5458 51.8511 12.6031C51.8154 12.651 51.7887 12.6893 51.771 12.7179C51.7533 12.7466 51.7168 12.7712 51.6615 12.7918C51.5509 12.833 51.4584 12.8596 51.3842 12.8715C51.3099 12.8835 51.2587 12.8899 51.2307 12.8909C51.1288 12.9132 50.9567 12.9332 50.7145 12.951C50.4723 12.9688 50.118 12.9858 49.6517 13.0021C49.1946 13.0181 48.6296 13.0192 47.9567 13.0054L48.0467 15.5798L50.901 15.48C51.0036 15.4764 51.0985 15.5198 51.1857 15.6101C51.2822 15.7002 51.3325 15.8011 51.3364 15.9131C51.3514 16.3421 51.177 16.563 50.8132 16.5757L48.0849 16.6711L48.269 20.3349C48.2856 20.8106 48.1307 21.0542 47.8042 21.0656C47.4871 21.0767 47.293 20.8687 47.2221 20.4416C47.1892 20.3026 47.1291 19.1187 47.0419 16.8897C46.9636 14.6511 46.9093 13.3642 46.8789 13.029C46.5351 13.0784 46.3557 12.8885 46.3407 12.4595C46.3368 12.3475 46.3792 12.2247 46.4679 12.0908C46.5563 11.9476 46.6329 11.8702 46.6979 11.8586C46.7722 11.8467 46.8606 11.8389 46.9633 11.8353C47.0752 11.8314 47.3417 11.8408 47.7627 11.8634C48.343 11.8992 48.8523 11.9094 49.2907 11.8941ZM56.572 11.4014C57.2249 11.3786 57.7872 11.5691 58.259 11.9728C59.1824 12.7437 59.6745 13.9966 59.7352 15.7316C59.7955 17.4572 59.3486 18.8316 58.3944 19.8549C57.8986 20.3672 57.3158 20.6584 56.6458 20.7285C55.7597 20.7595 55.0589 20.4805 54.5433 19.8915C54.0278 19.3024 53.6497 18.6386 53.409 17.8999C53.1774 17.1515 53.0494 16.4275 53.0249 15.728C52.9832 14.534 53.2333 13.54 53.7752 12.7459C54.3432 11.8949 55.2754 11.4467 56.572 11.4014ZM56.5146 12.5661C55.2647 12.6098 54.5066 13.2293 54.2402 14.4247C54.158 14.7451 54.1255 15.1525 54.1428 15.6469C54.1601 16.1412 54.2734 16.7116 54.4828 17.358C54.7653 18.226 55.1599 18.8286 55.6666 19.1658C55.9636 19.3795 56.3173 19.4792 56.7277 19.4649C57.1382 19.4505 57.5002 19.2558 57.814 18.8806C58.1274 18.4961 58.3348 18.0172 58.4362 17.444C58.5376 16.8708 58.5781 16.295 58.5579 15.7167C58.5221 14.6906 58.3451 13.903 58.0271 13.3538C57.7183 12.8042 57.2142 12.5417 56.5146 12.5661ZM61.3997 18.6012L61.3756 17.5093L61.2971 11.6565C61.2931 11.5446 61.3507 11.4538 61.4697 11.3843C61.5886 11.3148 61.7414 11.2767 61.9279 11.2702C62.3757 11.2546 62.6051 11.4053 62.6162 11.7225C62.6197 11.8251 62.5912 12.6105 62.5304 14.0789C62.479 15.5469 62.4584 16.4255 62.4685 16.7147C62.4685 16.7147 62.4858 17.209 62.5203 18.1978C62.5448 18.8973 62.6048 19.2781 62.7003 19.3402C62.8419 19.3819 63.0059 19.3995 63.1925 19.393L65.2024 19.1827C65.6408 19.1673 65.8655 19.3183 65.8766 19.6354C65.8854 19.8872 65.7706 20.078 65.5324 20.2078C65.3031 20.3278 65.0722 20.4013 64.8396 20.4281C64.6068 20.4456 64.3224 20.4602 63.9867 20.4719C62.5222 20.5231 61.7277 20.5042 61.6032 20.4152C61.536 20.3615 61.4913 20.1529 61.4693 19.7895C61.4469 19.4167 61.4284 19.1558 61.4139 19.0069C61.4087 18.8577 61.404 18.7224 61.3997 18.6012ZM67.3051 18.3947L67.2809 17.3029L67.2024 11.4501C67.1985 11.3381 67.256 11.2474 67.375 11.1779C67.494 11.1084 67.6468 11.0703 67.8333 11.0638C68.281 11.0482 68.5105 11.1989 68.5215 11.516C68.5251 11.6186 68.4965 12.4041 68.4358 13.8725C68.3844 15.3405 68.3637 16.2191 68.3738 16.5082C68.3738 16.5082 68.3911 17.0026 68.4257 17.9913C68.4501 18.6909 68.5101 19.0717 68.6057 19.1337C68.7473 19.1755 68.9113 19.1931 69.0979 19.1866L71.1077 18.9762C71.5461 18.9609 71.7709 19.1118 71.782 19.429C71.7908 19.6808 71.676 19.8716 71.4377 20.0013C71.2085 20.1214 70.9776 20.1949 70.745 20.2217C70.5122 20.2392 70.2278 20.2538 69.892 20.2655C68.4276 20.3167 67.6331 20.2978 67.5086 20.2087C67.4413 20.155 67.3967 19.9465 67.3746 19.583C67.3523 19.2102 67.3338 18.9494 67.3193 18.8005C67.3141 18.6512 67.3093 18.516 67.3051 18.3947ZM76.8568 10.6923C77.5098 10.6695 78.0721 10.86 78.5438 11.2638C79.4673 12.0346 79.9594 13.2875 80.02 15.0225C80.0804 16.7481 79.6334 18.1226 78.6793 19.1458C78.1835 19.6581 77.6007 19.9493 76.9307 20.0195C76.0446 20.0504 75.3438 19.7714 74.8282 19.1824C74.3126 18.5934 73.9345 17.9295 73.6939 17.1908C73.4623 16.4424 73.3343 15.7185 73.3098 15.0189C73.2681 13.825 73.5182 12.831 74.0601 12.0369C74.6281 11.1858 75.5603 10.7377 76.8568 10.6923ZM76.7995 11.8571C75.5496 11.9008 74.7914 12.5203 74.525 13.7157C74.4428 14.0361 74.4104 14.4434 74.4277 14.9378C74.4449 15.4322 74.5583 16.0026 74.7677 16.649C75.0501 17.517 75.4448 18.1195 75.9515 18.4567C76.2485 18.6705 76.6022 18.7702 77.0126 18.7558C77.423 18.7415 77.7851 18.5467 78.0989 18.1715C78.4123 17.787 78.6197 17.3081 78.7211 16.7349C78.8224 16.1617 78.863 15.5859 78.8428 15.0076C78.8069 13.9816 78.63 13.1939 78.3119 12.6447C78.0032 12.0952 77.4991 11.8326 76.7995 11.8571ZM89.0937 10.2366C89.2896 10.2297 89.4297 10.3649 89.5141 10.6422C89.4911 11.5862 89.4539 12.2599 89.4026 12.6633C89.351 13.0573 89.3071 13.4044 89.2709 13.7045C89.2441 14.0043 89.2233 14.2105 89.2085 14.3231C89.2031 14.4353 89.1738 14.6652 89.1205 15.0126C89.0673 15.36 89.0094 15.7075 88.9469 16.0553C88.8933 16.3933 88.8583 16.5954 88.842 16.6613C88.8349 16.7269 88.7656 17.1496 88.6341 17.9293C88.5023 18.6997 88.3975 19.175 88.3198 19.3552C88.251 19.5257 88.1187 19.6144 87.9228 19.6212C87.7363 19.6277 87.5851 19.577 87.4692 19.469C87.0196 18.8963 86.5884 18.183 86.1757 17.3289C86.0746 17.1083 85.9588 16.8695 85.8284 16.6126C85.7074 16.3553 85.6166 16.1623 85.556 16.0337L85.4198 15.7443C85.2357 16.0869 84.9851 16.6654 84.668 17.4796C84.3509 18.2939 84.0703 18.9481 83.8261 19.4422C83.6657 19.6626 83.4829 19.7764 83.2776 19.7836C82.8486 19.7986 82.4822 18.6674 82.1784 16.3899C82.1781 16.3806 82.167 16.3296 82.1451 16.237C82.1325 16.144 82.1081 15.9815 82.072 15.7493C82.0452 15.5167 82.0082 15.2612 81.9611 14.9827C81.923 14.6945 81.7652 13.5186 81.4876 11.455C81.4811 11.2685 81.5452 11.0981 81.6799 10.944C81.8142 10.7806 81.9654 10.6959 82.1333 10.69C82.3385 10.6828 82.4831 10.8132 82.5672 11.0811C82.925 14.1038 83.2551 16.3336 83.5575 17.7706C83.6276 17.6374 83.8038 17.2016 84.0861 16.4633C84.3682 15.7157 84.6277 15.1229 84.8645 14.685C85.101 14.2378 85.3359 14.0102 85.5691 14.002C85.7276 13.9965 85.8658 14.0757 85.9836 14.2397C86.6296 15.8888 87.1744 17.0465 87.618 17.7127C87.6237 17.6098 87.6699 17.328 87.7565 16.8674L87.9071 15.9655C87.9051 15.9096 87.9117 15.83 87.9268 15.7267C87.9512 15.6231 87.9664 15.5245 87.9725 15.4309C87.9875 15.3277 88.0029 15.2337 88.0186 15.1491L88.1417 14.2623C88.3173 12.874 88.4176 11.7358 88.4426 10.8477C88.4744 10.6878 88.5536 10.5496 88.6803 10.4332C88.816 10.307 88.9538 10.2415 89.0937 10.2366ZM1.80037 38.5554L7.46398 38.2734C7.73741 38.3478 7.87739 38.4784 7.88391 38.6649C7.90022 39.1313 7.71715 39.3712 7.33472 39.3845C6.63515 39.409 5.89425 39.4536 5.11203 39.5183C5.09344 40.3221 5.09131 40.9292 5.10566 41.3396C5.11968 41.7407 5.12864 41.9972 5.13255 42.1091L5.36019 47.0182C5.37029 47.3073 5.30154 47.4778 5.15393 47.5297C5.0433 47.5709 4.90404 47.5945 4.73614 47.6003C4.46564 47.6098 4.31102 47.4611 4.27228 47.1543C4.1912 46.438 4.11643 45.1005 4.04796 43.1417C3.97917 41.1735 3.96574 39.9879 4.00769 39.5849C3.81213 39.6011 3.52314 39.6158 3.1407 39.6292C2.75827 39.6426 2.2824 39.6545 1.71309 39.6651C1.56385 39.6703 1.44562 39.6278 1.35841 39.5374C1.2712 39.4471 1.22531 39.3366 1.22075 39.206C1.21586 39.0661 1.2671 38.9289 1.37446 38.7944C1.49116 38.6596 1.63313 38.5799 1.80037 38.5554ZM10.3905 46.7443C10.3964 46.9122 10.3271 47.0687 10.1828 47.2138C10.0381 47.3496 9.87716 47.4206 9.69994 47.4268C9.53204 47.4327 9.41153 47.3248 9.33841 47.1033C9.26739 45.873 9.21053 44.6469 9.16781 43.425L9.00259 39.9006C8.97781 39.1917 9.27333 38.6957 9.88916 38.4127C10.3847 38.1619 10.9776 38.0245 11.6678 38.0003C12.0223 37.9879 12.4032 38.0633 12.8104 38.2265C13.2267 38.3801 13.5993 38.6192 13.9282 38.9439C14.2661 39.259 14.4418 39.6124 14.4555 40.0042C14.4689 40.3866 14.3062 40.8079 13.9674 41.268C13.6283 41.7188 13.2036 42.1259 12.6933 42.4892C12.1827 42.8433 11.6831 43.1129 11.1946 43.2981C12.0833 43.8741 12.8616 44.5006 13.5297 45.1777C14.1974 45.8454 14.538 46.3705 14.5514 46.7529C14.5556 46.8742 14.499 46.9929 14.3817 47.1091C14.264 47.2159 14.1166 47.2724 13.9393 47.2786C13.7715 47.2845 13.6243 47.2149 13.4978 47.0699C13.2753 46.5827 12.8654 46.0788 12.2682 45.558C11.68 45.0275 10.9948 44.5285 10.2127 44.0609L10.3905 46.7443ZM10.1878 42.5488C10.8118 42.499 11.5022 42.2133 12.2592 41.6919C13.0254 41.1702 13.4017 40.7134 13.388 40.3217C13.374 39.9206 13.1673 39.6196 12.7681 39.4188C12.3688 39.2179 11.8987 39.127 11.3577 39.1459C10.826 39.1644 10.4039 39.2446 10.0913 39.3862C10.0986 39.8623 10.1308 40.9165 10.1878 42.5488ZM16.401 42.3176C16.2674 42.2382 16.1979 42.1193 16.1924 41.9607C16.1868 41.8021 16.2331 41.6557 16.3311 41.5216C16.2612 40.5901 16.2081 39.6067 16.172 38.5713C16.2201 38.3455 16.2983 38.1793 16.4067 38.0728C16.5244 37.966 16.6946 37.8947 16.9175 37.8588C18.1507 37.8718 19.4856 37.8531 20.922 37.8029C21.2791 37.8652 21.4617 38.0129 21.4698 38.2461C21.4835 38.6378 21.1091 38.8797 20.3465 38.9717C20.1416 38.9882 19.9179 39.0007 19.6754 39.0092L18.7659 39.041C18.5887 39.0472 18.0977 39.027 17.2929 38.9804C17.3337 40.1464 17.3804 40.9479 17.433 41.385C17.9277 41.377 18.8793 41.3484 20.2878 41.2992C20.6258 41.3528 20.7991 41.5008 20.8076 41.7433C20.8157 41.9765 20.6869 42.1631 20.4209 42.3032C20.3936 42.3228 20.3429 42.3433 20.269 42.3645L17.847 42.4072C17.6977 42.4124 17.5768 42.4259 17.4842 42.4479L17.6243 44.8524C17.6432 45.3934 17.6427 45.781 17.6229 46.0152L20.8674 45.8597C21.1675 45.896 21.3212 46.0167 21.3284 46.2219C21.3333 46.3618 21.2729 46.504 21.1472 46.6485C21.0308 46.7926 20.8893 46.8863 20.7227 46.9295L17.1429 47.1106C16.9283 47.1181 16.7778 47.086 16.6912 47.0143C16.6043 46.9333 16.5576 46.7995 16.5511 46.613C16.5793 46.3505 16.5833 45.9301 16.5631 45.3518L16.5288 44.3724L16.401 42.3176ZM28.2864 37.5315C28.3777 37.4723 28.498 37.44 28.6472 37.4348C28.7965 37.4296 28.934 37.4902 29.0598 37.6165C29.1853 37.7335 29.251 37.876 29.2569 38.0439C29.3844 41.691 29.4755 43.8965 29.5302 44.6604C29.5939 45.4146 29.6261 45.8011 29.6267 45.8197C29.6339 46.0249 29.5848 46.2228 29.4794 46.4132C29.3736 46.5944 29.2508 46.6874 29.1109 46.6923C28.9803 46.6968 28.8776 46.6958 28.8026 46.689C28.7367 46.6727 28.6754 46.6561 28.6188 46.6394C28.5621 46.6227 28.5049 46.5874 28.447 46.5334L28.3021 46.3984C28.2635 46.3623 28.2098 46.2942 28.1409 46.1939C28.081 46.0839 28.0313 45.9969 27.9917 45.9329C27.9521 45.8689 27.8876 45.7591 27.7981 45.6035C27.7176 45.4382 27.5333 45.1084 27.2452 44.6142C26.9664 44.1196 26.7127 43.6755 26.4842 43.282C25.7 41.9552 24.9771 40.9112 24.3154 40.1498C24.4214 43.1813 24.411 45.2876 24.2842 46.4688C24.264 46.6936 24.0953 46.8116 23.7782 46.8226C23.629 46.8279 23.5017 46.795 23.3965 46.7239C23.3006 46.6526 23.2498 46.5329 23.2439 46.365C23.238 46.1971 23.2384 45.2726 23.245 43.5913C23.2609 41.9097 23.2617 40.8637 23.2474 40.4533C23.2327 40.0336 23.2234 39.7677 23.2195 39.6558C23.196 38.9842 23.2341 38.6046 23.3338 38.5171C23.4335 38.4296 23.5393 38.3838 23.6512 38.3799C24.1642 38.362 24.9771 39.1741 26.0898 40.8162C26.3064 41.1355 26.7221 41.8074 27.337 42.8319C27.9515 43.847 28.3189 44.4739 28.4393 44.7125L28.0685 38.9119C28.0404 38.1098 28.1131 37.6496 28.2864 37.5315ZM31.6449 46.1554C31.5014 46.0577 31.4275 45.9482 31.4233 45.827C31.4187 45.6964 31.4662 45.5873 31.5659 45.4998C31.3421 44.1721 31.2 42.6455 31.1397 40.9199C31.1214 40.3975 31.1092 39.38 31.103 37.8673C31.1448 37.7258 31.2338 37.6012 31.3701 37.4937C31.5158 37.3859 31.6539 37.3297 31.7845 37.3252C31.9151 37.3206 31.9945 37.3225 32.0228 37.3308C33.3697 37.6573 34.5563 38.3396 35.5825 39.3777C36.6084 40.4065 37.1708 41.6663 37.2696 43.1571C37.3269 44.7988 36.6821 45.8533 35.3349 46.3206C34.9474 46.4556 34.5344 46.5307 34.096 46.546C33.6669 46.561 33.288 46.5416 32.9593 46.4877C32.9992 46.561 33.0213 46.6583 33.0255 46.7796C33.0301 46.9102 32.955 47.0342 32.8004 47.1517C32.6554 47.2781 32.4756 47.3451 32.2611 47.3526C32.0559 47.3598 31.9209 47.2384 31.8561 46.9886L31.6449 46.1554ZM32.297 40.7674C32.3541 42.3997 32.5015 43.9448 32.7392 45.4027C32.9654 45.4602 33.3443 45.4796 33.876 45.4611C34.4077 45.4425 34.9129 45.3361 35.3918 45.1419C35.8799 44.9474 36.132 44.6771 36.1479 44.331C36.1667 44.0689 36.1737 43.8678 36.1688 43.7279C36.1264 42.5153 35.7625 41.454 35.0769 40.5441C34.4007 39.6338 33.4712 38.9566 32.2883 38.5123C32.2801 39.6146 32.283 40.3663 32.297 40.7674ZM41.573 36.983C42.1793 36.9618 42.6959 37.0465 43.1229 37.237C43.5591 37.4272 43.7828 37.6809 43.7938 37.998C43.7987 38.138 43.7657 38.2605 43.6946 38.3657C43.6329 38.4706 43.5321 38.5255 43.3922 38.5304C43.2616 38.535 42.9689 38.4425 42.514 38.2529C42.0587 38.054 41.6446 37.9611 41.2715 37.9741C40.9077 37.9869 40.534 38.1167 40.1504 38.3635C39.7668 38.6104 39.5808 38.9018 39.5926 39.2376C39.6086 39.6946 39.8582 40.0221 40.3414 40.22C40.7014 40.3662 41.2148 40.493 41.8816 40.6004C42.5481 40.6985 43.0981 40.9361 43.5315 41.3132C43.9646 41.681 44.1949 42.2566 44.2223 43.0401C44.264 44.2341 43.9357 45.1281 43.2373 45.7222C42.8473 46.0534 42.2839 46.2318 41.547 46.2576C40.8195 46.283 40.0849 46.1079 39.3433 45.7322C38.8588 45.497 38.6121 45.2535 38.6033 45.0016C38.6001 44.9084 38.6338 44.8045 38.7045 44.6899C38.7846 44.575 38.8932 44.4779 39.0305 44.3983C39.1678 44.3188 39.2934 44.3051 39.4073 44.3572C39.5302 44.3996 39.7245 44.4815 39.9903 44.6029C40.256 44.7244 40.4503 44.8063 40.5732 44.8487C40.9702 44.9843 41.3412 45.046 41.6864 45.034C42.0315 45.0219 42.3567 44.8424 42.6621 44.4955C42.9765 44.139 43.1251 43.7136 43.1078 43.2192C43.085 42.5663 42.7426 42.1206 42.0805 41.8823C41.7588 41.7628 41.3963 41.6774 40.9929 41.6261C40.1575 41.5059 39.5239 41.2805 39.0921 40.9501C38.66 40.6103 38.4315 40.086 38.4067 39.3771C38.382 38.6682 38.6657 38.1026 39.258 37.6803C39.8499 37.2487 40.6216 37.0163 41.573 36.983ZM46.7349 44.3952C46.9401 44.388 47.1199 44.4565 47.2744 44.6005C47.4289 44.7445 47.5246 44.9466 47.5618 45.2068C47.5689 45.412 47.501 45.6058 47.358 45.7883C47.2146 45.9614 47.0403 46.0515 46.8351 46.0587C46.6392 46.0656 46.4602 46.0205 46.298 45.9234C46.1355 45.817 46.0504 45.6519 46.0426 45.428C46.0347 45.2042 46.0969 44.9778 46.229 44.7491C46.3704 44.52 46.539 44.402 46.7349 44.3952ZM53.9867 36.9133C54.1326 36.8148 54.2989 36.7623 54.4855 36.7558C54.672 36.7493 54.7924 36.8524 54.8465 37.0654C54.8936 38.147 54.9689 39.7647 55.0722 41.9184C55.1181 43.2336 55.1198 44.3496 55.0771 45.2663C55.0634 45.4069 54.9792 45.5359 54.8245 45.6534C54.6788 45.7612 54.5267 45.8179 54.3682 45.8234C54.107 45.8325 53.9717 45.7019 53.9622 45.4314C54.0229 44.4953 54.0291 43.3371 53.9808 41.9566L53.7326 37.2584C53.7653 37.1265 53.85 37.0115 53.9867 36.9133ZM63.5985 45.4587L61.7922 45.4799C61.6759 45.0917 61.5536 43.3309 61.4254 40.1974L61.3907 39.204C61.363 38.4112 61.4166 37.807 61.5515 37.3913C61.686 36.9664 61.9868 36.6196 62.4537 36.3512C62.692 36.2214 63.0256 36.1491 63.4547 36.1341C63.8931 36.1187 64.2299 36.135 64.465 36.1828C65.0945 36.2915 65.5274 36.5192 65.7637 36.8659C66.0093 37.2122 66.1425 37.6838 66.1633 38.2808C66.1924 39.1109 65.9945 39.7295 65.5698 40.1366C65.7947 40.1568 66.0224 40.2609 66.2531 40.4489C66.4839 40.637 66.6728 40.8312 66.8198 41.0315C67.0754 41.3961 67.2144 41.9002 67.2369 42.5439C67.2721 43.5512 66.9894 44.2802 66.3888 44.7308C65.7972 45.1718 64.8671 45.4144 63.5985 45.4587ZM62.4929 38.6752L62.5766 40.2693C62.5953 40.2686 62.7532 40.2444 63.0504 40.1967C63.3472 40.1396 63.5974 40.0842 63.801 40.0303C64.7353 39.7736 65.1876 39.2207 65.1579 38.3719C65.1432 37.9522 65.0066 37.6488 64.7479 37.4617C64.4985 37.2743 64.1733 37.1876 63.7722 37.2016C63.2685 37.2192 62.9311 37.3197 62.7601 37.5032C62.6881 37.5804 62.6297 37.6478 62.5851 37.7054C62.5401 37.7537 62.5102 37.8341 62.4954 37.9467C62.4807 38.0593 62.4695 38.139 62.4618 38.186C62.4634 38.2326 62.4665 38.3213 62.4711 38.4518C62.485 38.5821 62.4922 38.6566 62.4929 38.6752ZM65.7451 41.5454C65.6483 41.446 65.5004 41.3578 65.3016 41.2807C65.1028 41.2036 64.8168 41.1716 64.4437 41.1846C64.08 41.1973 63.4571 41.2798 62.5752 41.432C62.6261 42.8871 62.6838 43.8704 62.7484 44.3818C63.8397 44.3436 64.6022 44.2469 65.0357 44.0917C65.4688 43.9271 65.7565 43.7396 65.8985 43.5292C66.0496 43.3091 66.1211 43.0825 66.1129 42.8493C66.1044 42.6068 66.0939 42.4391 66.0813 42.3461C66.0777 42.2435 66.045 42.1092 65.9832 41.9433C65.9304 41.7677 65.851 41.635 65.7451 41.5454ZM74.3606 36.005C74.4859 35.8512 74.6279 35.7715 74.7865 35.766C74.945 35.7604 75.0831 35.835 75.2005 35.9897C75.3875 36.7956 75.4985 37.7023 75.5338 38.7097L75.5709 39.773C75.599 40.5752 75.6016 41.0514 75.5788 41.2016C75.5557 41.3425 75.5333 41.5021 75.5115 41.6803C75.4897 41.8585 75.4665 41.9947 75.4417 42.0889C75.4264 42.1829 75.3981 42.3099 75.357 42.4701C75.2665 42.8189 75.1327 43.1317 74.9556 43.4087C74.694 43.9409 74.3399 44.3642 73.8933 44.6786C73.4466 44.9931 72.9855 45.1586 72.5098 45.1753C72.0434 45.1916 71.5512 45.0033 71.0331 44.6105C70.5244 44.2174 70.1007 43.7185 69.7621 43.114C69.2438 42.1795 68.963 41.092 68.9196 39.8514C68.9043 39.413 68.9332 38.3707 69.0064 36.7245C69.0665 36.573 69.1599 36.439 69.2865 36.3225C69.4222 36.1963 69.56 36.1308 69.6999 36.1259C69.9051 36.1187 70.036 36.2542 70.0924 36.5324C70.0182 38.1507 69.9886 39.1743 70.0036 39.6034C70.0395 40.6294 70.2718 41.5319 70.7006 42.3107C70.9707 42.8243 71.2938 43.2519 71.67 43.5936C72.0552 43.9257 72.425 44.0856 72.7794 44.0732C73.3671 44.0526 73.8548 43.578 74.2426 42.6492C74.4087 42.3258 74.4889 41.8141 74.4831 41.1138C74.4766 40.9273 74.4813 40.7964 74.4974 40.7211L74.4608 38.8733C74.4308 38.0151 74.3381 37.2339 74.1828 36.5295C74.1759 36.3337 74.2352 36.1588 74.3606 36.005ZM78.0864 36.0709C78.2324 35.9724 78.3986 35.9199 78.5852 35.9134C78.7718 35.9068 78.8921 36.01 78.9462 36.2229C78.9934 37.3046 79.0686 38.9223 79.1719 41.076C79.2179 42.3912 79.2195 43.5072 79.1769 44.4239C79.1631 44.5645 79.0789 44.6935 78.9242 44.811C78.7786 44.9188 78.6265 44.9755 78.4679 44.981C78.2067 44.9901 78.0714 44.8594 78.062 44.5889C78.1226 43.6529 78.1288 42.4947 78.0806 41.1142L77.8323 36.416C77.865 36.2841 77.9497 36.1691 78.0864 36.0709ZM81.3146 42.9203L81.2904 41.8285L81.2119 35.9756C81.208 35.8637 81.2655 35.773 81.3845 35.7034C81.5035 35.6339 81.6562 35.5959 81.8428 35.5894C82.2905 35.5737 82.5199 35.7245 82.531 36.0416C82.5346 36.1442 82.506 36.9297 82.4453 38.398C82.3939 39.8661 82.3732 40.7447 82.3833 41.0338C82.3833 41.0338 82.4006 41.5282 82.4352 42.5169C82.4596 43.2165 82.5196 43.5973 82.6152 43.6593C82.7567 43.7011 82.9208 43.7187 83.1073 43.7122L85.1172 43.5018C85.5556 43.4865 85.7803 43.6374 85.7914 43.9545C85.8002 44.2064 85.6855 44.3972 85.4472 44.5269C85.2179 44.647 84.987 44.7204 84.7545 44.7472C84.5216 44.7647 84.2373 44.7793 83.9015 44.7911C82.4371 44.8423 81.6426 44.8233 81.5181 44.7343C81.4508 44.6806 81.4062 44.472 81.3841 44.1086C81.3617 43.7358 81.3433 43.475 81.3287 43.326C81.3235 43.1768 81.3188 43.0416 81.3146 42.9203ZM87.72 44.1953C87.5765 44.0976 87.5026 43.9881 87.4984 43.8668C87.4938 43.7363 87.5414 43.6272 87.6411 43.5397C87.4172 42.212 87.2751 40.6854 87.2148 38.9598C87.1965 38.4374 87.1843 37.4199 87.1781 35.9072C87.2199 35.7656 87.3089 35.6411 87.4452 35.5336C87.5909 35.4258 87.729 35.3696 87.8596 35.365C87.9902 35.3605 88.0696 35.3624 88.098 35.3707C89.4449 35.6972 90.6314 36.3795 91.6576 37.4176C92.6835 38.4464 93.2459 39.7062 93.3447 41.197C93.4021 42.8386 92.7572 43.8932 91.41 44.3605C91.0225 44.4955 90.6095 44.5706 90.1711 44.5859C89.7421 44.6009 89.3632 44.5815 89.0344 44.5276C89.0743 44.6009 89.0964 44.6982 89.1007 44.8195C89.1052 44.95 89.0302 45.0741 88.8755 45.1915C88.7305 45.318 88.5507 45.385 88.3362 45.3925C88.131 45.3997 87.996 45.2783 87.9312 45.0284L87.72 44.1953ZM88.3722 38.8072C88.4292 40.4396 88.5766 41.9847 88.8144 43.4426C89.0405 43.5001 89.4194 43.5195 89.9511 43.5009C90.4828 43.4824 90.988 43.376 91.4669 43.1818C91.9551 42.9873 92.2071 42.717 92.223 42.3709C92.2419 42.1087 92.2489 41.9077 92.244 41.7678C92.2016 40.5552 91.8376 39.4939 91.1521 38.584C90.4759 37.6737 89.5463 36.9964 88.3634 36.5522C88.3552 37.6545 88.3582 38.4061 88.3722 38.8072ZM105.893 34.6646C106.089 34.6578 106.229 34.793 106.314 35.0702C106.291 36.0142 106.253 36.6879 106.202 37.0913C106.151 37.4854 106.107 37.8324 106.07 38.1326C106.044 38.4323 106.023 38.6385 106.008 38.7511C106.003 38.8634 105.973 39.0932 105.92 39.4406C105.867 39.788 105.809 40.1356 105.746 40.4833C105.693 40.8214 105.658 41.0234 105.642 41.0893C105.634 41.155 105.565 41.5776 105.434 42.3574C105.302 43.1278 105.197 43.6031 105.119 43.7832C105.051 43.9537 104.918 44.0424 104.722 44.0493C104.536 44.0558 104.385 44.005 104.269 43.897C103.819 43.3244 103.388 42.611 102.975 41.7569C102.874 41.5363 102.758 41.2975 102.628 41.0406C102.507 40.7833 102.416 40.5904 102.356 40.4617L102.219 40.1723C102.035 40.515 101.785 41.0934 101.468 41.9077C101.15 42.7219 100.87 43.3761 100.626 43.8703C100.465 44.0907 100.282 44.2045 100.077 44.2116C99.6481 44.2266 99.2817 43.0954 98.978 40.818C98.9777 40.8086 98.9665 40.7577 98.9446 40.665C98.932 40.5721 98.9077 40.4095 98.8715 40.1773C98.8447 39.9447 98.8078 39.6892 98.7607 39.4107C98.7226 39.1225 98.5648 37.9466 98.2872 35.8831C98.2806 35.6965 98.3447 35.5262 98.4794 35.3721C98.6138 35.2086 98.7649 35.1239 98.9328 35.1181C99.138 35.1109 99.2827 35.2412 99.3668 35.5091C99.7246 38.5318 100.055 40.7616 100.357 42.1986C100.427 42.0654 100.603 41.6297 100.886 40.8914C101.168 40.1437 101.427 39.551 101.664 39.1131C101.901 38.6659 102.135 38.4382 102.369 38.4301C102.527 38.4245 102.665 38.5037 102.783 38.6677C103.429 40.3168 103.974 41.4745 104.418 42.1407C104.423 42.0378 104.469 41.756 104.556 41.2954L104.707 40.3936C104.705 40.3376 104.711 40.258 104.726 40.1547C104.751 40.0512 104.766 39.9526 104.772 39.859C104.787 39.7557 104.802 39.6618 104.818 39.5772L104.941 38.6903C105.117 37.302 105.217 36.1638 105.242 35.2757C105.274 35.1159 105.353 34.9777 105.48 34.8612C105.616 34.735 105.753 34.6695 105.893 34.6646ZM109.155 38.529C109.887 38.6249 110.556 38.6622 111.162 38.641C111.769 38.6198 112.156 38.6016 112.323 38.5864C112.28 37.8782 112.247 37.1976 112.224 36.5446C112.201 35.8917 112.185 35.4486 112.177 35.2154C112.169 34.9822 112.173 34.8373 112.19 34.7807C112.206 34.7148 112.265 34.652 112.366 34.5925C112.466 34.5329 112.615 34.4997 112.81 34.4929C113.09 34.4831 113.236 34.6461 113.248 34.9819L113.421 39.9349C113.457 40.9609 113.473 42.0904 113.469 43.3233C113.469 43.5941 113.246 43.7373 112.798 43.753C112.574 43.7608 112.457 43.6295 112.448 43.359L112.374 39.6493C112.076 39.6783 111.666 39.702 111.144 39.7203C110.631 39.7382 109.981 39.7049 109.193 39.6204C109.236 40.8516 109.337 42.1369 109.496 43.4761C109.511 43.6251 109.45 43.7439 109.313 43.8328C109.175 43.9123 108.999 43.9558 108.785 43.9633C108.58 43.9705 108.464 43.8671 108.438 43.6532C108.27 42.3329 108.164 41.0292 108.119 39.742L108.05 35.3737C108.044 35.1872 108.109 35.0495 108.246 34.9606C108.383 34.8624 108.53 34.8106 108.689 34.8051C108.95 34.7959 109.085 34.9173 109.094 35.1691L109.155 38.529ZM118.042 34.352C118.275 34.3439 118.474 34.4397 118.64 34.6393C118.806 34.839 119.026 35.2562 119.3 35.891C119.941 37.3909 120.598 39.754 121.271 42.9805C121.282 43.0175 121.288 43.0733 121.291 43.1479C121.293 43.2132 121.249 43.2895 121.159 43.3767C121.077 43.4542 120.953 43.4959 120.785 43.5018C120.626 43.5073 120.49 43.4748 120.375 43.4041C120.26 43.324 120.181 43.196 120.138 43.0201C120.094 42.8349 120.011 42.4782 119.89 41.9501C119.625 40.7733 119.454 40.1629 119.378 40.1189C119.264 40.0575 118.888 40.0006 118.251 39.9481C117.624 39.8954 117.207 39.8726 117.002 39.8797C116.797 39.8869 116.676 39.9098 116.64 39.9484C116.477 40.1035 116.289 41.2448 116.073 43.3723C116.042 43.5508 115.868 43.6456 115.551 43.6567C115.234 43.6678 115.071 43.5381 115.061 43.2676C115.038 42.596 115.24 41.3048 115.668 39.394C116.096 37.4832 116.463 36.2143 116.768 35.5873C117.151 34.7801 117.575 34.3684 118.042 34.352ZM118.04 35.9071C117.9 35.9119 117.672 36.3355 117.356 37.1777C117.039 38.0106 116.885 38.525 116.891 38.7209C116.893 38.7675 116.904 38.7999 116.923 38.8179C117 38.8899 117.296 38.9449 117.811 38.9829C118.326 39.021 118.668 39.037 118.835 39.0312C119.003 39.0253 119.096 39.0127 119.114 38.9934C119.132 38.9648 119.139 38.8898 119.134 38.7686C119.13 38.638 118.986 38.1294 118.703 37.2427C118.419 36.3467 118.198 35.9015 118.04 35.9071ZM122.57 34.3339L128.233 34.0518C128.507 34.1263 128.647 34.2568 128.653 34.4434C128.669 34.9098 128.486 35.1497 128.104 35.163C127.404 35.1875 126.663 35.2321 125.881 35.2968C125.863 36.1006 125.861 36.7077 125.875 37.1181C125.889 37.5192 125.898 37.7757 125.902 37.8876L126.129 42.7967C126.14 43.0858 126.071 43.2563 125.923 43.3082C125.813 43.3494 125.673 43.3729 125.505 43.3788C125.235 43.3883 125.08 43.2396 125.041 42.9327C124.96 42.2165 124.886 40.8789 124.817 38.9201C124.748 36.952 124.735 35.7664 124.777 35.3634C124.581 35.3795 124.292 35.3943 123.91 35.4077C123.527 35.4211 123.052 35.433 122.482 35.4436C122.333 35.4488 122.215 35.4062 122.128 35.3159C122.04 35.2256 121.995 35.1151 121.99 34.9845C121.985 34.8446 122.036 34.7074 122.144 34.5729C122.26 34.4381 122.402 34.3584 122.57 34.3339ZM5.14484 72.5173L3.33847 72.5384C3.22217 72.1502 3.09992 70.3894 2.97171 67.256L2.93699 66.2626C2.90927 65.4697 2.96287 64.8655 3.09776 64.4499C3.23233 64.0249 3.53307 63.6782 3.99998 63.4097C4.23826 63.28 4.57193 63.2076 5.001 63.1926C5.4394 63.1773 5.77617 63.1935 6.01132 63.2413C6.64084 63.3501 7.07372 63.5778 7.30998 63.9244C7.55556 64.2707 7.68878 64.7423 7.70965 65.3393C7.73867 66.1694 7.54082 66.7881 7.11612 67.1952C7.34096 67.2153 7.56874 67.3194 7.79945 67.5075C8.03016 67.6955 8.21906 67.8897 8.36614 68.09C8.6217 68.4547 8.76073 68.9588 8.78323 69.6024C8.81844 70.6098 8.53574 71.3388 7.93511 71.7894C7.34349 72.2303 6.4134 72.4729 5.14484 72.5173ZM4.03919 65.7338L4.12293 67.3278C4.14158 67.3271 4.2995 67.303 4.59668 67.2552C4.89353 67.1981 5.14375 67.1427 5.34733 67.0889C6.28159 66.8321 6.73389 66.2793 6.70422 65.4305C6.68955 65.0107 6.55286 64.7073 6.29417 64.5202C6.04481 64.3328 5.71958 64.2461 5.31849 64.2602C4.8148 64.2778 4.47744 64.3783 4.30641 64.5617C4.23439 64.6389 4.17605 64.7063 4.13136 64.7639C4.08636 64.8122 4.05648 64.8926 4.04174 65.0052C4.027 65.1178 4.01578 65.1976 4.00808 65.2445C4.00971 65.2912 4.01281 65.3798 4.01737 65.5104C4.03126 65.6406 4.03854 65.7151 4.03919 65.7338ZM7.29144 68.6039C7.19458 68.5045 7.04674 68.4163 6.84792 68.3392C6.64911 68.2621 6.36315 68.2301 5.99004 68.2431C5.62626 68.2559 5.00343 68.3383 4.12154 68.4906C4.17241 69.9457 4.23013 70.9289 4.2947 71.4403C5.38603 71.4022 6.14845 71.3055 6.58196 71.1502C7.01514 70.9857 7.30277 70.7982 7.44484 70.5877C7.59591 70.3677 7.66737 70.141 7.65921 69.9078C7.65074 69.6653 7.6402 69.4976 7.62762 69.4046C7.62403 69.302 7.59132 69.1678 7.52948 69.0018C7.47665 68.8262 7.3973 68.6936 7.29144 68.6039ZM11.8104 71.7099C11.8163 71.8778 11.747 72.0343 11.6027 72.1795C11.458 72.3153 11.2971 72.3863 11.1198 72.3925C10.9519 72.3983 10.8314 72.2905 10.7583 72.0689C10.6873 70.8386 10.6304 69.6125 10.5877 68.3906L10.4225 64.8662C10.3977 64.1573 10.6932 63.6614 11.309 63.3784C11.8046 63.1276 12.3975 62.9901 13.0877 62.966C13.4422 62.9536 13.823 63.029 14.2303 63.1922C14.6466 63.3457 15.0192 63.5849 15.3481 63.9096C15.6859 64.2246 15.8617 64.578 15.8754 64.9698C15.8888 65.3522 15.7261 65.7735 15.3873 66.2336C15.0482 66.6844 14.6234 67.0915 14.1132 67.4549C13.6026 67.8089 13.103 68.0786 12.6145 68.2637C13.5032 68.8397 14.2815 69.4662 14.9496 70.1433C15.6173 70.811 15.9579 71.3361 15.9712 71.7186C15.9755 71.8398 15.9189 71.9585 15.8016 72.0747C15.6839 72.1816 15.5365 72.2381 15.3592 72.2443C15.1913 72.2501 15.0442 72.1806 14.9177 72.0356C14.6952 71.5484 14.2853 71.0444 13.6881 70.5236C13.0999 69.9932 12.4147 69.4941 11.6326 69.0265L11.8104 71.7099ZM11.6077 67.5144C12.2317 67.4646 12.9221 67.179 13.679 66.6576C14.4453 66.1358 14.8216 65.679 14.8079 65.2873C14.7938 64.8862 14.5872 64.5852 14.1879 64.3844C13.7887 64.1836 13.3186 64.0926 12.7776 64.1115C12.2459 64.1301 11.8238 64.2102 11.5112 64.3519C11.5185 64.8279 11.5507 65.8821 11.6077 67.5144ZM20.5211 62.7762C20.7542 62.768 20.9537 62.8638 21.1195 63.0634C21.2852 63.2631 21.5052 63.6803 21.7796 64.3151C22.4204 65.815 23.0773 68.1782 23.7505 71.4046C23.7611 71.4416 23.7677 71.4974 23.7703 71.572C23.7726 71.6373 23.7286 71.7136 23.6382 71.8008C23.5569 71.8783 23.4323 71.9201 23.2644 71.9259C23.1058 71.9315 22.9692 71.8989 22.8547 71.8282C22.7398 71.7481 22.6606 71.6202 22.6171 71.4442C22.5733 71.259 22.4908 70.9023 22.3696 70.3742C22.1043 69.1974 21.9336 68.587 21.8573 68.543C21.7431 68.4816 21.3676 68.4247 20.7307 68.3723C20.1031 68.3195 19.6867 68.2967 19.4815 68.3039C19.2763 68.311 19.1557 68.3339 19.1197 68.3725C18.957 68.5277 18.7681 69.669 18.553 71.7964C18.5218 71.975 18.3477 72.0698 18.0306 72.0809C17.7134 72.0919 17.5501 71.9622 17.5407 71.6917C17.5172 71.0201 17.7196 69.7289 18.1477 67.8182C18.5759 65.9074 18.9425 64.6385 19.2474 64.0114C19.6301 63.2042 20.0547 62.7925 20.5211 62.7762ZM20.5194 64.3312C20.3795 64.3361 20.1515 64.7596 19.8353 65.6019C19.5189 66.4347 19.3641 66.9491 19.371 67.145C19.3726 67.1917 19.3831 67.224 19.4024 67.242C19.4796 67.314 19.7757 67.369 20.2907 67.407C20.8057 67.4451 21.1471 67.4612 21.315 67.4553C21.4829 67.4494 21.5758 67.4368 21.5938 67.4175C21.6115 67.3889 21.6182 67.3139 21.614 67.1927C21.6094 67.0621 21.4656 66.5535 21.1824 65.6668C20.899 64.7709 20.6779 64.3256 20.5194 64.3312ZM30.3485 62.4747C30.4398 62.4155 30.5601 62.3832 30.7093 62.378C30.8585 62.3728 30.9961 62.4334 31.1219 62.5597C31.2474 62.6767 31.3131 62.8192 31.319 62.9871C31.4464 66.6342 31.5375 68.8397 31.5923 69.6036C31.656 70.3578 31.6882 70.7443 31.6888 70.7629C31.696 70.9681 31.6469 71.166 31.5415 71.3564C31.4357 71.5376 31.3129 71.6306 31.173 71.6355C31.0424 71.64 30.9396 71.639 30.8647 71.6322C30.7987 71.6159 30.7375 71.5993 30.6808 71.5826C30.6242 71.5659 30.5669 71.5306 30.509 71.4766L30.3642 71.3415C30.3256 71.3055 30.2719 71.2374 30.203 71.137C30.1431 71.0271 30.0934 70.9401 30.0538 70.8761C30.0142 70.8121 29.9496 70.7023 29.8601 70.5467C29.7797 70.3814 29.5954 70.0516 29.3072 69.5574C29.0285 69.0628 28.7748 68.6187 28.5462 68.2251C27.7621 66.8984 27.0392 65.8543 26.3775 65.093C26.4835 68.1245 26.473 70.2308 26.3462 71.4119C26.3261 71.6368 26.1574 71.7548 25.8403 71.7658C25.691 71.7711 25.5638 71.7381 25.4586 71.6671C25.3627 71.5958 25.3118 71.4761 25.306 71.3082C25.3001 71.1403 25.3005 70.2157 25.3071 68.5345C25.323 66.8529 25.3238 65.8069 25.3095 65.3965C25.2948 64.9768 25.2855 64.7109 25.2816 64.599C25.2581 63.9274 25.2962 63.5478 25.3959 63.4603C25.4955 63.3728 25.6013 63.327 25.7133 63.3231C26.2263 63.3052 27.0392 64.1173 28.1519 65.7594C28.3685 66.0787 28.7842 66.7506 29.399 67.7751C30.0135 68.7902 30.381 69.4171 30.5014 69.6557L30.1305 63.8551C30.1025 63.053 30.1751 62.5928 30.3485 62.4747ZM33.7069 71.0986C33.5634 71.0009 33.4896 70.8914 33.4853 70.7702C33.4808 70.6396 33.5283 70.5305 33.628 70.443C33.4041 69.1153 33.2621 67.5887 33.2017 65.8631C33.1835 65.3407 33.1713 64.3232 33.1651 62.8105C33.2068 62.6689 33.2959 62.5444 33.4322 62.4369C33.5778 62.3291 33.716 62.2729 33.8466 62.2683C33.9771 62.2638 34.0566 62.2657 34.0849 62.274C35.4318 62.6005 36.6184 63.2828 37.6446 64.3209C38.6705 65.3497 39.2328 66.6095 39.3316 68.1003C39.389 69.742 38.7441 70.7965 37.397 71.2638C37.0094 71.3988 36.5965 71.4739 36.1581 71.4892C35.729 71.5042 35.3501 71.4848 35.0214 71.4309C35.0613 71.5042 35.0834 71.6015 35.0876 71.7228C35.0922 71.8534 35.0171 71.9774 34.8625 72.0949C34.7175 72.2213 34.5377 72.2883 34.3231 72.2958C34.1179 72.303 33.9829 72.1816 33.9182 71.9317L33.7069 71.0986ZM34.3591 65.7105C34.4162 67.3429 34.5636 68.888 34.8013 70.3459C35.0275 70.4034 35.4064 70.4228 35.9381 70.4043C36.4697 70.3857 36.975 70.2793 37.4538 70.0851C37.942 69.8906 38.194 69.6203 38.21 69.2742C38.2288 69.012 38.2358 68.811 38.2309 68.6711C38.1885 67.4585 37.8246 66.3972 37.139 65.4873C36.4628 64.577 35.5332 63.8998 34.3503 63.4555C34.3422 64.5578 34.3451 65.3095 34.3591 65.7105ZM43.6351 61.9262C44.2414 61.905 44.758 61.9897 45.1849 62.1802C45.6212 62.3704 45.8448 62.6241 45.8559 62.9412C45.8608 63.0811 45.8277 63.2037 45.7567 63.3089C45.695 63.4138 45.5942 63.4687 45.4543 63.4736C45.3237 63.4781 45.0309 63.3857 44.576 63.1961C44.1208 62.9972 43.7067 62.9043 43.3336 62.9173C42.9698 62.93 42.5961 63.0598 42.2125 63.3067C41.8289 63.5536 41.6429 63.845 41.6547 64.1807C41.6706 64.6378 41.9202 64.9653 42.4034 65.1632C42.7634 65.3094 43.2768 65.4362 43.9437 65.5436C44.6102 65.6417 45.1601 65.8793 45.5936 66.2564C46.0267 66.6242 46.2569 67.1998 46.2843 67.9833C46.3261 69.1773 45.9978 70.0713 45.2994 70.6654C44.9094 70.9965 44.346 71.175 43.6091 71.2008C42.8815 71.2262 42.147 71.0511 41.4054 70.6754C40.9209 70.4402 40.6742 70.1967 40.6654 69.9448C40.6622 69.8515 40.6959 69.7476 40.7666 69.6331C40.8466 69.5182 40.9553 69.421 41.0926 69.3415C41.2299 69.262 41.3555 69.2483 41.4694 69.3003C41.5923 69.3427 41.7866 69.4247 42.0523 69.5461C42.3181 69.6676 42.5124 69.7495 42.6353 69.7919C43.0323 69.9275 43.4033 69.9892 43.7484 69.9771C44.0936 69.9651 44.4188 69.7856 44.7242 69.4387C45.0386 69.0822 45.1872 68.6567 45.1699 68.1624C45.1471 67.5094 44.8046 67.0638 44.1426 66.8255C43.8209 66.706 43.4583 66.6206 43.055 66.5693C42.2196 66.4491 41.586 66.2237 41.1542 65.8933C40.722 65.5535 40.4936 65.0292 40.4688 64.3203C40.444 63.6114 40.7278 63.0458 41.3201 62.6235C41.912 62.1919 42.6837 61.9594 43.6351 61.9262ZM56.8803 61.5473C56.9716 61.488 57.0919 61.4558 57.2411 61.4506C57.3904 61.4454 57.5279 61.5059 57.6537 61.6323C57.7792 61.7493 57.8449 61.8918 57.8508 62.0597C57.9783 65.7068 58.0694 67.9123 58.1241 68.6762C58.1878 69.4304 58.22 69.8168 58.2207 69.8355C58.2278 70.0407 58.1787 70.2385 58.0733 70.429C57.9676 70.6101 57.8447 70.7031 57.7048 70.708C57.5742 70.7126 57.4715 70.7115 57.3965 70.7048C57.3306 70.6884 57.2693 70.6719 57.2127 70.6552C57.1561 70.6385 57.0988 70.6031 57.0409 70.5491L56.8961 70.4141C56.8575 70.3781 56.8037 70.3099 56.7348 70.2096C56.6749 70.0996 56.6252 70.0127 56.5856 69.9487C56.546 69.8847 56.4815 69.7749 56.392 69.6192C56.3115 69.4539 56.1272 69.1242 55.8391 68.6299C55.5603 68.1354 55.3066 67.6913 55.0781 67.2977C54.2939 65.971 53.571 64.9269 52.9093 64.1656C53.0153 67.1971 53.0049 69.3034 52.8781 70.4845C52.8579 70.7094 52.6893 70.8273 52.3721 70.8384C52.2229 70.8436 52.0957 70.8107 51.9904 70.7397C51.8946 70.6683 51.8437 70.5487 51.8378 70.3808C51.8319 70.2129 51.8323 69.2883 51.8389 67.6071C51.8548 65.9255 51.8556 64.8795 51.8413 64.4691C51.8266 64.0493 51.8173 63.7835 51.8134 63.6716C51.7899 63 51.828 62.6204 51.9277 62.5329C52.0274 62.4453 52.1332 62.3996 52.2451 62.3957C52.7581 62.3778 53.571 63.1899 54.6837 64.832C54.9003 65.1513 55.3161 65.8232 55.9309 66.8477C56.5454 67.8628 56.9128 68.4897 57.0333 68.7283L56.6624 62.9277C56.6344 62.1255 56.707 61.6654 56.8803 61.5473ZM60.0302 65.8078C59.8967 65.7284 59.8272 65.6095 59.8216 65.4509C59.8161 65.2923 59.8623 65.1459 59.9604 65.0118C59.8905 64.0803 59.8374 63.0969 59.8012 62.0615C59.8494 61.8357 59.9276 61.6695 60.0359 61.563C60.1536 61.4562 60.3239 61.3849 60.5468 61.349C61.78 61.362 63.1148 61.3433 64.5513 61.2931C64.9083 61.3553 65.0909 61.5031 65.0991 61.7363C65.1128 62.128 64.7383 62.3699 63.9758 62.4619C63.7709 62.4784 63.5472 62.4909 63.3047 62.4994L62.3952 62.5312C62.218 62.5374 61.727 62.5172 60.9222 62.4706C60.963 63.6366 61.0096 64.4381 61.0623 64.8752C61.557 64.8672 62.5086 64.8386 63.917 64.7894C64.2551 64.843 64.4284 64.991 64.4369 65.2335C64.445 65.4667 64.3161 65.6533 64.0502 65.7934C64.0229 65.813 63.9722 65.8335 63.8982 65.8547L61.4762 65.8974C61.327 65.9026 61.2061 65.9161 61.1134 65.9381L61.2535 68.3426C61.2724 68.8836 61.272 69.2712 61.2521 69.5054L64.4967 69.3499C64.7968 69.3861 64.9505 69.5069 64.9576 69.7121C64.9625 69.852 64.9021 69.9942 64.7764 70.1387C64.6601 70.2828 64.5186 70.3765 64.352 70.4197L60.7721 70.6008C60.5576 70.6083 60.407 70.5762 60.3205 70.5045C60.2336 70.4235 60.1869 70.2897 60.1804 70.1032C60.2086 69.8407 60.2125 69.4203 60.1923 68.842L60.1581 67.8626L60.0302 65.8078ZM66.9194 65.567C66.7859 65.4876 66.7163 65.3686 66.7108 65.2101C66.7052 65.0515 66.7515 64.9051 66.8495 64.771C66.7796 63.8395 66.7266 62.8561 66.6904 61.8207C66.7385 61.5949 66.8168 61.4287 66.9251 61.3222C67.0428 61.2154 67.2131 61.144 67.4359 61.1082C68.6691 61.1212 70.004 61.1025 71.4404 61.0523C71.7975 61.1145 71.9801 61.2622 71.9882 61.4954C72.0019 61.8872 71.6275 62.1291 70.8649 62.2211C70.66 62.2376 70.4363 62.2501 70.1938 62.2586L69.2844 62.2904C69.1071 62.2966 68.6161 62.2764 67.8113 62.2298C67.8521 63.3958 67.8988 64.1973 67.9514 64.6344C68.4461 64.6264 69.3977 64.5978 70.8062 64.5486C71.1443 64.6022 71.3175 64.7502 71.326 64.9927C71.3342 65.2259 71.2053 65.4125 70.9393 65.5526C70.912 65.5722 70.8614 65.5926 70.7874 65.6139L68.3654 65.6565C68.2162 65.6618 68.0952 65.6753 68.0026 65.6972L68.1427 68.1018C68.1616 68.6428 68.1611 69.0304 68.1413 69.2646L71.3859 69.1091C71.686 69.1453 71.8396 69.266 71.8468 69.4712C71.8517 69.6112 71.7913 69.7534 71.6656 69.8978C71.5492 70.042 71.4077 70.1357 71.2411 70.1788L67.6613 70.36C67.4467 70.3675 67.2962 70.3354 67.2096 70.2637C67.1228 70.1827 67.0761 70.0489 67.0695 69.8624C67.0977 69.5999 67.1017 69.1795 67.0815 68.6012L67.0472 67.6218L66.9194 65.567ZM74.0171 69.6896C73.8736 69.5919 73.7997 69.4824 73.7955 69.3611C73.7909 69.2305 73.8385 69.1215 73.9381 69.0339C73.7143 67.7063 73.5722 66.1796 73.5119 64.454C73.4936 63.9317 73.4814 62.9141 73.4752 61.4014C73.517 61.2599 73.606 61.1354 73.7423 61.0279C73.888 60.9201 74.0261 60.8639 74.1567 60.8593C74.2873 60.8547 74.3667 60.8566 74.395 60.865C75.7419 61.1915 76.9285 61.8738 77.9547 62.9119C78.9806 63.9407 79.543 65.2005 79.6418 66.6912C79.6992 68.3329 79.0543 69.3874 77.7071 69.8548C77.3196 69.9897 76.9066 70.0649 76.4682 70.0802C76.0392 70.0952 75.6603 70.0757 75.3315 70.0219C75.3714 70.0952 75.3935 70.1925 75.3977 70.3137C75.4023 70.4443 75.3273 70.5683 75.1726 70.6858C75.0276 70.8123 74.8478 70.8793 74.6333 70.8868C74.4281 70.8939 74.2931 70.7726 74.2283 70.5227L74.0171 69.6896ZM74.6693 64.3015C74.7263 65.9338 74.8737 67.479 75.1115 68.9369C75.3376 68.9943 75.7165 69.0138 76.2482 68.9952C76.7799 68.9766 77.2851 68.8702 77.764 68.6761C78.2521 68.4815 78.5042 68.2112 78.5201 67.8651C78.539 67.603 78.5459 67.402 78.5411 67.262C78.4987 66.0495 78.1347 64.9882 77.4492 64.0782C76.773 63.168 75.8434 62.4907 74.6605 62.0464C74.6523 63.1487 74.6552 63.9004 74.6693 64.3015ZM90.069 60.3871C90.1603 60.3279 90.2806 60.2957 90.4299 60.2905C90.5791 60.2852 90.7166 60.3458 90.8425 60.4722C90.968 60.5892 91.0336 60.7316 91.0395 60.8995C91.167 64.5466 91.2581 66.7521 91.3128 67.516C91.3765 68.2703 91.4087 68.6567 91.4094 68.6754C91.4165 68.8806 91.3674 69.0784 91.262 69.2689C91.1563 69.45 91.0335 69.543 90.8935 69.5479C90.763 69.5525 90.6602 69.5514 90.5852 69.5447C90.5193 69.5283 90.458 69.5118 90.4014 69.4951C90.3448 69.4784 90.2875 69.443 90.2296 69.389L90.0848 69.254C90.0462 69.218 89.9924 69.1498 89.9235 69.0495C89.8637 68.9395 89.8139 68.8525 89.7743 68.7886C89.7347 68.7246 89.6702 68.6148 89.5807 68.4591C89.5002 68.2938 89.3159 67.9641 89.0278 67.4698C88.749 66.9753 88.4954 66.5312 88.2668 66.1376C87.4826 64.8108 86.7597 63.7668 86.0981 63.0054C86.204 66.0369 86.1936 68.1432 86.0668 69.3244C86.0466 69.5492 85.878 69.6672 85.5608 69.6783C85.4116 69.6835 85.2844 69.6506 85.1792 69.5796C85.0833 69.5082 85.0324 69.3886 85.0265 69.2207C85.0207 69.0528 85.021 68.1282 85.0276 66.4469C85.0436 64.7654 85.0444 63.7194 85.03 63.3089C85.0153 62.8892 85.006 62.6234 85.0021 62.5114C84.9787 61.8398 85.0168 61.4603 85.1164 61.3727C85.2161 61.2852 85.3219 61.2395 85.4338 61.2356C85.9468 61.2176 86.7597 62.0297 87.8724 63.6719C88.089 63.9912 88.5048 64.6631 89.1196 65.6875C89.7341 66.7027 90.1016 67.3296 90.222 67.5682L89.8511 61.7676C89.8231 60.9654 89.8957 60.5053 90.069 60.3871ZM93.2189 64.6477C93.0854 64.5683 93.0159 64.4493 93.0104 64.2908C93.0048 64.1322 93.0511 63.9858 93.1491 63.8516C93.0792 62.9202 93.0261 61.9368 92.9899 60.9014C93.0381 60.6756 93.1163 60.5094 93.2247 60.4029C93.3423 60.2961 93.5126 60.2247 93.7355 60.1889C94.9687 60.2019 96.3035 60.1832 97.74 60.133C98.097 60.1952 98.2797 60.3429 98.2878 60.5761C98.3015 60.9679 97.9271 61.2098 97.1645 61.3018C96.9596 61.3183 96.7359 61.3308 96.4934 61.3393L95.5839 61.3711C95.4067 61.3773 94.9157 61.3571 94.1109 61.3105C94.1517 62.4764 94.1984 63.278 94.251 63.7151C94.7457 63.7071 95.6973 63.6785 97.1057 63.6293C97.4438 63.6828 97.6171 63.8309 97.6256 64.0734C97.6337 64.3066 97.5048 64.4932 97.2389 64.6332C97.2116 64.6529 97.1609 64.6733 97.0869 64.6946L94.665 64.7372C94.5157 64.7424 94.3948 64.756 94.3022 64.7779L94.4422 67.1825C94.4612 67.7235 94.4607 68.1111 94.4409 68.3453L97.6854 68.1898C97.9855 68.226 98.1392 68.3467 98.1463 68.5519C98.1512 68.6919 98.0908 68.8341 97.9651 68.9785C97.8488 69.1227 97.7073 69.2164 97.5407 69.2595L93.9608 69.4407C93.7463 69.4482 93.5958 69.4161 93.5092 69.3444C93.4223 69.2634 93.3756 69.1296 93.3691 68.9431C93.3973 68.6806 93.4013 68.2602 93.381 67.6819L93.3468 66.7025L93.2189 64.6477ZM100.391 69.286C100.074 69.2971 99.9103 69.1674 99.9008 68.8969C99.8956 68.7476 99.9277 68.5971 99.9971 68.4452C100.069 68.3587 100.41 67.9545 101.019 67.2328C101.638 66.5014 102.206 65.7904 102.724 65.0999C101.386 63.1668 100.534 61.9031 100.168 61.3089C100.117 61.1986 100.09 61.0782 100.085 60.9476C100.08 60.8077 100.141 60.6655 100.266 60.521C100.401 60.3762 100.553 60.3008 100.721 60.295C100.898 60.2888 101.041 60.3632 101.149 60.5181C102.135 62.0153 102.928 63.197 103.528 64.0632C104.458 62.8913 105.333 61.5906 106.151 60.1612C106.3 59.8758 106.519 59.7281 106.808 59.7179C106.92 59.714 107.015 59.7481 107.092 59.8201C107.178 59.8825 107.223 59.9649 107.227 60.0675C107.23 60.1701 107.207 60.3017 107.157 60.4622C106.498 61.6526 105.504 63.1489 104.176 64.9511C105.023 66.2103 105.801 67.2244 106.509 67.9934C106.589 68.1401 106.631 68.2787 106.636 68.4093C106.64 68.5399 106.575 68.6776 106.44 68.8224C106.315 68.9668 106.168 69.042 106 69.0479C105.832 69.0538 105.686 69.0122 105.561 68.9231C105.123 68.4061 104.388 67.4232 103.357 65.9743C102.758 66.7331 101.902 67.7763 100.791 69.1039C100.645 69.2211 100.512 69.2817 100.391 69.286ZM108.908 59.8267L114.571 59.5447C114.845 59.6191 114.985 59.7497 114.991 59.9362C115.008 60.4026 114.824 60.6425 114.442 60.6558C113.742 60.6803 113.002 60.7249 112.219 60.7896C112.201 61.5934 112.199 62.2005 112.213 62.6109C112.227 63.012 112.236 63.2685 112.24 63.3804L112.467 68.2895C112.478 68.5786 112.409 68.7491 112.261 68.801C112.151 68.8422 112.011 68.8658 111.843 68.8716C111.573 68.8811 111.418 68.7324 111.38 68.4256C111.299 67.7093 111.224 66.3718 111.155 64.413C111.086 62.4448 111.073 61.2592 111.115 60.8562C110.919 60.8724 110.63 60.8871 110.248 60.9005C109.866 60.9139 109.39 60.9258 108.82 60.9364C108.671 60.9416 108.553 60.8991 108.466 60.8087C108.378 60.7184 108.333 60.6079 108.328 60.4773C108.323 60.3374 108.374 60.2002 108.482 60.0657C108.598 59.9309 108.74 59.8512 108.908 59.8267Z" fill="black"/>
</svg>
