<svg width="206" height="152" viewBox="0 0 206 152" fill="none" xmlns="http://www.w3.org/2000/svg">
<path d="M140.382 111.612C141.529 112.408 142.826 113.051 144.157 113.545C156.544 117.562 170.312 113.479 180.848 106.211C191.542 98.9105 198.65 86.0938 197.966 73.2313C197.918 71.7881 197.799 70.4297 197.606 68.9899C197.666 70.4413 197.658 71.7986 197.586 73.2278C197.115 85.9731 189.917 97.5285 179.693 104.578C169.558 111.533 156.658 116.053 144.275 113.184C142.931 112.812 141.599 112.294 140.382 111.612Z" fill="black"/>
<path d="M197.169 69.4484C197.045 69.6473 196.879 69.9065 196.749 70.1001C196.709 70.1608 196.724 70.126 196.696 70.1675C196.639 70.2486 196.592 70.3276 196.535 70.4071C196.517 70.4333 196.529 70.3924 196.51 70.42C196.402 70.5707 196.306 70.7183 196.198 70.872C195.664 71.6276 195.133 72.3655 194.58 73.1206C194.398 73.3699 194.151 73.6534 193.977 73.9219C193.957 73.9533 193.999 73.9572 193.997 73.9647C193.969 74.0832 193.932 74.0085 193.882 74.0614C193.684 74.2715 193.491 74.5268 193.341 74.7606C193.277 74.8601 193.411 74.8145 193.305 74.8827C193.298 74.8874 193.28 74.8363 193.258 74.8596C193.206 74.9123 193.13 75.0294 193.094 75.0731C193.024 75.1571 193.014 75.172 192.952 75.2552C192.868 75.3688 192.749 75.4898 192.668 75.6188C192.65 75.6464 192.715 75.6423 192.692 75.6893C192.668 75.7364 192.584 75.8446 192.547 75.8745C192.511 75.9044 192.49 75.8638 192.478 75.8647C192.376 75.8707 192.368 76.0646 192.359 76.083C192.176 76.4115 191.937 76.6289 191.729 76.9088C191.572 77.1217 191.422 77.3635 191.27 77.5641C191.089 77.8029 190.91 77.9864 190.741 78.2236C190.723 78.2486 190.803 78.2652 190.782 78.296C190.551 78.6223 190.31 78.9364 190.03 79.2222C190.002 79.2508 189.978 79.1671 189.946 79.1931C189.755 79.3535 189.408 79.5726 189.569 79.88C189.46 80.0047 189.33 80.1575 189.19 80.236C189.109 80.2814 189.095 80.1874 189.061 80.2498L188.882 79.8852C188.89 79.8839 188.9 79.8815 188.912 79.8779C188.939 79.87 188.904 79.8 188.944 79.7934C189.111 79.7656 189.293 79.7867 189.457 79.7478C189.491 79.7398 189.482 79.6756 189.491 79.6639C189.571 79.5688 189.704 79.7223 189.733 79.7335C189.953 79.8158 190.115 79.7812 190.32 79.7813C190.368 79.7814 190.311 79.6935 190.357 79.6903C190.595 79.6749 190.842 79.6796 191.075 79.7175C191.127 79.7261 191.079 79.8034 191.104 79.8115C191.213 79.8465 191.237 79.7007 191.342 79.7313C191.364 79.7376 191.351 79.8039 191.356 79.8111C191.419 79.9249 191.473 79.7627 191.49 79.759C191.695 79.7083 191.826 79.8776 192.024 79.8527C192.048 79.8495 191.994 79.7649 192.061 79.7611C192.505 79.7348 192.974 79.7554 193.414 79.8233C193.482 79.8337 193.433 79.8989 193.438 79.9069C193.508 80.0321 193.553 79.864 193.575 79.8576C193.751 79.8114 193.915 79.9526 194.035 79.7512C194.632 79.8056 195.227 79.7429 195.82 79.8099C195.966 79.8264 196.112 79.8508 196.258 79.8867C196.267 79.8888 196.25 79.9726 196.269 79.9764C196.495 80.0235 196.451 79.8933 196.6 79.7344C196.638 79.6946 196.752 79.8867 196.762 79.9007C196.799 79.9526 196.761 80.0769 196.773 80.087C196.876 80.1658 196.859 79.7545 196.997 79.7547C197.001 79.7554 196.983 79.831 196.994 79.8385C197.03 79.8622 197.066 79.8322 197.101 79.8583C197.182 79.9186 197.21 80.118 197.333 80.0021C197.349 79.987 197.325 79.7544 197.448 79.7657C197.497 79.7704 197.714 79.767 197.775 79.7822C197.836 79.7974 197.794 79.872 197.798 79.8752C197.962 79.9742 197.9 80.015 197.982 80.161C198.064 80.3062 198.041 79.9597 198.074 79.9211C198.108 79.8826 198.228 79.9641 198.257 79.9923C198.287 80.0205 198.25 80.0677 198.276 80.0837C198.45 80.1879 198.353 79.9123 198.41 79.8576C198.545 79.7285 198.65 79.9845 198.774 80.0094C198.807 80.0162 198.78 79.9582 198.81 79.9528C198.928 79.9324 198.999 80.0118 199.133 79.9395C199.155 79.9277 199.263 79.7761 199.333 79.8879C199.343 79.904 199.315 79.9669 199.365 79.9811C199.44 80.0024 199.576 80.0163 199.656 79.9955C199.716 79.9802 199.648 79.8769 199.723 79.9092C199.756 79.9236 199.694 79.9837 199.757 80.0056C199.819 80.0276 199.978 80.0252 200.039 80.0232C200.1 80.0212 200.066 79.9436 200.071 79.9383C200.101 79.9085 200.217 79.8717 200.227 79.8718C200.745 79.8657 201.222 79.9957 201.726 79.9556C201.766 79.9527 201.739 79.8741 201.745 79.8728C201.881 79.8409 201.774 80.0487 201.869 80.1184C201.855 79.9597 201.911 79.9886 202.006 79.9717C202.052 79.9634 202.027 79.9022 202.031 79.8959C202.099 79.8037 202.147 79.9238 202.159 79.9482C202.204 80.0382 202.253 79.9324 202.284 79.9924C202.315 80.0519 202.244 80.1399 202.336 80.1387C202.361 80.0828 202.293 79.9362 202.363 79.913C202.625 79.8257 203.114 79.9435 203.324 79.9555C203.535 79.9682 203.603 79.9588 203.725 79.9788C203.818 79.9938 203.857 79.9844 203.882 79.9652L203.756 80.1858C203.716 80.1697 203.673 80.1879 203.61 80.1324C203.501 80.0366 203.749 79.9678 203.785 79.9234C203.822 79.8794 203.763 79.8892 203.776 79.8534C203.789 79.8178 203.847 79.8441 203.828 79.7899C203.808 79.7357 203.647 79.6504 203.59 79.6611C203.468 79.6838 203.397 79.8066 203.359 79.6547C203.357 79.6459 203.426 79.6375 203.415 79.6056C203.326 79.3536 203.191 79.1166 203.094 78.869C203.081 78.835 203.156 78.828 203.149 78.8078C203.075 78.5976 203.016 78.7234 202.847 78.684C203.005 78.6217 203.06 78.5124 202.975 78.3698C202.924 78.2839 202.871 78.3354 202.795 78.3056C202.772 78.2966 202.778 78.2109 202.743 78.2169C202.627 78.2363 202.555 78.3562 202.512 78.183C202.51 78.1753 202.573 78.1658 202.563 78.1415C202.499 77.9846 202.392 78.0245 202.291 77.8738C202.212 77.7556 202.144 77.5024 202.072 77.357C202.221 77.273 202.109 77.1618 201.979 77.1669C201.93 77.0736 201.868 76.9786 201.831 76.8828C201.818 76.8499 201.87 76.8457 201.872 76.8392C201.907 76.7403 201.79 76.7565 201.775 76.7389C201.617 76.547 201.585 76.3338 201.402 76.1696C201.396 76.1639 201.298 76.2057 201.334 76.1122C201.336 76.106 201.416 76.1487 201.364 76.0514C201.312 75.9538 201.254 75.7467 201.138 75.638C201.109 75.6117 200.994 75.571 201.01 75.4741C201.012 75.4612 201.042 75.4564 201.048 75.436C201.067 75.3705 200.97 75.3982 201.014 75.3086C201.057 75.2191 201.05 75.0909 200.922 74.9867C200.918 74.9834 200.836 74.9896 200.813 74.9472C200.775 74.8794 200.732 74.777 200.69 74.7076C200.67 74.6744 200.645 74.7181 200.641 74.7127C200.489 74.5001 200.429 74.3201 200.301 74.072C200.277 74.0267 200.157 73.9266 200.143 73.8201C200.126 73.7037 200.344 73.7048 200.173 73.5153C200.103 73.4398 199.849 73.4417 199.853 73.2287C199.651 72.9401 199.527 72.6358 199.318 72.3505C199.308 72.3377 199.242 72.3187 199.224 72.286C199.197 72.2377 199.2 72.2005 199.181 72.1658C199.103 72.0202 199.011 71.8985 198.933 71.7594C198.903 71.7067 198.93 71.7153 198.894 71.6527C198.858 71.5903 198.813 71.5607 198.773 71.4707C198.743 71.4026 198.744 71.3166 198.696 71.2309C198.658 71.2491 198.624 71.1909 198.554 71.0932C198.54 71.0744 198.541 71.1026 198.534 71.094C198.506 71.0592 198.495 71.0182 198.468 70.9855C198.461 70.9776 198.45 70.9835 198.444 70.9773C198.393 70.9246 198.359 70.8089 198.352 70.7895C198.328 70.7143 198.297 70.6905 198.273 70.6362C198.248 70.5822 198.3 70.6544 198.267 70.5933C198.2 70.4667 198.104 70.3103 198.029 70.1856C198 70.1359 198.012 70.1747 198.007 70.1677C197.945 70.0655 197.889 69.9573 197.843 69.9075C197.833 69.8172 197.803 69.847 197.724 69.6952C197.717 69.6832 197.719 69.6622 197.748 69.7053C197.777 69.7483 197.814 69.8177 197.855 69.877C197.864 69.8912 197.932 69.9648 197.94 69.9752C198.005 70.0579 197.985 70.087 197.986 70.0928C198.001 70.1565 198.083 70.2464 198.102 70.2717C198.185 70.3893 198.244 70.4959 198.314 70.5939C198.36 70.6581 198.394 70.647 198.427 70.6991C198.538 70.8718 198.525 70.9623 198.673 71.099C198.706 71.1282 198.725 71.0687 198.774 71.2125C198.777 71.2213 198.805 71.333 198.86 71.3743C198.867 71.3794 198.88 71.3712 198.887 71.3794C198.934 71.434 198.948 71.48 198.996 71.5412C199.044 71.6023 199.104 71.6743 199.147 71.7508C199.174 71.7968 199.181 71.8714 199.187 71.8972C199.204 71.9704 199.282 72.0137 199.278 72.0671C199.275 72.1213 199.187 72.0714 199.23 72.1824C199.278 72.1593 199.33 72.1401 199.38 72.1187C199.52 72.3345 199.641 72.5563 199.784 72.7716C199.802 72.7982 199.813 72.7535 199.833 72.7815C199.918 72.8995 199.965 73.0182 200.056 73.1387C200.126 73.2318 200.231 73.3176 200.308 73.4132C200.277 73.5178 200.399 73.6547 200.464 73.7683C200.487 73.8082 200.464 73.8178 200.475 73.8493C200.517 73.9677 200.555 73.8782 200.584 73.9C200.711 73.993 200.558 74.098 200.652 74.2405C200.656 74.2482 200.805 74.2889 200.819 74.2982C200.908 74.3577 200.796 74.3301 200.822 74.3849C200.87 74.4851 200.888 74.5632 200.986 74.6563C201.014 74.6835 201.123 74.7244 201.116 74.8135C201.115 74.8252 201.081 74.8396 201.083 74.8472C201.127 74.9847 201.23 74.9278 201.309 74.9745C201.388 75.021 201.384 75.1675 201.377 75.2014C201.358 75.2893 201.326 75.1724 201.319 75.1726C201.233 75.1743 201.292 75.2445 201.324 75.3064C201.225 75.3765 201.281 75.4555 201.357 75.3702C201.365 75.3608 201.326 75.321 201.324 75.3064C201.458 75.2975 201.531 75.3779 201.495 75.5355C201.478 75.6094 201.397 75.5972 201.504 75.7277C201.553 75.7869 201.613 75.7173 201.669 75.7616C201.799 75.8625 201.833 76.0729 201.928 76.1998C201.963 76.2457 201.977 76.1727 202.002 76.2031C202.07 76.2835 202.085 76.3804 202.158 76.4583C202.165 76.4653 202.2 76.418 202.218 76.445C202.356 76.6484 202.44 76.847 202.576 77.0641C202.642 77.1691 202.789 77.3395 202.852 77.4511C202.962 77.6443 203.03 77.9216 203.15 78.0717C203.228 78.1695 203.268 78.1144 203.333 78.1373C203.461 78.181 203.428 78.4109 203.42 78.4439C203.42 78.445 203.35 78.3623 203.352 78.4273C203.31 78.4904 203.419 78.4431 203.42 78.4439C203.415 78.4652 203.515 78.6534 203.549 78.683C203.567 78.699 203.613 78.6565 203.622 78.6655C203.821 78.8783 203.989 79.1106 204.116 79.3706C204.118 79.3756 204.051 79.406 204.056 79.4172C204.116 79.5757 204.25 79.6212 204.37 79.7105C204.399 79.7327 204.424 79.7556 204.444 79.7796L205.003 80.8L203.882 80.7638C203.789 80.7785 203.712 80.7467 203.651 80.6513C203.547 80.6699 203.397 80.616 203.312 80.5825C203.226 80.5489 203.214 80.6977 203.206 80.7009C202.971 80.8007 202.834 80.7188 202.59 80.71C202.474 80.7057 202.243 80.7326 202.117 80.7521C202.018 80.7678 201.958 80.7326 201.866 80.7576C201.854 80.761 201.866 80.8301 201.862 80.8329C201.76 80.9182 201.809 80.7473 201.788 80.7174C201.712 80.6084 201.664 80.5497 201.533 80.6038C201.503 80.616 201.415 80.8645 201.36 80.8804C201.288 80.9003 201.315 80.8108 201.24 80.8338C201.234 80.8357 201.235 80.8906 201.189 80.8892C200.974 80.8831 200.74 80.8551 200.517 80.8645C200.486 80.8656 200.525 80.9536 200.481 80.9567C200.275 80.9712 200.048 80.9722 199.847 80.9332C199.797 80.9234 199.828 80.8598 199.817 80.8413C199.751 80.7288 199.658 80.8948 199.642 80.8983C199.274 80.9834 198.991 80.8363 198.615 80.9121C198.595 80.9165 198.438 81.0985 198.367 80.9445C198.363 80.9343 198.293 80.7765 198.232 80.8854C198.228 80.8922 198.271 80.9734 198.195 80.9658C198.12 80.9582 197.998 81.014 197.894 80.9249C197.861 80.8968 197.784 80.7384 197.686 80.8658C197.679 80.8745 197.528 81.1626 197.474 80.9649C197.465 80.9324 197.474 80.7227 197.357 80.8308C197.335 80.8518 197.375 80.8984 197.316 80.9279C197.226 80.9735 197.106 80.9178 196.995 81.012C196.976 81.0287 196.893 81.1719 196.827 81.0638C196.817 81.0469 196.837 80.9765 196.802 80.9688C196.636 80.9317 196.462 80.9793 196.293 80.9309C196.234 80.9139 196.264 80.8 196.202 80.7696C196.14 80.7392 196.014 80.7099 195.949 80.762C195.884 80.814 195.955 80.9955 195.857 81.01C195.845 81.0119 195.832 81.0136 195.82 81.0152C195.408 81.0669 195 80.9651 194.589 80.9481C194.526 80.9455 194.578 81.0105 194.486 81.0112C194.144 81.0145 193.555 81.0692 193.259 80.9301C193.021 80.8191 193.32 80.7389 193.139 80.6932C193.051 80.6716 192.957 80.8779 192.935 80.8841C192.729 80.948 192.586 80.8548 192.4 80.8806C192.361 80.8859 192.399 80.9696 192.366 80.9731C192.255 80.9859 192.138 80.9472 192.031 80.9523C191.983 80.9548 191.992 81.0181 191.948 81.0125C191.843 80.9998 191.75 80.9717 191.647 80.9113C191.638 80.9058 191.701 80.8287 191.623 80.8247C191.497 80.8183 191.34 80.7586 191.195 80.8157C191.152 80.8329 191.151 80.9745 191.058 80.8751C191.039 80.8543 191.064 80.685 190.956 80.8298C190.938 80.8542 190.757 81.0472 190.668 80.9187C190.644 80.8848 190.585 80.7463 190.533 80.767C190.526 80.7704 190.554 80.8459 190.511 80.8524C190.36 80.8739 190.202 80.8627 190.046 80.8824C190.005 80.8878 190.067 80.9659 190.005 80.9713C189.835 80.9864 189.623 80.9613 189.457 80.9333C189.395 80.9229 189.438 80.8617 189.433 80.8548C189.362 80.7431 189.319 80.8906 189.295 80.8985C189.148 80.9461 189.035 80.8738 188.898 80.8883C188.891 80.8891 188.885 80.8929 188.882 80.8984L187.261 80.8584L188.26 79.6303C188.251 79.6084 188.206 79.5932 188.206 79.5856C188.207 79.4886 188.269 79.6096 188.311 79.58C188.429 79.4971 188.522 79.3747 188.603 79.2616C188.633 79.22 188.534 79.216 188.562 79.1793C188.724 78.9613 188.911 78.7486 189.114 78.5701C189.152 78.5365 189.179 78.5966 189.196 78.5968C189.316 78.5986 189.282 78.4393 189.288 78.4134C189.314 78.295 189.382 78.2935 189.437 78.2129C189.703 77.8189 190.107 77.3904 190.411 77.0586C190.807 76.6267 191.135 76.308 191.485 75.8745C191.507 75.847 191.434 75.836 191.453 75.8119C191.697 75.503 191.969 75.2224 192.213 74.9129C192.234 74.8877 192.161 74.8903 192.192 74.8488C192.256 74.7634 192.347 74.6635 192.432 74.5922C192.472 74.5573 192.461 74.6375 192.501 74.6018C192.595 74.5184 192.684 74.4201 192.76 74.3194C192.793 74.2765 192.7 74.3073 192.745 74.2542C193.055 73.891 193.363 73.5368 193.724 73.2064C193.749 73.1838 193.833 73.2126 193.866 73.1494C193.852 73.1314 193.83 73.1153 193.813 73.0987C194.262 72.5684 194.738 72.068 195.202 71.5462C195.221 71.5243 195.165 71.5451 195.203 71.5028C195.424 71.2573 195.635 71.0173 195.877 70.7785C195.9 70.7547 195.916 70.7886 195.977 70.7111C195.988 70.6974 196.082 70.5831 196.102 70.5504C196.105 70.5459 196.076 70.5575 196.107 70.5216C196.292 70.3133 196.49 70.0991 196.679 69.8951C196.709 69.8621 196.684 69.9028 196.706 69.8792C196.858 69.7113 197.017 69.5242 197.162 69.3635C197.259 69.2553 197.226 69.2979 197.277 69.2402C197.284 69.232 197.341 69.1627 197.344 69.1593C197.352 69.1506 197.327 69.1863 197.339 69.173C197.341 69.1707 197.382 69.1115 197.382 69.1114C197.382 69.1115 197.379 69.1166 197.37 69.13C197.367 69.134 197.318 69.206 197.307 69.2242C197.299 69.2368 197.314 69.2151 197.298 69.2409C197.282 69.2668 197.262 69.2939 197.235 69.3368C197.209 69.3798 197.223 69.3628 197.169 69.4484ZM202.925 80.4306C202.845 80.3591 202.834 80.6244 202.92 80.5596C202.924 80.5561 202.929 80.4341 202.925 80.4306ZM199.571 72.5961C199.585 72.7086 199.684 72.733 199.676 72.6521C199.668 72.5718 199.566 72.5621 199.571 72.5961ZM198.977 71.6949C199.016 71.8133 199.129 71.7689 199.037 71.6716C199.032 71.6659 198.975 71.6881 198.977 71.6949ZM197.053 69.5172C197.054 69.5165 197.095 69.4666 197.096 69.4653C197.114 69.4363 197.032 69.5353 197.053 69.5172ZM198.4 70.7936C198.411 70.8314 198.477 70.9187 198.465 70.8715C198.454 70.8338 198.386 70.7468 198.4 70.7936ZM198.777 80.1525C198.776 80.1481 198.73 80.1442 198.731 80.1689C198.734 80.2485 198.798 80.2259 198.777 80.1525ZM197.459 69.2379C197.6 69.4665 197.665 69.6174 197.523 69.3614C197.497 69.3153 197.583 69.4588 197.55 69.3998C197.489 69.2928 197.445 69.2232 197.384 69.1135C197.372 69.0941 197.45 69.2252 197.459 69.2383C197.459 69.2382 197.459 69.238 197.459 69.2379ZM202.879 80.1131C202.878 80.1096 202.814 80.1063 202.812 80.1097C202.778 80.1941 202.906 80.2005 202.879 80.1131ZM196.087 79.9684C196.084 79.96 195.935 79.9521 195.931 79.9599C195.853 80.1151 196.153 80.1315 196.087 79.9684ZM202.075 77.3525C201.982 77.3263 201.935 77.2575 201.979 77.1672C202.009 77.2294 202.044 77.2901 202.075 77.3525Z" fill="black"/>
<path d="M45.8977 90.5848L44.0945 90.6941C43.9594 90.3121 43.7513 88.5593 43.4702 85.4359L43.387 84.4454C43.3206 83.6548 43.3447 83.0487 43.4591 82.627C43.5728 82.196 43.8562 81.835 44.3094 81.544C44.5411 81.4028 44.8708 81.3142 45.2987 81.2783C45.7358 81.2416 46.073 81.2414 46.3102 81.2776C46.9442 81.3555 47.3877 81.5618 47.6406 81.8964C47.9028 82.2303 48.0589 82.6949 48.1089 83.2901C48.1784 84.1179 48.011 84.7454 47.6067 85.1728C47.8323 85.1819 48.0649 85.2748 48.3045 85.4514C48.5441 85.6279 48.7423 85.8126 48.899 86.0055C49.172 86.3573 49.3355 86.854 49.3894 87.4957C49.4738 88.5002 49.227 89.2421 48.6491 89.7215C48.0797 90.1908 47.1626 90.4786 45.8977 90.5848ZM44.4621 83.8634L44.6236 85.4514C44.6422 85.4499 44.7987 85.418 45.0932 85.3558C45.3869 85.2843 45.6341 85.2167 45.8348 85.153C46.7555 84.8509 47.1802 84.2767 47.1091 83.4303C47.074 83.0118 46.9227 82.7154 46.6551 82.5412C46.3969 82.3662 46.0678 82.2955 45.6679 82.3291C45.1657 82.3713 44.8336 82.4881 44.6718 82.6797C44.6036 82.7603 44.5486 82.8305 44.5068 82.8902C44.4642 82.9406 44.4383 83.0224 44.4291 83.1356C44.4198 83.2488 44.4125 83.329 44.4071 83.3763C44.411 83.4228 44.4185 83.5111 44.4294 83.6413C44.4496 83.7708 44.4605 83.8448 44.4621 83.8634ZM47.8506 86.5713C47.749 86.4768 47.5971 86.3959 47.3947 86.3286C47.1924 86.2613 46.9052 86.2432 46.5332 86.2745C46.1704 86.305 45.5524 86.4178 44.679 86.6129C44.8008 88.0638 44.9065 89.043 44.996 89.5506C46.0841 89.4592 46.8409 89.3254 47.2663 89.1492C47.691 88.9637 47.9691 88.7624 48.1007 88.5453C48.2409 88.3181 48.3012 88.0882 48.2816 87.8557C48.2613 87.6139 48.2426 87.4469 48.2255 87.3546C48.2169 87.2523 48.1777 87.1198 48.1078 86.9571C48.0465 86.7843 47.9607 86.6557 47.8506 86.5713ZM52.5159 89.4529C52.5299 89.6203 52.4684 89.78 52.3313 89.932C52.1935 90.0748 52.0362 90.1535 51.8595 90.1684C51.692 90.1824 51.5664 90.0806 51.4826 89.8628C51.3515 88.6375 51.2349 87.4157 51.1325 86.1973L50.7954 82.6852C50.736 81.9783 51.007 81.4685 51.6083 81.1558C52.091 80.8811 52.6764 80.7148 53.3647 80.657C53.7181 80.6273 54.1022 80.6841 54.517 80.8272C54.9402 80.9602 55.3241 81.1809 55.6684 81.4891C56.0213 81.7873 56.2141 82.1317 56.2469 82.5223C56.2789 82.9037 56.137 83.3324 55.8211 83.8085C55.5044 84.2753 55.1 84.7026 54.6081 85.0905C54.1154 85.4691 53.6296 85.7628 53.1507 85.9716C54.0665 86.5035 54.8745 87.0912 55.5748 87.7349C56.2744 88.3692 56.6401 88.8771 56.6722 89.2584C56.6823 89.3793 56.6316 89.5006 56.5201 89.6224C56.4078 89.7348 56.2633 89.7985 56.0866 89.8133C55.9192 89.8274 55.7688 89.7651 55.6353 89.6264C55.3893 89.1507 54.9554 88.6673 54.3334 88.1763C53.72 87.6752 53.0112 87.2103 52.2072 86.7814L52.5159 89.4529ZM52.1086 85.2723C52.7293 85.1921 53.405 84.8731 54.1356 84.3153C54.8754 83.7568 55.2289 83.2822 55.1961 82.8916C55.1625 82.4916 54.9414 82.2011 54.5329 82.02C54.1243 81.8389 53.6503 81.771 53.1108 81.8163C52.5807 81.8609 52.163 81.9615 51.8577 82.1183C51.8882 82.5934 51.9718 83.6447 52.1086 85.2723ZM60.7799 80.1045C61.0124 80.0849 61.2163 80.1708 61.3916 80.3622C61.5669 80.5535 61.807 80.9595 62.1121 81.5801C62.8253 83.0469 63.5969 85.3752 64.4268 88.5649C64.4392 88.6013 64.4485 88.6568 64.4548 88.7312C64.4602 88.7963 64.42 88.8746 64.334 88.9661C64.2566 89.0475 64.1341 89.0953 63.9667 89.1093C63.8086 89.1226 63.6706 89.0967 63.5528 89.0317C63.4341 88.9574 63.3488 88.8334 63.2967 88.6598C63.2439 88.4769 63.1441 88.1247 62.9973 87.6032C62.6748 86.4408 62.4745 85.8394 62.3962 85.7992C62.2791 85.7434 61.9012 85.7049 61.2625 85.6836C60.6331 85.6616 60.2161 85.6591 60.0115 85.6763C59.8069 85.6935 59.6876 85.7223 59.6535 85.7626C59.4986 85.9255 59.3656 87.0746 59.2546 89.2101C59.2323 89.3899 59.063 89.4931 58.7467 89.5197C58.4305 89.5462 58.2611 89.4246 58.2384 89.1549C58.1822 88.4853 58.3212 87.1857 58.6556 85.2563C58.99 83.3269 59.2941 82.0416 59.5681 81.4004C59.9109 80.5755 60.3148 80.1435 60.7799 80.1045ZM60.8541 81.6577C60.7146 81.6694 60.5076 82.1036 60.233 82.9603C59.9576 83.8076 59.8281 84.3289 59.8445 84.5243C59.8484 84.5708 59.8604 84.6025 59.8806 84.6196C59.9613 84.6877 60.2597 84.7282 60.7759 84.7411C61.2921 84.7539 61.634 84.7533 61.8014 84.7392C61.9688 84.7252 62.061 84.7081 62.078 84.6879C62.0943 84.6584 62.0973 84.5832 62.0872 84.4623C62.0763 84.3321 61.9077 83.8311 61.5816 82.9594C61.2547 82.0783 61.0122 81.6444 60.8541 81.6577ZM70.5808 79.3234C70.6691 79.2598 70.7877 79.2218 70.9365 79.2093C71.0853 79.1968 71.2257 79.2505 71.3575 79.3706C71.4886 79.4813 71.5611 79.6204 71.5752 79.7878C71.8806 83.4244 72.0793 85.6228 72.1713 86.3831C72.2717 87.1333 72.3228 87.5177 72.3243 87.5363C72.3415 87.7409 72.3021 87.9409 72.2061 88.1363C72.1094 88.3224 71.9912 88.4213 71.8517 88.433C71.7215 88.444 71.6188 88.4479 71.5436 88.4448C71.477 88.4317 71.4149 88.4182 71.3576 88.4043C71.3002 88.3904 71.2413 88.3578 71.1808 88.3067L71.0296 88.1789C70.9892 88.1449 70.9322 88.0794 70.8585 87.9826C70.7934 87.8756 70.7394 87.7912 70.6968 87.7292C70.6541 87.6672 70.5843 87.5607 70.4873 87.4096C70.3988 87.2485 70.1986 86.9281 69.8867 86.4485C69.5841 85.9682 69.3091 85.537 69.0616 85.155C68.2136 83.8682 67.4405 82.8607 66.7425 82.1325C66.9963 85.1552 67.0888 87.2595 67.0198 88.4455C67.0107 88.671 66.848 88.7971 66.5317 88.8236C66.3829 88.8361 66.2543 88.8095 66.1457 88.7437C66.0464 88.6771 65.9898 88.5601 65.9757 88.3927C65.9617 88.2253 65.9169 87.3018 65.8414 85.6222C65.7752 83.9418 65.7249 82.8971 65.6905 82.4878C65.6554 82.0693 65.6331 81.8042 65.6237 81.6926C65.5675 81.023 65.587 80.642 65.6823 80.5497C65.7776 80.4574 65.881 80.4066 65.9926 80.3972C66.5041 80.3542 67.3557 81.1257 68.5473 82.7115C68.7792 83.0198 69.2273 83.6706 69.8914 84.6639C70.5547 85.6478 70.9524 86.256 71.0843 86.4884L70.4306 80.7129C70.3634 79.913 70.4135 79.4499 70.5808 79.3234ZM74.3564 87.7731C74.2083 87.6825 74.1292 87.5767 74.1191 87.4558C74.1081 87.3256 74.1503 87.2144 74.2456 87.1221C73.9571 85.8069 73.7407 84.2891 73.5962 82.5684C73.5524 82.0476 73.4905 81.0319 73.4105 79.5213C73.4453 79.3779 73.5281 79.2492 73.659 79.1351C73.7993 79.0203 73.9345 78.9575 74.0647 78.9465C74.1949 78.9356 74.2743 78.9336 74.303 78.9406C75.6642 79.2009 76.8827 79.8244 77.9584 80.8112C79.0333 81.7886 79.6565 83.0195 79.828 84.5037C79.9655 86.1406 79.3729 87.2253 78.0501 87.7579C77.6697 87.9116 77.2609 88.0068 76.8237 88.0435C76.3959 88.0795 76.0165 88.0785 75.6855 88.0408C75.729 88.1121 75.7558 88.2081 75.7659 88.3291C75.7769 88.4593 75.708 88.5868 75.5592 88.7117C75.4206 88.8451 75.2443 88.9208 75.0304 88.9388C74.8258 88.9559 74.685 88.8413 74.6081 88.5949L74.3564 87.7731ZM74.7447 82.3596C74.8814 83.9872 75.1041 85.5233 75.4128 86.9678C75.6414 87.0142 76.0208 87.0151 76.551 86.9706C77.0811 86.9261 77.5806 86.7951 78.0494 86.5778C78.5274 86.3597 78.766 86.0774 78.765 85.7309C78.771 85.4682 78.7682 85.267 78.7565 85.1275C78.6549 83.9185 78.2396 82.8762 77.5104 82.0008C76.7905 81.1247 75.829 80.4936 74.6258 80.1076C74.6715 81.209 74.7111 81.9597 74.7447 82.3596ZM87.7376 77.7981C88.3422 77.7474 88.8623 77.8067 89.298 77.9762C89.743 78.1448 89.9788 78.3873 90.0054 78.7035C90.0171 78.843 89.99 78.967 89.9242 79.0756C89.8677 79.1834 89.7697 79.2431 89.6302 79.2548C89.5 79.2658 89.2031 79.1877 88.7395 79.0206C88.2751 78.8442 87.8569 78.7716 87.4848 78.8028C87.1221 78.8333 86.7552 78.9812 86.3841 79.2465C86.013 79.5118 85.8415 79.8119 85.8696 80.1467C85.9079 80.6024 86.1732 80.9173 86.6655 81.0914C87.0322 81.2198 87.5512 81.3214 88.2225 81.3962C88.893 81.4616 89.4539 81.6721 89.9052 82.0276C90.3558 82.3737 90.6139 82.9374 90.6795 83.7187C90.7795 84.9092 90.4952 85.8181 89.8267 86.4456C89.4533 86.7954 88.8993 87.0012 88.1645 87.0629C87.4391 87.1238 86.6969 86.9848 85.9378 86.6458C85.4424 86.4345 85.1841 86.2033 85.1631 85.9522C85.1552 85.8592 85.1839 85.7538 85.2489 85.6359C85.3232 85.5173 85.427 85.4149 85.5603 85.3288C85.6935 85.2427 85.8183 85.2228 85.9346 85.2692C86.0594 85.3056 86.2575 85.3779 86.5288 85.4863C86.8002 85.5946 86.9983 85.667 87.1231 85.7033C87.5262 85.8193 87.8998 85.8628 88.244 85.8339C88.5881 85.805 88.9042 85.6099 89.1923 85.2485C89.4889 84.8771 89.6165 84.4449 89.5751 83.9519C89.5204 83.3009 89.1566 82.8725 88.4837 82.6668C88.1566 82.5631 87.7903 82.4955 87.3849 82.464C86.5447 82.3847 85.9008 82.1906 85.4534 81.8816C85.0052 81.5634 84.7514 81.0508 84.692 80.344C84.6326 79.6371 84.8884 79.0583 85.4594 78.6076C86.0296 78.1476 86.789 77.8778 87.7376 77.7981ZM91.7565 77.6432L97.3996 77.085C97.6764 77.146 97.8226 77.2695 97.8382 77.4556C97.8772 77.9206 97.7061 78.1691 97.3248 78.2011C96.6272 78.2597 95.8894 78.3404 95.1113 78.4433C95.132 79.247 95.1595 79.8535 95.1938 80.2627C95.2274 80.6627 95.2489 80.9184 95.2583 81.03L95.7254 85.9221C95.7496 86.2104 95.6892 86.3841 95.5443 86.4431C95.4359 86.4897 95.2979 86.52 95.1305 86.534C94.8608 86.5567 94.6991 86.4157 94.6454 86.1111C94.5295 85.3997 94.3895 84.0674 94.2254 82.1143C94.0606 80.1519 93.9893 78.9683 94.0115 78.5637C93.817 78.5894 93.529 78.6183 93.1477 78.6503C92.7664 78.6823 92.2917 78.7175 91.7236 78.7559C91.5747 78.7684 91.4546 78.7316 91.3631 78.6457C91.2715 78.5597 91.2203 78.4516 91.2094 78.3214C91.1977 78.1819 91.2421 78.0423 91.3428 77.9028C91.4528 77.7624 91.5907 77.6759 91.7565 77.6432ZM100.736 85.4029C100.75 85.5703 100.689 85.73 100.552 85.882C100.414 86.0247 100.257 86.1035 100.08 86.1183C99.9125 86.1324 99.7869 86.0305 99.703 85.8128C99.572 84.5875 99.4553 83.3656 99.353 82.1472L99.0159 78.6351C98.9565 77.9283 99.2274 77.4185 99.8287 77.1057C100.311 76.831 100.897 76.6648 101.585 76.607C101.939 76.5773 102.323 76.634 102.737 76.7771C103.161 76.9102 103.545 77.1308 103.889 77.4391C104.242 77.7373 104.435 78.0817 104.467 78.4723C104.499 78.8536 104.357 79.2823 104.042 79.7584C103.725 80.2253 103.32 80.6526 102.829 81.0405C102.336 81.419 101.85 81.7127 101.371 81.9215C102.287 82.4534 103.095 83.0412 103.795 83.6848C104.495 84.3192 104.861 84.827 104.893 85.2083C104.903 85.3292 104.852 85.4506 104.741 85.5723C104.628 85.6848 104.484 85.7485 104.307 85.7633C104.14 85.7774 103.989 85.7151 103.856 85.5764C103.61 85.1007 103.176 84.6173 102.554 84.1263C101.94 83.6252 101.232 83.1602 100.428 82.7313L100.736 85.4029ZM100.329 81.2223C100.95 81.1421 101.625 80.8231 102.356 80.2653C103.096 79.7067 103.449 79.2322 103.417 78.8415C103.383 78.4416 103.162 78.1511 102.753 77.97C102.345 77.7889 101.871 77.721 101.331 77.7663C100.801 77.8108 100.383 77.9115 100.078 78.0682C100.109 78.5433 100.192 79.5947 100.329 81.2223ZM109 76.0544C109.233 76.0349 109.437 76.1208 109.612 76.3121C109.787 76.5035 110.027 76.9095 110.333 77.5301C111.046 78.9969 111.817 81.3251 112.647 84.5149C112.66 84.5513 112.669 84.6067 112.675 84.6811C112.681 84.7462 112.64 84.8245 112.554 84.916C112.477 84.9975 112.355 85.0452 112.187 85.0593C112.029 85.0726 111.891 85.0467 111.773 84.9817C111.655 84.9073 111.569 84.7834 111.517 84.6098C111.464 84.4269 111.365 84.0747 111.218 83.5531C110.895 82.3907 110.695 81.7894 110.617 81.7491C110.5 81.6934 110.122 81.6549 109.483 81.6336C108.854 81.6115 108.437 81.6091 108.232 81.6263C108.027 81.6435 107.908 81.6722 107.874 81.7125C107.719 81.8754 107.586 83.0246 107.475 85.16C107.453 85.3399 107.283 85.4431 106.967 85.4696C106.651 85.4962 106.482 85.3746 106.459 85.1049C106.403 84.4352 106.542 83.1357 106.876 81.2063C107.21 79.2769 107.515 77.9916 107.789 77.3504C108.131 76.5255 108.535 76.0935 109 76.0544ZM109.075 77.6077C108.935 77.6194 108.728 78.0536 108.453 78.9102C108.178 79.7576 108.049 80.2789 108.065 80.4742C108.069 80.5207 108.081 80.5525 108.101 80.5695C108.182 80.6377 108.48 80.6782 108.996 80.691C109.513 80.7039 109.854 80.7033 110.022 80.6892C110.189 80.6751 110.281 80.658 110.298 80.6379C110.315 80.6084 110.318 80.5332 110.308 80.4123C110.297 80.2821 110.128 79.7811 109.802 78.9093C109.475 78.0283 109.233 77.5944 109.075 77.6077ZM113.522 75.8151L119.165 75.2569C119.442 75.3179 119.588 75.4415 119.604 75.6275C119.643 76.0925 119.472 76.341 119.09 76.3731C118.393 76.4316 117.655 76.5123 116.877 76.6152C116.898 77.4189 116.925 78.0254 116.959 78.4346C116.993 78.8346 117.014 79.0903 117.024 79.2019L117.491 84.094C117.515 84.3823 117.455 84.556 117.31 84.615C117.201 84.6616 117.063 84.6919 116.896 84.7059C116.626 84.7286 116.465 84.5876 116.411 84.2831C116.295 83.5716 116.155 82.2393 115.991 80.2862C115.826 78.3238 115.755 77.1402 115.777 76.7356C115.583 76.7613 115.295 76.7902 114.913 76.8222C114.532 76.8543 114.057 76.8894 113.489 76.9278C113.34 76.9403 113.22 76.9036 113.129 76.8176C113.037 76.7316 112.986 76.6235 112.975 76.4933C112.963 76.3538 113.008 76.2143 113.108 76.0747C113.218 75.9343 113.356 75.8478 113.522 75.8151ZM121.256 79.4506C121.119 79.3778 121.044 79.2624 121.031 79.1042C121.017 78.9461 121.056 78.7977 121.148 78.6589C121.032 77.7319 120.931 76.7523 120.845 75.7199C120.882 75.492 120.952 75.3222 121.055 75.2106C121.167 75.0981 121.334 75.0185 121.555 74.9719C122.787 74.9246 124.119 74.8408 125.552 74.7205C125.911 74.7652 126.101 74.9038 126.12 75.1363C126.153 75.527 125.791 75.7869 125.034 75.916C124.83 75.9425 124.607 75.9659 124.365 75.9862L123.458 76.0624C123.282 76.0772 122.79 76.081 121.984 76.0738C122.082 77.2364 122.168 78.0347 122.242 78.4687C122.735 78.4366 123.684 78.3615 125.089 78.2436C125.429 78.2806 125.609 78.42 125.63 78.6618C125.649 78.8943 125.53 79.087 125.271 79.2398C125.244 79.2608 125.195 79.2837 125.122 79.3085L122.705 79.4694C122.556 79.4819 122.436 79.5013 122.345 79.5278L122.602 81.9226C122.647 82.4621 122.666 82.8492 122.657 83.0841L125.89 82.7704C126.192 82.7919 126.351 82.9049 126.369 83.1095C126.38 83.249 126.327 83.394 126.208 83.5445C126.099 83.6941 125.962 83.7946 125.798 83.8459L122.231 84.2016C122.017 84.2196 121.866 84.1949 121.776 84.1275C121.685 84.0508 121.632 83.9195 121.616 83.7335C121.631 83.4699 121.615 83.0499 121.566 82.4732L121.484 81.4967L121.256 79.4506ZM131.601 74.0859C132.047 74.0484 132.499 74.1229 132.954 74.3094C133.42 74.4952 133.664 74.7275 133.687 75.0066C133.723 75.4344 133.565 75.6631 133.211 75.6928C133.081 75.7038 132.846 75.6392 132.506 75.4991C132.167 75.359 131.885 75.2984 131.662 75.3171C130.862 75.3843 130.223 75.7986 129.744 76.5601C129.274 77.3208 129.085 78.2545 129.178 79.3612C129.248 80.189 129.49 80.8992 129.905 81.4919C130.32 82.0846 130.774 82.3602 131.267 82.3188C131.769 82.2766 132.146 82.081 132.398 81.7321C132.658 81.3731 132.77 80.9843 132.735 80.5657C132.716 80.3332 132.681 80.1441 132.631 79.9984C132.59 79.8427 132.5 79.7098 132.359 79.5998C132.218 79.4806 132.04 79.4299 131.827 79.4479C131.613 79.4658 131.404 79.4365 131.201 79.3599C131.007 79.2825 130.904 79.1648 130.89 79.0067C130.877 78.8486 130.911 78.6959 130.992 78.5485C131.074 78.4012 131.192 78.307 131.348 78.2658C131.98 78.2127 132.409 78.2422 132.634 78.3545C132.868 78.4659 133.044 78.5588 133.163 78.6332C133.282 78.7075 133.386 78.8392 133.477 79.0283C133.568 79.2173 133.638 79.3754 133.686 79.5025C133.743 79.6288 133.793 79.8353 133.836 80.1221C133.895 80.6041 133.952 81.1707 134.007 81.8217C134.061 82.4635 134.047 82.8626 133.967 83.0193C133.893 83.1472 133.759 83.224 133.565 83.2497C133.37 83.2661 133.231 83.2356 133.15 83.1582C133.068 83.0807 133.006 82.8986 132.963 82.6118C132.757 82.8259 132.487 83.0171 132.155 83.1855C131.831 83.3439 131.538 83.434 131.278 83.4558C130.46 83.5246 129.735 83.1499 129.104 82.3318C128.473 81.5044 128.106 80.4769 128.003 79.2492C127.948 78.5982 128.001 77.9521 128.163 77.311C128.324 76.6606 128.567 76.1063 128.894 75.648C129.583 74.7004 130.485 74.1797 131.601 74.0859ZM137.361 79.5309L137.316 78.8183C137.295 78.5764 137.196 78.3459 137.019 78.1267C136.85 77.9067 136.426 77.2632 135.747 76.1964C135.067 75.1295 134.721 74.5263 134.71 74.3868C134.697 74.238 134.747 74.1027 134.858 73.981C134.969 73.8499 135.08 73.7797 135.192 73.7703C135.313 73.7602 135.461 73.8554 135.637 74.056C135.823 74.2559 136.191 74.7916 136.742 75.6632C137.302 76.5341 137.623 77.0129 137.705 77.0996C138.465 75.4435 139.088 74.2673 139.572 73.571C139.692 73.4391 139.79 73.3701 139.864 73.3638C139.948 73.3568 140.009 73.361 140.048 73.3765C140.279 73.4508 140.401 73.5669 140.414 73.725C140.427 73.8739 140.401 74.0072 140.335 74.125C140.27 74.2429 140.09 74.5531 139.795 75.0555C139.36 75.7852 138.991 76.5186 138.688 77.2559C138.393 77.9832 138.252 78.4258 138.265 78.5839L138.48 81.137L138.615 82.2495C138.633 82.4541 138.589 82.603 138.484 82.696C138.379 82.7798 138.243 82.8287 138.075 82.8428C137.917 82.8561 137.803 82.7767 137.732 82.6047C137.661 82.4327 137.609 82.2029 137.576 81.9154C137.542 81.6278 137.502 81.205 137.455 80.647L137.361 79.5309ZM48.5677 100.127C49.0141 100.089 49.4653 100.164 49.9211 100.35C50.3863 100.536 50.6306 100.768 50.654 101.047C50.69 101.475 50.5312 101.704 50.1778 101.734C50.0476 101.745 49.8127 101.68 49.4731 101.54C49.1335 101.4 48.8522 101.339 48.6289 101.358C47.8291 101.425 47.1895 101.84 46.7102 102.601C46.2402 103.362 46.0517 104.295 46.1447 105.402C46.2142 106.23 46.4565 106.94 46.8716 107.533C47.2866 108.125 47.7406 108.401 48.2336 108.36C48.7358 108.317 49.1127 108.122 49.3644 107.773C49.6246 107.414 49.7371 107.025 49.702 106.607C49.6825 106.374 49.6478 106.185 49.5981 106.039C49.557 105.884 49.4662 105.751 49.3258 105.641C49.1847 105.521 49.0072 105.471 48.7932 105.489C48.5793 105.507 48.3708 105.477 48.1677 105.401C47.9739 105.323 47.8703 105.206 47.857 105.048C47.8437 104.889 47.8778 104.737 47.959 104.589C48.0403 104.442 48.1589 104.348 48.3146 104.307C48.9471 104.254 49.3757 104.283 49.6006 104.395C49.8347 104.507 50.0111 104.6 50.1297 104.674C50.2484 104.748 50.3531 104.88 50.4439 105.069C50.5347 105.258 50.6042 105.416 50.6523 105.543C50.7098 105.67 50.7599 105.876 50.8027 106.163C50.8619 106.645 50.9189 107.212 50.9736 107.863C51.0275 108.504 51.0142 108.904 50.9337 109.06C50.8601 109.188 50.7261 109.265 50.5315 109.291C50.3362 109.307 50.1978 109.276 50.1164 109.199C50.035 109.122 49.9729 108.939 49.93 108.653C49.7232 108.867 49.4536 109.058 49.1212 109.226C48.7973 109.385 48.5052 109.475 48.2448 109.497C47.4263 109.565 46.7017 109.191 46.0711 108.373C45.4396 107.545 45.0723 106.518 44.9692 105.29C44.9145 104.639 44.968 103.993 45.1295 103.352C45.2903 102.701 45.5341 102.147 45.8609 101.689C46.5494 100.741 47.4516 100.221 48.5677 100.127ZM55.6182 99.5206C56.2693 99.4659 56.8402 99.6287 57.3311 100.009C58.2912 100.734 58.8438 101.961 58.9891 103.691C59.1336 105.412 58.7544 106.806 57.8513 107.875C57.3812 108.411 56.8132 108.73 56.1475 108.833C55.2639 108.907 54.5503 108.663 54.0066 108.1C53.4629 107.536 53.0528 106.892 52.7764 106.166C52.5085 105.43 52.3453 104.713 52.2867 104.015C52.1867 102.825 52.388 101.82 52.8905 101C53.4162 100.122 54.3255 99.6292 55.6182 99.5206ZM55.6178 100.687C54.3716 100.791 53.6446 101.447 53.4368 102.654C53.3704 102.978 53.3579 103.387 53.3993 103.88C53.4407 104.373 53.5817 104.937 53.8224 105.572C54.147 106.425 54.5705 107.008 55.0932 107.32C55.4002 107.519 55.7584 107.601 56.1676 107.567C56.5768 107.532 56.929 107.32 57.224 106.93C57.5183 106.531 57.7021 106.042 57.7753 105.465C57.8486 104.887 57.861 104.31 57.8126 103.734C57.7266 102.711 57.5114 101.933 57.1669 101.4C56.8317 100.866 56.3154 100.628 55.6178 100.687ZM64.3442 99.0125L69.9873 98.4542C70.264 98.5153 70.4102 98.6388 70.4258 98.8248C70.4649 99.2899 70.2937 99.5384 69.9124 99.5704C69.2149 99.629 68.477 99.7097 67.6989 99.8125C67.7196 100.616 67.7471 101.223 67.7815 101.632C67.8151 102.032 67.8366 102.288 67.8459 102.399L68.313 107.291C68.3372 107.58 68.2769 107.753 68.132 107.812C68.0235 107.859 67.8856 107.889 67.7181 107.903C67.4484 107.926 67.2867 107.785 67.2331 107.48C67.1171 106.769 66.9771 105.437 66.8131 103.484C66.6482 101.521 66.5769 100.338 66.5991 99.933C66.4046 99.9587 66.1167 99.9876 65.7354 100.02C65.354 100.052 64.8793 100.087 64.3112 100.125C64.1624 100.138 64.0422 100.101 63.9507 100.015C63.8592 99.929 63.808 99.8209 63.797 99.6907C63.7853 99.5512 63.8298 99.4116 63.9305 99.272C64.0404 99.1317 64.1783 99.0451 64.3442 99.0125ZM75.204 97.8756C75.855 97.8209 76.426 97.9837 76.9168 98.3639C77.8769 99.0888 78.4295 100.316 78.5748 102.046C78.7194 103.767 78.3401 105.161 77.437 106.23C76.9669 106.766 76.399 107.085 75.7332 107.188C74.8497 107.262 74.136 107.018 73.5923 106.455C73.0486 105.891 72.6386 105.247 72.3622 104.521C72.0943 103.785 71.931 103.068 71.8725 102.37C71.7725 101.18 71.9737 100.175 72.4762 99.3551C73.0019 98.4773 73.9112 97.9842 75.204 97.8756ZM75.2036 99.0417C73.9573 99.1464 73.2303 99.8022 73.0226 101.009C72.9561 101.333 72.9436 101.742 72.985 102.235C73.0264 102.728 73.1675 103.292 73.4081 103.927C73.7327 104.78 74.1563 105.363 74.6789 105.675C74.986 105.874 75.3441 105.956 75.7533 105.922C76.1626 105.887 76.5147 105.675 76.8097 105.285C77.104 104.886 77.2878 104.397 77.361 103.82C77.4343 103.242 77.4467 102.665 77.3983 102.089C77.3124 101.066 77.0971 100.288 76.7527 99.7546C76.4175 99.2207 75.9011 98.9831 75.2036 99.0417ZM90.453 96.5808C90.6762 96.562 90.834 96.7127 90.9264 97.0327C91.1003 98.5448 91.2626 100.198 91.4133 101.993C91.5633 103.779 91.6407 104.812 91.6456 105.093C91.6504 105.373 91.6063 105.574 91.5134 105.694C91.4205 105.814 91.2392 105.886 90.9694 105.908C90.7276 105.929 90.5942 105.79 90.5692 105.492L90.3044 102.339C90.2614 101.828 90.208 101.303 90.1441 100.765C90.0802 100.227 90.0424 99.8887 90.0307 99.7492C89.7597 100.315 89.3787 100.797 88.8876 101.194C88.3956 101.582 87.8288 101.803 87.1871 101.857C86.5453 101.911 85.9836 101.691 85.502 101.197C85.531 101.766 85.5784 102.441 85.644 103.223C85.7088 103.995 85.7818 104.808 85.863 105.663C85.8825 105.895 85.8179 106.074 85.6692 106.199C85.5289 106.314 85.3612 106.379 85.1659 106.396C84.9148 106.417 84.7763 106.274 84.7505 105.967C84.6895 105.129 84.5829 103.803 84.4305 101.99L84.0978 98.0277C84.0845 97.8696 84.1227 97.7119 84.2126 97.5545C84.3117 97.3963 84.431 97.3113 84.5705 97.2996C84.7193 97.2871 84.8577 97.3177 84.9856 97.3912C85.1128 97.4555 85.1876 97.5662 85.2102 97.7236C85.3341 98.7528 85.566 99.5061 85.9058 99.9833C86.2456 100.461 86.6201 100.682 87.0293 100.648C87.4385 100.613 87.7818 100.519 88.0592 100.364C88.3451 100.2 88.5737 100.021 88.7448 99.8291C88.9253 99.636 89.0902 99.3693 89.2396 99.0289C89.4517 98.5428 89.6454 97.9505 89.8209 97.252C89.9261 96.8311 90.1367 96.6073 90.453 96.5808ZM95.9121 96.2206C96.1447 96.2011 96.3486 96.287 96.5239 96.4783C96.6992 96.6696 96.9393 97.0756 97.2443 97.6963C97.9576 99.1631 98.7292 101.491 99.559 104.681C99.5715 104.717 99.5808 104.773 99.587 104.847C99.5925 104.912 99.5523 104.991 99.4663 105.082C99.3888 105.164 99.2664 105.211 99.099 105.225C98.9409 105.239 98.8029 105.213 98.685 105.148C98.5664 105.074 98.4811 104.95 98.429 104.776C98.3762 104.593 98.2764 104.241 98.1295 103.719C97.8071 102.557 97.6067 101.956 97.5284 101.915C97.4114 101.86 97.0335 101.821 96.3948 101.8C95.7654 101.778 95.3484 101.775 95.1438 101.792C94.9392 101.81 94.8198 101.838 94.7857 101.879C94.6308 102.042 94.4979 103.191 94.3869 105.326C94.3645 105.506 94.1952 105.609 93.879 105.636C93.5628 105.662 93.3934 105.541 93.3707 105.271C93.3145 104.601 93.4535 103.302 93.7879 101.372C94.1222 99.443 94.4264 98.1577 94.7004 97.5166C95.0432 96.6916 95.4471 96.2597 95.9121 96.2206ZM95.9864 97.7738C95.8469 97.7855 95.6398 98.2197 95.3652 99.0764C95.0899 99.9237 94.9604 100.445 94.9768 100.64C94.9807 100.687 94.9927 100.719 95.0129 100.736C95.0935 100.804 95.392 100.844 95.9082 100.857C96.4244 100.87 96.7662 100.869 96.9336 100.855C97.101 100.841 97.1933 100.824 97.2103 100.804C97.2266 100.775 97.2296 100.699 97.2195 100.578C97.2085 100.448 97.04 99.9473 96.7139 99.0755C96.387 98.1944 96.1445 97.7606 95.9864 97.7738ZM102.19 104.348C102.204 104.515 102.143 104.675 102.006 104.827C101.868 104.969 101.711 105.048 101.534 105.063C101.366 105.077 101.241 104.975 101.157 104.758C101.026 103.532 100.909 102.31 100.807 101.092L100.47 97.5799C100.41 96.8731 100.681 96.3633 101.283 96.0505C101.765 95.7758 102.351 95.6096 103.039 95.5518C103.393 95.5221 103.777 95.5788 104.191 95.7219C104.615 95.855 104.998 96.0756 105.343 96.3839C105.696 96.682 105.889 97.0264 105.921 97.4171C105.953 97.7984 105.811 98.2271 105.495 98.7032C105.179 99.17 104.774 99.5974 104.283 99.9852C103.79 100.364 103.304 100.657 102.825 100.866C103.741 101.398 104.549 101.986 105.249 102.63C105.949 103.264 106.315 103.772 106.347 104.153C106.357 104.274 106.306 104.395 106.195 104.517C106.082 104.63 105.938 104.693 105.761 104.708C105.594 104.722 105.443 104.66 105.31 104.521C105.064 104.045 104.63 103.562 104.008 103.071C103.394 102.57 102.686 102.105 101.882 101.676L102.19 104.348ZM101.783 100.167C102.404 100.087 103.079 99.7678 103.81 99.2101C104.55 98.6515 104.903 98.1769 104.871 97.7863C104.837 97.3864 104.616 97.0959 104.207 96.9148C103.799 96.7337 103.325 96.6658 102.785 96.7111C102.255 96.7556 101.837 96.8562 101.532 97.013C101.563 97.4881 101.646 98.5395 101.783 100.167ZM108.498 102.82C108.438 102.104 108.29 100.899 108.054 99.2049C107.826 97.5006 107.661 96.4233 107.558 95.9731C107.54 95.7684 107.595 95.5859 107.722 95.4253C107.849 95.2555 108 95.1632 108.177 95.1483C108.4 95.1296 108.561 95.2566 108.658 95.5294C108.885 96.4469 109.091 97.7784 109.275 99.5238C110.047 98.6815 110.638 97.9669 111.048 97.3799C111.467 96.7921 111.896 96.0489 112.336 95.1503C112.463 94.8867 112.671 94.7427 112.96 94.7185C113.108 94.706 113.233 94.7377 113.333 94.8136C113.441 94.8794 113.5 94.9681 113.51 95.0798C113.535 95.3774 113.313 95.9158 112.845 96.6951C112.385 97.4643 111.891 98.2176 111.363 98.9551C112.209 99.6707 112.955 100.517 113.599 101.493C113.684 101.617 113.795 101.771 113.933 101.956C114.07 102.142 114.176 102.287 114.25 102.393C114.453 102.685 114.563 102.938 114.581 103.152C114.599 103.366 114.558 103.548 114.458 103.697C114.367 103.835 114.242 103.911 114.084 103.925C113.926 103.938 113.704 103.751 113.419 103.362C113.132 102.965 112.72 102.41 112.183 101.696C111.654 100.972 111.105 100.344 110.535 99.8113C110.057 100.357 109.695 100.739 109.451 100.956C109.529 101.549 109.585 102.045 109.619 102.445C109.651 102.836 109.669 103.153 109.67 103.396C109.665 104.006 109.444 104.328 109.007 104.365C108.737 104.388 108.598 104.236 108.589 103.909L108.498 102.82ZM115.977 98.9608C115.84 98.8881 115.765 98.7726 115.752 98.6145C115.738 98.4564 115.777 98.308 115.869 98.1692C115.753 97.2422 115.652 96.2626 115.566 95.2302C115.603 95.0023 115.673 94.8325 115.776 94.7208C115.888 94.6084 116.055 94.5288 116.276 94.4822C117.508 94.4349 118.84 94.3511 120.273 94.2308C120.632 94.2755 120.822 94.4141 120.841 94.6466C120.874 95.0372 120.512 95.2971 119.755 95.4263C119.551 95.4528 119.328 95.4762 119.086 95.4965L118.18 95.5726C118.003 95.5875 117.511 95.5913 116.705 95.5841C116.803 96.7466 116.889 97.5449 116.963 97.9789C117.456 97.9468 118.405 97.8718 119.81 97.7539C120.15 97.7908 120.33 97.9302 120.351 98.1721C120.37 98.4046 120.251 98.5973 119.992 98.7501C119.965 98.7711 119.916 98.794 119.843 98.8188L117.426 98.9797C117.277 98.9922 117.157 99.0116 117.066 99.038L117.323 101.433C117.368 101.972 117.387 102.359 117.378 102.594L120.611 102.281C120.913 102.302 121.072 102.415 121.09 102.62C121.101 102.759 121.048 102.904 120.929 103.055C120.82 103.204 120.683 103.305 120.519 103.356L116.952 103.712C116.739 103.73 116.587 103.705 116.497 103.638C116.406 103.561 116.353 103.43 116.337 103.244C116.352 102.98 116.336 102.56 116.287 101.983L116.205 101.007L115.977 98.9608ZM122.336 94.1418L127.979 93.5835C128.256 93.6446 128.402 93.7681 128.417 93.9541C128.456 94.4191 128.285 94.6677 127.904 94.6997C127.206 94.7583 126.469 94.839 125.69 94.9418C125.711 95.7456 125.739 96.3521 125.773 96.7613C125.807 97.1612 125.828 97.417 125.837 97.5286L126.305 102.421C126.329 102.709 126.268 102.883 126.123 102.942C126.015 102.988 125.877 103.019 125.71 103.033C125.44 103.055 125.278 102.914 125.225 102.61C125.109 101.898 124.969 100.566 124.805 98.6128C124.64 96.6504 124.568 95.4669 124.591 95.0623C124.396 95.088 124.108 95.1168 123.727 95.1489C123.346 95.1809 122.871 95.2161 122.303 95.2544C122.154 95.2669 122.034 95.2302 121.942 95.1442C121.851 95.0582 121.799 94.9502 121.789 94.8199C121.777 94.6804 121.821 94.5409 121.922 94.4013C122.032 94.2609 122.17 94.1744 122.336 94.1418ZM46.9939 127.222C46.8483 126.269 46.7072 124.979 46.5705 123.351C46.433 121.715 46.3672 120.652 46.3731 120.165C46.3946 119.863 46.5828 119.651 46.9377 119.527C47.2918 119.395 47.7665 119.303 48.3617 119.253C49.236 119.18 49.9868 119.309 50.614 119.64C51.2498 119.961 51.5986 120.489 51.6603 121.224C51.711 121.829 51.6699 122.342 51.5369 122.766C51.403 123.18 51.2188 123.495 50.9841 123.711C50.6014 124.062 50.0101 124.271 49.2103 124.338C48.8662 124.367 48.4112 124.358 47.8453 124.312C48.0481 126.168 48.1651 127.339 48.1964 127.823C48.2277 128.307 48.0853 128.563 47.7691 128.59C47.5645 128.607 47.4311 128.58 47.3691 128.511C47.307 128.441 47.2655 128.393 47.2446 128.367C47.2229 128.331 47.2 128.281 47.1759 128.218C47.1518 128.154 47.1336 128.104 47.1211 128.068C47.1079 128.022 47.0932 127.958 47.0768 127.875C47.0698 127.791 47.0597 127.727 47.0465 127.681C47.0255 127.542 47.0079 127.389 46.9939 127.222ZM50.5059 121.363C50.4738 120.982 50.2442 120.701 49.817 120.522C49.3891 120.333 48.9426 120.258 48.4775 120.297C48.0125 120.336 47.6905 120.405 47.5115 120.505C47.5204 121.057 47.5444 121.565 47.5834 122.03C47.6217 122.486 47.6751 122.898 47.7435 123.267C47.997 123.274 48.171 123.283 48.2656 123.293C48.5097 123.301 48.7155 123.298 48.8829 123.284C49.0596 123.269 49.1759 123.259 49.2317 123.254C49.296 123.24 49.4111 123.216 49.5769 123.183C49.7513 123.14 49.8733 123.088 49.9431 123.026C50.0128 122.964 50.0995 122.882 50.2033 122.779C50.3071 122.677 50.3772 122.563 50.4135 122.439C50.5063 122.094 50.5371 121.735 50.5059 121.363ZM57.2221 118.453C57.8731 118.398 58.4441 118.561 58.935 118.941C59.895 119.666 60.4477 120.893 60.593 122.623C60.7375 124.344 60.3582 125.739 59.4551 126.807C58.985 127.343 58.4171 127.662 57.7513 127.765C56.8678 127.839 56.1541 127.595 55.6104 127.032C55.0667 126.469 54.6567 125.824 54.3803 125.098C54.1124 124.362 53.9491 123.645 53.8906 122.947C53.7906 121.757 53.9918 120.752 54.4943 119.932C55.02 119.055 55.9293 118.561 57.2221 118.453ZM57.2217 119.619C55.9754 119.724 55.2484 120.379 55.0407 121.586C54.9742 121.91 54.9617 122.319 55.0031 122.812C55.0445 123.305 55.1856 123.869 55.4263 124.504C55.7508 125.357 56.1744 125.94 56.697 126.252C57.0041 126.451 57.3622 126.533 57.7714 126.499C58.1807 126.465 58.5328 126.252 58.8279 125.862C59.1221 125.463 59.3059 124.975 59.3792 124.397C59.4524 123.82 59.4648 123.243 59.4164 122.666C59.3305 121.643 59.1153 120.865 58.7708 120.332C58.4356 119.798 57.9192 119.56 57.2217 119.619ZM65.1171 117.832C65.7216 117.781 66.2418 117.84 66.6775 118.01C67.1225 118.179 67.3583 118.421 67.3848 118.737C67.3966 118.877 67.3695 119.001 67.3037 119.109C67.2472 119.217 67.1492 119.277 67.0097 119.289C66.8795 119.299 66.5825 119.221 66.1189 119.054C65.6545 118.878 65.2363 118.805 64.8643 118.837C64.5016 118.867 64.1347 119.015 63.7636 119.28C63.3925 119.546 63.221 119.846 63.2491 120.18C63.2874 120.636 63.5527 120.951 64.045 121.125C64.4117 121.254 64.9307 121.355 65.6019 121.43C66.2724 121.495 66.8334 121.706 67.2847 122.061C67.7352 122.407 67.9933 122.971 68.0589 123.752C68.1589 124.943 67.8747 125.852 67.2062 126.479C66.8328 126.829 66.2788 127.035 65.544 127.097C64.8186 127.158 64.0763 127.018 63.3173 126.68C62.8219 126.468 62.5636 126.237 62.5425 125.986C62.5347 125.893 62.5633 125.787 62.6284 125.67C62.7027 125.551 62.8065 125.449 62.9397 125.362C63.073 125.276 63.1978 125.257 63.3141 125.303C63.4389 125.339 63.637 125.412 63.9083 125.52C64.1797 125.628 64.3778 125.701 64.5026 125.737C64.9057 125.853 65.2793 125.897 65.6234 125.868C65.9676 125.839 66.2837 125.644 66.5718 125.282C66.8684 124.911 66.996 124.479 66.9546 123.986C66.8999 123.335 66.5361 122.906 65.8632 122.7C65.536 122.597 65.1698 122.529 64.7644 122.498C63.9241 122.418 63.2803 122.224 62.8329 121.915C62.3846 121.597 62.1309 121.085 62.0715 120.378C62.0121 119.671 62.2679 119.092 62.8389 118.641C63.409 118.181 64.1684 117.912 65.1171 117.832ZM69.9185 117.794C70.0595 117.688 70.2231 117.628 70.4091 117.612C70.5951 117.597 70.7203 117.694 70.7848 117.904C70.8847 118.982 71.0388 120.594 71.2472 122.74C71.3573 124.051 71.4135 125.166 71.4156 126.084C71.4087 126.225 71.3309 126.358 71.1822 126.483C71.042 126.597 70.8928 126.661 70.7347 126.675C70.4743 126.697 70.3327 126.573 70.3101 126.303C70.325 125.365 70.2746 124.208 70.159 122.831L69.6816 118.151C69.7079 118.018 69.7869 117.899 69.9185 117.794ZM73.1169 117.343L78.76 116.784C79.0367 116.845 79.1829 116.969 79.1986 117.155C79.2376 117.62 79.0665 117.868 78.6852 117.9C77.9876 117.959 77.2498 118.04 76.4717 118.143C76.4923 118.946 76.5199 119.553 76.5542 119.962C76.5878 120.362 76.6093 120.618 76.6187 120.729L77.0858 125.621C77.11 125.91 77.0496 126.083 76.9047 126.142C76.7962 126.189 76.6583 126.219 76.4909 126.233C76.2212 126.256 76.0595 126.115 76.0058 125.81C75.8898 125.099 75.7498 123.767 75.5858 121.814C75.421 119.851 75.3497 118.668 75.3719 118.263C75.1773 118.289 74.8894 118.318 74.5081 118.35C74.1268 118.382 73.652 118.417 73.0839 118.455C72.9351 118.468 72.815 118.431 72.7234 118.345C72.6319 118.259 72.5807 118.151 72.5698 118.021C72.558 117.881 72.6025 117.742 72.7032 117.602C72.8132 117.462 72.9511 117.375 73.1169 117.343ZM81.1228 116.853C81.2638 116.747 81.4274 116.687 81.6134 116.671C81.7994 116.655 81.9246 116.753 81.9891 116.963C82.089 118.041 82.2431 119.653 82.4515 121.799C82.5616 123.11 82.6178 124.225 82.6199 125.143C82.613 125.284 82.5352 125.417 82.3865 125.542C82.2463 125.656 82.0971 125.72 81.939 125.734C81.6786 125.756 81.537 125.632 81.5144 125.362C81.5293 124.424 81.4789 123.267 81.3633 121.89L80.8859 117.21C80.9122 117.077 80.9912 116.958 81.1228 116.853ZM87.9576 115.871C88.6086 115.817 89.1796 115.979 89.6705 116.36C90.6305 117.085 91.1832 118.312 91.3285 120.042C91.473 121.762 91.0937 123.157 90.1907 124.226C89.7205 124.762 89.1526 125.081 88.4869 125.184C87.6033 125.258 86.8897 125.013 86.346 124.45C85.8023 123.887 85.3922 123.243 85.1158 122.516C84.8479 121.78 84.6847 121.063 84.6261 120.366C84.5261 119.175 84.7274 118.17 85.2299 117.351C85.7556 116.473 86.6648 115.98 87.9576 115.871ZM87.9572 117.037C86.7109 117.142 85.9839 117.798 85.7762 119.005C85.7098 119.329 85.6972 119.737 85.7386 120.23C85.7801 120.723 85.9211 121.287 86.1618 121.923C86.4863 122.776 86.9099 123.359 87.4325 123.671C87.7396 123.87 88.0977 123.952 88.507 123.918C88.9162 123.883 89.2683 123.671 89.5634 123.281C89.8577 122.882 90.0414 122.393 90.1147 121.816C90.1879 121.238 90.2004 120.661 90.1519 120.084C90.066 119.061 89.8508 118.283 89.5063 117.75C89.1711 117.216 88.6547 116.979 87.9572 117.037ZM98.05 115.15C98.1383 115.086 98.2568 115.048 98.4056 115.036C98.5545 115.023 98.6948 115.077 98.8266 115.197C98.9577 115.308 99.0302 115.447 99.0443 115.614C99.3497 119.251 99.5484 121.449 99.6404 122.21C99.7409 122.96 99.7919 123.344 99.7935 123.363C99.8106 123.568 99.7712 123.768 99.6753 123.963C99.5785 124.149 99.4604 124.248 99.3208 124.26C99.1906 124.271 99.0879 124.275 99.0128 124.272C98.9461 124.258 98.8841 124.245 98.8267 124.231C98.7693 124.217 98.7104 124.185 98.6499 124.133L98.4987 124.006C98.4584 123.972 98.4014 123.906 98.3277 123.809C98.2625 123.702 98.2086 123.618 98.1659 123.556C98.1232 123.494 98.0534 123.387 97.9564 123.236C97.8679 123.075 97.6678 122.755 97.3559 122.275C97.0533 121.795 96.7782 121.364 96.5307 120.982C95.6827 119.695 94.9097 118.687 94.2116 117.959C94.4655 120.982 94.5579 123.086 94.4889 124.272C94.4798 124.498 94.3171 124.624 94.0009 124.65C93.8521 124.663 93.7234 124.636 93.6148 124.57C93.5156 124.504 93.4589 124.387 93.4448 124.219C93.4308 124.052 93.386 123.128 93.3105 121.449C93.2443 119.769 93.194 118.724 93.1596 118.314C93.1245 117.896 93.1022 117.631 93.0929 117.519C93.0366 116.85 93.0561 116.469 93.1514 116.376C93.2467 116.284 93.3501 116.233 93.4617 116.224C93.9733 116.181 94.8248 116.952 96.0164 118.538C96.2483 118.847 96.6964 119.497 97.3605 120.491C98.0238 121.474 98.4215 122.083 98.5534 122.315L97.8997 116.54C97.8325 115.74 97.8826 115.277 98.05 115.15ZM101.676 115.127C101.817 115.021 101.98 114.96 102.166 114.945C102.352 114.929 102.478 115.026 102.542 115.236C102.642 116.315 102.796 117.927 103.005 120.073C103.115 121.384 103.171 122.499 103.173 123.416C103.166 123.557 103.088 123.69 102.94 123.815C102.799 123.93 102.65 123.994 102.492 124.007C102.232 124.029 102.09 123.905 102.067 123.636C102.082 122.698 102.032 121.541 101.916 120.164L101.439 115.484C101.465 115.35 101.544 115.231 101.676 115.127ZM110.153 114.134C110.242 114.07 110.36 114.032 110.509 114.019C110.658 114.007 110.798 114.061 110.93 114.181C111.061 114.291 111.134 114.431 111.148 114.598C111.453 118.234 111.652 120.433 111.744 121.193C111.844 121.943 111.895 122.328 111.897 122.346C111.914 122.551 111.875 122.751 111.779 122.946C111.682 123.132 111.564 123.231 111.424 123.243C111.294 123.254 111.191 123.258 111.116 123.255C111.05 123.242 110.988 123.228 110.93 123.214C110.873 123.2 110.814 123.168 110.753 123.117L110.602 122.989C110.562 122.955 110.505 122.889 110.431 122.793C110.366 122.686 110.312 122.601 110.269 122.539C110.227 122.477 110.157 122.371 110.06 122.22C109.971 122.059 109.771 121.738 109.459 121.259C109.157 120.778 108.882 120.347 108.634 119.965C107.786 118.678 107.013 117.671 106.315 116.943C106.569 119.965 106.661 122.07 106.592 123.256C106.583 123.481 106.421 123.607 106.104 123.634C105.956 123.646 105.827 123.62 105.718 123.554C105.619 123.487 105.562 123.37 105.548 123.203C105.534 123.035 105.489 122.112 105.414 120.432C105.348 118.752 105.297 117.707 105.263 117.298C105.228 116.879 105.206 116.614 105.196 116.503C105.14 115.833 105.16 115.452 105.255 115.36C105.35 115.268 105.454 115.217 105.565 115.207C106.077 115.164 106.928 115.936 108.12 117.522C108.352 117.83 108.8 118.481 109.464 119.474C110.127 120.458 110.525 121.066 110.657 121.299L110.003 115.523C109.936 114.723 109.986 114.26 110.153 114.134ZM116.983 113.447C117.43 113.41 117.881 113.485 118.337 113.671C118.802 113.857 119.046 114.089 119.07 114.368C119.105 114.796 118.947 115.025 118.593 115.054C118.463 115.065 118.228 115.001 117.889 114.861C117.549 114.721 117.268 114.66 117.044 114.679C116.245 114.746 115.605 115.16 115.126 115.922C114.656 116.682 114.467 117.616 114.56 118.723C114.63 119.551 114.872 120.261 115.287 120.853C115.702 121.446 116.156 121.722 116.649 121.68C117.151 121.638 117.528 121.443 117.78 121.094C118.04 120.735 118.153 120.346 118.117 119.927C118.098 119.695 118.063 119.506 118.014 119.36C117.972 119.204 117.882 119.071 117.741 118.961C117.6 118.842 117.423 118.791 117.209 118.809C116.995 118.827 116.786 118.798 116.583 118.721C116.389 118.644 116.286 118.526 116.272 118.368C116.259 118.21 116.293 118.057 116.375 117.91C116.456 117.763 116.574 117.669 116.73 117.627C117.363 117.574 117.791 117.604 118.016 117.716C118.25 117.827 118.427 117.92 118.545 117.995C118.664 118.069 118.769 118.201 118.859 118.39C118.95 118.579 119.02 118.737 119.068 118.864C119.125 118.99 119.175 119.197 119.218 119.484C119.277 119.966 119.334 120.532 119.389 121.183C119.443 121.825 119.43 122.224 119.349 122.381C119.276 122.509 119.142 122.586 118.947 122.611C118.752 122.628 118.613 122.597 118.532 122.52C118.45 122.442 118.388 122.26 118.346 121.973C118.139 122.187 117.869 122.379 117.537 122.547C117.213 122.705 116.921 122.796 116.66 122.817C115.842 122.886 115.117 122.511 114.487 121.693C113.855 120.866 113.488 119.838 113.385 118.611C113.33 117.96 113.383 117.314 113.545 116.673C113.706 116.022 113.95 115.468 114.276 115.01C114.965 114.062 115.867 113.541 116.983 113.447ZM51.7481 137.993C52.1945 137.956 52.6457 138.03 53.1016 138.217C53.5667 138.403 53.811 138.635 53.8345 138.914C53.8704 139.342 53.7117 139.571 53.3582 139.6C53.228 139.611 52.9931 139.547 52.6536 139.407C52.314 139.267 52.0326 139.206 51.8094 139.225C51.0095 139.292 50.3699 139.706 49.8907 140.468C49.4207 141.228 49.2322 142.162 49.3251 143.269C49.3946 144.097 49.6369 144.807 50.052 145.399C50.4671 145.992 50.921 146.268 51.414 146.226C51.9162 146.184 52.2932 145.989 52.5448 145.64C52.805 145.281 52.9176 144.892 52.8824 144.473C52.8629 144.241 52.8283 144.052 52.7786 143.906C52.7374 143.75 52.6466 143.617 52.5062 143.507C52.3651 143.388 52.1876 143.337 51.9737 143.355C51.7597 143.373 51.5512 143.344 51.3481 143.267C51.1543 143.19 51.0507 143.072 51.0375 142.914C51.0242 142.756 51.0582 142.603 51.1395 142.456C51.2208 142.309 51.3393 142.215 51.495 142.173C52.1275 142.12 52.5561 142.15 52.781 142.262C53.0151 142.373 53.1915 142.466 53.3102 142.541C53.4288 142.615 53.5335 142.747 53.6243 142.936C53.7151 143.125 53.7846 143.283 53.8328 143.41C53.8902 143.536 53.9403 143.743 53.9831 144.03C54.0424 144.512 54.0993 145.078 54.154 145.729C54.2079 146.371 54.1946 146.77 54.1141 146.927C54.0405 147.055 53.9065 147.132 53.712 147.157C53.5166 147.174 53.3783 147.143 53.2968 147.066C53.2154 146.988 53.1533 146.806 53.1105 146.519C52.9036 146.733 52.634 146.925 52.3016 147.093C51.9778 147.251 51.6856 147.342 51.4252 147.363C50.6067 147.432 49.8822 147.057 49.2515 146.239C48.62 145.412 48.2527 144.384 48.1496 143.157C48.0949 142.506 48.1484 141.86 48.31 141.219C48.4708 140.568 48.7145 140.014 49.0413 139.556C49.7298 138.608 50.632 138.087 51.7481 137.993ZM56.9187 146.284C56.9327 146.451 56.8712 146.611 56.7341 146.763C56.5962 146.906 56.439 146.984 56.2622 146.999C56.0948 147.013 55.9692 146.911 55.8854 146.694C55.7543 145.468 55.6377 144.247 55.5353 143.028L55.1982 139.516C55.1388 138.809 55.4098 138.299 56.0111 137.987C56.4938 137.712 57.0792 137.546 57.7675 137.488C58.1209 137.458 58.505 137.515 58.9198 137.658C59.343 137.791 59.7269 138.012 60.0712 138.32C60.4241 138.618 60.6169 138.963 60.6497 139.353C60.6817 139.735 60.5398 140.163 60.2239 140.639C59.9071 141.106 59.5028 141.534 59.0109 141.921C58.5182 142.3 58.0324 142.594 57.5535 142.802C58.4693 143.334 59.2773 143.922 59.9776 144.566C60.6772 145.2 61.0429 145.708 61.075 146.089C61.0851 146.21 61.0344 146.332 60.9229 146.453C60.8106 146.566 60.6661 146.629 60.4894 146.644C60.322 146.658 60.1715 146.596 60.0381 146.457C59.7921 145.982 59.3581 145.498 58.7362 145.007C58.1228 144.506 57.414 144.041 56.61 143.612L56.9187 146.284ZM56.5113 142.103C57.1321 142.023 57.8078 141.704 58.5384 141.146C59.2782 140.588 59.6317 140.113 59.5989 139.722C59.5653 139.323 59.3442 139.032 58.9356 138.851C58.5271 138.67 58.053 138.602 57.5136 138.647C56.9835 138.692 56.5658 138.792 56.2605 138.949C56.291 139.424 56.3746 140.476 56.5113 142.103ZM65.8313 136.797C66.4824 136.742 67.0533 136.905 67.5442 137.285C68.5042 138.01 69.0569 139.237 69.2022 140.967C69.3467 142.688 68.9674 144.082 68.0644 145.151C67.5943 145.687 67.0263 146.006 66.3606 146.109C65.477 146.183 64.7634 145.939 64.2197 145.376C63.676 144.812 63.2659 144.168 62.9895 143.442C62.7216 142.706 62.5584 141.989 62.4998 141.291C62.3998 140.101 62.6011 139.096 63.1036 138.276C63.6293 137.398 64.5385 136.905 65.8313 136.797ZM65.8309 137.963C64.5846 138.067 63.8576 138.723 63.6499 139.93C63.5835 140.254 63.571 140.663 63.6124 141.156C63.6538 141.649 63.7948 142.213 64.0355 142.848C64.3601 143.701 64.7836 144.284 65.3062 144.596C65.6133 144.795 65.9715 144.877 66.3807 144.843C66.7899 144.808 67.1421 144.596 67.4371 144.206C67.7314 143.807 67.9151 143.318 67.9884 142.741C68.0617 142.163 68.0741 141.586 68.0256 141.01C67.9397 139.987 67.7245 139.209 67.38 138.676C67.0448 138.142 66.5285 137.904 65.8309 137.963ZM78.0313 135.744C78.2266 135.727 78.3732 135.856 78.471 136.128C78.4941 137.072 78.4899 137.747 78.4584 138.153C78.4261 138.549 78.3992 138.897 78.3777 139.199C78.3655 139.5 78.3548 139.707 78.3456 139.82C78.3456 139.932 78.3276 140.163 78.2914 140.513C78.2552 140.862 78.2143 141.212 78.1688 141.563C78.1318 141.903 78.1068 142.106 78.0936 142.173C78.0898 142.239 78.0413 142.665 77.948 143.45C77.8539 144.226 77.7725 144.706 77.7036 144.889C77.6433 145.063 77.5154 145.158 77.3201 145.174C77.1341 145.19 76.9806 145.147 76.8596 145.045C76.3826 144.495 75.9171 143.803 75.4631 142.97C75.3514 142.755 75.2241 142.522 75.0813 142.272C74.9478 142.021 74.8477 141.832 74.781 141.707L74.6308 141.424C74.4636 141.776 74.2416 142.366 73.9646 143.194C73.6877 144.023 73.4393 144.69 73.2195 145.196C73.0701 145.424 72.893 145.546 72.6884 145.563C72.2606 145.599 71.8394 144.487 71.4248 142.227C71.424 142.218 71.4104 142.168 71.384 142.076C71.3669 141.984 71.3346 141.823 71.2872 141.593C71.2491 141.362 71.1997 141.108 71.139 140.833C71.0869 140.547 70.8718 139.38 70.4938 137.332C70.4782 137.146 70.5339 136.973 70.6609 136.812C70.7871 136.643 70.9339 136.551 71.1014 136.537C71.306 136.519 71.4568 136.643 71.5539 136.906C72.0588 139.908 72.4974 142.119 72.8696 143.539C72.9331 143.403 73.0878 142.959 73.3338 142.208C73.579 141.447 73.8092 140.842 74.0244 140.393C74.2388 139.935 74.4623 139.696 74.6948 139.677C74.8529 139.664 74.9948 139.736 75.1205 139.894C75.8462 141.51 76.4469 142.639 76.9224 143.283C76.9231 143.18 76.9555 142.896 77.0195 142.432L77.1259 141.524C77.1212 141.468 77.1239 141.388 77.1339 141.284C77.1532 141.18 77.1636 141.08 77.1651 140.987C77.1751 140.883 77.1859 140.788 77.1974 140.703L77.2771 139.811C77.3847 138.416 77.4293 137.274 77.4109 136.386C77.4348 136.225 77.5072 136.083 77.628 135.96C77.7574 135.828 77.8918 135.756 78.0313 135.744ZM79.9387 135.836L85.5818 135.278C85.8585 135.339 86.0047 135.463 86.0203 135.649C86.0594 136.114 85.8883 136.362 85.5069 136.394C84.8094 136.453 84.0716 136.534 83.2934 136.637C83.3141 137.44 83.3416 138.047 83.376 138.456C83.4096 138.856 83.4311 139.112 83.4405 139.223L83.9075 144.115C83.9318 144.404 83.8714 144.577 83.7265 144.636C83.618 144.683 83.4801 144.713 83.3127 144.727C83.043 144.75 82.8813 144.609 82.8276 144.304C82.7116 143.593 82.5716 142.261 82.4076 140.308C82.2428 138.345 82.1715 137.162 82.1937 136.757C81.9991 136.783 81.7112 136.812 81.3299 136.844C80.9486 136.876 80.4738 136.911 79.9057 136.949C79.7569 136.962 79.6368 136.925 79.5452 136.839C79.4537 136.753 79.4025 136.645 79.3916 136.515C79.3798 136.375 79.4243 136.236 79.525 136.096C79.635 135.956 79.7729 135.869 79.9387 135.836ZM88.7015 138.838C89.4371 138.898 90.1071 138.902 90.7117 138.851C91.3162 138.801 91.7018 138.764 91.8684 138.74C91.7905 138.035 91.7241 137.357 91.6695 136.706C91.6148 136.055 91.5777 135.613 91.5581 135.38C91.5386 135.148 91.5358 135.003 91.5497 134.946C91.5628 134.879 91.6182 134.813 91.7158 134.749C91.8135 134.685 91.9599 134.644 92.1552 134.628C92.4343 134.604 92.5878 134.76 92.616 135.095L93.0307 140.033C93.1167 141.057 93.1879 142.184 93.2446 143.415C93.2579 143.686 93.0414 143.84 92.5949 143.877C92.3717 143.896 92.2488 143.771 92.2261 143.501L91.9714 139.799C91.6754 139.843 91.2669 139.887 90.7461 139.93C90.2346 139.973 89.5835 139.972 88.7929 139.926C88.896 141.153 89.0596 142.432 89.2837 143.762C89.3055 143.91 89.2501 144.032 89.1177 144.127C88.9844 144.213 88.8108 144.266 88.5969 144.283C88.3923 144.301 88.2717 144.203 88.2351 143.991C88.0033 142.68 87.8335 141.383 87.7257 140.1L87.4438 135.74C87.4282 135.554 87.4866 135.413 87.6191 135.318C87.7508 135.213 87.8957 135.154 88.0538 135.141C88.3142 135.119 88.455 135.234 88.4761 135.485L88.7015 138.838Z" fill="black"/>
<path d="M4.37056 46.115C4.31873 45.7976 4.39901 45.5014 4.61141 45.2266C4.83779 44.9324 5.01098 44.7326 5.13099 44.6273C5.26497 44.5025 5.35293 44.4109 5.39487 44.3526C5.72663 45.8592 6.87815 46.4516 8.84944 46.1297C10.4031 45.876 12.1366 45.0956 14.0499 43.7884C15.4109 42.8801 16.2847 42.0342 16.6713 41.2507C16.8029 41.0063 16.8578 40.8172 16.8359 40.6836C16.8114 40.5332 16.7672 40.4204 16.7035 40.345L5.92356 39.7127C5.61194 39.6949 5.29641 39.6007 4.97695 39.4299C4.39905 39.1469 4.08555 38.8551 4.03645 38.5544C3.84823 37.4017 4.49633 36.2239 5.98074 35.021C7.61857 33.7074 9.90709 32.5447 12.8463 31.5331C13.5121 31.3043 14.0107 31.1543 14.3421 31.083C14.4478 31.1001 14.6036 31.1089 14.8096 31.1096C15.0295 31.0909 15.2521 31.0888 15.4774 31.1035C16.0144 31.1358 16.2671 31.3176 16.2354 31.6486C16.3281 32.2166 15.3159 32.845 13.1987 33.5337C10.4603 34.4096 8.76347 35.0469 8.10819 35.4454C7.46963 35.8413 7.01619 36.2155 6.74788 36.568C6.49628 36.9178 6.39622 37.3029 6.44771 37.7233C6.46135 37.8068 6.66847 37.8673 7.06907 37.9048C7.46967 37.9423 7.94954 37.9926 8.50868 38.0556C9.06509 38.102 9.78839 38.1726 10.6786 38.2673C12.8428 38.4971 15.4994 38.8008 18.6483 39.1785C18.8754 39.5187 19.0148 39.8476 19.0667 40.165C19.2113 41.0504 18.8325 41.9869 17.9304 42.9747C16.911 44.0844 15.4174 45.1258 13.4495 46.0989C11.8134 46.8978 10.4858 47.3804 9.46674 47.5468C8.61474 47.6859 7.77996 47.6679 6.96239 47.4926C6.14482 47.3174 5.52073 47.1192 5.09012 46.8979C4.65951 46.6766 4.41966 46.4157 4.37056 46.115ZM32.3921 31.1458L30.1537 31.4598C29.5689 31.5553 28.9019 31.7242 28.1525 31.9667C28.2255 32.6236 28.2964 33.4782 28.3653 34.5303C28.6146 38.2629 28.8293 40.6805 29.0093 41.7831C29.1867 42.8689 29.3288 43.6347 29.4359 44.0803L27.109 44.6403L25.8645 32.1344L20.4779 32.7053C20.3443 32.7271 20.2179 32.6363 20.0989 32.4327C19.9967 32.2264 19.9305 32.0314 19.9005 31.8477C19.8705 31.6639 19.9129 31.4512 20.0278 31.2094C20.1427 30.9677 20.3004 30.8305 20.5009 30.7977C21.7286 30.6487 22.9701 30.5318 24.2254 30.4468C26.5469 30.2736 28.5095 30.056 30.1132 29.7942L31.6587 29.4904C32.8727 29.2578 34.0621 28.9264 35.2267 28.4961C35.5022 28.5026 35.7375 28.893 35.9325 29.6672C35.9765 29.8315 36.0067 29.9638 36.023 30.0641C34.9723 30.5615 33.7619 30.9221 32.3921 31.1458ZM39.9193 27.2668C40.6935 26.2314 42.2834 25.5172 44.6891 25.1244C46.1926 24.8789 47.4784 24.8233 48.5466 24.9576C49.6148 25.0919 50.4267 25.2852 50.9824 25.5375C51.5549 25.7871 51.8738 26.1123 51.9393 26.5133C52.0893 27.4321 51.1688 28.5171 49.1778 29.7684C48.8849 29.9706 48.1001 30.416 46.8233 31.1048C45.5605 31.774 44.7088 32.2304 44.2683 32.4738C43.312 33.0245 42.6845 33.4357 42.3859 33.7074C42.3995 33.7909 42.4452 33.8606 42.523 33.9165C42.598 33.9558 42.773 34.0301 43.0482 34.1395C43.3206 34.2322 43.7292 34.3713 44.274 34.5568C44.8161 34.7255 45.5694 34.9799 46.5339 35.3198C49.408 36.3255 52.3737 37.4191 55.4309 38.6008C55.5809 38.6792 55.7795 38.7925 56.0267 38.9408C56.2712 39.0724 56.4111 39.2468 56.4466 39.464C56.4793 39.6645 56.4357 39.8174 56.3157 39.9227C56.1957 40.0281 56.0465 40.1125 55.8682 40.1759C55.6926 40.256 55.5046 40.3124 55.3041 40.3452L54.8029 40.427C54.4688 40.4815 53.7085 40.2369 52.5221 39.6932C51.3523 39.1467 50.3312 38.6702 49.4587 38.2639C48.603 37.8548 47.7332 37.4651 46.8495 37.0948C44.7626 36.1836 43.1379 35.6342 41.9753 35.4467L42.9123 41.1851C42.9668 41.5193 42.7101 41.7327 42.1421 41.8254L41.8665 41.8704C41.5156 41.9277 41.2281 41.7946 41.0037 41.4711C40.6826 40.9747 40.4047 40.0081 40.1701 38.5714L39.4228 33.5223C39.0191 31.0499 38.5559 28.8958 38.0332 27.0602C38.3223 26.3098 38.8192 26.2544 39.5239 26.894C39.6849 27.0392 39.8166 27.1635 39.9193 27.2668ZM48.4382 26.1845L46.8053 26.4254C43.0298 27.0419 40.9289 27.8309 40.5028 28.7923C40.3739 29.0535 40.3395 29.3678 40.3995 29.7353C40.4568 30.0862 40.524 30.3925 40.601 30.6543C40.7964 31.3256 41.069 31.7871 41.4188 32.0387C41.4716 32.0472 41.5565 32.0419 41.6735 32.0228C41.8071 32.001 42.0355 31.9294 42.3587 31.808C42.6987 31.6839 43.139 31.492 43.6797 31.2322C44.2344 30.9529 44.817 30.6348 45.4277 30.2778C46.0383 29.9209 46.6225 29.5596 47.1802 29.1941C48.9289 28.0339 49.7595 27.1865 49.6722 26.6519C49.6231 26.3512 49.2118 26.1954 48.4382 26.1845ZM71.2284 28.0202L71.93 27.9056C72.214 27.8592 72.4854 27.8406 72.7442 27.8498C73.0197 27.8563 73.1833 28.0183 73.2352 28.3357C73.4612 28.9848 73.1218 29.3747 72.217 29.5053C71.9637 29.5295 71.7271 29.551 71.5071 29.5697C71.3039 29.5857 71.1369 29.613 71.006 29.6516C70.8723 29.6734 70.8207 29.7247 70.851 29.8055C71.0972 30.2627 71.3613 30.777 71.6432 31.3484C71.9419 31.9171 72.2573 32.483 72.5894 33.0462C73.4335 34.4348 74.1761 35.4113 74.8171 35.9755C74.5904 36.3727 74.304 36.7196 73.958 37.0162C73.6286 37.3101 73.4472 37.4598 73.4138 37.4653C73.3971 37.468 73.3791 37.4624 73.3596 37.4484L68.6111 30.5829L62.0442 33.3789L61.9655 34.4722C61.7947 36.4725 61.47 37.8976 60.9913 38.7476C60.9184 38.931 60.7123 38.9818 60.373 38.9C59.8057 38.7868 59.5111 38.6634 59.4893 38.5298C59.4839 38.4964 59.5802 37.9833 59.7782 36.9905C59.9763 35.9976 60.173 34.9965 60.3683 33.987C60.5776 32.958 60.7885 31.8859 61.0009 30.7707C61.23 29.6528 61.4422 28.5891 61.6375 27.5795C61.8328 26.57 62.0111 25.6662 62.1724 24.8681C62.3309 24.0532 62.4413 23.4692 62.5037 23.116C62.5634 22.7461 62.5895 22.4331 62.582 22.177C62.5884 21.9016 62.6184 21.6651 62.6719 21.4677C62.7763 21.0562 63.1625 20.7959 63.8308 20.6868C64.6146 20.9704 65.2518 21.4066 65.7424 21.9954C66.247 22.5648 66.693 23.1952 67.0803 23.8866C67.4843 24.5753 67.8814 25.2737 68.2714 25.9818C68.6615 26.6899 69.1325 27.3162 69.6845 27.8606C69.873 28.07 70.119 28.1584 70.4224 28.126C70.7259 28.0937 70.9945 28.0584 71.2284 28.0202ZM64.0799 23.6304C64.1126 24.6713 63.9824 25.7645 63.6892 26.9101C63.3961 28.0556 63.1566 28.9523 62.9708 29.6001C62.7823 30.2311 62.6287 30.8136 62.51 31.3476C63.646 31.1621 64.9864 30.6002 66.5312 29.6619C66.9188 29.4099 67.2925 29.1774 67.6522 28.9643C66.3187 25.7346 65.1279 23.9567 64.0799 23.6304ZM86.96 22.2355L84.7216 22.5496C84.1369 22.6451 83.4699 22.814 82.7205 23.0564C82.7935 23.7134 82.8644 24.568 82.9333 25.6201C83.1826 29.3527 83.3973 31.7703 83.5773 32.8728C83.7546 33.9587 83.8968 34.7245 84.0038 35.1701L81.677 35.7301L80.4325 23.2242L75.0458 23.7951C74.9122 23.8169 74.7859 23.726 74.6669 23.5225C74.5646 23.3162 74.4985 23.1212 74.4684 22.9375C74.4384 22.7537 74.4809 22.5409 74.5958 22.2992C74.7107 22.0575 74.8683 21.9203 75.0688 21.8875C76.2965 21.7385 77.538 21.6215 78.7934 21.5366C81.1148 21.3634 83.0774 21.1458 84.6812 20.884L86.2266 20.5801C87.4407 20.3476 88.63 20.0162 89.7947 19.5859C90.0701 19.5924 90.3054 19.9827 90.5004 20.757C90.5444 20.9213 90.5746 21.0536 90.591 21.1539C89.5402 21.6513 88.3299 22.0119 86.96 22.2355ZM100.208 16.3676C101.879 16.0948 103.007 16.022 103.594 16.1492L103.795 17.3771C103.355 17.5175 102.743 17.6602 101.961 17.8051C101.176 17.9333 100.342 18.0781 99.4591 18.2394C96.9948 18.6932 95.328 19.094 94.4586 19.4418C94.3928 20.8246 94.4078 21.7569 94.5036 22.2387C94.5995 22.7204 94.6775 23.0936 94.7379 23.3581C94.9111 23.9987 95.07 24.7618 95.2146 25.6472C96.3506 25.4617 97.6289 25.15 99.0496 24.7122C100.487 24.2717 101.6 23.9442 102.388 23.7298C103.174 23.4986 103.992 23.3134 104.844 23.1743L105.069 24.5526L95.6682 27.3225L96.4896 31.4076C98.1435 31.1375 99.8185 30.7869 101.515 30.3555C103.225 29.9048 104.517 29.5737 105.392 29.3623C106.28 29.1315 107.225 28.9342 108.228 28.7706C108.282 29.1047 108.234 29.4384 108.083 29.7719C107.769 30.3719 107.436 30.5893 107.083 30.424C104.194 31.2215 101.604 31.9017 99.3121 32.4646C97.0367 33.0248 95.5035 33.4038 94.7125 33.6016L92.2022 17.5977C92.6584 17.6604 93.4712 17.5963 94.6406 17.4054L100.208 16.3676ZM123.059 30.2336L122.31 25.6478C120.9 26.9929 119.915 27.8912 119.354 28.343C118.046 29.3628 116.849 29.9613 115.763 30.1386C114.46 30.3514 113.263 30.058 112.172 29.2586C111.059 28.4284 110.398 27.3785 110.191 26.1089C110.056 24.7587 110.119 23.3592 110.38 21.9102C110.908 18.8397 112.222 16.4383 114.323 14.706C115.364 13.8328 116.636 13.2735 118.14 13.028C118.173 13.0225 118.207 13.0171 118.24 13.0116L118.913 12.8761C119.681 12.7506 120.081 12.994 120.112 13.6063C118.787 13.8914 117.584 14.405 116.505 15.1473C115.426 15.8895 114.528 16.7993 113.812 17.8767C113.11 18.9346 112.609 20.1226 112.31 21.4407C112.028 22.756 111.991 24.0569 112.201 25.3432C112.411 26.6296 112.897 27.5022 113.658 27.9611C114.419 28.42 115.326 28.5635 116.378 28.3916C117.28 28.2443 118.469 27.6472 119.944 26.6001C120.882 25.9325 121.549 25.2404 121.947 24.5238C122.148 24.1821 122.222 23.8443 122.167 23.5102L121.561 19.8015C121.06 19.8833 119.922 20.2664 118.147 20.9507C116.389 21.6322 115.372 22.0213 115.096 22.1177C115.005 22.0813 114.896 22.0475 114.771 22.0165C114.643 21.9688 114.561 21.8878 114.526 21.7736C114.451 21.5285 114.756 21.0842 115.44 20.4408C115.607 20.3106 116.679 19.9384 118.654 19.3244C120.626 18.6936 121.881 18.2914 122.418 18.1179C122.956 17.9444 123.405 17.8025 123.764 17.6924C123.937 17.6985 124.145 17.6644 124.39 17.5901C124.633 17.4991 124.864 17.4442 125.084 17.4254C125.621 17.3548 125.92 17.6063 125.979 18.1797L124.038 19.3713C123.887 20.4422 124.042 22.3893 124.503 25.2126L125.163 28.9381C125.217 29.2723 125.268 29.5813 125.314 29.8653C124.854 30.1977 124.39 30.4021 123.922 30.4785C123.455 30.5549 123.167 30.4733 123.059 30.2336ZM136.519 27.2382C136.252 27.2819 135.954 27.2447 135.626 27.1267C134.984 26.8714 134.7 26.6005 134.773 26.3141C134.916 25.9306 135.061 25.1867 135.206 24.0824L135.515 21.7166C135.631 20.96 135.735 20.1283 135.827 19.2214L128.024 13.498C127.882 13.3667 127.802 13.2426 127.783 13.1257C127.764 13.0087 127.816 12.9059 127.938 12.8173C128.139 12.6816 128.39 12.5892 128.691 12.5401C129.008 12.4883 129.334 12.4865 129.667 12.5349C130.018 12.5806 130.468 12.7644 131.018 13.0862C132.101 13.7326 133.94 15.1732 136.535 17.408C137.051 14.3736 137.46 12.4117 137.76 11.5222C138.058 10.616 138.314 10.0255 138.526 9.75067C138.752 9.45644 138.964 9.2846 139.162 9.23516C139.377 9.183 139.562 9.16134 139.717 9.1702C139.873 9.17907 140.001 9.27828 140.101 9.46783C139.763 10.655 139.466 11.9898 139.211 13.4722C138.969 14.9351 138.72 16.4509 138.461 18.0196C137.785 22.1777 137.138 25.2505 136.519 27.2382Z" fill="black"/>
<path d="M30.2281 64.6631C31.3372 64.2644 32.8558 63.752 33.98 63.3913C34.3331 63.2779 34.1612 63.3568 34.4048 63.28C34.8737 63.1327 35.3386 62.9689 35.8153 62.8239C35.9744 62.7757 35.7879 62.8726 35.9545 62.8215C36.8718 62.5409 37.6964 62.2687 38.6385 61.9829C43.1847 60.607 47.6806 59.3612 52.3476 58.238C53.8983 57.8637 55.7795 57.4763 57.3714 57.1048C57.5567 57.0614 57.4356 57.038 57.4701 57.0263C58.0118 56.8441 57.85 56.9808 58.217 56.9149C59.6747 56.653 61.2832 56.3307 62.6746 56.0409C63.266 55.9178 62.6516 55.932 63.2605 55.8734C63.3029 55.8692 63.1621 55.952 63.3263 55.9266C63.6987 55.8686 64.3986 55.7276 64.6861 55.6792C65.2401 55.5862 65.3313 55.5691 65.8542 55.4757C66.5694 55.3486 67.425 55.2279 68.192 55.0854C68.3557 55.0547 68.1287 55.034 68.3889 54.98C68.6489 54.9259 69.3419 54.8157 69.578 54.7913C69.8139 54.7668 69.7218 54.8286 69.7648 54.8323C70.1191 54.8648 70.9032 54.6146 71.0065 54.5953C72.8783 54.2469 74.5048 54.0795 76.281 53.8315C77.6068 53.6463 79.0494 53.4312 80.3099 53.2732C80.3204 53.2719 80.3309 53.2706 80.3415 53.2693C81.8738 53.0782 83.161 52.9538 84.6548 52.7713C84.8127 52.7521 84.6193 52.7038 84.8122 52.6802C86.836 52.4334 88.8524 52.2148 90.9001 52.0401C91.1059 52.0226 90.8495 52.1128 91.053 52.0992C92.2769 52.0171 94.2951 51.9257 94.9836 51.5833C95.8176 51.5064 96.8638 51.4087 97.6147 51.3857C98.0992 51.3707 97.6383 51.4857 98.2276 51.3962C98.3608 51.3761 98.1807 51.3355 98.381 51.3097C99.2195 51.2019 100.179 51.123 101.002 51.0087C101.171 50.9852 101.119 50.9376 101.166 50.9233C101.561 50.8062 102.251 50.8634 102.401 50.8574C103.542 50.8104 104.359 50.7005 105.4 50.5967C105.643 50.5726 105.349 50.5318 105.583 50.506C106.803 50.3724 108.059 50.2514 109.246 50.1621C109.511 50.1422 109.274 50.2261 109.401 50.2196C109.963 50.1902 110.076 50.0658 110.62 50.0349C110.735 50.0282 110.675 50.0853 110.697 50.0887C111.036 50.1422 111.294 49.9911 111.376 49.98C112.405 49.8374 113.086 49.8975 114.106 49.7741C114.228 49.7591 113.945 49.724 114.29 49.6859C116.532 49.4374 118.954 49.2028 121.185 49.0166C121.537 48.9871 121.292 49.0608 121.314 49.0643C121.684 49.1167 121.905 48.9702 122.019 48.9533C122.941 48.8218 123.745 48.8379 124.344 48.6277C125.174 48.5494 126.011 48.4632 126.856 48.3728L126.929 48.847C123.976 49.4206 121.12 50.0115 118.175 50.4974C118.128 50.5053 118.2 50.4316 118.106 50.4476C116.983 50.6384 117.202 50.6868 116.471 50.9445C116.286 51.0095 115.684 50.9945 115.632 50.9951C115.44 50.9971 115.615 50.8746 115.552 50.8802C115.03 50.9295 115.168 51.1907 114.485 51.3274C114.463 51.3312 114.543 51.2623 114.485 51.2687C114.303 51.2885 114.122 51.3459 113.94 51.364C113.524 51.4053 113.351 51.3006 112.749 51.5028C112.673 51.5286 112.822 51.6612 112.207 51.7771C111.968 51.822 110.87 52.0457 110.559 52.0979C110.25 52.1497 110.451 52.0573 110.429 52.0595C109.591 52.16 109.899 52.0695 109.468 52.0552C109.04 52.0412 109.201 52.2495 109.04 52.309C108.884 52.3673 108.26 52.4374 108.107 52.449C107.954 52.4606 108.134 52.3912 107.999 52.4076C107.106 52.5171 107.637 52.6002 107.355 52.6953C106.691 52.9202 106.153 52.8526 105.511 52.9668C105.341 52.997 105.487 53.0072 105.337 53.0417C104.743 53.1774 104.376 53.198 103.719 53.3828C103.616 53.4122 103.085 53.6261 102.714 53.6255C102.662 53.6252 102.796 53.5541 102.54 53.5971C102.157 53.6614 101.478 53.7922 101.083 53.8886C100.788 53.9601 101.147 53.957 100.762 54.0146C100.59 54.0403 100.897 53.9353 100.575 53.987C100.253 54.0385 99.4518 54.207 99.1513 54.2711C98.8504 54.3353 99.026 54.3522 99.0023 54.3607C98.8597 54.4111 98.2884 54.5558 98.2318 54.5676C95.6406 55.1142 93.2118 55.5398 90.695 56.111C90.4971 56.1558 90.6404 56.1792 90.6104 56.1866C89.939 56.3539 90.4413 56.1014 89.9615 56.157C90.0484 56.2481 89.7827 56.2856 89.2942 56.4036C89.0622 56.4598 89.1981 56.4727 89.1777 56.4815C88.8458 56.6178 88.5913 56.5901 88.5265 56.5873C88.2875 56.577 88.059 56.7006 87.8985 56.6941C87.7384 56.6879 88.074 56.5531 87.6232 56.6529C87.5043 56.7178 87.8636 56.7407 87.5195 56.8325C86.198 57.1827 83.7689 57.6438 82.6925 57.8809C81.6619 58.1063 81.2909 58.1986 80.6883 58.3235C79.5857 58.5535 79.9929 58.5321 79.3173 58.7219C78.6422 58.9121 78.9354 58.6669 78.8288 58.6537C78.7243 58.6402 78.6315 58.7012 78.5018 58.7108C78.3747 58.72 78.6339 58.633 78.3445 58.6935C78.0529 58.7544 77.2985 59.0013 77.2107 59.0617C77.0189 59.1911 77.3926 59.1892 76.6262 59.3415C76.5824 59.3502 76.7128 59.273 76.5456 59.3085C75.2486 59.5843 73.8582 59.9238 72.5619 60.2223C72.3789 60.2645 72.5296 60.1763 72.4231 60.2004C71.3214 60.4504 71.7523 60.4243 71.1656 60.6686C71.2723 60.5177 70.9127 60.5342 70.1024 60.7487C69.5993 60.8823 69.7004 60.909 69.3911 61.0296C69.297 61.0661 68.9501 61.1235 68.8865 61.166C68.6972 61.2995 69.0447 61.2951 68.1928 61.4925C68.1557 61.501 68.2609 61.4274 68.1336 61.4599C67.2972 61.6749 67.2355 61.7764 66.3333 62.0463C65.7428 62.2234 64.6816 62.5015 63.919 62.7276L63.8605 62.4916C63.9796 62.4722 64.0927 62.4534 64.198 62.4354C64.2042 62.5632 64.9792 62.3926 65.274 62.2515C65.8068 62.1589 66.3516 62.0559 66.8848 61.972C67.064 61.9438 66.9531 62.0002 66.9763 62C67.3319 61.9976 67.5472 61.8745 67.6609 61.8508C68.8689 61.6022 69.9347 61.4739 71.0752 61.2106C71.1159 61.2011 71.173 61.1067 71.5046 61.1095C71.526 61.1099 71.1365 61.2173 71.7011 61.1201C72.2718 61.0219 73.2942 60.8852 74.0836 60.7083C74.2706 60.6661 74.7323 60.5191 75.1142 60.5042C75.1651 60.5023 75.1147 60.5344 75.1886 60.5344C75.4239 60.5345 75.5474 60.4311 75.8396 60.4495C76.1333 60.4677 76.7214 60.4156 77.4803 60.2365C77.5055 60.2308 77.6836 60.1363 77.9317 60.0946C78.3284 60.0278 78.8837 59.9455 79.2833 59.8767C79.479 59.8431 79.3475 59.8268 79.3814 59.8203C80.7119 59.5723 81.6512 59.4486 83.0541 59.231C83.3196 59.1897 84.0597 59.0183 84.5553 58.9778C85.1164 58.9303 84.5846 59.1945 85.8388 58.949C86.328 58.8526 86.9705 58.5295 87.8906 58.5018C89.6624 58.2014 91.3278 58.0123 93.1105 57.7324C93.19 57.7198 93.4334 57.6303 93.627 57.6056C93.9108 57.5693 94.0683 57.5751 94.2683 57.5508C95.1081 57.4497 95.8744 57.3328 96.6912 57.2404C96.9992 57.2057 96.892 57.2441 97.2607 57.2031C97.6316 57.1622 97.8736 57.1011 98.3701 57.0637C98.7519 57.035 99.134 57.0625 99.6332 57.0194C99.6456 56.9519 99.9926 56.9175 100.599 56.8428C100.715 56.8284 100.588 56.8177 100.643 56.8098C100.868 56.777 101.081 56.7763 101.294 56.7445C101.346 56.7368 101.347 56.7147 101.389 56.7073C101.748 56.6429 102.353 56.6415 102.456 56.6415C102.853 56.6409 103.035 56.5986 103.338 56.5876C103.641 56.5767 103.191 56.627 103.544 56.6073C104.277 56.5663 105.217 56.497 105.959 56.4513C106.256 56.4329 106.052 56.4187 106.094 56.4154C106.708 56.3705 107.329 56.3635 107.667 56.2929C108.098 56.4052 108.036 56.2592 108.915 56.2431C108.984 56.242 109.074 56.2999 108.811 56.3222C108.547 56.3448 108.14 56.346 107.775 56.3807C107.69 56.3885 107.192 56.4773 107.124 56.4853C106.593 56.546 106.513 56.4538 106.484 56.45C106.16 56.4113 105.554 56.5168 105.395 56.5327C104.662 56.6035 104.038 56.6354 103.426 56.6993C103.025 56.7412 102.991 56.8124 102.677 56.8369C101.63 56.9204 101.255 56.856 100.28 57.0371C100.07 57.0766 100.289 57.1319 99.5239 57.1493C99.4768 57.1502 98.9125 57.1522 98.5896 57.2241C98.5491 57.2332 98.5529 57.2561 98.499 57.264C98.1398 57.3166 97.9025 57.3247 97.5095 57.3792C97.1114 57.4345 96.655 57.5029 96.2017 57.5507C95.9259 57.5799 95.5839 57.5776 95.4523 57.5831C95.0871 57.5969 94.6925 57.7013 94.4692 57.6913C94.2385 57.6818 94.6732 57.5646 94.0761 57.6168C94.0624 57.6835 94.0203 57.7557 93.9932 57.8247C92.6877 57.9982 91.4001 58.161 90.0968 58.3591C89.9351 58.3838 90.106 58.395 89.9324 58.4226C89.1857 58.5413 88.569 58.6099 87.7925 58.7425C87.2224 58.8407 86.5645 58.9866 85.9608 59.0954C85.5849 59.0738 84.6516 59.2543 84.0066 59.3544C83.7753 59.3902 83.7869 59.3657 83.6204 59.386C82.9889 59.464 83.2942 59.4884 83.1235 59.5289C82.4015 59.7018 82.3236 59.5429 81.4505 59.6949C81.3997 59.7035 80.8629 59.8883 80.7886 59.9071C80.311 60.0274 80.7037 59.8892 80.3985 59.9348C79.8422 60.0179 79.4293 60.0664 78.7961 60.2046C78.6087 60.2454 78.1619 60.3835 77.7774 60.4046C77.7269 60.4074 77.7489 60.3716 77.7087 60.3768C76.987 60.4721 76.9989 60.5709 76.598 60.6764C76.2011 60.7813 75.5493 60.8271 75.4181 60.8299C75.0805 60.8371 75.6693 60.7627 75.6911 60.7537C75.8982 60.6555 75.4271 60.7495 75.0894 60.8042C75.0231 60.7151 74.5397 60.8066 74.7306 60.863C74.7524 60.8689 75.0198 60.812 75.0894 60.8042C74.8045 60.9537 74.2746 61.062 73.6558 61.079C73.369 61.0863 73.6126 60.9913 72.7881 61.1574C72.4106 61.2335 72.5696 61.2761 72.2361 61.3556C71.4612 61.5397 70.4632 61.6533 69.6658 61.8085C69.3756 61.8651 69.666 61.8523 69.4677 61.8925C68.9329 62.0007 68.4799 62.0531 67.9601 62.1636C67.913 62.1737 68.0362 62.1936 67.8737 62.2239C66.6214 62.4583 65.5679 62.6244 64.2534 62.8656C64.1589 62.883 64.0532 62.903 63.9393 62.9248L63.7864 62.3077C64.3932 62.1086 65.2638 61.825 65.8064 61.6687C66.9139 61.347 68.2658 61.0351 69.2103 60.7625C69.8178 60.5872 69.6748 60.5795 69.9331 60.478C70.4195 60.2846 71.3588 60.149 71.4801 60.1353C71.489 60.1334 70.9524 60.2849 71.2458 60.2324C71.4283 60.2353 71.4728 60.1374 71.4801 60.1353C71.5536 60.1267 72.6278 59.8604 72.8315 59.8001C72.9428 59.7667 72.8691 59.7403 72.9275 59.7237C74.3495 59.3212 75.7416 58.9651 77.2013 58.6347C77.2265 58.6296 77.2005 58.6877 77.2597 58.675C78.0891 58.4986 78.6271 58.3074 79.2966 58.111C79.9818 57.9112 80.5293 57.7957 80.9541 57.7879C81.4727 57.6559 82.2329 57.5211 82.6617 57.4478C83.0959 57.3732 83.1357 57.26 83.173 57.2494C84.3391 56.9173 85.0468 56.8172 86.258 56.5558C86.8407 56.43 87.9957 56.1583 88.6208 56.009C89.1168 55.8902 89.4389 55.8447 89.8825 55.7314C89.9435 55.7159 89.8715 55.6836 89.8898 55.6777C90.3859 55.5114 90.1664 55.6772 90.2758 55.6743C90.6744 55.6637 90.9187 55.6515 91.5792 55.4722C91.728 55.4318 92.1267 55.1746 92.4005 55.1052C92.7562 55.0154 92.633 55.1035 93.0076 55.0077C93.0398 54.9995 93.0249 54.9648 93.2597 54.9158C94.3393 54.6899 95.5276 54.4578 96.6364 54.2181C96.7882 54.1854 96.581 54.1683 96.8004 54.12C97.8382 53.8918 98.9726 53.6539 99.9916 53.4686C100.244 53.4229 100.095 53.4976 100.152 53.4985C100.503 53.503 100.956 53.2945 101.029 53.277C102.859 52.8385 104.296 52.6438 106.186 52.2037C106.286 52.1802 107.046 51.8982 107.422 51.928C107.448 51.9299 107.82 51.9634 108.117 51.827C108.136 51.8185 107.905 51.8094 108.29 51.7359C108.684 51.6609 109.266 51.5033 109.803 51.456C109.971 51.4411 110.383 51.4677 110.864 51.2812C110.897 51.2685 111.625 50.9196 111.916 50.9984C111.965 51.0113 111.946 51.1616 112.517 50.9703C112.627 50.9335 112.416 50.9435 112.708 50.8637C113.155 50.7413 113.771 50.6556 114.322 50.4782C114.415 50.4477 114.805 50.2683 115.15 50.2744C115.204 50.2754 115.115 50.3428 115.291 50.3128C116.12 50.1715 117.024 49.9557 117.856 49.8226C118.156 49.7743 118.019 49.8824 118.334 49.8406C118.65 49.7988 119.286 49.6922 119.609 49.5903C119.933 49.4884 119.546 49.437 120.041 49.3273C122.152 48.8584 124.282 48.509 126.429 48.0937C126.693 48.0427 126.554 48.0387 126.759 47.9862L126.952 49.245C126.907 49.2525 126.845 49.2609 126.76 49.2706C124.98 49.4726 122.022 49.8398 120.48 49.905C119.267 49.955 120.776 49.7324 119.853 49.7985C119.408 49.8304 118.949 50.0324 118.843 50.0485C117.785 50.2103 117.036 50.2214 116.097 50.341C115.903 50.3658 116.1 50.4075 115.935 50.4279C115.371 50.4981 114.786 50.5315 114.228 50.5949C113.982 50.623 114.032 50.6657 113.805 50.6857C113.263 50.7339 112.786 50.7635 112.261 50.7729C112.213 50.7737 112.527 50.6815 112.132 50.7202C111.498 50.7825 110.694 50.8209 109.95 50.9434C109.731 50.9798 109.732 51.0899 109.253 51.0631C109.152 51.0576 109.264 50.9137 108.728 51.0831C108.635 51.1117 107.746 51.3576 107.277 51.306C107.153 51.2925 106.833 51.2166 106.569 51.2607C106.533 51.2671 106.683 51.3111 106.463 51.3394C105.689 51.4382 104.884 51.5142 104.106 51.6125C103.897 51.639 104.218 51.6678 103.901 51.7059C103.022 51.8116 101.937 51.9072 101.098 51.9742C100.788 51.9987 100.996 51.926 100.973 51.9228C100.606 51.8698 100.396 52.014 100.274 52.0337C99.5151 52.1547 98.9338 52.1572 98.2443 52.244C98.0541 52.2678 98.1952 52.3117 98.1578 52.3208C97.7702 52.4121 98.052 52.2776 97.8025 52.292C97.1115 52.331 96.3024 52.4202 95.5985 52.5017C95.3384 52.5319 95.638 52.5685 95.4047 52.5948C94.0443 52.7499 92.5642 52.9015 91.2321 53.0092C90.9799 53.0294 91.1326 52.9602 91.0785 52.9541C90.6988 52.9114 90.1723 53.084 90.0499 53.1085C89.4932 53.2199 89.2711 53.1981 88.7801 53.2617C86.3622 53.5748 83.387 53.894 81.1037 54.1641C80.8762 54.1909 80.6531 54.2172 80.4338 54.2431C77.7806 54.557 75.6143 54.8095 73.0133 55.2049C72.834 55.2321 73.0251 55.2735 72.8708 55.2979C70.8839 55.6088 68.9173 55.8919 66.93 56.2479C66.7669 56.277 67.0131 56.2996 66.7519 56.3483C66.216 56.4488 65.5353 56.5629 64.9891 56.6391C64.7227 56.6765 65.0681 56.5608 64.8001 56.5996C64.1765 56.6901 63.5082 56.8073 62.8753 56.935C62.6057 56.9896 63.0255 56.9755 62.6742 57.0415C60.2746 57.4955 57.9351 57.9745 55.5055 58.4273C55.3384 58.4584 55.1662 58.3757 54.8229 58.4752C54.8039 58.5127 54.8138 58.5497 54.8101 58.586C51.3461 59.3713 47.9156 60.1722 44.4758 61.0854C44.3293 61.1243 44.5962 61.1062 44.3125 61.1816C42.6994 61.6108 41.1029 62.0629 39.449 62.4887C39.283 62.5317 39.3457 62.4317 38.8624 62.5843C38.7794 62.6105 38.0388 62.8374 37.8619 62.9063C37.8374 62.9161 37.9788 62.9112 37.7473 62.9798C36.4069 63.3765 34.9399 63.8074 33.6008 64.1998C33.3814 64.2641 33.6045 64.1626 33.4481 64.2084C32.3327 64.5369 31.138 64.936 30.0828 65.2485C29.3714 65.4605 29.6186 65.3342 29.2284 65.417C29.1734 65.4288 28.7326 65.5737 28.7019 65.5587C28.6241 65.5212 28.8161 65.3855 28.7079 65.3539C28.6903 65.3485 28.3374 65.4779 28.3335 65.4669C28.3335 65.4669 28.3334 65.4669 28.3334 65.4669C28.3324 65.4636 28.3617 65.448 28.4387 65.4131C28.4626 65.4024 28.8857 65.243 28.9864 65.1955C29.0567 65.1623 28.9175 65.1846 29.0628 65.1225C29.2079 65.0604 29.3778 65.0235 29.6188 64.926C29.8592 64.8284 29.743 64.8372 30.2281 64.6631ZM84.6199 57.1142C85.0294 57.0727 85.0493 56.8831 84.627 57.0225C84.6067 57.0294 84.5989 57.1164 84.6199 57.1142ZM91.3982 58.0738C90.8631 58.0977 90.5037 58.2291 90.888 58.2138C91.2705 58.1985 91.5605 58.0664 91.3982 58.0738ZM96.8693 57.3169C96.2481 57.3516 96.1688 57.52 96.8262 57.4088C96.8643 57.4025 96.9055 57.3148 96.8693 57.3169ZM30.9584 64.8369C30.9528 64.8373 30.6413 64.9375 30.6342 64.9412C30.478 65.0239 31.1012 64.8245 30.9584 64.8369ZM102.32 56.7269C102.125 56.7236 101.569 56.795 101.811 56.7982C102.007 56.8002 102.564 56.7304 102.32 56.7269ZM105.475 52.8753C105.482 52.8769 105.717 52.8315 105.709 52.816C105.682 52.7665 105.359 52.8482 105.475 52.8753ZM111.622 56.1712C110.247 56.223 109.407 56.1565 110.908 56.1056C111.181 56.0965 110.322 56.1622 110.669 56.1571C111.312 56.1468 111.712 56.0686 112.369 56.0781C112.486 56.0795 111.699 56.1682 111.62 56.1715C111.621 56.1714 111.621 56.1713 111.622 56.1712ZM84.8968 57.2741C84.9051 57.2747 85.2276 57.2051 85.2351 57.201C85.3971 57.106 84.7471 57.2465 84.8968 57.2741ZM119.02 50.2713C119.038 50.2736 119.788 50.13 119.812 50.1197C120.182 49.9358 118.665 50.2263 119.02 50.2713ZM64.2116 62.4364C64.5603 62.3226 64.9821 62.2409 65.2724 62.2517C64.9234 62.3113 64.5693 62.3748 64.2116 62.4364Z" fill="black"/>
</svg>
